<?xml version="1.0" encoding="UTF-8"?>
<svg id="Livello_1" data-name="Livello 1" xmlns="http://www.w3.org/2000/svg" viewBox="0 0 951.83 814.68">
  <defs>
    <style>
      .cls-1 {
        fill: #e65a2c;
      }

      .cls-1, .cls-2, .cls-3, .cls-4, .cls-5, .cls-6 {
        stroke: #2f3534;
        stroke-linecap: round;
        stroke-linejoin: round;
        stroke-width: 9px;
      }

      .cls-7 {
        fill: #fff;
      }

      .cls-2 {
        fill: #ffd13f;
      }

      .cls-3 {
        fill: #659ab4;
      }

      .cls-4 {
        fill: #fcf2e0;
      }

      .cls-5 {
        fill: #fefaf7;
      }

      .cls-6 {
        fill: #e9dbd4;
      }
    </style>
  </defs>
  <g>
    <path class="cls-7" d="M337.54,194.55c-10.35-14.08-32.82-30.3-52.65-44.61-5.02-3.62-10.82-7.81-14.95-10.98h12.53V34.26c0-18.89-15.37-34.26-34.26-34.26H119.64c-18.89,0-34.26,15.37-34.26,34.26v104.7h12.53c-4.13,3.17-9.93,7.36-14.95,10.98-19.83,14.31-42.3,30.53-52.66,44.61-1.11,1.52-2.21,2.97-3.3,4.4C10.2,221.15,0,239.88,0,312.68v439.39c0,34.52,28.09,62.61,62.62,62.61h242.6c34.53,0,62.62-28.09,62.62-62.61v-439.39c0-72.8-10.2-91.53-27.01-113.72-1.08-1.43-2.18-2.88-3.3-4.4Z"/>
    <polygon class="cls-7" points="881.13 61.76 528.93 61.76 458.66 171.74 458.66 809.24 823.26 809.24 951.83 781.91 951.83 146.43 881.13 61.76"/>
  </g>
  <g>
    <path class="cls-3" d="M116.91,16.81h134.03c8.13,0,14.72,6.6,14.72,14.72v90.63H102.18V31.53c0-8.13,6.6-14.72,14.72-14.72Z"/>
    <path class="cls-5" d="M351.04,312.68H16.81c0-78.71,12.52-88.4,27.05-108.17,14.54-19.78,66.6-51.27,72.26-59.33,5.64-8.07,3.63-23.02,3.63-23.02h128.37s-2.02,14.94,3.63,23.02c5.66,8.06,57.72,39.56,72.26,59.33,14.53,19.78,27.05,29.47,27.05,108.17Z"/>
    <rect class="cls-1" x="16.81" y="426.71" width="334.24" height="210.71"/>
    <path class="cls-2" d="M351.04,637.42v114.65c0,25.29-20.51,45.81-45.82,45.81H62.62c-25.3,0-45.82-20.51-45.82-45.81v-114.65h334.24Z"/>
    <rect class="cls-2" x="16.81" y="312.68" width="334.24" height="114.03"/>
    <polygon class="cls-4" points="475.46 176.65 538.13 78.56 873.27 78.56 821.5 176.65 475.46 176.65"/>
    <rect class="cls-4" x="475.46" y="176.65" width="346.03" height="615.78"/>
    <polygon class="cls-6" points="821.5 176.65 935.03 152.52 935.03 768.3 821.5 792.43 821.5 176.65"/>
    <polygon class="cls-6" points="873.27 78.56 821.5 176.65 935.03 152.52 873.27 78.56"/>
    <rect class="cls-1" x="475.46" y="312.68" width="346.03" height="293.56"/>
  </g>
</svg>