<?xml version="1.0" encoding="UTF-8"?>
<svg id="Livello_1" data-name="Livello 1" xmlns="http://www.w3.org/2000/svg" viewBox="0 0 1099.05 977.96">
  <defs>
    <style>
      .cls-1 {
        fill: #e5aa89;
      }

      .cls-2 {
        fill: #312f2c;
      }

      .cls-3 {
        fill: #3a89ff;
      }

      .cls-4 {
        fill: #fff;
      }

      .cls-5 {
        fill: #2f2f2f;
      }

      .cls-6 {
        fill: #42362e;
      }

      .cls-7 {
        fill: #3f4142;
      }

      .cls-8 {
        fill: #fffcf6;
      }

      .cls-9 {
        fill: #2866d8;
      }

      .cls-10 {
        fill: #4c3424;
      }

      .cls-11 {
        fill: #1d1d1b;
      }

      .cls-12 {
        fill: #b37660;
      }

      .cls-13 {
        fill: #523826;
      }

      .cls-14 {
        fill: #f2b68f;
      }
    </style>
  </defs>
  <g>
    <path class="cls-4" d="M975.99,0l-272.03.04c-67.85,0-123.06,55.2-123.06,123.06v53.09c0,39.82,19.58,77.31,51.73,100.25l-10.48,54.2-.04.22c-1.46,8.22,2.46,16.47,9.76,20.51,2.89,1.6,6.16,2.45,9.47,2.45,4.8,0,9.39-1.75,12.94-4.92l56.48-49.69h265.23c67.85,0,123.06-55.2,123.06-123.06v-53.09c0-67.85-55.2-123.06-123.06-123.06Z"/>
    <path class="cls-4" d="M788.76,749.5c-11.66-33.43-106.94-227.78-111-236.04l-6.65-13.57-10.58,5.29c-2.55-9.68-5.17-20.32-6.01-25.97-.09-.6-.24-1.89-.39-3.26-1.59-14.1-6.36-56.28-30.29-101.16l-1.88-3.46c-.65-1.18-1.32-2.37-2-3.54l-2.13-3.64c-8.2-13.68-17.71-26.49-28.28-38.06-2.08-2.28-4.17-4.48-6.2-6.53-4.93-5-10.16-9.84-15.62-14.46.23-1.52.34-3.07.34-4.63v-42.99c0-14.58-10.05-26.86-23.6-30.26-.77-7.01-1.52-12.53-2.05-16.15,7.15-15.5,28.19-66.99,13.37-108.19-7.17-19.94-21.33-34.56-42.06-43.43-40.03-17.13-94.64-25.16-142.54-20.95-56.79,4.99-98.17,26.25-117.05,60.01-13.51,10.72-58.78,55.06-34.86,152.92-19.81,28.34-25.78,54.2-17.72,76.94,9.53,26.92,36.18,40.54,51.01,46.21,2.34,11.87,7.61,24.59,10.73,31.48-1.42,9.9-2.35,19.38-2.78,28.38l-.18-.03v4.81c-.03,1.16-.06,2.31-.07,3.46-20.98,10.59-75.61,38.47-103.21,55.42-3.47,2.13-7.19,4.29-11.12,6.57-34.4,19.99-81.52,47.36-104.31,133.34C17.17,730.32.43,918.43.11,962.86l-.11,15.11h449.07s115.93,0,115.93,0l-4.33-158.73,87.86,67.45c16.18,12.42,35.12,19.25,54.78,19.76,18.26.47,36.26-4.43,52.15-14.16,15.87-9.73,28.41-23.56,36.25-39.99,8.46-17.72,10.96-37.68,7.24-57.72-4.31-23.19-7.55-37.51-10.19-45.07ZM484.23,488.78c-8.92-2.13-18.77-4.92-28.68-8.54,6.79-2.62,13.25-5.82,19.35-9.59,2.27,5.37,5.29,11.48,9.33,18.13Z"/>
  </g>
  <g>
    <polygon class="cls-4" points="275.34 451.89 410.06 473.99 430.68 503.98 486.6 795.04 449.07 962.96 321.92 962.96 270.6 608.15 275.34 451.89"/>
    <g>
      <g>
        <path class="cls-8" d="M975.99,18.52h-272.03c-57.76,0-104.57,46.81-104.57,104.57v53.09c0,39.32,21.72,73.55,53.79,91.4l-12.86,66.51c-.17.98.98,1.64,1.71.98l61.77-54.34h272.2c57.76,0,104.57-46.81,104.57-104.57v-53.09c0-57.76-46.81-104.57-104.57-104.57v.03Z"/>
        <path class="cls-11" d="M641.34,338.81c-.75,0-1.5-.19-2.19-.57-1.7-.94-2.61-2.86-2.27-4.77l12.4-64.11c-32.99-19.38-53.38-54.85-53.38-93.18v-53.09c0-59.58,48.47-108.06,108.06-108.06l272.03-.04c59.58,0,108.06,48.48,108.06,108.06v53.09c0,59.58-48.47,108.06-108.06,108.06h-270.89l-60.78,53.48c-.82.74-1.89,1.13-2.98,1.13ZM639.72,332.44s-.03.03-.05.04l.05-.04ZM703.96,22.01c-55.74,0-101.09,45.35-101.09,101.09v53.09c0,36.65,19.92,70.5,51.99,88.35l2.21,1.23-11.98,61.95,57.38-50.48h273.52c55.74,0,101.09-45.35,101.09-101.09v-53.09c0-55.12-44.34-100.08-99.23-101.07l-1.86.02h-272.03Z"/>
      </g>
      <path class="cls-11" d="M963.68,125.85h-253.34c-1.93,0-3.49-1.56-3.49-3.49s1.56-3.49,3.49-3.49h253.34c1.93,0,3.49,1.56,3.49,3.49s-1.56,3.49-3.49,3.49Z"/>
      <path class="cls-11" d="M864.58,176.88h-154.24c-1.93,0-3.49-1.56-3.49-3.49s1.56-3.49,3.49-3.49h154.24c1.93,0,3.49,1.56,3.49,3.49s-1.56,3.49-3.49,3.49Z"/>
    </g>
    <path class="cls-3" d="M657.66,874.78l-107.96-82.88-3.6-2.77-1.29-.99,4.77,174.82h-100.51s5.36-189.37-4.6-301.97c-9.87-111.71-34.03-185.84-34.4-186.99,43.72,30.52,109.47,36.1,109.47,36.1l46.1,48.77,6.2,6.55.55.59,91.91-45.95s98.81,201.44,110.3,234.38c2.52,7.22,5.88,22.85,9.6,42.87,13.29,71.58-68.79,121.8-126.54,77.47Z"/>
    <path class="cls-1" d="M650.89,526.76l-78.5,39.25-52.85-55.91c-34.09-36.06-36.41-64.59-36.41-64.59l49.54-147.58c15.5,9.81,28.72,20.7,40,32.15,2,2.02,3.93,4.06,5.8,6.11,10.59,11.6,19.3,23.66,26.49,35.66h0c1.35,2.26,2.64,4.5,3.88,6.74h0c26.95,48.66,29.62,94.65,30.84,102.83,1.93,12.94,11.21,45.34,11.21,45.34Z"/>
    <path class="cls-12" d="M578.47,336.19c-7.58-2.91-23.17-7.35-31.42,1.25-.77.8-2.03.82-2.83.06-.8-.77-.82-2.03-.06-2.83,7.6-7.93,19.56-6.94,28.51-4.59,2,2.02,3.93,4.06,5.8,6.11Z"/>
    <path class="cls-12" d="M608.84,378.59c-13.96-8.19-34.62-17.03-40.34-10.63-.74.82-2,.89-2.82.16-.83-.74-.9-2-.16-2.83,7.51-8.4,27.29.09,39.44,6.56h0c1.35,2.26,2.64,4.5,3.88,6.74Z"/>
    <path class="cls-12" d="M588.17,500.44c-.78,0-1.51-.46-1.84-1.21-14.92-34.85-7.08-52.63-6.73-53.37.46-1,1.65-1.44,2.65-.98,1,.46,1.44,1.65.98,2.65-.11.24-7.33,17.19,6.78,50.13.43,1.02-.04,2.19-1.05,2.63-.26.11-.52.16-.79.16Z"/>
    <path class="cls-7" d="M495.33,431.98l34.98,53.35c7.17,10.94,23.24,10.82,30.25-.22l38.82-61.15c2.12-3.34,2.04-7.63-.2-10.89l-69.34-100.83-34.51,119.74Z"/>
    <path class="cls-2" d="M532.67,488.23l47.84-69.11c2.95-4.26,4.92-9.11,5.78-14.21l1.43-8.5-57.89-84.18-34.51,119.74,37.34,56.25Z"/>
    <path class="cls-9" d="M649.45,786.01c.05,1.1-.8,2.04-1.91,2.09h-.09c-1.06,0-1.95-.84-2-1.91-3.51-75.78-79.45-223.46-80.22-224.95-.41-.81-.22-1.77.41-2.37l6.2,6.55c14.32,28.67,74.47,152.75,77.61,220.59Z"/>
    <path class="cls-9" d="M550.12,790.66c0,.47-.15.9-.42,1.24l-3.6-2.77c-.17-13.26-1.44-106.09-3.78-124.82-.14-1.1.64-2.1,1.73-2.24,1.1-.14,2.1.64,2.24,1.74,2.53,20.3,3.78,122.51,3.83,126.85Z"/>
    <path class="cls-14" d="M531.34,144.45l-4.46,64.27s45.16,259.76-116.82,265.27c0,0,4.89,14.43,4.24,34.78-.65,20.35-26.09,34.35-56.2,33.1-30.11-1.28-99.29-10.82-79.29-138.07,0,0-12.74-26.14-12.42-40.46,0,0-95.44-23.53-30.84-108.78l8.26-29.57,61.39-21.63,23.53-71.88,121.2,26.41,81.41-13.34v-.11Z"/>
    <path class="cls-10" d="M526.91,208.72s53.75-104.32-19.08-135.49c-72.83-31.17-207.37-33.4-242.04,35.3,0,0-59.48,38.18-30.22,146.01,0,0,24.81-18.13,60.11,31.17,0,0,12.42-30.22,9.21-65.84,0,0,34.02-30.54,30.22-80.46,0,0,100.52,48.67,188.29,23.83l3.48,45.49h.03Z"/>
    <path class="cls-5" d="M423.4,403.75c10,0,20.05-1.96,29.35-5.71,1.28-.52,1.9-1.96,1.36-3.23-.52-1.28-1.96-1.9-3.23-1.36-9.95,4.02-20.79,5.82-31.36,5.24-16.25-.9-28.7-7.04-36.3-12.01-1.14-.76-2.69-.43-3.45.73-.76,1.14-.43,2.69.73,3.45,8.1,5.33,21.41,11.85,38.78,12.8,1.36.08,2.77.14,4.16.14h0l-.03-.05Z"/>
    <path class="cls-10" d="M517.34,232.88s-1.68-11.03-20.35-12.09c-18.67-1.06-28.61.84-27.99,6.06s18.23,2.23,27.55,2.85,14.62,1.49,20.79,3.18h0Z"/>
    <path class="cls-10" d="M354.03,232.88s1.68-11.03,20.35-12.09c18.67-1.06,28.61.84,27.99,6.06-.62,5.22-18.23,2.23-27.55,2.85s-14.62,1.49-20.79,3.18h0Z"/>
    <path class="cls-6" d="M487.78,270.62c2.45-2.23,5.68-3.53,9.21-3.53,7.64,0,13.83,6.2,13.83,13.86s-6.2,13.83-13.83,13.83c-5.57,0-10.41-3.32-12.58-8.07-.82-1.74-1.28-3.72-1.28-5.76,0-4.1,1.79-7.8,4.65-10.33Z"/>
    <path class="cls-6" d="M379.38,270.62c2.45-2.23,5.68-3.53,9.21-3.53,7.64,0,13.83,6.2,13.83,13.86s-6.2,13.83-13.83,13.83c-5.57,0-10.41-3.32-12.58-8.07-.82-1.74-1.28-3.72-1.28-5.76,0-4.1,1.79-7.8,4.65-10.33Z"/>
    <path class="cls-5" d="M444.65,360.9c6.03,0,9.35-.54,12.93-1.9,2.85-1.06,7.58-2.85,10.6-7.72,1.52-2.47,2.39-5.9,2.5-9.95.16-5.54-1.28-9.4-3.21-14.73l-.76-2.09c-2.74-7.64-5.11-14.24-6.25-20.98-.79-4.73-1.01-9.59-.62-14.46.11-1.36-.92-2.55-2.28-2.69-1.39-.14-2.55.92-2.69,2.28-.43,5.24-.19,10.54.68,15.68,1.2,7.2,3.64,13.97,6.47,21.85l.76,2.12c1.9,5.16,3.02,8.29,2.91,12.88-.08,3.13-.71,5.76-1.74,7.45-2.12,3.45-5.73,4.78-8.1,5.68-4.1,1.55-7.88,1.85-18.29,1.39-6.09-.24-12.23-.68-18.32-1.28-1.39-.14-2.58.87-2.72,2.26s.87,2.58,2.26,2.72c6.17.6,12.45,1.03,18.59,1.28,2.85.14,5.24.19,7.34.19h-.05v.03Z"/>
    <path class="cls-13" d="M343.56,241.25h66.39c8.91,0,16.2,7.28,16.2,16.2v8.51c3.8-1.74,8.7-3.21,14.54-3.21h.19c5.33,0,9.86,1.3,13.42,2.8v-8.07c0-8.91,7.28-16.2,16.2-16.2h66.39c8.91,0,16.2,7.28,16.2,16.2v42.99c0,8.91-7.28,16.2-16.2,16.2h-66.39c-8.91,0-16.2-7.28-16.2-16.2v-26.63c-3.02-1.68-7.64-3.59-13.45-3.61h-.16c-6.39,0-11.36,2.23-14.54,4.18v26.06c0,8.91-7.28,16.2-16.2,16.2h-66.39c-8.91,0-16.2-7.28-16.2-16.2v-42.99c0-8.91,7.28-16.2,16.2-16.2h0v-.03ZM461.77,300.43c0,4.81,3.91,8.72,8.72,8.72h66.39c4.81,0,8.72-3.91,8.72-8.72v-42.99c0-4.81-3.91-8.72-8.72-8.72h-66.39c-4.81,0-8.72,3.91-8.72,8.72v42.99ZM334.84,300.43c0,4.81,3.91,8.72,8.72,8.72h66.39c4.81,0,8.72-3.91,8.72-8.72v-42.99c0-4.81-3.91-8.72-8.72-8.72h-66.39c-4.81,0-8.72,3.91-8.72,8.72,0,0,0,42.99,0,42.99Z"/>
    <path class="cls-3" d="M321.92,962.96H15.11c.34-47.31,17.28-231.5,41.02-321.12,23.75-89.61,75.07-110.29,108.77-130.97,33.7-20.69,110.44-58.99,110.44-58.99,0,0,36.62,209.88,41.98,255.54,5.37,45.66,4.6,255.54,4.6,255.54Z"/>
    <path class="cls-9" d="M196.51,683.09c-.39,5.5-2.53,19.85-5.48,39.72-4.67,31.41-11.73,78.88-16.48,123.25-5.6,52.28-6.55,97.01-6.66,116.9h-4c.11-19.99,1.06-64.88,6.68-117.33,4.76-44.45,11.83-91.96,16.5-123.41,2.94-19.78,5.07-34.07,5.45-39.41.08-1.1,1.03-1.92,2.14-1.85,1.1.07,1.93,1.03,1.85,2.13Z"/>
  </g>
</svg>