<?xml version="1.0" encoding="UTF-8"?>
<svg id="Livello_1" xmlns="http://www.w3.org/2000/svg" version="1.1" viewBox="0 0 927.3 858.3">
  <!-- Generator: Adobe Illustrator 29.0.1, SVG Export Plug-In . SVG Version: 2.1.0 Build 192)  -->
  <defs>
    <style>
      .st0 {
        fill: none;
      }

      .st0, .st1, .st2, .st3, .st4, .st5, .st6 {
        stroke: #2f3534;
        stroke-width: 6px;
      }

      .st0, .st5 {
        stroke-linecap: round;
        stroke-linejoin: round;
      }

      .st1 {
        fill: #164a74;
      }

      .st1, .st2, .st3, .st4, .st6 {
        stroke-miterlimit: 10;
      }

      .st7 {
        fill: #fff;
      }

      .st8 {
        fill: #f4efe8;
      }

      .st2 {
        fill: #1b63a7;
      }

      .st3 {
        fill: #3b956b;
      }

      .st9, .st5 {
        fill: #2f3534;
      }

      .st10 {
        fill: #f9ae2c;
      }

      .st4 {
        fill: #f7b991;
      }

      .st6 {
        fill: #e6482c;
      }
    </style>
  </defs>
  <g>
    <path class="st7" d="M158.4,299.9c69,0,125.2-56.1,125.2-125.2s-56.1-125.2-125.2-125.2-125.2,56.2-125.2,125.2,56.2,125.2,125.2,125.2Z"/>
    <path class="st7" d="M824,356.4c-34.3-27.1-76-41.4-120.6-41.4s-25.4,1.3-35.3,2.9c1.4-3.3,2.7-6.7,3.9-10.1,2.4.2,5,.4,7.7.4,19,0,34.3-7.2,44.2-20.7,10.1-13.8,16-30.3,16.5-46.6.5-14.3-3.2-27.2-10.6-37.4,12.4-42.9,10.5-77.6-5.9-103.3-13.7-21.5-34.1-30.8-46.5-34.6-5.5-17.3-17.7-32.7-35-44.1C621,7.4,592.5,0,559.9,0s-18.8.6-28.6,1.8c-31.1,3.7-72.5,20-108,42.4-23.6,15-63.9,45.1-67.8,78.6-1.4,12.2,1.2,33.6,31.1,48.5-1.4,26.8-3.3,95.1,10.3,137.9,7.4,23.4,22.8,44.6,44.4,61.6,10.4,8.1,21.9,15,34,20.2-40.4,13.4-63.2,32.6-83.8,49.9-3.3,2.7-6.3,5.3-9.5,7.9-22.9,18.7-38.1,50.7-45.4,69.1H31c-9.2,0-17.9,4-23.8,11.1-5.9,7.1-8.3,16.3-6.7,25.4l50.9,278.5c2.7,14.7,15.5,25.4,30.5,25.4h575.4c2.5-.3,8.7-1.1,14.7-4.1,10.5,2.1,26.3,4.1,49,4.1s8.3,0,12.6,0c4.5,0,9,0,13.5,0,21.3,0,43.6-.4,62.5-3.2h117.9v-296.7c0-79.9-34.8-147.9-103.3-202h0Z"/>
  </g>
  <g>
    <circle class="st10" cx="158.4" cy="174.7" r="109.7"/>
    <path class="st3" d="M644.3,339.6s90.5-34.1,170.2,28.9c79.6,62.9,97.5,133.6,97.5,189.9v281.2h-133.8v-227.8l-151.3-217.8,17.5-54.4h0Z"/>
    <path class="st6" d="M699.7,556.2c3.3,29,19.5,127,19.5,127,31.2-11.1,150.9-20,150.9-20,0,0-7.2-55.1-17.3-94.7s-24-89.1-78.9-131.8c-55-42.7-125-50.5-125-50.5,0,0-73.2-1.9-138.3,11.5-65.1,13.4-90.1,39.7-118.7,63.1-28.6,23.4-44.9,73.9-44.9,73.9l68.7,39.9s4.5-14.2,5-40c0,0-1.4,38.8-9.5,57.2l36.8,170.4h205.5l94.1-26.7c5.2-18,10.4-36,15.6-54-14.7.6-29.3,1.1-44,1.7-6.5-42.3-13-84.7-19.5-127h0Z"/>
    <path class="st4" d="M731.1,679.8s3.2,34.1,5,49h30.8-35.8s-73,3.3-110.8,12.2c0,0-40.1-21.9-82.8-21.9s-81.7,37.5-81.7,37.5l14.1,60.1h175.6s13.7-.7,13.7,17.5c0,0,14.8,8.5,61.6,8.5s106.5,2.2,123.6-18.2,17.8-30.8,18.6-43.1c.7-12.2.7-85.8-8.9-117.1-19.6.2-41.5,1.5-65.3,4.7-21.2,2.8-40.5,6.6-57.7,10.8h0Z"/>
    <path class="st4" d="M511.8,386.1s-4.1,21.5,2.2,35.6,19,35.3,49,34.2c30-1.1,46-9.3,60.5-21.2s24.1-33,25.2-43.8-5.6-58.8-5.6-58.8l-131.4,54h0Z"/>
    <path class="st0" d="M530,744.8s-28.2,4.8-43.4,21.5c-15.2,16.7-21.4,30.4-21.4,30.4"/>
    <path class="st0" d="M553,765.9s-32.3,12.2-42.7,22.3c-10.4,10-16.7,22.7-17.5,28.6"/>
    <path class="st2" d="M655.9,816.8h-185.1l-49.4-270.8c-1.3-7.4-7.8-12.7-15.2-12.7H31c-9.7,0-17,8.8-15.2,18.3l50.9,278.5c1.3,7.4,7.8,12.7,15.2,12.7h574.1s13.7-1.2,13.7-8.6-4.5-17.5-13.7-17.5h0Z"/>
    <path class="st8" d="M263.7,688.1c-4-22.1-22.7-40-41.7-40s-31.1,17.9-27.1,40c4,22.1,22.7,40,41.7,40s31.1-17.9,27.1-40Z"/>
    <path class="st5" d="M523,816.8s18.6-16.2,40.8-16.2,7.8,8.9,37.9,16.2h-78.7Z"/>
    <path class="st4" d="M402.9,161.3s-7.2,92.4,8.9,143.1,74.1,84.6,122.5,83.5c48.5-1.1,106.9-21.7,127-98,0,0,33.4,11.1,50.1-11.7s18.9-54.6,1.1-71.3c-17.8-16.7-61.8-4.5-56.8,18.4l-37.3-112.5c-59.7,13.4-119.4,26.8-179.1,40.3-12.1,2.7-24.3,5.4-36.4,8.2Z"/>
    <path class="st9" d="M498.9,290.5c-8.6,0-24.7,0-24.7-15.8s14.4-34.9,16.1-37.6c.9-1.5,3-2,4.5-1.1,1.5.9,2,2.9,1.1,4.5-4.2,6.9-15.1,26.5-15.1,34.2s2.8,9.3,18.2,9.3,3.3,1.5,3.3,3.3-1.5,3.3-3.3,3.3h0Z"/>
    <path class="st9" d="M511.6,326.7c-13.2,0-24.1-5.1-24.8-5.4-1.6-.8-2.3-2.7-1.5-4.4.8-1.6,2.7-2.3,4.4-1.5h0c.2,0,19.4,9,35.9,2.2,16.7-7,24.8-21.2,24.8-21.4.9-1.6,2.9-2.2,4.4-1.3s2.2,2.9,1.3,4.4c-.4.7-9.1,16.4-28.1,24.3-5.5,2.3-11.2,3.1-16.5,3.1h0Z"/>
    <ellipse class="st9" cx="452" cy="224" rx="13.5" ry="19.5"/>
    <ellipse class="st9" cx="548.3" cy="222.2" rx="13.5" ry="19.5"/>
    <path class="st9" d="M674.1,267.9c-1,0-2.1-.5-2.7-1.4-1-1.5-.6-3.5.9-4.5,0,0,6.6-4.5,10.9-10.4,4.2-5.7,6.4-16.1,6.4-16.2.4-1.8,2.1-2.9,3.8-2.6,1.8.4,2.9,2.1,2.6,3.9,0,.5-2.4,11.9-7.5,18.9-5,6.8-12.2,11.7-12.5,11.9-.6.4-1.2.6-1.8.6h0Z"/>
    <path class="st1" d="M612.3,125.1s-111.9,71.8-209.4,36.2c-97.5-35.6,50.7-134.8,130.3-144.2,79.6-9.5,125.3,23.4,131.4,61.3,0,0,86.3,10.6,47.9,128.6,0,0-42.3-17.3-56.8,18.4,0,0-50.7-29.5-43.4-100.2h0Z"/>
  </g>
</svg>