<?xml version="1.0" encoding="UTF-8"?>
<svg id="Livello_1" data-name="Livello 1" xmlns="http://www.w3.org/2000/svg" viewBox="0 0 998.7 795.76">
  <defs>
    <style>
      .cls-1 {
        fill: #4a4a4a;
      }

      .cls-2 {
        fill: #505050;
      }

      .cls-3 {
        fill: #3a89ff;
      }

      .cls-4 {
        fill: #494949;
      }

      .cls-5 {
        fill: #f56e41;
      }

      .cls-6 {
        fill: #fff;
      }

      .cls-7 {
        fill: #297cfe;
      }

      .cls-8 {
        fill: #e9e9e9;
      }

      .cls-9 {
        fill: #83807b;
      }

      .cls-10 {
        fill: #ec9e49;
      }

      .cls-11 {
        fill: #2f2f2f;
      }

      .cls-12 {
        fill: #f9f9f9;
      }

      .cls-13 {
        fill: #ffaf22;
      }

      .cls-14 {
        fill: #42362e;
      }

      .cls-15 {
        fill: #73c982;
      }

      .cls-16 {
        fill: #da8741;
      }

      .cls-17 {
        fill: #2866d8;
      }

      .cls-18 {
        fill: #4c3424;
      }

      .cls-19 {
        fill: #b37660;
      }

      .cls-20 {
        fill: #d9d5cc;
      }

      .cls-21 {
        fill: #ffd92e;
      }

      .cls-22 {
        fill: #ffdf86;
      }

      .cls-23 {
        fill: #523826;
      }

      .cls-24 {
        fill: #f2b68f;
      }

      .cls-25 {
        fill: #8d8884;
      }

      .cls-26 {
        fill: #fcb758;
      }

      .cls-27 {
        fill: #ffcc2c;
      }
    </style>
  </defs>
  <g>
    <path class="cls-6" d="M998.7,502.57h-22.38l9.42-81.14c2.78-23.92-10.28-46.41-31.68-56.1-3.61-24.33-7.95-45.03-12.93-61.6-7.15-23.77-15.57-38.77-25.76-45.85-27.47-19.08-79.03-43.7-96.75-51.97-.21-2.09-.47-4.21-.76-6.36,1.62-3.66,3.82-9.16,5.12-14.68,8.67-3.55,22.15-11.23,27.35-25.92,4.54-12.82,1.53-27.14-8.95-42.65,12-51.39-11.25-75.85-19.5-82.68-12.34-21.41-40.73-33.62-78.49-33.62-22.4,0-45.45,4.37-63.25,11.99-11.73,5.02-20.09,13.67-24.17,25.01-8.09,22.48,2.35,49.35,6.78,59.09-.21,1.49-.46,3.34-.71,5.49-7.48,2.88-12.8,10.13-12.8,18.61v22.82c0,8.3,5.1,15.43,12.32,18.43,4.47,38.13,19.1,64.36,42.35,76.8-16.5,8.57-35.84,19.82-44.78,29.51-15.01,16.26-47.36,87.54-60.28,123.19-6.63-3.45-15.32-7.94-24.15-12.41-26.38-13.35-36.54-17.72-41.33-19.18-3.52-4.09-13-14.53-22.71-20.35-6.88-4.13-21.36-10.53-38.18-17.85-5.36-2.33-10.9-4.75-12.32-5.48-3.79-1.96-17.18-12.33-19.82-14.96-4.03-4.03-10.6-6.63-16.75-6.63s-11.31,2.67-14.16,7.3c-7.46,11.99-2.33,20.97,3.27,26.39,1.05,1.01,2.57,2.63,4.34,4.5,4.1,4.33,9.5,10.04,16,15.9-11.4,6.56-27.8,15.42-40.76,20.01-6.26,2.22-25.3,8.98-27.14,23.28-.81,6.29,2.09,12.49,7.53,16.19,3.5,2.38,7.82,2.71,11.96,2.71,8.45,0,22.56-1.75,32.82-3.51,1.52,3.51,3.93,6.65,7.33,9.03.98,10.62,8.05,18.62,19.3,21.2,6.29,1.44,14.35,2.23,22.7,2.23,5.15,0,13.13-.32,21.3-1.89.23.39.48.77.75,1.15,1.55,2.16,3.66,3.81,6.01,4.78l86.19,55.91c1.87,1.21,3.78,2.32,5.74,3.34h-155.42l-130.88,106.28v62.7h53.21l-14.81,124.21h60.04l15.83-124.21h121.76c-12.17,17.64-17.83,39.2-15.67,60.76l6.33,63.45h133.5l-6.66-61.07,9.8-3c-.34,7.75-.21,17.48.37,29.12.38,7.53.94,15.79,1.67,24.55l.87,10.4h136.17l-6.26-58.67,15.59-6.05h49.95l9.19,64.72h39.23l-8.27-68.4c1.71-.49,3.43-1.02,5.13-1.6l8.92,70.01h60.04l-14.81-124.21h37.15v-168.98ZM650.55,501.88l-.06.7h-1.25c.44-.23.88-.46,1.31-.7Z"/>
    <path class="cls-6" d="M81.97,146.3c1.67,7.27,8.07,12.35,15.54,12.35h0c4.54,0,8.88-1.96,11.9-5.37l58.46-66.03c3.69-4.17,4.93-9.84,3.32-15.18-1.62-5.33-5.8-9.36-11.19-10.78l-78.41-20.63c-1.33-.35-2.7-.53-4.07-.53-4.87,0-9.4,2.19-12.45,6.02-3.03,3.81-4.15,8.73-3.05,13.48l19.95,86.67Z"/>
    <path class="cls-6" d="M231.24,129.17l91.08,10.37c.6.07,1.21.1,1.81.1h0c8.21,0,15.01-6.16,15.84-14.33l8.85-87.73c.43-4.25-.9-8.56-3.64-11.83-2.74-3.27-6.76-5.33-11.02-5.65l-89.61-6.67c-.4-.03-.79-.04-1.19-.04-8.03,0-14.82,6.01-15.8,13.98l-10.32,84.02c-.52,4.25.65,8.44,3.3,11.8,2.65,3.36,6.45,5.48,10.71,5.96Z"/>
    <path class="cls-6" d="M153.66,199.18l23.91,31.22c3.04,3.97,7.65,6.24,12.64,6.24h0c3.95,0,7.75-1.46,10.68-4.12l27.7-25.06c5.75-5.2,6.92-13.74,2.79-20.29l-22.57-35.85c-2.93-4.66-7.97-7.44-13.48-7.44-4.32,0-8.36,1.7-11.38,4.79l-29.04,29.7c-5.5,5.62-6.04,14.57-1.26,20.82Z"/>
    <path class="cls-6" d="M21.63,153.59c11.2,0,20.31-9.11,20.31-20.31s-9.11-20.31-20.31-20.31S1.32,122.08,1.32,133.28s9.11,20.31,20.31,20.31Z"/>
    <path class="cls-6" d="M72.95,321.61c2.63,0,5.22-.15,7.77-.42-2.43,2.51-3.92,5.75-4.24,9.28-.36,4.08.88,8.06,3.51,11.2,14.86,17.76,30.13,26.77,45.38,26.77,1.03,0,2.07-.04,3.08-.12,17.42-1.41,28.24-13.85,36.93-23.86,8.13-9.35,13.49-15.14,21.04-16.2.81-.11,1.64-.17,2.48-.17,5.29,0,11.27,2.24,17.77,6.64,2.55,1.73,5.53,2.65,8.6,2.65h0c5.1,0,9.84-2.52,12.69-6.73,2.3-3.39,3.14-7.47,2.37-11.5-.77-4.02-3.07-7.5-6.45-9.8-11.68-7.92-23.44-11.93-34.94-11.93-2.27,0-4.54.16-6.77.47-19.3,2.7-30.74,15.87-39.93,26.46-7,8.06-11.54,13.02-16.25,13.4-.2.02-.41.02-.62.02-5.51,0-13.47-5.75-21.86-15.77-1.73-2.07-3.95-3.6-6.41-4.52,28.38-9.99,48.79-37.06,48.79-68.82,0-40.23-32.73-72.95-72.95-72.95S0,208.43,0,248.66s32.73,72.95,72.95,72.95Z"/>
    <path class="cls-6" d="M350.32,280.05c0,10.97,8.93,19.9,19.9,19.9s19.9-8.93,19.9-19.9-8.93-19.9-19.9-19.9-19.9,8.93-19.9,19.9Z"/>
    <path class="cls-6" d="M266.63,344.92c-2.37,0-4.67.52-6.83,1.55l-68.82,32.88c-4.87,2.33-8.19,6.91-8.87,12.27-.69,5.35,1.37,10.63,5.49,14.11l56.28,47.46c2.85,2.41,6.47,3.73,10.18,3.73h0c7.86,0,14.44-5.63,15.65-13.39l12.54-80.35c.71-4.58-.6-9.21-3.6-12.72-3.02-3.53-7.41-5.56-12.03-5.56Z"/>
    <rect class="cls-6" x="298.13" y="368.19" width="50.81" height="51.62" rx="15.82" ry="15.82"/>
    <path class="cls-6" d="M295.81,206.42c-16.67,2.37-29.41,8.61-37.92,18.59-4.73,5.55-7.21,11.07-9.33,16.23l-.48,1.16c-2.31,5.62-4.14,10.06-8.89,14.84-3.51,3.54-7.82,6.41-12.79,8.54-4.13,1.77-7.15,5.44-8.08,9.84-.93,4.4.35,8.99,3.43,12.27,13.3,14.22,31.9,22.38,51.04,22.38h0c10.5,0,20.87-2.51,29.96-7.26.36-.18.71-.38,1.06-.57l.52-.28c20.83-11.62,33.83-34.5,33.98-59.16l15.2-18.95,58.39-78.48c6.73-8.24,11.83-24.53-1.25-36.55-5.53-5.08-11.47-7.66-17.66-7.66-8.81,0-14.19,5.33-15.18,6.4l-.18.19-67.73,80.29-14.08,18.16Z"/>
    <path class="cls-6" d="M163.24,558.72l-67.68-154.32-51.64-51.26c-2.56-2.55-5.94-3.96-9.54-3.96s-7.35,1.56-9.91,4.29c-2.54,2.71-3.85,6.39-3.62,10.05l1.5,25.07,2.76,46.3,69.97,153.99,9.34,19.2c2.78,10.11,12.7,27,33.39,27,5.35,0,11.08-1.17,17.03-3.49,14.62-5.69,20.24-14.96,22.38-21.73,4.74-15-3.28-29.61-5.66-33.45l-8.33-17.7Z"/>
  </g>
  <g>
    <g>
      <path class="cls-2" d="M943.79,373.57h0c20.18,6,33.13,25.64,30.7,46.55l-10.89,93.79h-33.93s14.12-140.34,14.12-140.34Z"/>
      <polygon class="cls-25" points="871.96 719.7 881.15 784.42 897.75 784.42 889.32 714.71 871.96 719.7"/>
      <path class="cls-2" d="M655.2,719.7h216.77s26.55,3.32,57.7-17.62l-10.98-41.87h-33.7l-229.79,59.49Z"/>
      <polygon class="cls-6" points="736.48 235.1 727.45 273.66 714.52 361.48 709.07 507.53 714.17 513.91 804.73 513.91 795.2 410.17 818 261.06 815.62 224.29 807.84 213.42 736.48 235.1"/>
      <path class="cls-17" d="M499.71,432.97s-15.15-.51,28.85-63.06l10.3,21.7-28.77,40-10.38,1.36Z"/>
      <polygon class="cls-26" points="660.81 513.91 435.37 513.91 311.79 614.25 311.79 628.55 987.37 628.55 987.37 513.91 660.81 513.91"/>
      <path class="cls-3" d="M736.49,235.1c-.45,2.68-1.21,7.29-2.19,13.01-3.07,18-5.55,31.3-5.85,32.94-2.85,15.42-7.89,53.55-11.04,94.46-3.91,50.6-4.34,97.88-3.23,138.4h-53.37l3.58-38.3-.61.64-3.26,3.46-1.24,1.32c-18.78,19.93-49.12,23.59-72.09,8.69l-87.48-56.75c30.89-24,28.85-63.06,28.85-63.06,6.89.26,76.85,37.28,76.85,37.28.04-.13.07-.26.12-.4.26-.92.55-1.9.88-2.95,9.58-30.51,46.3-112.43,61.04-128.4,15.32-16.59,69.04-40.34,69.04-40.34Z"/>
      <path class="cls-3" d="M807.84,213.42s68.72,31.3,101.06,53.77,43.57,170.55,42.55,210.72c-.01.4-.02.8-.03,1.2-.76,28.88-25.55,51.24-54.36,49.04l-100.84-7.69-4.43-114.04s8.17-91.23,12.94-117.79,8.61-52.05,3.11-75.22Z"/>
      <path class="cls-24" d="M528.11,379.53c-1.67,16-7.47,27.29-9.14,30.39-2.23,4.13-5.68,9.63-10.91,15.41l-6.65-4.61c-12.94,8.34-40.68,8.51-54.81,5.28-11.08-2.54-10.96-11.77-10.39-15.64.16-1.07.35-1.73.35-1.73-.83-.15-1.59-.35-2.29-.59-10.18-3.46-6.9-15.24-6.9-15.24-.1.1-.29.21-.56.32-.66.28-1.8.61-3.3.96-10.9,2.58-40.92,6.59-44.48,4.17-4.26-2.89-6.47-11.06,17.02-19.4,23.49-8.34,56.68-29.28,56.68-29.28-15.15-10.89-26.89-24.85-32.17-29.96-5.28-5.1-3.75-8.68-1.53-12.25,2.21-3.58,10.21-1.7,13.27,1.36,3.07,3.06,17.37,14.3,22.64,17.02,5.28,2.72,39.66,16.85,49.87,22.98,10.22,6.13,21.11,19.4,21.11,19.4.88.6,1.76,1.19,2.64,1.79.02,2.38-.04,5.69-.45,9.62Z"/>
      <g>
        <path class="cls-17" d="M623.95,416.54c-.3.38-.74.57-1.18.57-.32,0-.65-.1-.93-.32-2.78-2.2-10.47-6.69-16.31-10,.26-.92.55-1.9.88-2.95,5.97,3.38,14.24,8.19,17.29,10.6.65.51.76,1.45.25,2.1Z"/>
        <path class="cls-17" d="M675.33,320.74l-11.55,155.51-3.26,3.46,11.82-159.19c.06-.82.79-1.44,1.61-1.38s1.44.78,1.38,1.6Z"/>
        <path class="cls-24" d="M812.22,455.1c-1.11-3.32-2.35-6.37-3.67-9.22-.48-1.05-.98-2.07-1.49-3.07-4.44-8.77-9.46-15.56-13.05-22.26-5.11-9.53-2.73-17.53-3.24-23.66s-2.72-10.21-9.19-10.04c-6.47.17-9.7,6.46-11.4,12.42-1.38,4.82.58,23.56,1.39,30.54.19,1.65.31,2.65.31,2.65-.91-.03-1.81-.06-2.69-.08-29.18-.57-38.16,8.34-38.16,17.11,0,5.42,2.83,8.01,5.08,9.22,1.5.8,2.75.99,2.75.99,0,0-1.27.68-2.78,2.04h-.01c-2.25,2.05-5.04,5.57-5.04,10.55,0,5.66,3.61,8.5,5.92,9.76h.02c1.09.58,1.89.8,1.89.8,0,0-1.46.66-2.81,2.28-1.33,1.56-2.55,4-2.3,7.59.39,5.56,3.14,8.37,4.43,9.39.41.33.68.48.68.48-.6.73-1.13,1.64-1.53,2.65-1.65,4.19-1.17,10.24,5.27,13.52,8,4.09,33.7,3.07,48,2.55,14.3-.51,18.21-7.65,21.62-15.14,3.4-7.49,5.1-35.75,0-51.07Z"/>
        <path class="cls-17" d="M895.42,448.1c-.04.81-.7,1.44-1.5,1.44h-.06l-85.31-3.66c-.48-1.05-.98-2.07-1.49-3.07l61.31,2.63-3.52-119.66c-.03-.82.62-1.51,1.45-1.54.86-.02,1.52.63,1.54,1.46l3.54,119.87,22.61.97c.82.03,1.47.73,1.43,1.56Z"/>
      </g>
      <path class="cls-19" d="M787.47,433.97c-.22.63-.8,1.02-1.42,1.02-.16,0-.33-.03-.49-.09-2.89-.99-12.24-1.94-15.59-2.22-.3-.03-.56-.13-.78-.3.88.02,1.78.05,2.69.08,0,0-.12-1-.31-2.65,3.34.31,11.85,1.18,14.97,2.26.78.27,1.2,1.12.93,1.9Z"/>
      <path class="cls-19" d="M767.75,457.31l-31.67,4.43c1.51-1.36,2.78-2.04,2.78-2.04,0,0-1.25-.19-2.75-.99l31.22-4.37c.82-.12,1.58.46,1.69,1.28.12.82-.45,1.58-1.27,1.69Z"/>
      <path class="cls-19" d="M769.67,480.98c.07.83-.55,1.55-1.38,1.62l-32.24,2.53c1.35-1.62,2.81-2.28,2.81-2.28,0,0-.8-.22-1.89-.8l31.09-2.44c.81-.06,1.55.55,1.61,1.37Z"/>
      <path class="cls-19" d="M770.95,502.3c-.08.83-.83,1.44-1.63,1.36-10.4-.95-26.96.95-31.99,1.58.4-1.01.93-1.92,1.53-2.65,0,0-.27-.15-.68-.48,6.19-.75,21.32-2.36,31.41-1.44.82.08,1.43.81,1.36,1.63Z"/>
      <path class="cls-19" d="M474.76,403.51c-3.09,6.29-13.47,12.51-21.64,16.63-.22.11-.45.16-.68.16-.54,0-1.07-.3-1.34-.82-.37-.74-.07-1.64.67-2.02,10.96-5.52,18.17-10.95,20.29-15.27,1.03-2.1,1.08-4.02.17-5.72-1.45-2.67-5.27-4.69-9.98-5.28-5.35-.67-18.69,11.3-26.04,19.17.16-1.07.35-1.73.35-1.73-.83-.15-1.59-.35-2.29-.59,3.23-3.43,16.93-17.5,25.6-19.61,1.03-7.15-6.47-10.86-9.58-11.71-2.92-.8-6.95,1.67-12.51,5.09-1.12.68-2.31,1.41-3.56,2.15-4.82,2.88-6.69,6.83-7.41,9.16-.66.28-1.8.61-3.3.96.38-2.14,2.08-8.45,9.17-12.69,1.25-.74,2.42-1.46,3.53-2.14,6.21-3.81,10.7-6.56,14.87-5.42,5.42,1.47,12.62,6.46,11.83,14.42,5.61.77,10.07,3.3,11.96,6.8,1.38,2.56,1.34,5.49-.11,8.46Z"/>
      <path class="cls-24" d="M672.12,60.21l2.37,34.11s-23.97,137.86,62,140.79c0,0-2.6,7.66-2.25,18.46.34,10.8,13.85,18.23,29.83,17.57,15.98-.68,52.7-5.74,42.08-73.28,0,0,6.76-13.87,6.59-21.47,0,0,50.65-12.49,16.37-57.73l-4.38-15.69-32.58-11.48-12.49-38.15-64.32,14.02-43.21-7.08v-.06h0Z"/>
      <path class="cls-18" d="M674.47,94.32s-28.53-55.37,10.13-71.91c38.65-16.54,110.06-17.73,128.46,18.73,0,0,31.57,20.26,16.04,77.49,0,0-13.17-9.62-31.9,16.54,0,0-6.59-16.04-4.89-34.94,0,0-18.06-16.21-16.04-42.7,0,0-53.35,25.83-99.93,12.65l-1.85,24.14h-.02Z"/>
      <path class="cls-11" d="M730.57,198.51c-5.16,1.23-10.59,1.45-15.86.66-.72-.11-1.22-.78-1.1-1.5.11-.72.78-1.22,1.5-1.1,5.63.85,11.45.45,16.84-1.15,8.28-2.46,13.95-7.17,17.26-10.67.5-.53,1.34-.55,1.87-.05.53.5.55,1.34.05,1.87-3.53,3.75-9.6,8.75-18.45,11.38-.69.21-1.41.41-2.13.58h0v-.03s.01,0,.01,0Z"/>
      <path class="cls-18" d="M682.55,102.85s.89-5.85,10.8-6.42c9.91-.56,15.18.45,14.86,3.22s-9.68,1.18-14.62,1.51c-4.95.33-7.76.79-11.03,1.69h0Z"/>
      <path class="cls-18" d="M769.22,109.28s-.89-5.85-10.8-6.42c-9.91-.56-15.18.45-14.86,3.22s9.68,1.18,14.62,1.51c4.95.33,7.76.79,11.03,1.69h0Z"/>
      <path class="cls-14" d="M698.24,127.17c-1.3-1.18-3.01-1.87-4.89-1.87-4.05,0-7.34,3.29-7.34,7.36s3.29,7.34,7.34,7.34c2.96,0,5.52-1.76,6.68-4.28.44-.92.68-1.97.68-3.06,0-2.18-.95-4.14-2.47-5.48h0Z"/>
      <path class="cls-11" d="M718.13,175.08c-3.2,0-4.96-.29-6.86-1.01-1.51-.56-4.02-1.51-5.63-4.1-.81-1.31-1.27-3.13-1.33-5.28-.08-2.94.68-4.99,1.7-7.82l.4-1.11c1.45-4.05,2.71-7.56,3.32-11.13.42-2.51.54-5.09.33-7.67-.06-.72.49-1.35,1.21-1.43.74-.07,1.35.49,1.43,1.21.23,2.78.1,5.59-.36,8.32-.64,3.82-1.93,7.41-3.43,11.6l-.4,1.13c-1.01,2.74-1.6,4.4-1.54,6.84.04,1.66.38,3.06.92,3.95,1.13,1.83,3.04,2.54,4.3,3.01,2.18.82,4.18.98,9.71.74,3.23-.13,6.49-.36,9.72-.68.74-.07,1.37.46,1.44,1.2s-.46,1.37-1.2,1.44c-3.27.32-6.61.55-9.87.68-1.51.07-2.78.1-3.9.1h.03v.02h0Z"/>
      <path class="cls-23" d="M771.78,111.58h-35.24c-4.73,0-8.6,3.86-8.6,8.6v4.52c-2.02-.92-4.62-1.7-7.72-1.7h-.1c-2.83,0-5.23.69-7.12,1.49v-4.28c0-4.73-3.86-8.6-8.6-8.6h-35.24c-4.73,0-8.6,3.86-8.6,8.6v22.82c0,4.73,3.86,8.6,8.6,8.6h35.24c4.73,0,8.6-3.86,8.6-8.6v-14.13c1.6-.89,4.05-1.91,7.14-1.92h.08c3.39,0,6.03,1.18,7.72,2.22v13.83c0,4.73,3.86,8.6,8.6,8.6h35.24c4.73,0,8.6-3.86,8.6-8.6v-22.82c0-4.73-3.86-8.6-8.6-8.6h0v-.02h0ZM709.04,142.99c0,2.55-2.08,4.63-4.63,4.63h-35.24c-2.55,0-4.63-2.08-4.63-4.63v-22.82c0-2.55,2.08-4.63,4.63-4.63h35.24c2.55,0,4.63,2.08,4.63,4.63v22.82ZM776.41,142.99c0,2.55-2.08,4.63-4.63,4.63h-35.24c-2.55,0-4.63-2.08-4.63-4.63v-22.82c0-2.55,2.08-4.63,4.63-4.63h35.24c2.55,0,4.63,2.08,4.63,4.63v22.82Z"/>
      <path class="cls-14" d="M738.8,132.57c.13-.47.44-.87.86-1.11,2.55-1.45,6.67-3.15,11.91-3.15.5,0,1.03,0,1.55.04l2.28.15-.1.11c2.32.37,4.61,1.08,6.72,2.1.44.22.78.59.93,1.06.16.46.12.95-.09,1.37-.21.44-.59.78-1.05.93-.46.16-.95.12-1.37-.09-2.69-1.3-5.68-2-8.64-2.03-4.5-.12-8.12,1.44-10.33,2.68-.28.16-.59.24-.9.24-.16,0-.32-.02-.48-.07-.47-.13-.87-.44-1.11-.86-.24-.42-.3-.91-.18-1.38Z"/>
      <path class="cls-25" d="M895.42,660.21c-5.28,18.65-19.02,33.74-37.09,40.75l-73.84,28.66-.1.04,5.84,54.76h-113.12c-.77-9.24-1.3-17.25-1.65-24.18-2.03-40.53,2.22-44.47,2.89-44.85l-2.8.85-32.68,9.98-1.2.37,6.31,57.83h-110.59l-5.31-53.24c-2.24-22.43,5.12-44.75,20.27-61.45l8.63-9.52h334.44Z"/>
      <path class="cls-9" d="M647.98,784.42h-1.54l-7.97-70.43c-.09-.82.5-1.56,1.32-1.65.83-.11,1.57.49,1.66,1.32l1.42,12.56-1.2.37,6.31,57.83Z"/>
      <path class="cls-9" d="M716.7,660.21c0,.54-.29,1.05-.79,1.32-.12.07-12.08,6.59-22.8,21.75-9.88,13.97-20.73,38.38-16.23,75.28.1.82-.49,1.57-1.31,1.67-.04.01-.07.01-.11.01-2.03-40.53,2.22-44.47,2.89-44.85l-2.8.85c3.39-15.24,9.46-26.73,15.21-34.83,8.46-11.92,17.48-18.58,21.54-21.2,1.28-.83,2.07-1.26,2.19-1.32.73-.39,1.64-.12,2.03.61.12.23.18.47.18.71Z"/>
      <path class="cls-9" d="M790.23,784.42h-1.69l-8.79-68.02c-.1-.82.48-1.57,1.3-1.68.81-.11,1.57.47,1.68,1.3l1.76,13.6-.1.04,5.84,54.76Z"/>
      <rect class="cls-10" x="311.79" y="628.55" width="675.57" height="31.66"/>
      <polygon class="cls-16" points="366.43 660.21 351.62 784.42 388.9 784.42 404.73 660.21 366.43 660.21"/>
      <polygon class="cls-16" points="948.78 660.21 963.59 784.42 926.31 784.42 910.49 660.21 948.78 660.21"/>
      <polygon class="cls-12" points="520.13 521.81 416.47 598.42 758.09 605.57 821.41 528.3 520.13 521.81"/>
    </g>
    <path class="cls-7" d="M73.07,57.09l19.95,86.67c.84,3.63,5.43,4.8,7.9,2.01l58.47-66.03c2.26-2.56,1.04-6.61-2.27-7.48l-78.41-20.63c-3.34-.88-6.41,2.1-5.64,5.46Z"/>
    <path class="cls-7" d="M238.81,28.76l-10.32,84.03c-.31,2.53,1.5,4.83,4.03,5.12l91.08,10.37c2.54.29,4.83-1.55,5.08-4.1l8.85-87.73c.26-2.57-1.65-4.84-4.22-5.03l-89.61-6.67c-2.44-.18-4.59,1.59-4.89,4.01Z"/>
    <path class="cls-27" d="M192.06,156.6l-29.04,29.7c-1.59,1.63-1.75,4.18-.36,5.99l23.91,31.22c1.63,2.13,4.73,2.41,6.72.61l27.7-25.06c1.65-1.49,1.99-3.96.8-5.84l-22.57-35.85c-1.58-2.51-5.09-2.88-7.16-.76Z"/>
    <circle class="cls-27" cx="21.63" cy="133.28" r="8.97"/>
    <circle class="cls-27" cx="72.95" cy="248.66" r="61.61"/>
    <circle class="cls-15" cx="370.22" cy="280.05" r="8.56"/>
    <path class="cls-15" d="M125.38,357.1c-11.74,0-24.07-7.63-36.68-22.71-1.42-1.69-1.19-4.21.5-5.62,1.69-1.42,4.21-1.19,5.62.5,11.63,13.91,22.43,20.56,32.09,19.78,9.57-.77,16.21-8.42,23.9-17.27,8.37-9.63,17.85-20.55,32.95-22.66,10.77-1.51,22.14,1.73,33.78,9.62,1.83,1.24,2.3,3.72,1.07,5.54-1.24,1.83-3.72,2.3-5.54,1.07-9.96-6.75-19.44-9.54-28.19-8.32-12.13,1.7-19.85,10.59-28.03,19.99-8.1,9.32-16.47,18.95-29.28,19.99-.72.06-1.44.09-2.17.09Z"/>
    <path class="cls-5" d="M195.87,389.58l68.82-32.88c3.26-1.56,6.92,1.17,6.36,4.74l-12.54,80.34c-.54,3.45-4.65,4.99-7.32,2.74l-56.27-47.46c-2.49-2.1-1.98-6.07.96-7.47Z"/>
    <rect class="cls-7" x="309.47" y="379.53" width="28.13" height="28.95" rx="4.48" ry="4.48"/>
    <path class="cls-5" d="M298.79,292.27c-.42.22-.85.46-1.28.69-21.75,11.35-49.67,6.26-67.5-12.8-1.17-1.25-.74-3.27.83-3.94,4.9-2.1,10.91-5.46,16.38-10.98,6.74-6.79,9.18-13.33,11.8-19.66,6.82,3.72,15.6,9.69,23.73,19.07,8.51,9.8,13.3,19.88,16.03,27.63Z"/>
    <path class="cls-4" d="M298.79,292.27c-2.73-7.74-7.52-17.82-16.03-27.63-8.13-9.37-16.91-15.35-23.73-19.07,1.87-4.53,3.83-8.93,7.49-13.22,5.4-6.32,15.33-13.38,35.34-15.23,8.34,7.35,16.67,14.69,25.01,22.02,1.28,22.15-9.76,42.91-28.07,53.13Z"/>
    <path class="cls-8" d="M301.86,217.12l16.85-21.74s7.88.82,16.04,8.97c8.15,8.15,9.78,12.77,9.78,12.77l-17.66,22.02-25.01-22.02Z"/>
    <path class="cls-1" d="M318.71,195.39l67.41-79.91s6.8-7.34,16.85,1.9,0,21.2,0,21.2l-58.44,78.54-25.82-21.74Z"/>
    <g>
      <path class="cls-5" d="M53.31,378.44c-2.62,2.27-6.75,5.6-10.08,7.01-3.64,1.53-7.51,2.22-9.57,2.48l-1.5-25.07c-.13-2.01,2.32-3.11,3.74-1.69l17.41,17.28Z"/>
      <path class="cls-22" d="M86.05,410.93s-4.07,8.96-22.02,17.52c-17.93,8.58-27.72,3.67-27.72,3.67l-2.63-44.2c2.06-.26,5.92-.94,9.57-2.48,3.32-1.41,7.46-4.74,10.08-7.01l32.74,32.5Z"/>
      <polygon class="cls-13" points="36.31 432.12 59.86 421.8 129.54 573.19 105.35 584.06 36.31 432.12"/>
      <polygon class="cls-21" points="86.05 410.93 59.86 421.8 129.54 573.19 152.91 563.41 86.05 410.93"/>
      <polygon class="cls-20" points="105.35 584.06 152.91 563.41 161.61 581.89 115.13 604.18 105.35 584.06"/>
      <path class="cls-5" d="M115.13,604.18s6.25,28.27,35.61,16.85c29.35-11.42,10.87-39.14,10.87-39.14l-46.48,22.29Z"/>
    </g>
  </g>
</svg>