<?xml version="1.0" encoding="UTF-8"?>
<svg id="Livello_1" data-name="Livello 1" xmlns="http://www.w3.org/2000/svg" viewBox="0 0 565.06 456.38">
  <defs>
    <style>
      .cls-1 {
        fill: #79afff;
      }

      .cls-1, .cls-2, .cls-3 {
        stroke: #2785ff;
        stroke-miterlimit: 10;
        stroke-width: 1.5px;
      }

      .cls-4 {
        fill: #d5985c;
      }

      .cls-5 {
        fill: #3a89ff;
      }

      .cls-6 {
        fill: #fde8a5;
      }

      .cls-7 {
        fill: #837e7c;
      }

      .cls-8 {
        fill: #fff;
      }

      .cls-2 {
        fill: none;
      }

      .cls-9 {
        fill: #9c9e9c;
      }

      .cls-10 {
        fill: #2f2f2f;
      }

      .cls-11 {
        fill: #fffcf7;
      }

      .cls-12 {
        fill: #42362e;
      }

      .cls-13 {
        fill: #e9a962;
      }

      .cls-14 {
        fill: #f9be73;
      }

      .cls-3 {
        fill: #9dc9ff;
      }

      .cls-15 {
        fill: #424042;
      }

      .cls-16 {
        fill: #2866d8;
      }

      .cls-17 {
        fill: #fffdf7;
      }

      .cls-18 {
        fill: #4c3424;
      }

      .cls-19 {
        fill: #67686c;
      }

      .cls-20 {
        fill: #ffde30;
      }

      .cls-21 {
        fill: #ed6743;
      }

      .cls-22 {
        fill: #b37660;
      }

      .cls-23 {
        fill: #523826;
      }

      .cls-24 {
        fill: #f2b68f;
      }

      .cls-25 {
        fill: #3d3d3d;
      }

      .cls-26 {
        fill: #b5b6b6;
      }
    </style>
  </defs>
  <path class="cls-25" d="M513.18,239.18l11.67,2.34c24.97,5,42.2,27.95,40.03,53.33-4.59,53.63-12.91,139.22-20.93,161.55h-52.17l21.4-217.21Z"/>
  <g>
    <rect class="cls-26" x="29.9" y="23.43" width="208.09" height="182.04"/>
    <rect class="cls-17" x="73.05" y="31.09" width="158.04" height="166.72"/>
    <rect class="cls-2" x="105.99" y="58.66" width="92.17" height="111.58"/>
    <rect class="cls-3" x="101.56" y="54.54" width="8.26" height="8.26" rx="1.51" ry="1.51"/>
    <rect class="cls-1" x="147.95" y="54.54" width="8.26" height="8.26" rx="1.51" ry="1.51"/>
    <rect class="cls-3" x="194.03" y="54.54" width="8.26" height="8.26" rx="1.51" ry="1.51"/>
    <rect class="cls-3" x="101.56" y="166.11" width="8.26" height="8.26" rx="1.51" ry="1.51"/>
    <rect class="cls-1" x="147.95" y="166.11" width="8.26" height="8.26" rx="1.51" ry="1.51"/>
    <rect class="cls-3" x="194.03" y="166.11" width="8.26" height="8.26" rx="1.51" ry="1.51"/>
    <rect class="cls-1" x="101.56" y="110.33" width="8.26" height="8.26" rx="1.51" ry="1.51"/>
    <rect class="cls-1" x="194.03" y="110.33" width="8.26" height="8.26" rx="1.51" ry="1.51"/>
    <rect class="cls-9" x="37.05" y="31.09" width="23.45" height="23.45"/>
    <rect class="cls-9" x="37.05" y="69.65" width="23.45" height="9.7"/>
    <rect class="cls-9" x="37.05" y="88.79" width="23.45" height="9.7"/>
    <rect class="cls-9" x="37.05" y="107.94" width="23.45" height="9.7"/>
    <rect class="cls-11" x="42.16" y="36.2" width="13.23" height="13.23"/>
    <path class="cls-6" d="M183.18,76.79v13.1l-32.72,32.73h-.01c-7.55-7.55-17.97-12.22-29.49-12.22v-33.61h62.22Z"/>
    <path class="cls-21" d="M162.67,152.11h-41.71v-41.71c11.52,0,21.94,4.67,29.49,12.22h.01c7.54,7.55,12.21,17.97,12.21,29.49Z"/>
    <path class="cls-20" d="M183.18,89.89v62.22h-20.51c0-11.52-4.67-21.94-12.21-29.49l32.72-32.73Z"/>
  </g>
  <g>
    <polygon class="cls-8" points="340.16 401.81 344.2 422.24 393.71 422.24 391.43 400.54 340.16 401.81"/>
    <path class="cls-5" d="M353.31,169.22s-39.55,11.74-57.39,36.25c-17.84,24.51-46.18,110.3-46.18,110.3l-13.02,2.04,16.09,51.57h97.02l47.23,11.91h99.62c23.69,0,41.41-21.76,36.61-44.96l-22.05-106.57c-4.73-22.88-19.92-42.21-41.04-52.21-24.7-11.7-55.28-25.72-63.09-27.2l-53.8,18.86Z"/>
    <path class="cls-5" d="M305.09,402.58s-2.56,8.17-1,21.19l40.11-1.53-4.6-23.23-34.51,3.57Z"/>
    <path class="cls-5" d="M412.63,402.84l5.02,28.15s53.57,10.57,79.42,8.32v-36.46h-84.44Z"/>
    <path class="cls-8" d="M353.31,169.22s-21.65,98.35-6.32,211.81l50.06.27c-.96-10.26-2.09-24.17-2.89-40.68-1.17-24.15-2.13-43.9-.68-68.77,1.03-17.74,4.49-42.61,11.41-92.34.47-3.39.86-6.17,1.12-7.97-17.57-.77-35.14-1.55-52.7-2.32Z"/>
    <path class="cls-24" d="M304.63,36.96l1.79,25.79s-18.13,104.26,46.89,106.47c0,0-1.96,5.79-1.7,13.96.26,8.17,10.47,13.79,22.55,13.28s39.85-4.34,31.83-55.42c0,0,5.11-10.49,4.98-16.24,0,0,38.3-9.45,12.38-43.66l-3.32-11.87-24.64-8.68-9.45-28.85-48.64,10.6-32.68-5.36Z"/>
    <path class="cls-18" d="M306.41,62.75s-21.57-41.87,7.66-54.38,83.23-13.4,97.15,14.17c0,0,23.87,15.32,12.13,58.6,0,0-9.96-7.28-24.13,12.51,0,0-4.98-12.13-3.7-26.43,0,0-13.66-12.26-12.13-32.3,0,0-40.34,19.53-75.57,9.57l-1.4,18.26Z"/>
    <path class="cls-10" d="M347.95,141.03c-4.01,0-8.05-.78-11.78-2.29-.51-.21-.76-.79-.55-1.3.21-.51.79-.76,1.3-.55,3.99,1.61,8.34,2.33,12.59,2.1,6.52-.36,11.52-2.82,14.57-4.82.46-.3,1.08-.17,1.38.29.3.46.17,1.08-.29,1.38-3.25,2.14-8.59,4.76-15.56,5.14-.55.03-1.11.05-1.67.05Z"/>
    <path class="cls-18" d="M310.24,72.45s.68-4.43,8.17-4.85,11.49.34,11.23,2.43-7.32.89-11.06,1.15-5.87.6-8.34,1.28Z"/>
    <path class="cls-18" d="M375.79,72.45s-.68-4.43-8.17-4.85-11.49.34-11.23,2.43,7.32.89,11.06,1.15,5.87.6,8.34,1.28Z"/>
    <path class="cls-12" d="M322.11,87.59c-.98-.89-2.28-1.42-3.7-1.42-3.06,0-5.55,2.49-5.55,5.56s2.49,5.55,5.55,5.55c2.24,0,4.18-1.33,5.05-3.24.33-.7.51-1.49.51-2.31,0-1.65-.72-3.13-1.86-4.14Z"/>
    <path class="cls-12" d="M365.62,87.59c-.98-.89-2.28-1.42-3.7-1.42-3.06,0-5.55,2.49-5.55,5.56s2.49,5.55,5.55,5.55c2.24,0,4.18-1.33,5.05-3.24.33-.7.51-1.49.51-2.31,0-1.65-.72-3.13-1.86-4.14Z"/>
    <path class="cls-10" d="M339.42,123.83c-2.42,0-3.75-.22-5.19-.76-1.14-.43-3.04-1.15-4.25-3.1-.61-.99-.96-2.37-1-3.99-.06-2.22.51-3.77,1.29-5.91l.3-.84c1.1-3.06,2.05-5.71,2.51-8.42.32-1.9.4-3.85.25-5.8-.04-.55.37-1.03.92-1.08.56-.05,1.03.37,1.08.92.17,2.11.08,4.23-.27,6.29-.48,2.89-1.46,5.61-2.6,8.77l-.31.85c-.76,2.07-1.21,3.33-1.17,5.17.03,1.25.28,2.31.7,2.99.85,1.38,2.3,1.92,3.25,2.28,1.65.62,3.16.74,7.34.56,2.44-.1,4.91-.27,7.35-.51.56-.05,1.04.35,1.09.9.05.55-.35,1.04-.9,1.09-2.48.24-4.99.41-7.46.51-1.15.05-2.11.08-2.95.08Z"/>
    <path class="cls-16" d="M304.09,242.01c-.55,0-1,.45-1,1v96c0,.55.45,1,1,1s1-.45,1-1v-96c0-.55-.45-1-1-1Z"/>
    <path class="cls-23" d="M379.99,75.81h-26.64c-3.58,0-6.5,2.92-6.5,6.5v3.41c-1.53-.7-3.49-1.29-5.84-1.29h-.08c-2.14.01-3.96.52-5.39,1.12v-3.24c0-3.58-2.92-6.5-6.5-6.5h-26.64c-3.58,0-6.5,2.92-6.5,6.5v17.26c0,3.58,2.92,6.5,6.5,6.5h26.64c3.58,0,6.5-2.92,6.5-6.5v-10.69c1.21-.68,3.07-1.44,5.4-1.45h.06c2.56,0,4.56.89,5.84,1.68v10.46c0,3.58,2.92,6.5,6.5,6.5h26.64c3.58,0,6.5-2.92,6.5-6.5v-17.26c0-3.58-2.92-6.5-6.5-6.5ZM332.55,99.56c0,1.93-1.57,3.5-3.5,3.5h-26.64c-1.93,0-3.5-1.57-3.5-3.5v-17.26c0-1.93,1.57-3.5,3.5-3.5h26.64c1.93,0,3.5,1.57,3.5,3.5v17.26ZM383.49,99.56c0,1.93-1.57,3.5-3.5,3.5h-26.64c-1.93,0-3.5-1.57-3.5-3.5v-17.26c0-1.93,1.57-3.5,3.5-3.5h26.64c1.93,0,3.5,1.57,3.5,3.5v17.26Z"/>
    <path class="cls-24" d="M388.54,381.3l-18.89-.15-32.58-9.72-12.17-.81c6.43-6.77,11.24-11.48,13.76-13.77.7-.64,2.15-1.96,4.18-2.13,1.2-.1,2.44.2,3.68.9.48.27,1.09.1,1.36-.38.27-.49.1-1.1-.38-1.37-1.6-.89-3.22-1.28-4.83-1.14-2.71.23-4.56,1.92-5.36,2.64-2.69,2.44-7.96,7.62-15,15.08l-12.5-.84c2.15-3.55,4.55-6.95,7.16-10.14,4.13-5.04,8.83-9.63,13.97-13.64.44-.34.52-.96.18-1.4-.34-.43-.97-.51-1.41-.17-5.26,4.1-10.07,8.79-14.28,13.94-2.9,3.54-5.54,7.31-7.86,11.26l-13.79-.91c2.69-4.7,5.68-9.24,8.92-13.54,4.96-6.58,10.59-12.72,16.72-18.24.41-.37.45-1,.08-1.41-.37-.42-1-.45-1.41-.08-6.24,5.61-11.95,11.84-16.99,18.53-3.48,4.63-6.69,9.52-9.53,14.59l-12.14-.81s20.26-36.5,37.62-40.76c17.36-4.25,24.51,4.43,40.17,6.3,15.66,1.87,22.98,2.04,22.98,2.04,0,0,26.04,24.85,8.34,46.13Z"/>
    <path class="cls-22" d="M319.42,336.77c-6.13,5.52-11.76,11.66-16.72,18.24-3.24,4.3-6.23,8.84-8.92,13.54l-2.21-.15c2.84-5.07,6.05-9.96,9.53-14.59,5.04-6.69,10.75-12.92,16.99-18.53.41-.37,1.04-.34,1.41.08.37.41.33,1.04-.08,1.41Z"/>
    <path class="cls-22" d="M330.94,345.83c-5.14,4.01-9.84,8.6-13.97,13.64-2.61,3.19-5.01,6.59-7.16,10.14l-2.24-.15c2.32-3.95,4.96-7.72,7.86-11.26,4.21-5.15,9.02-9.84,14.28-13.94.44-.34,1.07-.26,1.41.17.34.44.26,1.06-.18,1.4Z"/>
    <path class="cls-22" d="M347.88,355.24c-.27.48-.88.65-1.36.38-1.24-.7-2.48-1-3.68-.9-2.03.17-3.48,1.49-4.18,2.13-2.52,2.29-7.33,7-13.76,13.77l-2.59-.17c7.04-7.46,12.31-12.64,15-15.08.8-.72,2.65-2.41,5.36-2.64,1.61-.14,3.23.25,4.83,1.14.48.27.65.88.38,1.37Z"/>
    <polygon class="cls-5" points="393.58 328.5 378.84 331.09 377.82 336.03 388.54 381.31 397.05 381.31 405.05 381.31 397.2 327.91 393.58 328.5"/>
    <path class="cls-16" d="M477.75,314.96l-13.49,2.15-18.06-75.34c-.13-.54-.66-.86-1.21-.74-.54.13-.87.67-.74,1.21l18.02,75.19-67.72,10.81c-.55.09-.92.6-.83,1.14.08.49.5.84.99.84.05,0,.11,0,.16-.01l83.2-13.28c.55-.09.92-.6.83-1.14s-.6-.92-1.14-.83Z"/>
    <path class="cls-7" d="M492.84,439.61l-1.06,16.77h-191.81c7.86-4.8,16.14-8.93,24.68-12.28,14.42-5.65,29.61-9.15,45.16-10.4.55-.04.96-.52.92-1.08-.04-.54-.52-.95-1.08-.91-15.74,1.26-31.13,4.81-45.73,10.53-9.64,3.78-18.96,8.54-27.72,14.14h-93.06s18.2-23.42,100.95-32.61,188.75,15.84,188.75,15.84Z"/>
    <path class="cls-19" d="M370.73,432.62c.04.56-.37,1.04-.92,1.08-15.55,1.25-30.74,4.75-45.16,10.4-8.54,3.35-16.82,7.48-24.68,12.28h-3.77c8.76-5.6,18.08-10.36,27.72-14.14,14.6-5.72,29.99-9.27,45.73-10.53.56-.04,1.04.37,1.08.91Z"/>
  </g>
  <g>
    <polygon class="cls-4" points="60.44 399.01 35.93 399.01 29.9 456.38 54.41 456.38 60.44 399.01"/>
    <polygon class="cls-4" points="389.77 399.01 414.29 399.01 420.32 456.38 395.8 456.38 389.77 399.01"/>
    <polygon class="cls-4" points="492.84 399.01 517.35 399.01 523.38 456.38 498.87 456.38 492.84 399.01"/>
    <rect class="cls-14" y="381.31" width="414.58" height="25.53"/>
    <rect class="cls-13" x="414.58" y="381.31" width="132.43" height="25.53"/>
  </g>
  <g>
    <path class="cls-10" d="M257.18,367.59l-36.4-123.45c-.42-1.43-1.73-2.41-3.22-2.41H51.64c-2.24,0-3.85,2.15-3.22,4.3l39.17,132.86c.42,1.43,1.73,2.41,3.22,2.41h253.46c7.57,0,13.71-6.14,13.71-13.71h-100.81Z"/>
    <path class="cls-15" d="M166,311.52c1.75,6.39-2.12,11.57-8.64,11.57s-13.22-5.18-14.97-11.57,2.12-11.57,8.64-11.57,13.22,5.18,14.97,11.57Z"/>
  </g>
</svg>