<?xml version="1.0" encoding="UTF-8"?>
<svg id="Livello_1" data-name="Livello 1" xmlns="http://www.w3.org/2000/svg" viewBox="0 0 1136.98 938.43">
  <defs>
    <style>
      .cls-1 {
        fill: #3a89ff;
      }

      .cls-2 {
        fill: #fff;
      }

      .cls-3 {
        fill: #2f2f2f;
      }

      .cls-4 {
        fill: #42362e;
      }

      .cls-5 {
        fill: #7e746b;
      }

      .cls-6 {
        fill: #2866d8;
      }

      .cls-7 {
        fill: #4c3424;
      }

      .cls-8 {
        fill: #b37660;
      }

      .cls-9 {
        fill: #523826;
      }

      .cls-10 {
        fill: #a0968e;
      }

      .cls-11 {
        fill: #f2b68f;
      }
    </style>
  </defs>
  <g>
    <path class="cls-2" d="M577.92,840.49c-.28-2.08-28.4-209.42-41.38-291.31-7.08-44.61-17.31-79.86-31.26-107.77-15.57-31.15-35.55-52.91-61.06-66.52-21.47-11.45-44.21-20.35-63.02-26.73,2.13-1.08,4.22-2.24,6.25-3.47,12.99-7.91,24.01-19.12,32.76-33.34,12.44-20.21,20.41-46.61,23.76-78.56,10.35-2.92,17.96-12.45,17.96-23.72v-34.16c0-11.54-7.96-21.25-18.68-23.92-.62-5.67-1.22-10.11-1.65-12.99,5.67-12.26,22.44-53.21,10.68-85.97-5.68-15.81-16.89-27.41-33.32-34.46C392.93,6.4,359.14,0,326.25,0c-25.21,0-48.46,3.85-67.25,11.14-21.59,8.37-37.17,20.96-46.37,37.44-4.76,3.74-14.46,12.72-22.2,28.59-5.82,11.95-9.35,25.44-10.49,40.1-1.26,16.3.45,34.1,5.1,52.99-15.8,22.47-20.59,42.97-14.23,61.01,7.55,21.43,28.83,32.25,40.55,36.72,1.87,9.52,6.14,19.75,8.63,25.24-1.98,13.85-2.74,26.61-2.27,38.1l-92.98,38.14c-46.66,19.14-81.23,59.89-92.46,109.01C17.56,542.93,0,628.45,0,669.89c0,68,16.12,188.51,16.81,193.61l1.26,9.39,8.87.66c-.83,18.98-.53,44.15,5.43,57.86l3.05,7.02h433.26v-55.67h8.05c-.61,11.53-.39,26.24,1.24,44.99l.92,10.67h87.59l2.09-9.05c.16-.69,3.89-17.05,3.89-38.42,0-12.61-1.69-27.35-3.11-37.52l10.15-1.31-1.58-11.64ZM489.38,436.5c-1.88-3.27-3.84-6.42-5.86-9.46,2.03,3.04,3.98,6.19,5.86,9.46ZM556.73,848.04c-.11-.72-.22-1.37-.31-1.94.09.57.2,1.22.31,1.94ZM495.31,851.64c-.05.06-.1.13-.16.21.06-.08.11-.15.16-.21ZM494.33,853.18c-.09.16-.18.33-.27.51.09-.18.18-.35.27-.51ZM493.68,854.47c-.13.28-.26.58-.4.91.14-.32.27-.63.4-.91ZM492.49,857.45c-.23.68-.47,1.42-.71,2.23.24-.82.47-1.56.71-2.23ZM404.92,369.47c2.96,1.21,5.96,2.47,8.96,3.78,8.27,3.61,16.65,7.59,24.83,11.95,13.42,7.16,25.08,16.86,35.19,28.96-10.12-12.09-21.77-21.8-35.19-28.96-8.18-4.36-16.56-8.35-24.83-11.95-3.01-1.31-6-2.57-8.96-3.78-1.48-.61-2.96-1.2-4.42-1.78,1.47.58,2.94,1.17,4.42,1.78ZM229.32,320.35c-.02.96-.04,1.91-.05,2.85,0-.94.02-1.89.05-2.85ZM230.68,43.36c.21-.24.42-.48.63-.71-.22.23-.42.47-.63.71ZM221.68,56.42s-1.97,1.26-4.91,3.99c2.94-2.73,4.91-3.99,4.91-3.99h0ZM223.18,53.66c.17-.29.35-.58.52-.87-.17.29-.35.57-.52.87ZM224.81,51c.21-.33.44-.65.66-.98-.22.33-.44.65-.66.98ZM226.59,48.41c.24-.33.48-.65.72-.98-.24.32-.48.65-.72.98ZM228.52,45.89c.24-.3.48-.61.73-.9-.25.3-.49.6-.73.9ZM372.66,16.04c.27.05.54.1.81.15-.27-.05-.54-.1-.81-.15ZM367.38,15.1c.14.02.29.05.43.07-.14-.02-.29-.05-.43-.07ZM355.36,13.41c.26.03.53.06.79.09-.26-.03-.53-.06-.79-.09ZM361.26,14.16c.34.05.67.1,1.01.14-.34-.05-.67-.1-1.01-.14ZM337.63,11.95c.25.01.5.02.75.03-.25-.01-.5-.02-.75-.03ZM343.58,12.3c.35.02.71.05,1.06.08-.35-.03-.71-.05-1.06-.08ZM349.85,12.82c.19.02.38.04.57.06-.19-.02-.38-.04-.57-.06ZM336.52,347.23s1.69.39,4.62,1.14c-2.93-.75-4.57-1.13-4.62-1.14h0ZM381.44,360.6c2.02.7,4.07,1.43,6.16,2.19,3.48,1.27,7.06,2.61,10.7,4.03-3.64-1.42-7.22-2.76-10.7-4.03-2.09-.76-4.15-1.49-6.16-2.19-10.76-3.75-20.4-6.71-27.96-8.88-2.84-.81-5.38-1.52-7.58-2.11-.73-.2-1.43-.38-2.09-.56-.66-.17-1.27-.33-1.85-.48.57.15,1.19.31,1.85.48.66.17,1.35.36,2.09.56,2.2.59,4.75,1.29,7.58,2.11,7.56,2.17,17.2,5.12,27.96,8.88ZM378.36,17.18c.32.07.64.14.96.21-.32-.07-.64-.14-.96-.21ZM384.21,18.5c.1.02.2.05.3.07-.1-.02-.2-.05-.3-.07ZM389.13,19.75c.28.07.56.15.83.22-.28-.07-.55-.15-.83-.22ZM394.53,21.25c.3.09.6.18.9.27-.3-.09-.6-.18-.9-.27ZM399.98,22.94c.05.02.11.04.16.05-.05-.02-.11-.04-.16-.05ZM404.47,24.46c.27.1.54.19.81.29-.27-.1-.54-.19-.81-.29ZM442.3,221.01c-.47.2-.95.36-1.45.5.49-.14.98-.3,1.45-.5,1.07-.45,2.05-1.05,2.95-1.76-.9.71-1.89,1.31-2.95,1.76ZM450.23,174.91v34.16c0,3.57-1.46,6.81-3.81,9.16,2.35-2.35,3.81-5.59,3.81-9.16v-34.16c0-7.14-5.84-12.98-12.98-12.98h-4.7c-1.34-15.7-3.08-25.73-3.08-25.73h0s1.74,10.03,3.08,25.73h4.7c7.14,0,12.98,5.84,12.98,12.98ZM444.71,77.94c.09-19.83-6.82-39.54-30.37-49.64,0,0,0,0,0,0,0,0,0,0,0,0,23.54,10.1,30.46,29.8,30.37,49.64ZM409.41,26.3c.27.11.54.21.81.32-.27-.11-.54-.21-.81-.32ZM332.69,11.77c-.23,0-.47-.02-.7-.02.23,0,.47.01.7.02ZM326.79,11.69c-.44,0-.88,0-1.32,0,.26,0,.51,0,.77,0,.18,0,.37,0,.55,0ZM323.02,11.71c-.5,0-1,.01-1.51.02.5-.01,1-.02,1.51-.02ZM318.87,11.8c-.43.01-.86.02-1.29.04.43-.02.86-.03,1.29-.04ZM313.72,12.02c-.13,0-.26.02-.39.02.13,0,.26-.02.39-.02ZM309.85,12.27c-.45.03-.9.07-1.34.11.45-.04.89-.07,1.34-.11ZM305.99,12.58c-.51.05-1.02.1-1.52.15.51-.05,1.02-.1,1.52-.15ZM302.14,12.98c-.52.06-1.03.12-1.55.18.51-.06,1.03-.12,1.55-.18ZM298.27,13.44c-.49.06-.99.13-1.48.2.49-.07.99-.13,1.48-.2ZM294.24,14.02c-.4.06-.8.12-1.2.18.4-.06.8-.12,1.2-.18ZM289.38,14.82c-.26.05-.52.1-.77.15.26-.05.51-.1.77-.15ZM285.73,15.53c-.45.09-.89.19-1.34.29.45-.1.89-.19,1.34-.29ZM282.11,16.32c-.49.11-.97.23-1.45.34.48-.12.97-.23,1.45-.34ZM278.52,17.18c-.48.12-.96.25-1.44.37.48-.13.96-.25,1.44-.37ZM274.93,18.15c-.45.13-.9.25-1.34.38.44-.13.89-.25,1.34-.38ZM271.17,19.26c-.33.1-.67.2-1.01.31.33-.11.67-.21,1.01-.31ZM266.86,20.68c-.3.1-.59.22-.88.32.3-.11.59-.22.88-.32ZM263.58,21.89c-.41.16-.81.32-1.22.48.41-.16.81-.33,1.22-.48ZM260.36,23.19c-.43.18-.85.36-1.27.55.42-.18.85-.37,1.27-.55ZM233.82,40.1c-.11.11-.23.21-.34.32.11-.11.23-.21.34-.32ZM257.18,24.58c-.41.19-.83.38-1.24.57.41-.19.82-.38,1.24-.57ZM254.03,26.09c-.37.19-.75.37-1.12.56.37-.19.74-.37,1.12-.56ZM250.68,27.84c-.23.13-.47.25-.71.38.23-.13.47-.25.71-.38ZM247.16,29.87c-.27.17-.53.34-.8.51.27-.17.53-.34.8-.51ZM244.41,31.63c-.34.23-.67.46-1.01.69.33-.23.67-.46,1.01-.69ZM241.75,33.48c-.34.25-.69.5-1.02.76.34-.25.68-.51,1.02-.76ZM239.16,35.44c-.33.26-.65.51-.97.78.32-.26.65-.52.97-.78ZM236.61,37.55c-.28.24-.56.48-.83.72.27-.24.56-.48.83-.72ZM215.77,61.37c-.36.35-.73.72-1.11,1.11.38-.39.75-.76,1.11-1.11ZM212.64,64.65c-.36.41-.73.83-1.11,1.27.38-.44.74-.86,1.11-1.27ZM210.08,67.69c-.35.44-.7.89-1.06,1.36.35-.47.71-.92,1.06-1.36ZM203.12,78.1c-.74,1.33-1.48,2.71-2.19,4.18.71-1.46,1.45-2.85,2.19-4.18ZM205.61,73.94c-.59.91-1.17,1.87-1.75,2.86.58-.99,1.16-1.94,1.75-2.86ZM196.49,93.2c-.29.87-.57,1.75-.84,2.66.27-.91.56-1.79.84-2.66ZM193.45,104.66c-.19.95-.38,1.91-.55,2.9.17-.98.36-1.94.55-2.9ZM192.18,112.4c-.13.99-.24,1.99-.35,3,.1-1.02.22-2.02.35-3ZM191.28,123.79c-.03,1.02-.05,2.05-.06,3.1,0-1.05.03-2.08.06-3.1ZM180.83,205.85c1.53-7.09,4.82-15.03,10.44-23.92,1.87-2.96,4.01-6.03,6.42-9.2l.07-.26-.07.26c-2.41,3.17-4.55,6.24-6.42,9.2-5.62,8.88-8.91,16.83-10.44,23.92-.68,3.15-1.01,6.13-1.04,8.95.03-2.82.36-5.8,1.04-8.95ZM18.05,608.69c2.9-18.25,6.58-38.03,10.56-57.81,4.86-24.18,10.17-48.38,15.07-69.79,10.41-45.5,42.32-83.09,85.51-100.81l100.79-41.35h0s-100.79,41.35-100.79,41.35c-43.19,17.72-75.1,55.3-85.51,100.81-4.89,21.42-10.2,45.61-15.07,69.79-3.98,19.79-7.65,39.57-10.56,57.81-.65,4.06-1.25,8.03-1.82,11.92.56-3.89,1.17-7.87,1.82-11.92ZM13.41,642.69c-1.11,10.35-1.73,19.57-1.73,27.2,0-7.63.62-16.85,1.73-27.2ZM477.39,874.15l.03-2.95.06-5.82,1.12-.15c-.47,2.67-.88,5.62-1.21,8.91ZM560.78,890.96c0-7.59-.67-16.15-1.52-23.91-.42-3.88-.89-7.55-1.33-10.79.44,3.24.91,6.92,1.33,10.79.84,7.75,1.52,16.32,1.52,23.91h0ZM566.34,842.06s-28.23-208.35-41.35-291.05c-6.56-41.35-16.21-76.44-30.17-104.37,13.96,27.93,23.61,63.02,30.17,104.37,13.12,82.7,41.35,291.05,41.35,291.05h0Z"/>
    <path class="cls-2" d="M1126.59,200.94c-2.75-4.04-13.31-17.97-33.47-27.42-8.66-4.06-19.03-6.48-30.88-7.2-2.93-3.49-5.96-6.91-9.05-10.19-57.2-60.85-128.52-74.79-165.94-77.68-7.09-.55-14.25-.82-21.27-.82-48.63,0-94.98,13.31-134.02,38.48-16.7,10.77-32.08,23.74-45.8,38.63-4.5-.84-9.06-1.27-13.64-1.27-40.92,0-74.22,33.29-74.22,74.22,0,16.32,5.34,32.02,15.17,44.91-8.45,27.22-12.34,55.19-11.58,83.24.45,16.56,2.87,41.92,11.65,70.44-6.18,15.18-9.98,29.06-11.3,41.3-1.9,17.57,1.3,31.85,9.52,42.43,2.53,3.26,12.09,14.43,28.99,21.56,9.34,3.93,19.44,5.93,30.04,5.93,5.03,0,9.3-.44,12.48-.87,9.23,8.19,22.69,18.97,39.7,29.37,41.65,25.47,86.44,38.38,133.11,38.38.47,0,.94,0,1.42,0,35.81-.2,72.09-8.4,105.51-23.78,13.99,15.58,33.98,24.64,55.2,24.64,40.92,0,74.22-33.29,74.22-74.22,0-14.77-4.44-29.16-12.62-41.34,19.71-31.38,41.49-79.01,43.28-137.97.53-17.35-.73-34.96-3.74-52.4,9.31-17.41,15.18-34.86,17.03-50.71,2.17-18.62-1.2-35.09-9.75-47.64ZM1107.16,297.72c.83,4.44,1.54,8.89,2.14,13.36-.59-4.46-1.31-8.92-2.14-13.36h0ZM1107.18,297.71h0c-.02-.16-.04-.32-.07-.48.02.16.05.33.07.48ZM977.68,567.2c-1.42-1.59-2.75-3.26-3.98-5.01l-3.25-5.2c-1.06-1.93-2-3.93-2.82-6-.82-2.06-1.52-4.19-2.08-6.37.56,2.18,1.26,4.3,2.08,6.37.82,2.06,1.76,4.07,2.82,6l3.25,5.2c1.23,1.75,2.56,3.42,3.98,5.01s2.94,3.1,4.54,4.51c-1.6-1.41-3.11-2.92-4.54-4.51ZM621.49,477.86c.04,2.33.22,4.61.57,6.81.27,1.65.63,3.24,1.11,4.78.32,1.02.68,2.02,1.1,2.98-.42-.96-.78-1.96-1.1-2.98-.47-1.53-.84-3.13-1.11-4.78-.36-2.19-.54-4.47-.57-6.81ZM613.5,344.67c-.03,1.8-.04,3.6-.03,5.41,0-1.8,0-3.61.03-5.41ZM644.34,181.18c-15.69,9.54-26.19,26.81-26.19,46.48s10.5,36.93,26.19,46.48c-15.69-9.54-26.19-26.81-26.19-46.48s10.5-36.93,26.19-46.48ZM1101.64,372.11c-.41,3.41-.88,6.77-1.42,10.09.54-3.32,1.02-6.68,1.42-10.09ZM1102.99,356.44c.09-1.77.17-3.56.22-5.36,0-.03,0-.07,0-.1,0,.03,0,.07,0,.1-.05,1.8-.13,3.58-.22,5.36-.19,3.55-.45,7.05-.79,10.51.34-3.46.6-6.96.79-10.51ZM960.46,555.04c-8.32-1.72-16.58-3.69-24.73-5.92,8.16,2.23,16.41,4.21,24.73,5.92h0ZM857.31,572.81c-.42,0-.82,0-1.24,0-58.77,0-104.21-23.59-132.8-44.34,27.05-6.94,53.85-16.2,74.69-23.41l.57-.2c.7-.24,1.39-.48,2.08-.72,27.15,26.21,56.75,37.88,87.98,50.19,9.17,3.61,18.53,6.91,28.05,9.88-19.49,5.55-39.55,8.48-59.33,8.59ZM634.7,427.19h0c2.19,6.43,4.74,13,7.7,19.65-2.96-6.65-5.5-13.22-7.7-19.65ZM938.99,182.58c1.03,1.2,2,2.41,2.92,3.6-.92-1.19-1.9-2.39-2.92-3.6ZM934.02,177.16c-1.18-1.2-2.42-2.39-3.71-3.56-2.59-2.35-5.4-4.65-8.45-6.84s-6.34-4.27-9.87-6.19c-3.54-1.92-7.33-3.68-11.39-5.22,0,0-.02,0-.03-.01,0,0,.02,0,.03.01,4.06,1.54,7.85,3.3,11.39,5.22,3.54,1.92,6.83,4,9.87,6.19s5.86,4.49,8.45,6.84c1.29,1.18,2.53,2.37,3.71,3.56,1.18,1.2,2.31,2.4,3.39,3.61-1.08-1.21-2.21-2.41-3.39-3.61ZM898.34,154.53c.14.05.29.1.42.14-.13-.05-.28-.1-.42-.14ZM899.47,154.93c.1.04.21.08.31.11-.1-.03-.21-.07-.31-.11ZM780.02,269.97c.14,2.14.33,4.27.58,6.41-.25-2.14-.44-4.28-.58-6.41ZM771.92,252.28c.31-4.23.82-8.43,1.53-12.61-.71,4.18-1.22,8.38-1.53,12.61ZM636.03,405.89c2.53-4.74,5.12-9.28,7.68-13.53s5.1-8.23,7.52-11.82c5.11-7.6,10.71-14.91,16.74-21.93-6.04,7.02-11.63,14.33-16.74,21.93-2.42,3.6-4.96,7.57-7.52,11.82s-5.15,8.8-7.68,13.53ZM675.38,362.54c-.27.31-.53.61-.8.92.27-.31.53-.61.8-.92ZM671.58,354.49c3.18-3.53,6.47-6.98,9.88-10.35-3.41,3.37-6.7,6.82-9.88,10.35ZM681.49,344.11c2.28-2.25,4.61-4.47,6.98-6.64,2.38-2.18,4.8-4.32,7.28-6.42-2.47,2.1-4.9,4.24-7.28,6.42-2.38,2.18-4.71,4.39-6.98,6.64ZM699.5,327.93c5.04-4.13,10.28-8.1,15.7-11.9-5.42,3.81-10.65,7.78-15.7,11.9ZM722.06,311.36c1.86-1.23,3.73-2.44,5.63-3.63-1.9,1.19-3.77,2.4-5.63,3.63ZM733.94,313.47c-2.83,1.74-5.62,3.53-8.36,5.35,2.74-1.83,5.53-3.61,8.36-5.35ZM736.34,302.51c2.41-1.4,4.86-2.76,7.33-4.1-2.47,1.34-4.92,2.7-7.33,4.1ZM755.99,301.2c4.57-2.29,9.23-4.48,13.98-6.57-4.75,2.09-9.41,4.28-13.98,6.57-3.05,1.53-6.05,3.1-9.01,4.71,2.96-1.61,5.97-3.19,9.01-4.71ZM782.72,289.34l-.63-3.31.63,3.31h0ZM791,207.49c-.65,1.53-1.26,3.05-1.82,4.55.56-1.5,1.17-3.02,1.82-4.55ZM795.54,198.21c1.12-2.02,2.36-4.03,3.68-6.03-1.33,1.99-2.56,4.01-3.68,6.03-.86,1.55-1.67,3.11-2.43,4.66.75-1.55,1.56-3.11,2.43-4.66ZM803.16,186.73c-.93,1.18-1.81,2.38-2.66,3.58.85-1.21,1.73-2.4,2.66-3.58ZM811.11,178.11c3.69-3.43,7.86-6.63,12.61-9.48,0,0,0,0,0,0,0,0,0,0,0,0-4.74,2.85-8.92,6.05-12.61,9.48-2.21,2.06-4.25,4.2-6.12,6.4,1.88-2.2,3.91-4.34,6.12-6.4ZM819.51,161.62c1.07-.64,2.13-1.25,3.2-1.83-1.07.58-2.14,1.19-3.2,1.83ZM864.31,157.5c-.31,0-.62,0-.93.01.31,0,.62,0,.93-.01ZM861.26,157.59c-.18,0-.37.01-.55.02.19,0,.37-.01.55-.02ZM858.01,157.79c-.27.02-.55.05-.83.08.28-.03.55-.06.83-.08ZM855.24,158.07c-.36.04-.71.09-1.07.13.36-.05.72-.09,1.07-.13ZM852.42,158.44c-.38.06-.76.12-1.15.18.38-.06.77-.12,1.15-.18ZM849.54,158.93c-.38.07-.77.14-1.15.22.38-.08.77-.15,1.15-.22ZM846.54,159.54c-.35.08-.69.15-1.04.23.35-.08.7-.16,1.04-.23ZM843.04,160.41c-.15.04-.3.08-.45.12.15-.04.3-.08.45-.12ZM839.68,161.4c-.31.1-.62.21-.94.32.31-.1.62-.22.94-.32ZM836.73,162.42c-.37.14-.75.28-1.12.43.37-.14.75-.29,1.12-.43ZM833.76,163.58c-.39.16-.78.33-1.17.5.39-.17.78-.33,1.17-.5ZM830.75,164.91c-.38.18-.76.35-1.13.53.38-.18.76-.36,1.13-.53ZM827.62,166.46c-.32.17-.65.33-.97.5.32-.17.64-.34.97-.5ZM823.76,159.25c.72-.38,1.44-.76,2.16-1.11-.72.35-1.44.73-2.16,1.11ZM827.15,157.55c.66-.31,1.32-.62,1.98-.91-.66.29-1.32.6-1.98.91ZM830.43,156.09c.65-.27,1.29-.54,1.94-.79-.65.25-1.29.52-1.94.79ZM833.65,154.81c.66-.24,1.31-.48,1.96-.7-.65.23-1.31.46-1.96.7ZM836.85,153.68c.69-.23,1.38-.44,2.07-.65-.69.21-1.38.42-2.07.65ZM840.02,152.7c.82-.24,1.64-.45,2.46-.66-.82.21-1.64.43-2.46.66ZM843.15,151.86c1.05-.26,2.1-.5,3.14-.72-1.04.22-2.09.46-3.14.72ZM846.9,151.03c.83-.17,1.65-.33,2.47-.47-.82.14-1.65.3-2.47.47ZM850.42,150.39c.67-.11,1.34-.21,2.01-.3-.67.09-1.34.2-2.01.3ZM853.58,149.94c.62-.08,1.24-.15,1.86-.22-.62.06-1.24.14-1.86.22ZM856.62,149.61c.6-.06,1.2-.1,1.8-.15-.6.04-1.2.09-1.8.15ZM859.58,149.38c.6-.04,1.2-.06,1.8-.09-.6.02-1.2.05-1.8.09ZM862.47,149.25c.64-.02,1.27-.03,1.9-.04-.63,0-1.26.02-1.9.04ZM865.29,149.2c.06,0,.13,0,.19,0,.3,0,.58.01.88.01-.36,0-.71-.01-1.07-.01ZM867.81,157.52c-.63-.02-1.27-.03-1.91-.03.64,0,1.28.02,1.91.03ZM897.63,162.96c-.12-.05-.27-.1-.45-.17.18.06.32.12.45.17ZM896.93,162.71c-.15-.05-.3-.11-.48-.17.18.06.33.12.48.17ZM896.09,162.41c-.18-.06-.37-.12-.57-.19.2.07.39.13.57.19ZM895.05,162.07c-.21-.07-.44-.14-.67-.21.23.07.46.14.67.21ZM893.83,161.68c-.25-.08-.52-.16-.79-.24.27.08.54.16.79.24ZM892.42,161.27c-.3-.09-.63-.18-.96-.27.33.09.65.18.96.27ZM890.84,160.83c-.54-.14-1.11-.29-1.71-.44.6.15,1.16.29,1.71.44ZM888.71,160.29c-.48-.12-.97-.23-1.48-.35.51.12,1,.23,1.48.35ZM886.45,159.77c-.42-.09-.84-.18-1.27-.27.44.09.85.18,1.27.27ZM884.26,159.32c-.42-.08-.85-.16-1.29-.24.44.08.86.16,1.29.24ZM881.98,158.91c-.45-.08-.9-.15-1.36-.22.46.07.91.15,1.36.22ZM879.57,158.53c-.49-.07-.99-.14-1.49-.2.5.07,1,.13,1.49.2ZM877.05,158.19c-.58-.07-1.17-.13-1.77-.19.6.06,1.19.12,1.77.19ZM874.41,157.91c-.89-.08-1.8-.16-2.72-.22.92.06,1.83.13,2.72.22ZM871.11,157.66c-.75-.04-1.5-.08-2.26-.11.77.03,1.52.07,2.26.11ZM868.4,149.24c.4.01.78.03,1.17.05-.39-.02-.78-.03-1.17-.05ZM871.41,149.38c.4.02.79.05,1.18.08-.39-.03-.78-.06-1.18-.08ZM874.33,149.59c.39.03.77.07,1.15.11-.38-.04-.76-.07-1.15-.11ZM877.16,149.87c.36.04.72.08,1.08.13-.36-.04-.72-.09-1.08-.13ZM879.9,150.22c.33.05.66.09.98.14-.32-.05-.65-.09-.98-.14ZM882.58,150.64c.27.04.54.09.8.13-.26-.05-.54-.09-.8-.13ZM885.39,151.14c.12.02.25.05.37.07-.12-.02-.25-.05-.37-.07ZM888.05,151.69c.13.03.24.06.37.08-.12-.03-.24-.06-.37-.08ZM890.16,152.17c.22.05.43.11.65.16-.22-.05-.43-.11-.65-.16ZM892.11,152.67c.23.06.46.12.68.18-.23-.06-.45-.12-.68-.18ZM893.92,153.16c.22.06.44.13.66.19-.22-.06-.43-.13-.66-.19ZM895.56,153.64c.2.06.4.12.6.18-.19-.06-.4-.12-.6-.18ZM897.04,154.1c.18.06.35.11.52.17-.17-.05-.34-.11-.52-.17ZM943.27,187.95c.88,1.18,1.7,2.35,2.48,3.5-.78-1.15-1.61-2.32-2.48-3.5ZM948.95,196.46c.64,1.07,1.24,2.12,1.8,3.13-.56-1.01-1.16-2.05-1.8-3.13ZM951.56,201.07c1.03,1.94,1.9,3.73,2.62,5.3h0c-.72-1.57-1.59-3.36-2.62-5.3ZM959.02,190.5c-9.22-15.47-25.91-35.29-54.27-46.08-5.46-2.08-20.22-6.91-39.27-6.91-18.92,0-36.41,4.74-51.99,14.09-16.33,9.81-29.11,23.92-37.99,41.97-7.19,14.61-10.34,28.83-12.22,37.32-3.34,15.09-4.2,30.56-2.58,46.12-50.36,22.4-91.44,55.8-119.17,96.99-1.89,2.81-3.78,5.74-5.64,8.74-1.65-11-2.29-20.53-2.49-27.8-.55-20.33,1.69-40.64,6.68-60.57,10.05,4.89,21.16,7.5,32.43,7.5,40.92,0,74.22-33.29,74.22-74.22,0-23.59-11.32-45.54-29.79-59.4,9.9-9.69,20.66-18.29,32.11-25.67,33.94-21.88,74.36-33.45,116.92-33.45,6.22,0,12.56.25,18.85.73,31.04,2.4,88.6,13.41,136.95,59.36-21.47,3.87-42.51,11-62.74,21.27ZM647.21,231.2c.49.2.95.5,1.35.9-.4-.4-.86-.7-1.35-.9ZM669.99,265.09l43.88-43.88c.24-.24.46-.51.69-.76.4,2.35.62,4.76.62,7.22,0,23.53-19.15,42.68-42.68,42.68-2.44,0-4.83-.22-7.16-.61l4.64-4.64ZM732.23,246.24c-.61,1.96-1.31,3.87-2.11,5.74.79-1.87,1.5-3.79,2.11-5.74ZM685.09,288.93c-2.03.42-4.1.74-6.2.95,2.1-.21,4.17-.53,6.2-.95ZM696.83,285.28c-1.87.79-3.79,1.5-5.74,2.11,1.96-.61,3.87-1.31,5.74-2.11ZM707.45,279.5c-2.5,1.69-5.12,3.2-7.85,4.52,2.73-1.32,5.36-2.83,7.85-4.52ZM720.75,267.42c-1.28,1.54-2.62,3.03-4.04,4.44,1.42-1.42,2.76-2.9,4.04-4.44ZM666.96,281.74c-1.83-.19-3.62-.46-5.39-.83,1.77.36,3.57.64,5.39.83ZM691.58,198.9l-29.85,29.85-4.92-4.92c-2.98-2.98-6.94-4.62-11.15-4.62s-8.18,1.64-11.15,4.62c-2.38,2.38-3.89,5.4-4.4,8.68-.18-1.59-.28-3.21-.28-4.86,0-23.53,19.15-42.68,42.68-42.68,10.23,0,19.63,3.62,26.99,9.64-2.98.62-5.71,2.08-7.91,4.28ZM634.52,246.13l18.96,18.96,1.45,1.45c-9.48-4.3-17.11-11.97-21.38-21.48.31.37.63.73.97,1.07ZM653.84,278.72c-1.66-.61-3.29-1.3-4.87-2.06,1.58.76,3.21,1.45,4.87,2.06ZM630.23,285.91c-1.7,6.18-3.15,12.39-4.35,18.64,1.2-6.24,2.64-12.46,4.35-18.64.9-3.25,1.86-6.49,2.9-9.72h0c-1.04,3.23-2,6.47-2.9,9.72ZM621.72,355.27c-.09-3.33-.11-6.65-.06-9.98-.05,3.32-.03,6.65.06,9.98ZM621.67,345.15c.05-3.21.17-6.42.35-9.63-.18,3.21-.3,6.42-.35,9.63ZM622.06,334.95c.18-3.06.43-6.11.73-9.16-.3,3.05-.55,6.1-.73,9.16ZM622.39,367.64c-.18-2.24-.32-4.4-.43-6.46.11,2.06.25,4.22.43,6.46ZM624.69,311.23c-.73,4.5-1.33,9.02-1.8,13.55.47-4.53,1.07-9.04,1.8-13.55ZM626.77,398.14c-.87-4.21-1.61-8.29-2.22-12.22.61,3.93,1.35,8.01,2.22,12.22ZM633.29,473.18c5.45,9.98,11.57,19.56,18.33,28.7-7.67-3.56-13.1-8.83-14.97-11.24-2.84-3.65-3.95-9.66-3.36-17.46ZM647.14,456.86c1.69,3.36,3.49,6.73,5.4,10.1-1.91-3.37-3.71-6.74-5.4-10.1ZM647.28,427.76c8.29-17.68,17.6-31.95,20.41-36.13,26.3-39.07,66.49-70.25,116.24-90.19l3.13-1.25,8.94-3.58-1.81-9.46-.63-3.31c-2.99-15.59-2.82-31.11.5-46.11,3.36-15.18,9.62-43.44,35.66-59.08,10.48-6.29,22.5-9.48,35.75-9.48,15.18,0,26.79,4.25,28.07,4.74,29.32,11.15,41.07,36.52,43.98,44.03l1.75,4.52,4.99,12.9,11.88-7.08,4.16-2.48c23.46-13.98,48.19-22.92,73.5-26.57,4.51-.65,8.89-1.1,13.1-1.35,26.23,35.97,35.95,73.46,39.54,95.23-2.27,3.71-4.7,7.39-7.29,11.03-5.53-10.83-13.29-20.52-22.82-28.31-15.65-12.79-35.39-19.83-55.59-19.83-21.25,0-41.78,7.71-57.81,21.71-11.7,10.22-20.42,23.25-25.4,37.7-9.27-4.37-18.16-7.19-25.41-9.01,19.59-8.96,33.24-28.73,33.24-51.65,0-31.31-25.47-56.78-56.78-56.78s-56.78,25.47-56.78,56.78c0,21.68,12.22,40.55,30.12,50.11-6.02,1.03-12.48,2.56-19.08,4.81-20.04,6.83-36.33,18.41-48.41,34.42-23.8,31.52-21.77,67.2-18.44,85.66,3.69,20.48,12.31,36.14,21.9,48.88-24.92,8.56-55.81,18.72-84.33,24.28-1.42-1.47-2.55-2.69-3.37-3.6-18.81-20.91-33.23-44.96-42.91-71.55ZM1046.53,394.41c13.72-12.47,22.35-30.46,22.35-50.42,0-7.04-1.07-13.84-3.07-20.24-1.54-4.94-3.64-9.63-6.21-14.02,2.57,4.39,4.67,9.08,6.21,14.02,1.99,6.4,3.07,13.2,3.07,20.24,0,19.96-8.63,37.94-22.35,50.42ZM957.84,407.07c-.07,2.24-.27,4.51-.63,6.78.36-2.27.57-4.54.63-6.78h0ZM821.84,496.55c-1.61-1.36-3.21-2.77-4.8-4.22,1.59,1.46,3.19,2.86,4.8,4.22ZM874.4,447.21c-22.8,7.72-32.96,10.76-41.93,13.43-6.55,1.96-12.79,3.82-22.79,7.12-10.04-11.55-19.28-24.85-22.66-43.6-2.41-13.39-3.99-39.13,12.57-61.06,18.84-24.95,48.96-28.68,65.24-28.68,3.46,0,6.04.18,7.27.29.23.02,21.42,2.02,40.75,13.9,1.31,24.99,13.23,48.21,32.73,63.91-.44,2.59-1.13,5.08-2.07,7.44-.42,1.06-.89,2.1-1.41,3.12-22.29,8.34-45.05,16.45-67.72,24.13ZM828.33,474.08c-1.56.48-3.19.98-4.93,1.53,1.74-.55,3.37-1.05,4.93-1.53ZM939.76,389.82c1.37,1.82,2.83,3.58,4.36,5.28-1.53-1.69-2.98-3.45-4.36-5.28ZM944.69,349.76c1.84,2.13,3.6,4.4,5.27,6.8-1.66-2.4-3.43-4.66-5.27-6.8ZM954.63,364.18c-.72-1.34-1.48-2.65-2.26-3.92.78,1.27,1.53,2.58,2.26,3.92.58,1.07,1.18,2.23,1.79,3.47-.61-1.24-1.21-2.39-1.79-3.47ZM955.3,387.44c-.26-.94-.53-1.86-.81-2.77.28.91.56,1.83.81,2.77ZM1026.5,323.85c.8-.8,1.84-1.2,2.89-1.2-1.05,0-2.09.4-2.89,1.2ZM980.14,381.77l8.26,8.26,8.26-8.26,43.88-43.88c2.98-2.98,4.62-6.94,4.62-11.15s-1.64-8.17-4.62-11.15c-2.98-2.98-6.94-4.62-11.15-4.62,0,0,0,0,0,0-4.21,0-8.17,1.64-11.15,4.62l-29.84,29.84-4.92-4.92c-2.98-2.98-6.94-4.62-11.15-4.62s-8.18,1.64-11.15,4.62c-1.8,1.8-3.11,3.97-3.86,6.33-3.56-4.72-7.58-9.13-12.06-13.2,4.91-26.28,28.25-46.12,55.49-46.12,31.13,0,56.46,25.33,56.46,56.46s-25.33,56.46-56.46,56.46c-8.2,0-16.27-1.79-23.66-5.22-1.01-8.06-3.11-15.54-5.57-22.09l8.63,8.63ZM1048.9,295.83c2.76,2.76,5.28,5.77,7.54,8.98-2.26-3.2-4.77-6.21-7.54-8.98ZM941.87,346.65c-2.87-3.01-5.9-5.74-9.02-8.21.25-3.09.72-6.13,1.37-9.09-.65,2.97-1.12,6-1.37,9.09,3.12,2.47,6.15,5.2,9.02,8.21ZM934.49,328.18c.45-1.87.96-3.72,1.56-5.52-.6,1.81-1.11,3.65-1.56,5.52ZM937.46,318.82c1.3-3.27,2.85-6.41,4.62-9.41-1.77,3-3.32,6.14-4.62,9.41ZM932.82,349.16c1.43,18.93,10.6,35.72,24.38,47.2h0c-13.78-11.47-22.95-28.27-24.38-47.2h0ZM937.12,386.09c-.84-1.27-1.65-2.57-2.42-3.89.77,1.32,1.58,2.62,2.42,3.89ZM925.78,358.36c-.3-1.55-.55-3.12-.75-4.7-.19-1.52-.34-3.06-.44-4.6.1,1.55.25,3.08.44,4.6.2,1.58.45,3.15.75,4.7.3,1.55.64,3.09,1.03,4.6-.39-1.52-.73-3.05-1.03-4.6ZM924.43,343.99h0c0-.57.03-1.13.04-1.69h0c-.01.56-.04,1.12-.04,1.69ZM881.67,316.08c-.89-.17-1.72-.31-2.47-.43.76.12,1.58.27,2.47.43.89.17,1.84.35,2.85.57-1.01-.21-1.96-.4-2.85-.57ZM876.28,315.21c.53.07,1.15.16,1.83.26-.69-.11-1.3-.19-1.83-.26ZM872.95,314.86c.33.03.64.05.91.07-.27-.02-.58-.05-.91-.07ZM871.77,314.78c.31.02.61.04.89.06-.28-.02-.57-.04-.89-.06ZM868.64,314.63c.42.01.82.03,1.2.04-.38-.02-.79-.03-1.2-.04ZM870.16,314.69c.46.02.9.04,1.31.07-.41-.02-.85-.05-1.31-.07ZM866.6,314.58c.55,0,1.08.02,1.58.03-.51-.01-1.03-.03-1.58-.03ZM864.68,314.57c.1,0,.21,0,.31,0,.52,0,1.01,0,1.5,0-.58,0-1.18,0-1.8,0ZM802.86,342.95c.71-.59,1.43-1.16,2.16-1.71-.72.55-1.44,1.12-2.16,1.71ZM790.28,356.06c-2.69,3.57-4.96,7.21-6.88,10.88,1.92-3.67,4.19-7.31,6.88-10.88,1.43-1.89,2.92-3.68,4.45-5.37-1.53,1.69-3.02,3.47-4.45,5.37ZM775.28,424.76c-.17-1.01-.33-2.07-.48-3.18.15,1.11.31,2.17.48,3.18ZM773.86,408.32c.02,2.79.16,5.45.36,7.95.1,1.25.23,2.45.36,3.61-.14-1.16-.26-2.36-.36-3.61-.21-2.49-.34-5.15-.36-7.95ZM774.03,401.67c.08-1.44.2-2.9.36-4.38-.16,1.48-.27,2.94-.36,4.38ZM780.67,443.97c-1.65-4.05-3.06-8.38-4.15-13.01,1.09,4.63,2.51,8.96,4.15,13.01ZM776.6,384.8c.3-1.17.62-2.35.97-3.54-.35,1.18-.68,2.36-.97,3.54ZM779.87,374.64c.38-.96.78-1.91,1.2-2.87-.42.96-.82,1.91-1.2,2.87ZM792.66,465.2c-2.23-3.07-4.41-6.35-6.44-9.88,2.03,3.53,4.2,6.81,6.44,9.88ZM799.47,473.79c2.27,2.67,4.52,5.15,6.65,7.48,4.49-1.52,8.3-2.78,11.67-3.87-3.36,1.09-7.18,2.35-11.67,3.87-2.13-2.33-4.38-4.81-6.65-7.48-1.51-1.78-3.04-3.64-4.55-5.59,1.51,1.95,3.04,3.81,4.55,5.59ZM831.38,473.16c1.5-.45,2.96-.89,4.43-1.33,5.95-1.77,12.42-3.71,22.66-7.02-10.24,3.32-16.71,5.25-22.66,7.02-1.48.44-2.94.88-4.43,1.33ZM871.37,460.55c-.85.29-1.68.56-2.5.83.81-.27,1.65-.55,2.5-.83ZM865.92,462.37c-1.92.64-3.73,1.23-5.44,1.79,1.71-.56,3.52-1.15,5.44-1.79ZM956.54,417.32c-.2.88-.42,1.75-.67,2.63.25-.88.47-1.75.67-2.63ZM957.34,369.56c.92,1.97,1.85,4.11,2.74,6.39-.89-2.28-1.82-4.42-2.74-6.39ZM976,407.47c-2.09-.82-4.13-1.74-6.12-2.75,1.99,1.01,4.03,1.93,6.12,2.75ZM1024.14,407.99c2.09-.77,4.13-1.63,6.11-2.59-1.99.96-4.02,1.82-6.11,2.59s-4.22,1.43-6.4,1.99c2.18-.56,4.31-1.23,6.4-1.99ZM1067.29,306.69c-2.09-3.72-4.49-7.25-7.16-10.56,2.67,3.3,5.06,6.83,7.16,10.56,1.05,1.86,2.02,3.77,2.91,5.72,2.23,4.88,3.96,10.04,5.12,15.4h0c-1.16-5.36-2.89-10.52-5.12-15.4-.89-1.95-1.86-3.86-2.91-5.72ZM907.37,323.69c1.45.6,2.92,1.24,4.4,1.93-1.48-.68-2.95-1.32-4.4-1.93ZM896.9,319.89c2.65.83,5.43,1.8,8.3,2.92-2.87-1.12-5.65-2.09-8.3-2.92ZM891.2,318.23c-1.81-.48-3.53-.9-5.12-1.25,1.59.36,3.31.77,5.12,1.25,1.21.32,2.46.67,3.75,1.06-1.29-.38-2.54-.73-3.75-1.06ZM868.58,279.99c-13.92,0-25.24-11.32-25.24-25.24s11.32-25.24,25.24-25.24,25.24,11.32,25.24,25.24-11.32,25.24-25.24,25.24ZM839.86,317.13c.83-.17,1.66-.33,2.47-.48-.82.15-1.64.31-2.47.48ZM842.8,316.56c.97-.18,1.93-.34,2.88-.49-.95.15-1.91.31-2.88.49ZM846.46,315.96c.69-.1,1.37-.2,2.04-.29-.67.09-1.35.19-2.04.29ZM849.46,315.55c.61-.08,1.21-.15,1.81-.21-.59.07-1.2.14-1.81.21ZM852.19,315.23c.63-.06,1.24-.12,1.85-.18-.61.05-1.23.11-1.85.18ZM854.78,314.99c.84-.07,1.67-.13,2.47-.18-.8.05-1.63.11-2.47.18ZM857.46,314.8c.73-.04,1.45-.08,2.15-.11-.7.03-1.42.07-2.15.11ZM860.34,314.66c.51-.02,1.02-.04,1.51-.05-.49.01-1,.03-1.51.05ZM862.62,314.6c.47,0,.94-.02,1.39-.02-.45,0-.91,0-1.39.02ZM836.83,317.81c.69-.16,1.37-.32,2.05-.46-.68.15-1.36.3-2.05.46ZM833.66,318.6c.7-.19,1.39-.36,2.08-.53-.69.17-1.38.35-2.08.53ZM826.37,320.82c1.05-.36,2.1-.71,3.14-1.03-1.04.32-2.09.67-3.14,1.03ZM830.03,319.64c.87-.26,1.74-.52,2.6-.76-.86.24-1.73.49-2.6.76ZM823.2,321.97c.77-.3,1.55-.58,2.32-.85-.77.27-1.54.55-2.32.85ZM812.45,326.81c1.06-.56,2.12-1.09,3.18-1.6-1.06.51-2.12,1.04-3.18,1.6ZM816.58,324.77c.75-.35,1.5-.69,2.25-1.02-.75.33-1.5.67-2.25,1.02ZM819.97,323.27c.71-.3,1.41-.59,2.12-.86-.71.28-1.41.57-2.12.86ZM809.31,328.56c.94-.55,1.89-1.07,2.83-1.58-.95.5-1.89,1.03-2.83,1.58ZM795.92,338.11c.98-.85,1.97-1.67,2.96-2.46-1,.79-1.99,1.61-2.96,2.46ZM799.56,335.13c.78-.61,1.57-1.2,2.36-1.77-.79.57-1.58,1.17-2.36,1.77ZM802.98,332.61c.68-.48,1.37-.95,2.06-1.4-.69.45-1.37.92-2.06,1.4ZM806.16,330.48c.71-.45,1.42-.89,2.13-1.31-.71.43-1.43.86-2.13,1.31ZM790.14,343.64c.62-.65,1.24-1.28,1.87-1.9-.63.62-1.25,1.25-1.87,1.9ZM793.01,340.76c.71-.68,1.44-1.34,2.17-1.99-.73.65-1.45,1.31-2.17,1.99ZM783.76,351.13c.86-1.14,1.74-2.23,2.63-3.29-.89,1.07-1.77,2.16-2.63,3.29ZM787.25,346.83c.62-.72,1.24-1.43,1.88-2.12-.63.69-1.26,1.4-1.88,2.12ZM775.46,364.46c.9-1.8,1.89-3.59,2.95-5.37-1.06,1.78-2.04,3.58-2.95,5.37ZM755.91,498.28c6.39-2.05,12.61-4.12,18.56-6.14-5.96,2.02-12.18,4.09-18.56,6.14ZM774.22,500.85c-2.56.86-5.15,1.73-7.8,2.6,2.65-.87,5.24-1.74,7.8-2.6ZM785.42,497.04c-1.24.43-2.49.85-3.75,1.29,1.27-.43,2.52-.86,3.75-1.29ZM868.19,524.49c-3.61-1.61-7.19-3.28-10.73-5.04-2.66-1.32-5.29-2.69-7.9-4.12,2.61,1.43,5.25,2.8,7.9,4.12,3.54,1.76,7.12,3.43,10.73,5.04,1.81.8,3.62,1.59,5.44,2.37-1.82-.78-3.64-1.57-5.44-2.37ZM824.27,498.56c7.32,5.91,14.89,10.92,22.68,15.33-7.79-4.42-15.36-9.42-22.68-15.33ZM852.09,475.42c-.19.06-.37.12-.55.17.18-.06.37-.12.55-.17ZM865.64,471.07c-2.18.72-4.21,1.38-6.11,1.99,1.9-.61,3.93-1.27,6.11-1.99ZM880.78,466.01c6.15-2.08,12.31-4.2,18.47-6.34,18.47-6.43,36.91-13.12,55.02-19.95-18.12,6.83-36.55,13.51-55.02,19.95-6.16,2.14-12.32,4.26-18.47,6.34-1.69.57-3.3,1.12-4.86,1.64,1.56-.52,3.17-1.07,4.86-1.64ZM873.32,468.52c-.42.14-.84.28-1.26.42.41-.14.84-.28,1.26-.42ZM956.21,438.19c.58-.86,1.14-1.73,1.67-2.62-.53.89-1.09,1.76-1.67,2.62l-.73,1.07.73-1.07ZM961.99,427.27c.51-1.3.97-2.59,1.38-3.89-.41,1.3-.86,2.59-1.38,3.89-.38.95-.78,1.9-1.21,2.83.43-.93.84-1.88,1.21-2.83ZM697.11,522.45c2.48,2.2,5.21,4.53,8.18,6.95-2.98-2.42-5.71-4.75-8.18-6.95h0ZM895.86,535.87c-6.58-2.6-13.08-5.16-19.49-7.85,6.41,2.69,12.91,5.25,19.49,7.85,5.18,2.04,10.41,3.97,15.71,5.8-5.29-1.82-10.53-3.75-15.71-5.8ZM956.89,543.43c-.82-4.02-1.25-8.18-1.25-12.44,0-12.93,3.95-24.96,10.69-34.94-6.75,9.98-10.69,22.01-10.69,34.94,0,4.26.43,8.42,1.25,12.44ZM1018.18,520.92l10.07,10.08-10.07,10.07-10.08-10.07,10.08-10.08ZM1018.5,476.64h0c5.5.03,10.82.88,15.82,2.44-5.01-1.56-10.32-2.41-15.82-2.44ZM1003.63,490.87l-25.58,25.58c4.31-11.85,13.73-21.27,25.58-25.58ZM1032.73,490.87c11.85,4.31,21.27,13.73,25.57,25.58l-25.57-25.58ZM1050.69,487.45c1.4,1.04,2.74,2.15,4.03,3.33-1.29-1.17-2.63-2.28-4.03-3.33ZM1050.74,477.63c-3.95-2.42-8.2-4.42-12.66-5.93,4.47,1.51,8.71,3.5,12.66,5.93,1.58.97,3.12,2.01,4.6,3.11,1.49,1.1,2.92,2.27,4.3,3.49h0c-1.38-1.23-2.82-2.39-4.3-3.49-1.49-1.1-3.02-2.14-4.6-3.11ZM1014.97,468.54c-8.51.43-16.59,2.58-23.87,6.09,7.29-3.52,15.36-5.66,23.87-6.09,1.06-.05,2.14-.08,3.21-.08h0c-1.08,0-2.15.03-3.21.08ZM968.08,493.6c4.81-6.42,10.82-11.89,17.69-16.08-6.88,4.18-12.89,9.65-17.69,16.08ZM1003.58,571.07c-8-2.93-15.07-8.23-20.16-15.36l-2.88-4.61c-.95-1.78-1.76-3.63-2.45-5.52l25.49,25.49ZM1058.31,545.54c-4.31,11.85-13.73,21.27-25.58,25.58l25.58-25.58ZM1056.41,467.41c-11.48-6.92-24.67-10.64-38.23-10.64-40.92,0-74.22,33.29-74.22,74.22,0,2.81.16,5.59.47,8.35-15.17-3.9-30-8.7-44.28-14.34-22.91-9.04-44.82-17.68-64.49-32.4,1.99-.6,3.9-1.17,5.83-1.75,9.24-2.76,19.7-5.88,43.03-13.78,24.73-8.38,49.58-17.27,73.86-26.42l1.22-.46,3.46-1.31,2.08-3.06.73-1.07c2.81-4.15,5.16-8.59,6.98-13.18.48-1.22.93-2.45,1.34-3.7,8.57,2.72,17.55,4.12,26.55,4.12,48.52,0,87.99-39.47,87.99-87.99,0-.45,0-.9-.01-1.36.97-1.09,1.92-2.18,2.87-3.28.08,3.81.06,7.61-.05,11.38-1.48,48.85-18.69,89.07-35.12,116.68ZM1086.52,432.3c-1.06,2.75-2.16,5.43-3.28,8.07-1.12,2.63-2.27,5.21-3.43,7.73,1.17-2.52,2.31-5.1,3.43-7.73,1.12-2.63,2.21-5.32,3.28-8.07ZM1076.25,455.48c-1.8,3.6-3.64,7.08-5.49,10.41,1.85-3.34,3.69-6.81,5.49-10.41ZM1067.05,472.38c-1,1.7-2,3.35-3,4.96,1-1.62,2-3.26,3-4.96ZM1062.66,479.57c-.79,1.25-1.58,2.48-2.37,3.69.79-1.2,1.57-2.43,2.37-3.69ZM880.78,97.9c1.64.1,3.28.21,4.93.33-1.65-.13-3.29-.24-4.93-.33ZM868.93,97.49c-.94-.01-1.88-.03-2.82-.03.94,0,1.88.02,2.82.03ZM869,89.32c.71,0,1.42,0,2.13.02-.71-.01-1.42-.01-2.13-.02ZM874.2,89.43c.66.02,1.31.03,1.97.06-.66-.03-1.31-.04-1.97-.06ZM879.72,89.66c.51.03,1.02.04,1.53.07-.51-.03-1.02-.05-1.53-.07ZM879.07,97.81c-1.07-.06-2.14-.11-3.2-.16,1.06.04,2.13.1,3.2.16ZM873.89,97.6c-.97-.03-1.94-.07-2.91-.08.97.02,1.94.05,2.91.08ZM750.1,128.23c.48-.28.96-.56,1.45-.84-.48.28-.97.56-1.45.84ZM753.87,126.06c.51-.29,1.02-.57,1.53-.85-.51.28-1.02.56-1.53.85ZM757.7,123.96c.51-.28,1.03-.55,1.55-.82-.52.27-1.03.55-1.55.82ZM761.62,121.91c.5-.25.99-.51,1.49-.76-.5.25-.99.5-1.49.76ZM765.74,119.86c.42-.2.83-.41,1.25-.61-.42.2-.83.41-1.25.61ZM770.9,117.44c.16-.07.33-.14.49-.22-.16.07-.33.14-.49.22ZM774.85,115.7c.47-.2.94-.39,1.41-.59-.47.2-.94.39-1.41.59ZM778.85,114.04c.54-.22,1.07-.43,1.61-.64-.54.21-1.08.42-1.61.64ZM782.89,112.45c.56-.21,1.12-.42,1.68-.63-.56.21-1.12.42-1.68.63ZM786.99,110.93c.56-.2,1.12-.4,1.69-.6-.56.2-1.13.4-1.69.6ZM791.19,109.47c.54-.18,1.07-.36,1.61-.54-.54.18-1.07.36-1.61.54ZM795.61,108.03c.44-.14.88-.28,1.33-.42-.44.14-.88.28-1.33.42ZM801.07,106.38c.29-.08.58-.16.86-.24-.29.08-.58.16-.86.24ZM805.27,105.23c.51-.14,1.03-.27,1.55-.4-.52.13-1.03.26-1.55.4ZM809.51,104.15c.57-.14,1.15-.28,1.72-.41-.58.14-1.15.27-1.72.41ZM813.79,103.15c.59-.13,1.18-.26,1.78-.39-.59.13-1.18.26-1.78.39ZM818.13,102.22c.59-.12,1.18-.24,1.76-.35-.59.12-1.18.23-1.76.35ZM822.57,101.36c.55-.1,1.11-.21,1.66-.3-.55.1-1.11.2-1.66.3ZM827.3,100.55c.43-.07.86-.14,1.29-.21-.43.07-.86.14-1.29.21ZM832.93,99.7c.34-.05.67-.09,1.01-.13-.34.04-.67.08-1.01.13ZM837.33,99.14c.53-.06,1.07-.12,1.61-.18-.54.06-1.07.12-1.61.18ZM841.76,98.66c.59-.06,1.19-.11,1.78-.17-.59.05-1.19.11-1.78.17ZM846.24,98.26c.61-.05,1.21-.1,1.82-.14-.61.04-1.21.09-1.82.14ZM850.78,97.93c.6-.04,1.19-.07,1.79-.11-.6.03-1.19.07-1.79.11ZM855.42,97.69c.55-.02,1.1-.05,1.65-.07-.55.02-1.1.05-1.65.07ZM860.46,97.53c.38,0,.75-.02,1.12-.03-.38,0-.75.02-1.12.03ZM742.71,132.78c-6.12,3.95-12.03,8.21-17.73,12.77,5.7-4.56,11.61-8.82,17.73-12.77,0,0,.02,0,.02-.01,0,0-.02,0-.02.01ZM746.38,130.47c.4-.25.81-.49,1.21-.73-.4.25-.81.49-1.21.73ZM666.96,173.58c-1.83.19-3.62.46-5.39.83,1.77-.36,3.57-.64,5.39-.83ZM648.96,178.67c1.58-.76,3.21-1.45,4.87-2.06-1.66.61-3.29,1.3-4.87,2.06ZM624.94,493.85c.7,1.4,1.53,2.72,2.49,3.95-.96-1.23-1.78-2.56-2.49-3.95ZM648.23,521.93c-.98-.35-1.96-.73-2.95-1.15.99.42,1.97.79,2.95,1.15ZM651.19,514.31c-.91-.33-1.83-.67-2.74-1.06.92.39,1.83.73,2.74,1.06ZM653.98,515.21c-.65-.19-1.3-.4-1.96-.63.66.22,1.31.43,1.96.63ZM665.35,517.36c-.63-.05-1.26-.12-1.91-.2.64.08,1.28.14,1.91.2ZM662.65,517.06c-.62-.08-1.24-.18-1.87-.28.63.1,1.25.2,1.87.28ZM660.06,516.66c-.85-.15-1.72-.32-2.59-.52.87.2,1.74.37,2.59.52ZM657.08,516.04c-.75-.18-1.5-.37-2.26-.58.76.21,1.51.41,2.26.58ZM675.44,517.44c-.66.04-1.34.08-2.04.11.7-.03,1.39-.06,2.04-.11ZM672.97,517.56c-.58.02-1.18.03-1.79.03.61,0,1.21-.01,1.79-.03ZM670.49,517.59c-.56,0-1.13-.01-1.72-.03.58.02,1.15.03,1.72.03ZM668.22,517.55c-.76-.03-1.54-.08-2.33-.14.79.06,1.57.11,2.33.14ZM679.62,517.05c-.54.06-1.11.13-1.7.19.59-.06,1.16-.12,1.7-.19ZM677.42,517.28c-.48.04-.97.09-1.48.12.51-.04,1-.08,1.48-.12ZM658.64,477.08c6.46,10.12,14.02,20.2,22.87,30.04,1.67,1.86,4.39,4.77,8.13,8.39h0c-3.73-3.62-6.46-6.54-8.13-8.39-8.85-9.83-16.41-19.92-22.87-30.04ZM681.12,525.1c-.33.04-.67.08-1.02.13.35-.04.69-.08,1.02-.13ZM722.22,542.04c-2.53-1.73-4.94-3.45-7.26-5.15s-4.52-3.39-6.61-5.03c2.09,1.65,4.3,3.33,6.61,5.03s4.73,3.42,7.26,5.15c6.31,4.32,13.29,8.69,20.9,12.89-7.61-4.2-14.59-8.57-20.9-12.89ZM802.33,578.1c-8.23-1.99-16.09-4.38-23.57-7.05,7.48,2.67,15.33,5.06,23.57,7.05ZM828.12,582.79c-4.48-.55-8.87-1.23-13.17-2.01,4.3.79,8.69,1.46,13.17,2.01ZM939.27,558.53c-5.29-1.36-10.53-2.83-15.74-4.4,5.21,1.57,10.45,3.04,15.74,4.4,5.29,1.36,10.61,2.62,15.96,3.78-3.87,1.8-7.79,3.49-11.74,5.07-2.68,1.07-5.38,2.08-8.08,3.06,2.71-.98,5.41-1.98,8.08-3.06,3.95-1.58,7.86-3.27,11.74-5.07-5.35-1.15-10.68-2.41-15.96-3.78ZM955.44,571.14c-1.32.59-2.65,1.17-3.98,1.74,1.33-.57,2.66-1.15,3.98-1.74ZM1089.61,423.9c.99-2.85,1.95-5.76,2.86-8.72.91-2.96,1.78-5.97,2.6-9.04-.82,3.07-1.69,6.08-2.6,9.04-.91,2.96-1.87,5.87-2.86,8.72ZM1099.36,387.13c-.9,4.9-1.94,9.69-3.09,14.36,1.15-4.67,2.19-9.46,3.09-14.36ZM1117.03,241.09c-.08,1.51-.2,3.05-.37,4.6-.17,1.56-.39,3.14-.66,4.74.27-1.6.49-3.18.66-4.74.17-1.56.3-3.09.37-4.6.08-1.51.1-3,.08-4.46.02,1.46,0,2.95-.08,4.46ZM1100.53,218.7c3.86,5.66,5.44,13.49,4.83,22.77-3.76-10.35-8.49-21.31-14.42-32.5,4.78,3.73,8.05,7.46,9.6,9.73ZM1115.55,252.85c-.32,1.62-.68,3.26-1.09,4.92.41-1.66.77-3.3,1.09-4.92ZM1063.05,186.32c3.09.25,6.14.66,9.11,1.24-2.97-.58-6.02-.99-9.11-1.24ZM1077.05,188.7c1.78.5,3.51,1.07,5.18,1.73-1.67-.66-3.4-1.24-5.18-1.73ZM1113.1,262.79c-.75,2.53-1.61,5.1-2.57,7.7.96-2.59,1.81-5.16,2.57-7.7ZM1069.79,178.81c4.14.61,8.01,1.49,11.59,2.63,2.39.76,4.64,1.64,6.77,2.64-2.13-1-4.39-1.88-6.77-2.64-3.58-1.14-7.44-2.02-11.59-2.63-2.76-.41-5.65-.7-8.66-.87,3.01.17,5.9.46,8.66.87ZM947.97,102.61c-3.45-1.16-6.86-2.21-10.2-3.18,3.35.97,6.75,2.02,10.2,3.18ZM897.21,91.16c5.17.63,10.79,1.47,16.75,2.6,2.98.56,6.05,1.2,9.19,1.91-3.14-.71-6.21-1.34-9.19-1.91-5.96-1.13-11.57-1.97-16.75-2.6-3.88-.47-7.52-.82-10.87-1.08-.01,0-.02,0-.04,0,.01,0,.02,0,.04,0,3.35.26,6.98.61,10.87,1.08ZM866.09,89.29c-1.56,0-3.12.01-4.68.04,1.52-.03,3.03-.04,4.55-.04.04,0,.08,0,.12,0ZM743.35,122.75c.86-.52,1.73-1.05,2.59-1.56-.87.51-1.73,1.03-2.59,1.56ZM747.43,120.32c.81-.47,1.61-.93,2.42-1.39-.81.46-1.62.92-2.42,1.39ZM751.42,118.07c.8-.44,1.6-.88,2.41-1.31-.81.43-1.61.87-2.41,1.31ZM755.41,115.91c.83-.44,1.67-.87,2.5-1.29-.84.43-1.67.86-2.5,1.29ZM759.41,113.86c.93-.47,1.87-.92,2.81-1.38-.94.45-1.88.91-2.81,1.38ZM763.44,111.89c1.35-.64,2.71-1.28,4.08-1.9-1.37.62-2.73,1.25-4.08,1.9ZM767.71,109.91c1.3-.59,2.6-1.16,3.91-1.72-1.31.56-2.61,1.13-3.91,1.72ZM772.93,107.64c.94-.4,1.89-.79,2.83-1.17-.95.38-1.89.78-2.83,1.17ZM777.33,105.84c.88-.35,1.76-.69,2.64-1.03-.88.34-1.76.68-2.64,1.03ZM781.61,104.19c.87-.33,1.75-.65,2.63-.96-.88.32-1.75.64-2.63.96ZM785.87,102.65c.91-.32,1.83-.63,2.74-.94-.92.31-1.83.62-2.74.94ZM790.15,101.19c1.04-.34,2.08-.67,3.12-1-1.04.33-2.09.66-3.12,1ZM794.44,99.82c1.45-.44,2.9-.88,4.36-1.29-1.46.42-2.91.85-4.36,1.29ZM799.18,98.42c1.32-.38,2.64-.74,3.97-1.09-1.33.35-2.65.72-3.97,1.09ZM804.55,96.97c1-.26,1.99-.51,3-.76-1,.24-2,.5-3,.76ZM809.19,95.82c.93-.22,1.86-.44,2.8-.65-.94.21-1.87.43-2.8.65ZM813.71,94.8c.93-.2,1.85-.39,2.78-.58-.93.19-1.86.38-2.78.58ZM818.21,93.87c.96-.19,1.93-.37,2.89-.55-.97.18-1.93.36-2.89.55ZM822.71,93.03c1.1-.19,2.21-.38,3.32-.56-1.11.18-2.21.36-3.32.56ZM827.22,92.27c1.51-.24,3.03-.46,4.55-.67-1.52.21-3.04.43-4.55.67ZM832.5,91.51c1.27-.17,2.55-.33,3.83-.49-1.28.15-2.55.32-3.83.49ZM837.9,90.85c1-.11,2.01-.22,3.01-.32-1.01.1-2.01.21-3.01.32ZM842.7,90.36c.95-.09,1.89-.17,2.84-.25-.95.08-1.9.16-2.84.25ZM847.4,89.97c.94-.07,1.89-.13,2.83-.19-.94.06-1.89.12-2.83.19ZM852.07,89.67c.98-.05,1.96-.1,2.95-.14-.98.04-1.97.09-2.95.14ZM856.74,89.46c1.13-.04,2.27-.07,3.41-.1-1.14.03-2.27.05-3.41.1ZM742.09,123.51c-1.27.79-2.54,1.58-3.8,2.39,1.26-.81,2.53-1.61,3.8-2.39ZM679.33,165.5c1.49.16,2.97.38,4.43.65,2.19.4,4.34.92,6.45,1.54-2.11-.62-4.26-1.14-6.45-1.54-1.46-.27-2.94-.49-4.43-.65s-3-.28-4.53-.33c1.52.06,3.03.17,4.53.33ZM668.94,525.77c.71.02,1.41.03,2.09.02-.09,0-.17,0-.25,0-.6,0-1.22-.01-1.84-.03ZM648.55,522.05c.93.33,1.85.63,2.76.91-.91-.28-1.83-.58-2.76-.91ZM651.76,523.1c.89.26,1.78.51,2.65.73-.88-.22-1.76-.46-2.65-.73ZM654.88,523.94c.88.21,1.75.41,2.61.58-.86-.17-1.73-.36-2.61-.58ZM657.88,524.59c.89.17,1.76.32,2.63.45-.86-.13-1.74-.28-2.63-.45ZM660.68,525.06c.87.13,1.72.24,2.56.33-.84-.09-1.69-.2-2.56-.33ZM663.44,525.41c.84.09,1.65.16,2.46.21-.81-.06-1.63-.12-2.46-.21ZM666.26,525.65c.78.05,1.54.08,2.29.11-.75-.02-1.51-.06-2.29-.11ZM679.37,525.31c-.35.04-.71.08-1.08.11.37-.04.73-.07,1.08-.11ZM677.49,525.49c-.37.03-.76.06-1.15.09.39-.03.77-.06,1.15-.09ZM675.47,525.64c-.41.03-.82.05-1.24.07.42-.02.84-.04,1.24-.07ZM673.31,525.75c-.45.02-.9.02-1.37.03.46,0,.92-.02,1.37-.03ZM683.19,524.82c.44-.06.87-.13,1.25-.18.11-.02.23-.04.34-.05-.11.02-.23.04-.34.05-.39.06-.81.12-1.25.18ZM681.73,525.02c.35-.05.69-.09,1.01-.14-.33.05-.66.09-1.01.14ZM857.42,592.67c-.45,0-.91,0-1.36,0,.45,0,.91,0,1.36,0,16.29-.09,32.64-1.91,48.74-5.37,12.14-2.61,24.14-6.18,35.86-10.62-11.72,4.44-23.72,8.01-35.86,10.62-16.1,3.46-32.46,5.28-48.74,5.37ZM1002.58,591.56c-2.49-.64-4.93-1.44-7.29-2.37-3.55-1.4-6.94-3.12-10.13-5.11,3.2,2,6.59,3.71,10.13,5.11,2.36.93,4.8,1.73,7.29,2.37,4.99,1.29,10.22,1.97,15.6,1.97,12.51,0,24.16-3.71,33.95-10.06-9.79,6.35-21.44,10.06-33.95,10.06-5.38,0-10.61-.68-15.6-1.97ZM1062.38,575.19c-2.12,2.12-4.4,4.09-6.81,5.9,2.41-1.8,4.68-3.77,6.81-5.9s4.09-4.4,5.9-6.81c-1.8,2.41-3.77,4.68-5.9,6.81ZM1074.54,558.08c1.32-2.73,2.45-5.58,3.36-8.51-.91,2.94-2.04,5.78-3.36,8.51ZM1111.49,344.63c.02-6.7-.24-13.43-.77-20.14.53,6.72.79,13.44.77,20.14Z"/>
  </g>
  <g>
    <polygon class="cls-10" points="457.01 871.08 457.01 926.75 113.47 926.75 113.83 922.91 119.01 868.68 124.53 866.87 236.73 830.14 261.16 777.25 378.98 777.86 457.01 871.08"/>
    <path class="cls-2" d="M229.96,338.92l106.54,8.31,12.35,10.93,28.63,135.59,7.95,111.25-4.77,172.64s-83.9,10.74-127.24,0l1.59-132.4-7.95-69.98-21.47-134.79,4.37-101.55Z"/>
    <path class="cls-1" d="M229.96,338.92l-100.79,41.35c-43.19,17.72-75.1,55.31-85.5,100.82-14.24,62.29-31.99,148.09-31.99,188.8,0,67.99,16.7,192.05,16.7,192.05l96.22,7.16,84.9,1.24c28.33.41,51.52-22.41,51.56-50.74.09-66.69.19-176.99-.08-198.6-.4-31.41-24.27-248.82-31.02-282.06Z"/>
    <path class="cls-5" d="M320.3,886l-8.57,40.75h-5.97l8.83-41.95c.33-1.58,1.88-2.59,3.46-2.25,1.58.33,2.59,1.88,2.25,3.46Z"/>
    <path class="cls-1" d="M566.34,842.06l-88.66,11.53-9.05-45.91-2.08-10.55-.71,65.16-.09,8.79h-53c-17.81,0-32.34-14.26-32.66-32.06-.63-34.21-1.55-85.53-1.81-100.74-.4-23.46-2.78-173.36-5.16-200.01-2.39-26.63-6.41-137.96-36.6-191.05,0,0,54.49,12.52,102.21,37.97,47.71,25.45,73.15,83.1,86.28,165.81,13.12,82.7,41.35,291.05,41.35,291.05Z"/>
    <path class="cls-6" d="M122.61,854.92h0c-1.61,0-2.92-1.32-2.91-2.93,0-1.41.42-141.6,2.39-172.74,1.98-31.26,29.5-161.11,30.67-166.62.33-1.58,1.88-2.58,3.46-2.25,1.58.34,2.58,1.89,2.25,3.46-.29,1.35-28.61,134.94-30.56,165.78-1.96,30.96-2.38,170.98-2.38,172.39,0,1.61-1.31,2.91-2.92,2.91Z"/>
    <path class="cls-6" d="M468.63,807.67l-2.08-10.55-.71,65.16c-7.58-74.6-5.42-379.33-5.4-382.48.01-1.61,1.32-2.88,2.94-2.9,1.61.01,2.91,1.33,2.9,2.94-.02,2.62-1.52,214.32,2.35,327.82Z"/>
    <path class="cls-11" d="M136.42,926.75H43.09c-7.95-18.29-3.57-67.19-3.57-67.19l78.32-4.64s3.01,5.08,6.69,11.95c4.33,8.08,9.59,18.65,11.89,26.28,4.26,14.12,0,33.6,0,33.6Z"/>
    <path class="cls-11" d="M560.78,890.96c0,20.28-3.59,35.79-3.59,35.79h-67.59c-5.57-64.41,6.03-75.5,6.03-75.5l60.34-7.85s4.81,27.28,4.81,47.56Z"/>
    <path class="cls-8" d="M114.78,926.75h-6.02l-6.48-26.34c-.39-1.57.57-3.15,2.14-3.54,1.57-.37,3.15.57,3.54,2.14l5.87,23.9.95,3.84Z"/>
    <path class="cls-8" d="M527.33,902.48l-3.25,24.27h-5.9l3.35-25.04c.22-1.59,1.68-2.72,3.28-2.5,1.6.21,2.72,1.68,2.51,3.27Z"/>
    <path class="cls-11" d="M432.94,85.17l-3.46,51.03s35.89,206.71-92.98,211.03c0,0,3.89,11.46,3.46,27.68-.43,16.22-20.76,27.24-44.76,26.38-24-1.08-78.92-8.65-63.14-109.84,0,0-10.16-20.76-9.95-32.22,0,0-75.89-18.81-24.43-86.49l6.49-23.57,48.87-17.3,18.81-57.3,96.44,20.97,64.87-10.59h0l-.22.22Z"/>
    <path class="cls-7" d="M429.48,136.2s42.81-83.03-15.14-107.9C356.4,3.44,249.36,1.71,221.69,56.41c0,0-47.35,30.27-24,116.11,0,0,19.68-14.49,47.79,24.87,0,0,9.95-24,7.35-52.33,0,0,27.03-24.22,24-64,0,0,80,38.7,149.84,19.03l2.81,36.11h0Z"/>
    <path class="cls-3" d="M346.52,292.32c8.31.9,16.8.22,24.78-2.1,1.17-.33,1.74-1.4,1.41-2.58s-1.4-1.74-2.58-1.41c-8.68,2.47-17.59,2.88-26.3,1.48-13.41-2.13-23.19-8.41-29.04-13.13-.83-.77-2.2-.69-2.99.36-.77.83-.69,2.2.36,2.99,6.26,5.22,16.69,11.8,30.99,14.03l3.37.36h0Z"/>
    <path class="cls-7" d="M413.82,153.61s-1.3-8.87-16.22-9.51c-14.92-.65-22.7.65-22.27,4.76s14.49,1.73,21.84,2.38,11.68,1.3,16.43,2.59h0l.22-.22Z"/>
    <path class="cls-7" d="M281.38,153.61s1.3-8.87,16.22-9.51c14.92-.65,22.7.65,22.27,4.76s-14.49,1.73-21.84,2.38-11.68,1.3-16.43,2.59h0l-.22-.22Z"/>
    <path class="cls-4" d="M390.25,183.66c1.95-1.73,4.54-2.81,7.35-2.81,6.05,0,11.03,4.97,11.03,11.03s-4.97,11.03-11.03,11.03-8.22-2.59-9.95-6.49c-.65-1.3-1.08-3.03-1.08-4.54,0-3.24,1.51-6.27,3.68-8.22h0Z"/>
    <path class="cls-4" d="M301.49,183.66c1.95-1.73,4.54-2.81,7.35-2.81,6.05,0,11.03,4.97,11.03,11.03s-4.97,11.03-11.03,11.03-8.22-2.59-9.95-6.49c-.65-1.3-1.08-3.03-1.08-4.54,0-3.24,1.51-6.27,3.68-8.22h0Z"/>
    <path class="cls-3" d="M363.96,257.29c4.76,0,7.35-.43,10.38-1.51,2.38-.86,6.05-2.38,8.43-6.05,1.3-1.95,1.95-4.76,1.95-8,0-4.32-1.08-7.57-2.59-11.68l-.65-1.73c-2.16-6.05-4.11-11.24-4.97-16.65-.65-3.68-.86-7.57-.43-11.46,0-1.08-.65-1.95-1.73-2.16-1.08,0-1.95.65-2.16,1.73-.43,4.11,0,8.43.43,12.54.86,5.84,2.81,11.03,5.19,17.3l.65,1.73c1.51,4.11,2.38,6.7,2.38,10.16,0,2.38-.65,4.54-1.3,5.84-1.73,2.81-4.54,3.89-6.49,4.54-3.24,1.3-6.27,1.51-14.49,1.08-4.76,0-9.73-.43-14.49-1.08-1.08,0-1.95.65-2.16,1.73s.65,1.95,1.73,2.16c4.97.43,9.95.86,14.7,1.08h5.84l-.22.43Z"/>
    <path class="cls-9" d="M283.53,162.15h52.76c7.14,0,12.97,5.84,12.97,12.97v6.7c3.03-1.3,6.92-2.59,11.68-2.59h0c4.32,0,7.78,1.08,10.59,2.16v-6.49c0-7.14,5.84-12.97,12.97-12.97h52.76c7.14,0,12.97,5.84,12.97,12.97v34.16c0,7.14-5.84,12.97-12.97,12.97h-52.76c-7.14,0-12.97-5.84-12.97-12.97v-21.19c-2.38-1.3-6.05-2.81-10.59-2.81h0c-5.19,0-9.08,1.73-11.68,3.24v20.76c0,7.14-5.84,12.97-12.97,12.97h-52.76c-7.14,0-12.97-5.84-12.97-12.97v-34.16c0-7.14,5.84-12.97,12.97-12.97h0v.22ZM377.59,209.28c0,3.89,3.03,6.92,6.92,6.92h52.76c3.89,0,6.92-3.03,6.92-6.92v-34.16c0-3.89-3.03-6.92-6.92-6.92h-52.76c-3.89,0-6.92,3.03-6.92,6.92v34.16ZM276.61,209.28c0,3.89,3.03,6.92,6.92,6.92h52.76c3.89,0,6.92-3.03,6.92-6.92v-34.16c0-3.89-3.03-6.92-6.92-6.92h-52.76c-3.89,0-6.92,3.03-6.92,6.92v34.16Z"/>
  </g>
  <g>
    <g>
      <path class="cls-1" d="M868.58,299.85c24.87,0,45.1-20.23,45.1-45.1s-20.23-45.1-45.1-45.1-45.1,20.23-45.1,45.1,20.23,45.1,45.1,45.1ZM868.58,217.83c20.36,0,36.92,16.56,36.92,36.92s-16.56,36.92-36.92,36.92-36.92-16.56-36.92-36.92,16.56-36.92,36.92-36.92Z"/>
      <path class="cls-1" d="M1107.18,297.71c-.02-.16-.04-.33-.07-.48,19.57-34.75,24.15-68.69,9.82-89.72-4.81-7.05-14.89-16.91-28.78-23.43-8.52-3.99-19.1-6.1-31.62-6.31-3.69-4.6-7.64-9.16-11.86-13.66-54.5-57.99-122.59-71.28-158.33-74.04-54.04-4.17-105.23,8.22-148.06,35.83-17.81,11.48-33.96,25.55-48.08,41.79-5.62-1.66-11.55-2.57-17.7-2.57-34.48,0-62.54,28.05-62.54,62.54,0,16.33,6.3,31.21,16.59,42.36-9.4,27.85-13.79,56.59-13.01,85.47.47,17.32,3.1,42.83,12.4,71.3-12.07,28.18-18.59,58.51-4.98,76.02,4.31,5.55,12.95,13.18,24.3,17.96,16.99,7.16,32.53,4.85,39.17,3.85.85-.13,1.71-.26,2.57-.4,9.32,8.66,23.5,20.44,42.04,31.77,39.8,24.33,82.52,36.66,127.01,36.66.45,0,.91,0,1.36,0,37.22-.21,74.8-9.45,108.94-26.7,11.25,16.62,30.28,27.56,51.82,27.56,34.48,0,62.54-28.05,62.54-62.54,0-15.58-5.74-29.84-15.21-40.8,20.33-30.43,44.04-78.49,45.87-138.86.54-17.84-.9-35.86-4.22-53.62h.02ZM1084.68,191.49c12.41,5.82,21.49,14.75,25.49,20.63,11.17,16.4,8.45,43.11-5.26,71.53-4.87-25.48-16.09-61.95-41.87-97.33,7.7.63,15.22,2.17,21.63,5.17ZM672.51,173.3c29.98,0,54.36,24.39,54.36,54.36s-24.39,54.36-54.36,54.36-54.36-24.39-54.36-54.36,24.39-54.36,54.36-54.36ZM621.72,355.27c-.72-26.68,3.11-53.25,11.4-79.08,10.76,8.75,24.47,14.01,39.38,14.01,34.48,0,62.54-28.05,62.54-62.54,0-25.25-15.05-47.04-36.65-56.9,13.13-14.69,28-27.46,44.32-37.98,41.31-26.64,90.75-38.59,143-34.55,34.56,2.67,100.38,15.51,153,71.49,2.58,2.74,5.04,5.51,7.41,8.3-4.82.28-9.86.79-15.15,1.55-26.46,3.81-52.27,12.83-76.79,26.8-5.74-12.58-21.11-38.68-53.58-51.03-7.22-2.75-45.07-15.35-81.09,6.28-33.36,20.03-41.11,55-44.83,71.8-3.68,16.59-4.08,33.67-1.21,50.83-52.04,21.47-94.26,54.71-122.24,96.28-6.46,9.59-13.72,21.84-20.15,35.06-6.87-24.03-8.94-45.35-9.35-60.33ZM648.45,513.25c-9.91-4.18-17.52-10.93-21.02-15.44-10.22-13.16-5.36-36.39.53-53.55.67-1.96,1.38-3.91,2.11-5.85,9.26,24.19,23.53,49.91,45.37,74.18.93,1.03,2.33,2.55,4.19,4.46-7.02.85-18.78,1.42-31.18-3.8ZM681.51,507.12c-23.59-26.23-38.04-54.22-46.81-79.93,8.96-20.13,19.63-36.63,23.3-42.09,27.61-41.02,69.65-73.7,121.59-94.51l3.13-1.25-.63-3.31c-3.29-17.17-3.1-34.27.57-50.83,3.48-15.69,10.71-48.34,41.06-66.56,33.48-20.1,69.93-7.19,73.98-5.65,33.83,12.87,47.38,42.09,50.72,50.73l1.75,4.52,4.16-2.48c24.79-14.77,50.97-24.22,77.81-28.09,6.1-.88,13.18-1.58,20.44-1.68,31.59,40.84,42.38,84.08,46.05,109.49-6.31,10.86-14.13,21.8-23.31,32.34-7.44-34.33-38.04-60.14-74.57-60.14-38.34,0-70.16,28.42-75.51,65.31-23.84-15.4-49.79-17.91-51.37-18.05-9.83-.87-60.36-3.19-90.1,36.2-21.12,27.97-19.26,59.96-16.27,76.55,4.73,26.25,18.56,43.59,30.2,56.48-2.02.7-4.09,1.41-6.2,2.14-28.53,9.86-66.99,23.16-101.84,29.21-3.73-3.62-6.46-6.54-8.13-8.39ZM965.99,402.57c-.67-15.75-6.73-29.82-11.35-38.39-5.79-10.73-13.47-19.14-21.78-25.74,2.84-34.98,32.19-62.58,67.89-62.58,37.57,0,68.14,30.57,68.14,68.14s-30.57,68.14-68.14,68.14c-12.69,0-24.57-3.5-34.75-9.56ZM932.82,349.16c5.55,5.21,10.59,11.44,14.62,18.9,3.56,6.6,8.07,16.77,9.76,28.3-13.78-11.47-22.95-28.27-24.38-47.2ZM957.84,407.07c-.17,5.65-1.18,11.46-3.45,17.18-1.14,2.87-2.56,5.65-4.25,8.29-23.67,8.91-47.89,17.56-71.99,25.73-22.99,7.79-33.27,10.86-42.33,13.56-7.87,2.35-15.34,4.58-29.7,9.44-11.39-12.41-25.93-29.25-30.58-55.04-2.75-15.27-4.49-44.69,14.75-70.17,22.23-29.44,57.52-33.32,74.57-33.32,3.77,0,6.65.19,8.29.33,1.55.14,28.42,2.74,51.33,19.23-.01.56-.04,1.12-.04,1.69,0,26.19,13.26,49.33,33.42,63.08ZM857.37,584.49c-.44,0-.87,0-1.31,0-77.3,0-132.53-38.6-158.95-62.05,33.81-6.56,69.88-19.03,97.04-28.42,3.31-1.14,6.51-2.25,9.58-3.3,26.82,28.18,57.1,40.12,89.14,52.76,20.02,7.9,40.95,14.21,62.36,18.83-30.99,14.36-64.58,22-97.86,22.19ZM1018.18,585.35c-18.37,0-34.64-9.17-44.48-23.17l-3.25-5.2c-4.22-7.73-6.63-16.58-6.63-25.99,0-29.98,24.39-54.36,54.36-54.36s54.36,24.39,54.36,54.36-24.39,54.36-54.36,54.36ZM1103.21,351.09c-1.74,57.52-24.05,103.56-43.56,133.15-11.05-9.81-25.57-15.78-41.47-15.78-34.48,0-62.54,28.05-62.54,62.54,0,8.52,1.72,16.64,4.81,24.04-22.2-4.58-43.89-11-64.59-19.17-30.08-11.86-58.58-23.1-83.55-48.06,11.94-4,18.72-6.02,25.84-8.15,9.13-2.72,19.48-5.81,42.62-13.65,24.61-8.34,49.34-17.18,73.49-26.29l1.21-.46.73-1.07c2.33-3.44,4.27-7.12,5.78-10.93,2.05-5.18,3.22-10.39,3.74-15.5,10.49,5.44,22.39,8.54,35.01,8.54,42.08,0,76.31-34.23,76.31-76.31,0-1.89-.09-3.77-.23-5.63,9.14-9.89,17.1-20.12,23.78-30.39,2.15,14.33,3.04,28.78,2.6,43.11Z"/>
    </g>
    <path class="cls-1" d="M661.73,256.83l-18.96-18.96c-1.6-1.6-1.6-4.18,0-5.78,1.59-1.6,4.18-1.6,5.78,0l13.18,13.17,38.1-38.1c1.6-1.6,4.18-1.6,5.78,0,1.6,1.6,1.6,4.18,0,5.78l-43.88,43.88Z"/>
    <path class="cls-1" d="M988.4,373.51l-18.96-18.95c-1.6-1.6-1.6-4.18,0-5.78,1.59-1.6,4.18-1.6,5.78,0l13.18,13.18,38.1-38.1c1.59-1.6,4.18-1.6,5.78,0,1.6,1.6,1.6,4.18,0,5.78l-43.88,43.88Z"/>
    <path class="cls-1" d="M1018.18,569.15l-38.16-38.15,38.16-38.16,38.15,38.16-38.15,38.15ZM991.59,530.99l26.59,26.59,26.59-26.59-26.59-26.59-26.59,26.59Z"/>
  </g>
</svg>