<?xml version="1.0" encoding="UTF-8"?>
<svg id="Livello_1" xmlns="http://www.w3.org/2000/svg" version="1.1" viewBox="0 0 905.57 492.98">
  <!-- Generator: Adobe Illustrator 29.0.1, SVG Export Plug-In . SVG Version: 2.1.0 Build 192)  -->
  <defs>
    <style>
      .st0 {
        fill: #fff;
      }

      .st1 {
        fill: #4d70aa;
      }

      .st2 {
        fill: #ff8029;
        stroke: #3c3a2c;
        stroke-miterlimit: 10;
        stroke-width: 6px;
      }

      .st3 {
        fill: #9859b2;
      }

      .st4 {
        fill: #9bcd41;
      }

      .st5 {
        fill: #3c3a2c;
      }
    </style>
  </defs>
  <g>
    <path class="st0" d="M577.36,101.91h0c-.44-7.52-6.66-13.4-14.17-13.4h-40.59v-4.05h.14l-.09-12.18h-.59c-1.95-15.71-9.24-30.33-20.72-41.46-13.11-12.69-30.35-19.67-48.54-19.67s-35.44,6.99-48.54,19.68c-13.06,12.65-20.6,29.6-21.22,47.7-.03.81-.04,1.62-.04,2.44v7.55h-40.59c-7.52,0-13.75,5.88-14.17,13.4l-20.41,364.92c-.21,3.88,1.2,7.72,3.87,10.54,2.68,2.82,6.43,4.44,10.31,4.44h261.62c3.88,0,7.63-1.62,10.31-4.44,2.67-2.82,4.08-6.66,3.86-10.54l-20.41-364.92ZM452.79,30.16c28.02,0,50.81,22.79,50.81,50.81v7.55h-101.62v-7.55c0-28.02,22.79-50.81,50.81-50.81Z"/>
    <path class="st0" d="M899.03,466.83l-20.41-364.92c-.41-7.51-6.63-13.4-14.17-13.4h-40.59v-4.05h.14l-.09-12.18h-.59c-1.95-15.71-9.24-30.32-20.72-41.46-13.11-12.69-30.35-19.67-48.54-19.67s-35.43,6.99-48.55,19.68c-13.06,12.66-20.6,29.61-21.22,47.69-.03.82-.04,1.63-.04,2.45v7.55h-40.59c-7.53,0-13.75,5.89-14.16,13.4l-20.41,364.91c-.23,3.88,1.18,7.73,3.85,10.55,2.68,2.82,6.43,4.44,10.31,4.44h261.62c3.88,0,7.63-1.62,10.31-4.44,2.67-2.82,4.08-6.66,3.86-10.54ZM804.87,80.97v7.55h-101.62v-7.55c0-28.02,22.79-50.81,50.81-50.81s50.81,22.79,50.81,50.81Z"/>
    <path class="st0" d="M276.09,101.91h0c-.42-7.51-6.65-13.4-14.17-13.4h-40.59v-4.05h.14l-.09-12.18h-.59c-1.95-15.72-9.23-30.33-20.72-41.46-13.11-12.69-30.35-19.67-48.54-19.67s-35.44,6.99-48.54,19.68c-13.06,12.65-20.6,29.6-21.22,47.7-.03.81-.04,1.62-.04,2.44v7.55h-40.59c-7.52,0-13.75,5.88-14.17,13.4L6.54,466.83c-.23,3.88,1.18,7.73,3.85,10.55,2.68,2.82,6.43,4.44,10.31,4.44h261.62c3.88,0,7.63-1.62,10.31-4.44,2.68-2.82,4.08-6.67,3.85-10.54l-20.4-364.92ZM202.33,80.97v7.55h-101.62v-7.55c0-28.02,22.79-50.81,50.81-50.81s50.81,22.79,50.81,50.81Z"/>
  </g>
  <g>
    <g>
      <path class="st0" d="M516.21,78.79v2.18c0-.73-.01-1.46-.04-2.18h.04Z"/>
      <path class="st0" d="M389.63,78.79c-.03.72-.04,1.45-.04,2.18v-2.18h.04Z"/>
      <g>
        <path class="st1" d="M567.87,102.45c-.14-2.49-2.2-4.43-4.69-4.43h-220.8c-2.49,0-4.55,1.94-4.69,4.43l-20.41,364.91c-.15,2.69,1.99,4.95,4.69,4.95h261.62c2.69,0,4.84-2.26,4.69-4.95l-20.41-364.91Z"/>
        <path class="st5" d="M583.6,475.32h-261.62c-2.11,0-4.14-.88-5.59-2.41s-2.21-3.61-2.09-5.71l20.41-364.91c.23-4.07,3.6-7.26,7.68-7.26h220.8c4.08,0,7.45,3.19,7.68,7.26l20.41,364.91c.12,2.1-.64,4.19-2.09,5.72-1.45,1.53-3.48,2.41-5.59,2.41ZM342.39,101.02c-.9,0-1.64.7-1.69,1.6l-20.41,364.91c-.04.63.27,1.06.46,1.26.19.2.6.53,1.23.53h261.62c.63,0,1.04-.33,1.23-.53.19-.2.5-.62.46-1.26l-20.41-364.91c-.05-.9-.79-1.6-1.69-1.6h-220.8Z"/>
      </g>
      <path class="st5" d="M516.1,131.16v-50.19c0-.73-.01-1.46-.04-2.18-1.15-33.91-29.09-61.13-63.27-61.13s-62.12,27.22-63.27,61.13c-.03.72-.04,1.45-.04,2.18v50.19c-4.92,1.4-8.52,5.92-8.52,11.29,0,6.49,5.26,11.74,11.74,11.74s11.74-5.26,11.74-11.74c0-5.53-3.83-10.15-8.97-11.4v-50.07c0-31.6,25.71-57.31,57.31-57.31s57.31,25.71,57.31,57.31v50.07c-5.14,1.25-8.97,5.87-8.97,11.4,0,6.49,5.26,11.74,11.74,11.74s11.74-5.26,11.74-11.74c0-5.37-3.6-9.88-8.52-11.29Z"/>
    </g>
    <g>
      <path class="st0" d="M214.94,78.79v2.18c0-.73-.01-1.46-.04-2.18h.04Z"/>
      <path class="st0" d="M88.36,78.79c-.03.72-.04,1.45-.04,2.18v-2.18h.04Z"/>
      <g>
        <path class="st4" d="M266.6,102.45c-.14-2.49-2.2-4.43-4.69-4.43H41.12c-2.49,0-4.55,1.94-4.69,4.43l-20.41,364.91c-.15,2.69,1.99,4.95,4.69,4.95h261.62c2.69,0,4.84-2.26,4.69-4.95l-20.41-364.91Z"/>
        <path class="st5" d="M282.33,475.32H20.71c-2.11,0-4.14-.88-5.59-2.41s-2.21-3.61-2.09-5.71L33.44,102.28c.23-4.07,3.6-7.26,7.68-7.26h220.8c4.08,0,7.45,3.19,7.68,7.26l20.41,364.91c.12,2.1-.64,4.19-2.09,5.72-1.45,1.53-3.48,2.41-5.59,2.41ZM41.12,101.02c-.9,0-1.64.7-1.69,1.6l-20.41,364.91c-.04.63.27,1.06.46,1.26.19.2.6.53,1.23.53h261.62c.63,0,1.04-.33,1.23-.53.19-.2.5-.62.46-1.26l-20.41-364.91c-.05-.9-.79-1.6-1.69-1.6H41.12Z"/>
      </g>
      <path class="st5" d="M214.83,131.16v-50.19c0-.73-.01-1.46-.04-2.18-1.15-33.91-29.09-61.13-63.27-61.13s-62.12,27.22-63.27,61.13c-.03.72-.04,1.45-.04,2.18v50.19c-4.92,1.4-8.52,5.92-8.52,11.29,0,6.49,5.26,11.74,11.74,11.74s11.74-5.26,11.74-11.74c0-5.53-3.83-10.15-8.97-11.4v-50.07c0-31.6,25.71-57.31,57.31-57.31s57.31,25.71,57.31,57.31v50.07c-5.14,1.25-8.97,5.87-8.97,11.4,0,6.49,5.26,11.74,11.74,11.74s11.74-5.26,11.74-11.74c0-5.37-3.6-9.88-8.52-11.29Z"/>
    </g>
    <g>
      <g>
        <path class="st0" d="M817.48,78.79v2.18c0-.73-.01-1.46-.04-2.18h.04Z"/>
        <path class="st0" d="M690.9,78.79c-.03.72-.04,1.45-.04,2.18v-2.18h.04Z"/>
        <g>
          <path class="st3" d="M869.14,102.45c-.14-2.49-2.2-4.43-4.69-4.43h-220.8c-2.49,0-4.55,1.94-4.69,4.43l-20.41,364.91c-.15,2.69,1.99,4.95,4.69,4.95h261.62c2.69,0,4.84-2.26,4.69-4.95l-20.41-364.91Z"/>
          <path class="st5" d="M884.87,475.32h-261.62c-2.11,0-4.14-.88-5.59-2.41s-2.21-3.61-2.09-5.71l20.41-364.91c.23-4.07,3.6-7.26,7.68-7.26h220.8c4.08,0,7.45,3.19,7.68,7.26l20.41,364.91c.12,2.1-.64,4.19-2.09,5.72-1.45,1.53-3.48,2.41-5.59,2.41ZM643.66,101.02c-.9,0-1.64.7-1.69,1.6l-20.41,364.91c-.04.63.27,1.06.46,1.26.19.2.6.53,1.23.53h261.62c.63,0,1.04-.33,1.23-.53.19-.2.5-.62.46-1.26l-20.41-364.91c-.05-.9-.79-1.6-1.69-1.6h-220.8Z"/>
        </g>
        <path class="st5" d="M817.37,131.16v-50.19c0-.73-.01-1.46-.04-2.18-1.15-33.91-29.09-61.13-63.27-61.13s-62.12,27.22-63.27,61.13c-.03.72-.04,1.45-.04,2.18v50.19c-4.92,1.4-8.52,5.92-8.52,11.29,0,6.49,5.26,11.74,11.74,11.74s11.74-5.26,11.74-11.74c0-5.53-3.83-10.15-8.97-11.4v-50.07c0-31.6,25.71-57.31,57.31-57.31s57.31,25.71,57.31,57.31v50.07c-5.14,1.25-8.97,5.87-8.97,11.4,0,6.49,5.26,11.74,11.74,11.74s11.74-5.26,11.74-11.74c0-5.37-3.6-9.88-8.52-11.29Z"/>
      </g>
      <polygon class="st2" points="632.6 224.15 875.95 224.15 883.97 367.47 624.15 367.47 632.6 224.15"/>
    </g>
  </g>
</svg>