<?xml version="1.0" encoding="UTF-8"?>
<svg id="Livello_1" data-name="Livello 1" xmlns="http://www.w3.org/2000/svg" viewBox="0 0 1040.98 791.79">
  <defs>
    <style>
      .cls-1 {
        letter-spacing: -.04em;
      }

      .cls-2 {
        fill: #4594ff;
      }

      .cls-3 {
        letter-spacing: 0em;
      }

      .cls-4 {
        fill: #3a89ff;
      }

      .cls-5 {
        font-size: 51.37px;
      }

      .cls-5, .cls-6, .cls-7, .cls-8 {
        font-family: Akrobat-Black, Akrobat;
        font-weight: 800;
      }

      .cls-9, .cls-10 {
        fill: #fff;
      }

      .cls-11 {
        fill: #408e50;
      }

      .cls-12 {
        fill: #cbd944;
      }

      .cls-13 {
        letter-spacing: 0em;
      }

      .cls-14 {
        fill: #2f2f2f;
      }

      .cls-15 {
        fill: #42362e;
      }

      .cls-6 {
        font-size: 45.96px;
      }

      .cls-16 {
        fill: silver;
      }

      .cls-17 {
        fill: #bcbcbe;
      }

      .cls-18 {
        fill: #2866d8;
      }

      .cls-10 {
        stroke: silver;
        stroke-miterlimit: 10;
        stroke-width: 3px;
      }

      .cls-7 {
        font-size: 35.36px;
      }

      .cls-19 {
        letter-spacing: 0em;
      }

      .cls-20 {
        fill: #4c3424;
      }

      .cls-21 {
        fill: #8a8582;
      }

      .cls-22 {
        fill: #ec7452;
      }

      .cls-23 {
        fill: #edc738;
      }

      .cls-24 {
        fill: #b37660;
      }

      .cls-25 {
        fill: #523826;
      }

      .cls-26 {
        fill: #f2b68f;
      }

      .cls-27 {
        fill: #74cb7d;
      }

      .cls-28 {
        fill: #706e6f;
      }

      .cls-29 {
        letter-spacing: -.03em;
      }

      .cls-30 {
        fill: #ee6a53;
      }

      .cls-8 {
        font-size: 35.57px;
      }
    </style>
  </defs>
  <g>
    <path class="cls-9" d="M1040.84,467.73c-1.5-17.1-9.84-49.14-17.91-80.12-3.47-13.33-6.75-25.92-9.23-36.39-8.11-34.28-18.45-59.05-44.92-76.61-20.42-13.53-63.17-29.96-77.74-35.37,0-.51.01-1.03.01-1.54,0-6.31-.53-13.19-1.58-20.5,1.64-3.58,4.51-10.44,5.71-16.74,7.53-2.84,21.53-9.83,26.45-23.8,4.11-11.68.97-24.98-9.35-39.59,7.24-29.3,2.2-49.11-3.44-60.69-5.06-10.38-11.41-16.2-14.45-18.58-11.2-20.08-37.97-31.55-73.84-31.56,0,0,0,0,0,0-21.42,0-43.42,4.17-60.37,11.44-10.61,4.55-17.85,12.03-21.51,22.24-7.66,21.34,3.39,48.11,7.02,55.92-.29,1.93-.7,4.98-1.13,8.91-6.96,1.59-12.17,7.83-12.17,15.26v22.31c0,7.27,4.98,13.39,11.7,15.15,2.16,20.94,7.36,38.22,15.49,51.42,7.66,12.44,17.75,21.17,30.14,26.1-2.2,1-4.5,2.07-6.87,3.19-20.86,9.9-36.48,19.33-46.42,28.01-9.98,8.73-22.06,33.17-36.93,74.73-10.09,28.2-18.34,55.67-21.57,66.72l-60.38,8.89c-17.11-10.16-52.67-20.31-61.91-20.31-5.28,0-7.42,2.85-8.22,4.55-3.16,6.72.86,15.35,3.43,18.98,1.09,1.54,3.73,3.74,7.89,6.59-2.39.12-5.12.19-8.25.19-.62,0-1.2,0-1.71,0h-1.15c-.39,0-.89,0-1.48,0-.91,0-2.03-.01-3.31-.01-26.58,0-34.15,2.95-37.78,5.53-3.65,2.59-5.09,5.4-5.58,7.67-6.38,2.33-8.79,7.49-8.79,12.16,0,6.66,3.8,11.98,10.11,14.46,2.96,6.39,9.46,10.24,18.07,10.6,6.69,6.81,20.7,11.18,41.75,13,2.94.25,6.55.38,10.73.38,10.89,0,24.52-.87,35.77-1.77.22.47.48.95.77,1.44,2.95,4.82,8.69,8.01,17.05,9.47,6.74,1.18,20.57,3.15,37.46,3.15,19.49,0,46.02-2.78,68.49-14.97l.45,84.69c-.3,1.65-.11,3.4.58,5.01,1.64,3.79,5.44,6.27,12.62,8.01l-4.3,179.12-.18,7.35h112.14l.58-6.55,3.72-42.28,6.65,42.76.94,6.08h122.53l-.83-7.93-6.04-57.88c1.28-.91,2.56-2.17,3.75-3.88,1.62-2.33,3.02-4.89,4.16-7.62,2.45-.33,5.59-1.66,8.57-5.55,5.77-7.54,11.04-28.96,11.59-37.23.3-4.52,1.25-24.33,1.02-35.77,6.82-2.73,8.82-6.89,9.33-8.34l.18-.53.1-.55c1-5.47,24.5-134.27,22.35-158.79ZM983.57,297.53c-1.02-1.27-2.08-2.51-3.19-3.72,1.11,1.21,2.17,2.45,3.19,3.72ZM887.51,60.26c.11.19.23.37.34.56-.11-.19-.23-.38-.34-.56ZM972.06,721.12c.2.02.41.03.62.03-.01,0-.02,0-.03,0-.2,0-.39-.01-.59-.03ZM972.86,721.14c.15,0,.3-.02.45-.04-.15.02-.3.03-.45.04ZM973.56,721.06c.14-.03.27-.06.41-.09-.14.04-.27.07-.41.09ZM974.23,720.88c.13-.05.27-.1.4-.16-.13.06-.27.11-.4.16ZM974.91,720.58c.13-.07.27-.15.41-.24-.14.09-.27.17-.41.24ZM975.6,720.16c.14-.1.28-.21.42-.33-.14.12-.28.23-.42.33ZM976.28,719.6c.15-.14.3-.3.46-.47-.15.16-.3.33-.46.47ZM976.97,718.89c.23-.26.45-.55.68-.88-.22.32-.45.61-.68.88ZM964.81,280.59c1.51,1,2.96,2.02,4.35,3.07,2.09,1.57,4.07,3.2,5.94,4.89-1.87-1.69-3.84-3.32-5.94-4.89-1.4-1.05-2.85-2.07-4.35-3.07-3.76-2.49-8.32-5.09-13.34-7.71,5.02,2.61,9.58,5.22,13.34,7.71ZM949.95,272.1c-2.56-1.31-5.22-2.62-7.94-3.92,2.73,1.3,5.39,2.61,7.94,3.92ZM923.55,259.89c1.12.48,2.24.96,3.37,1.45,1.69.73,3.38,1.48,5.07,2.23,2.25,1.01,4.5,2.03,6.71,3.06-2.22-1.03-4.46-2.05-6.71-3.06-1.69-.75-3.38-1.5-5.07-2.23-1.13-.49-2.25-.97-3.37-1.45s-2.23-.95-3.34-1.42c-.94-.4-1.88-.79-2.81-1.18.93.39,1.87.78,2.81,1.18,1.11.47,2.22.94,3.34,1.42ZM897.72,249.44c2.1.81,4.38,1.69,6.78,2.65,1.45.57,2.94,1.16,4.47,1.78,1.02.41,2.06.83,3.11,1.26,1.42.58,2.88,1.17,4.35,1.78-1.47-.61-2.92-1.2-4.35-1.78-1.05-.43-2.09-.85-3.11-1.26-1.53-.61-3.02-1.21-4.47-1.78-2.41-.95-4.68-1.84-6.78-2.65-.84-.32-1.65-.63-2.43-.93-.63-.24-1.24-.47-1.83-.7.59.22,1.2.45,1.83.7.78.3,1.59.61,2.43.93ZM892.75,247.54c-5.56-2.1-9.04-3.35-9.08-3.36h0s3.52,1.26,9.08,3.36ZM904.5,138.45s-.02-.01-.05-.03c.03.02.05.03.05.03h0ZM915.03,158.29c.06.22.12.44.18.66-.06-.22-.12-.44-.18-.66ZM915.98,163.04c.07.55.12,1.09.15,1.62-.03-.53-.09-1.07-.15-1.62ZM906.91,92.48c.05.23.1.46.15.69-.05-.23-.1-.46-.15-.69ZM906.35,90.21c-.17-.62-.34-1.23-.51-1.83.18.6.35,1.21.51,1.83ZM905.4,86.99c-.45-1.37-.93-2.68-1.43-3.93.5,1.25.98,2.55,1.43,3.93ZM901.83,78.42c.56,1.08,1.1,2.22,1.62,3.42-.52-1.2-1.06-2.34-1.62-3.42-2.23-4.32-4.68-7.66-6.85-10.13,2.17,2.47,4.62,5.82,6.85,10.13ZM894.45,67.68c-3.18-3.5-5.62-5.06-5.62-5.06,0,0,0,0,0,0,0,0,0,0,0,0,0,0,2.45,1.56,5.62,5.06ZM886.79,59.08c-.14-.21-.28-.43-.43-.64.14.21.29.42.43.64ZM882.55,53.64c.14.15.26.3.4.44-.13-.15-.26-.3-.4-.44ZM883.89,55.17c.16.19.32.39.47.58-.16-.19-.31-.39-.47-.58ZM885.16,56.76c.16.21.31.42.47.63-.15-.21-.31-.42-.47-.63ZM881.12,52.17c-.05-.05-.1-.1-.16-.15.05.05.1.1.16.15ZM821.06,33.42c-.29,0-.57,0-.86,0,.12,0,.24,0,.36,0,.17,0,.33,0,.5,0ZM879.62,50.77c-.17-.15-.34-.29-.5-.44.17.15.34.29.5.44ZM878.04,49.42c-.2-.16-.4-.32-.6-.48.2.16.4.32.6.48ZM876.38,48.12c-.21-.15-.41-.31-.63-.46.21.15.42.31.63.46ZM874.61,46.86c-.2-.14-.39-.27-.59-.4.2.13.4.27.59.4ZM872.63,45.57c-.14-.09-.27-.17-.41-.26.14.08.27.17.41.26ZM870.33,44.21c-.09-.05-.18-.1-.27-.15.09.05.18.1.27.15ZM868.41,43.18c-.2-.1-.41-.21-.62-.31.21.1.41.2.62.31ZM866.42,42.2c-.24-.11-.47-.22-.71-.33.24.11.47.22.71.33ZM864.35,41.26c-.24-.1-.48-.21-.72-.31.24.1.48.21.72.31ZM862.17,40.36c-.22-.09-.44-.17-.66-.26.22.08.44.17.66.26ZM859.7,39.43c-.11-.04-.22-.08-.33-.12.11.04.22.08.33.12ZM857.13,38.56c-.13-.04-.26-.08-.39-.12.13.04.26.08.39.12ZM854.89,37.87c-.24-.07-.47-.13-.71-.2.24.07.48.13.71.2ZM852.59,37.24c-.26-.07-.53-.14-.79-.2.26.07.53.14.79.2ZM850.22,36.64c-.26-.06-.53-.13-.79-.19.26.06.53.12.79.19ZM847.75,36.09c-.23-.05-.46-.1-.69-.15.23.05.46.1.69.15ZM844.85,35.51c-.06-.01-.12-.02-.19-.04.06.01.12.02.19.04ZM842.19,35.06c-.19-.03-.37-.06-.56-.08.19.03.37.06.56.08ZM839.74,34.69c-.28-.04-.55-.07-.83-.11.28.04.55.07.83.11ZM837.25,34.37c-.3-.04-.6-.07-.9-.1.3.03.6.07.9.1ZM834.71,34.1c-.3-.03-.59-.06-.89-.09.3.03.59.06.89.09ZM832.05,33.86c-.25-.02-.51-.04-.76-.06.25.02.51.04.76.06ZM828.81,33.64s-.04,0-.06,0c.02,0,.04,0,.06,0ZM826.19,33.52c-.26,0-.52-.02-.77-.02.26,0,.52.01.77.02ZM823.63,33.45c-.32,0-.64-.01-.95-.01.32,0,.64,0,.95.01ZM816.81,33.46c-.16,0-.32,0-.48.01.16,0,.32-.01.48-.01ZM813.15,33.59c-.18,0-.36.01-.54.02.18,0,.36-.02.54-.02ZM809.26,33.82c-.25.02-.5.04-.76.06.25-.02.5-.04.76-.06ZM805.16,34.16c-.15.01-.31.03-.46.05.15-.02.31-.03.46-.05ZM801.6,34.54c-.2.02-.41.05-.61.07.2-.02.41-.05.61-.07ZM797.74,35.03c-.25.04-.51.07-.76.11.25-.04.5-.07.76-.11ZM793.72,35.65c-.13.02-.26.05-.39.07.13-.02.26-.05.39-.07ZM790.31,36.25c-.21.04-.42.08-.62.12.21-.04.41-.08.62-.12ZM786.56,37c-.23.05-.47.1-.7.15.23-.05.47-.1.7-.15ZM782.72,37.87c-.09.02-.18.05-.28.07.09-.02.18-.05.28-.07ZM779.52,38.68c-.2.05-.4.1-.59.16.2-.05.4-.1.59-.16ZM775.98,39.67c-.21.06-.41.12-.62.18.21-.06.41-.12.62-.18ZM772.4,40.77s-.08.03-.12.04c.04-.01.08-.03.12-.04ZM769.47,41.76c-.18.06-.36.13-.54.19.18-.06.36-.13.54-.19ZM766.24,42.96c-.18.07-.35.14-.53.21.18-.07.35-.14.53-.21ZM745.51,62.13c.67-1.84,1.52-3.62,2.54-5.33.51-.85,1.08-1.68,1.69-2.49.61-.81,1.27-1.59,1.99-2.35-.71.76-1.38,1.54-1.99,2.35-.61.81-1.17,1.64-1.69,2.49-1.03,1.7-1.87,3.49-2.54,5.33-1.01,2.76-1.65,5.66-2,8.6.35-2.95.99-5.84,2-8.6ZM743.27,73.7c-.05.99-.07,1.99-.07,2.98,0-1,.02-1.99.07-2.98ZM730.86,499.38c-.26.16-.52.31-.77.46.26-.15.52-.31.77-.46ZM728.77,500.6c-.24.14-.49.28-.74.42.25-.14.49-.28.74-.42ZM726.46,501.86c-.17.09-.33.18-.5.27.17-.09.33-.18.5-.27ZM723.89,503.17c-.2.1-.41.19-.61.29.2-.1.41-.19.61-.29ZM721.78,504.17c-.27.12-.55.25-.82.37.27-.12.55-.24.82-.37ZM719.63,505.12c-.29.12-.58.25-.87.37.29-.12.58-.24.87-.37ZM717.43,506.04c-.29.12-.57.23-.86.34.29-.11.58-.23.86-.34ZM715.14,506.93c-.25.09-.5.19-.75.28.25-.09.5-.19.75-.28ZM712.23,507.98c-.15.05-.31.1-.46.15.15-.05.31-.1.46-.15ZM710.02,508.71c-.28.09-.57.18-.85.27.28-.09.57-.18.85-.27ZM707.79,509.4c-.31.09-.62.18-.93.27.31-.09.62-.18.93-.27ZM705.54,510.05c-.31.09-.63.17-.94.26.31-.08.63-.17.94-.26ZM703.23,510.66c-.29.08-.58.15-.88.22.29-.07.58-.15.88-.22ZM700.67,511.3c-.19.04-.38.09-.56.13.19-.04.38-.09.56-.13ZM697.91,511.92c-.27.06-.55.11-.82.17.27-.06.55-.11.82-.17ZM695.65,512.38c-.32.06-.63.12-.95.18.32-.06.63-.12.95-.18ZM693.38,512.8c-.32.06-.64.11-.96.17.32-.06.64-.11.96-.17ZM691.07,513.2c-.31.05-.61.1-.92.15.31-.05.61-.1.92-.15ZM688.66,513.57c-.25.04-.5.07-.74.11.25-.04.5-.07.74-.11ZM685.72,513.98c-.21.03-.41.05-.62.07.21-.03.41-.05.62-.07ZM683.48,514.25c-.29.03-.58.06-.87.09.29-.03.58-.06.87-.09ZM619.68,445.42c-.43-.23-.83-.42-1.2-.58.37.16.77.35,1.2.58ZM616.69,444.18c.33.1.75.24,1.26.44-.51-.2-.94-.34-1.26-.44-.33-.1-.55-.14-.64-.16.09.02.32.07.64.16ZM549.88,453.7c.15,0,.29,0,.44,0-.15,0-.3,0-.44,0ZM561.78,439.7c.55.38,1.12.77,1.72,1.16,1.48.98,3.07,2,4.63,2.97.62.39,1.24.77,1.85,1.15.61.37,1.2.74,1.77,1.08.57.35,1.12.68,1.64.99-.52-.31-1.07-.64-1.64-.99-.57-.35-1.17-.71-1.77-1.08-.61-.37-1.23-.76-1.85-1.15-1.56-.98-3.15-1.99-4.63-2.97-.59-.39-1.17-.78-1.72-1.16-.55-.38-1.07-.75-1.56-1.1.49.35,1.01.72,1.56,1.1ZM561.45,424.11c.07.01.15.03.22.04-.07-.01-.15-.03-.22-.04ZM563.05,424.43c.08.02.16.03.24.05-.08-.02-.16-.03-.24-.05ZM564.79,424.81c.05.01.11.02.16.04-.05-.01-.11-.03-.16-.04ZM566.6,425.23s.03,0,.04,0c-.01,0-.03,0-.04,0ZM568.38,425.66c.07.02.15.04.22.06-.07-.02-.15-.04-.22-.06ZM570.35,426.16c.09.02.18.05.28.07-.09-.02-.18-.05-.28-.07ZM572.43,426.71c.09.02.18.05.28.08-.09-.03-.18-.05-.28-.08ZM562.4,453.29c-.56.05-1.12.09-1.68.12.56-.04,1.12-.08,1.68-.12ZM560.47,453.43c-.57.04-1.13.07-1.69.09.56-.03,1.12-.06,1.69-.09ZM564.41,453.11c-.57.06-1.13.11-1.7.16.57-.05,1.13-.1,1.7-.16ZM568.13,452.63c-.56.09-1.12.17-1.69.24.57-.07,1.13-.16,1.69-.24ZM566.33,452.89c-.56.07-1.12.14-1.69.2.56-.06,1.13-.12,1.69-.2ZM570.02,452.3c-.53.1-1.06.2-1.6.28.54-.09,1.08-.18,1.6-.28ZM571.88,451.9c-.51.12-1.04.24-1.58.34.54-.11,1.06-.22,1.58-.34ZM573.45,451.48c-.47.14-.96.27-1.46.39.5-.12.98-.25,1.46-.39ZM577.84,449.68c-.36.21-.75.41-1.16.61.41-.19.8-.39,1.16-.61ZM576.49,450.37c-.39.18-.81.35-1.24.51.43-.16.84-.33,1.24-.51ZM575.01,450.98c-.44.16-.89.31-1.37.45.47-.14.93-.29,1.37-.45ZM574.6,427.32c.06.02.11.03.17.05-.06-.02-.11-.03-.17-.05ZM576.75,427.94s.06.02.08.02c-.03,0-.06-.02-.08-.02ZM612.89,442.1c.08.05.16.09.24.14-.08-.05-.16-.09-.24-.14ZM611.22,500.98c-.17.01-.33.03-.5.04.17-.01.33-.03.5-.04ZM608.58,501.2c-.08,0-.15.01-.23.02.08,0,.15-.01.23-.02ZM606.32,501.38c-.17.01-.34.03-.51.04.17-.01.34-.03.51-.04ZM603.54,501.6c-.12,0-.24.02-.37.03.12,0,.24-.02.37-.03ZM601.09,501.78c-.16.01-.32.02-.48.04.16-.01.32-.02.48-.04ZM598.27,501.99c-.17.01-.33.02-.5.03.17-.01.33-.02.5-.03ZM595.66,502.16c-.14,0-.28.02-.43.03.14,0,.28-.02.43-.03ZM592.85,502.34c-.19.01-.37.02-.56.03.19-.01.37-.02.56-.03ZM589.98,502.51c-.05,0-.11,0-.16,0,.05,0,.11,0,.16,0ZM587.36,502.65c-.18,0-.36.02-.53.03.18,0,.36-.02.53-.03ZM584.36,502.79s-.02,0-.03,0c.01,0,.02,0,.03,0ZM581.95,502.89c-.18,0-.36.01-.54.02.18,0,.36-.01.54-.02ZM579.05,502.99c-.09,0-.18,0-.27,0,.09,0,.18,0,.27,0ZM578.84,428.56c.1.03.19.06.29.09-.1-.03-.19-.06-.29-.09ZM581.09,429.25c.12.04.23.07.35.11-.12-.04-.23-.07-.35-.11ZM583.43,429.99c.1.03.2.06.3.1-.1-.03-.2-.06-.3-.1ZM585.79,430.76c.05.02.1.03.15.05-.05-.02-.1-.03-.15-.05ZM588.04,431.52s.09.03.13.05c-.04-.02-.09-.03-.13-.05ZM590.26,432.29c.1.04.2.07.3.11-.1-.04-.2-.07-.3-.11ZM592.55,433.12c.12.04.23.09.35.13-.12-.04-.23-.09-.35-.13ZM594.89,433.98c.1.04.19.07.29.11-.1-.04-.19-.07-.29-.11ZM597.22,434.88s.06.02.09.03c-.03-.01-.06-.02-.09-.03ZM599.31,435.71c.06.02.12.05.18.07-.06-.02-.12-.05-.18-.07ZM601.41,436.58c.1.04.21.09.31.13-.1-.04-.21-.09-.31-.13ZM603.54,437.49c.11.05.21.09.32.14-.11-.05-.21-.09-.32-.14ZM605.64,438.43c.08.04.16.07.24.11-.08-.04-.16-.07-.24-.11ZM607.67,439.38s.04.02.06.03c-.02,0-.04-.02-.06-.03ZM609.42,440.24c.06.03.13.06.19.1-.06-.03-.13-.06-.19-.1ZM611.18,441.16c.08.05.17.09.25.14-.08-.05-.17-.09-.25-.14ZM614.67,443.15c-.06-.03-.11-.07-.16-.1.06.03.11.07.16.1ZM560.16,423.88c-.05,0-.1-.02-.15-.02.05,0,.1.02.15.02ZM557.67,423.52s-.09-.01-.13-.01c.04,0,.09.01.13.01ZM556.63,423.43c-.05,0-.1,0-.15-.01.05,0,.1,0,.15.01ZM555.72,423.39s-.08,0-.12,0c.02,0,.04,0,.07,0,.02,0,.04,0,.06,0ZM554.14,423.63s-.03.02-.04.03c.01,0,.03-.02.04-.03ZM555,423.41s-.01,0-.02,0c0,0,.01,0,.02,0ZM554.53,423.49s-.05.01-.08.02c.02,0,.05-.01.08-.02ZM553.45,426.48c0,.25.02.5.04.76-.02-.26-.04-.51-.04-.76ZM553.6,428.02c.08.53.2,1.07.35,1.61-.15-.54-.27-1.08-.35-1.61ZM557.33,436.28c.53.51,1.27,1.12,2.18,1.8-.91-.68-1.65-1.29-2.18-1.8ZM558.74,453.53c-.56.03-1.12.05-1.67.07.55-.02,1.1-.04,1.67-.07ZM556.8,453.61c-.52.02-1.02.03-1.52.04.5-.01,1-.03,1.52-.04ZM554.97,453.66c-.5.01-.98.02-1.45.03.47,0,.96-.02,1.45-.03ZM553.36,453.69c-.46,0-.9,0-1.33.01.43,0,.87,0,1.33-.01ZM551.87,453.7c-.43,0-.85,0-1.24,0,.4,0,.81,0,1.24,0ZM549.54,453.7c-.17,0-.33,0-.5,0,.16,0,.32,0,.5,0ZM548.53,453.7c-.1,0-.2,0-.29,0,.09,0,.19,0,.29,0ZM547.12,453.69s-.1,0-.15,0c.05,0,.1,0,.15,0ZM546.48,453.69c-.07,0-.14,0-.21,0,.07,0,.14,0,.21,0ZM543.69,453.68c-.3,0-.62,0-.95,0,.04,0,.08,0,.11,0,.29,0,.56,0,.84,0ZM545.44,453.69c-.19,0-.39,0-.6,0,.21,0,.41,0,.6,0ZM544.61,453.68c-.24,0-.49,0-.75,0,.26,0,.51,0,.75,0ZM507.5,465.61c.11,0,.21,0,.32,0-.15,0-.3,0-.46,0,.04,0,.09,0,.14,0ZM508.55,465.63c-.18,0-.38-.01-.59-.02.21,0,.41.01.59.02ZM509.93,465.74s-.04,0-.07,0c.04,0,.07,0,.07,0ZM509.81,465.72s-.12-.01-.2-.02c.08,0,.15.01.2.02ZM509.56,465.7c-.1,0-.23-.02-.37-.03.14.01.27.02.37.03ZM509.08,465.66c-.12,0-.26-.02-.41-.02.15,0,.28.01.41.02ZM509.24,457.88c.19-.13.4-.26.62-.39-.22.13-.43.26-.62.39ZM542.44,453.68c-.24,0-.49,0-.75,0,.26,0,.5,0,.75,0ZM541.3,453.68c-.23,0-.47,0-.72,0,.24,0,.48,0,.72,0ZM540.13,453.69c-.29,0-.58,0-.88,0,.3,0,.59,0,.88,0ZM538.96,453.7c-.41,0-.82.01-1.24.02.42,0,.83-.01,1.24-.02ZM537.46,453.72c-.33,0-.67.01-1,.02.34,0,.67-.01,1-.02ZM536.02,453.75c-.3,0-.6.01-.9.02.3,0,.6-.02.9-.02ZM534.67,453.78c-.32,0-.64.02-.97.03.32-.01.65-.02.97-.03ZM533.3,453.83c-.91.03-1.84.07-2.77.11.93-.04,1.86-.08,2.77-.11ZM530.13,453.96c-.34.02-.67.03-1.01.05.34-.02.67-.04,1.01-.05ZM528.64,454.04c-.32.02-.64.04-.96.06.32-.02.64-.04.96-.06ZM527.21,454.13c-.37.02-.74.05-1.1.08.37-.03.74-.05,1.1-.08ZM525.81,454.23c-.47.04-.93.07-1.4.11.46-.04.93-.08,1.4-.11ZM524.12,454.37c-.36.03-.72.07-1.08.1.36-.04.72-.07,1.08-.1ZM522.6,454.52c-.31.03-.62.07-.92.1.31-.03.61-.07.92-.1ZM521.21,454.67c-.31.04-.62.08-.93.12.31-.04.62-.08.93-.12ZM519.89,454.84c-.86.12-1.71.24-2.51.39.81-.14,1.65-.27,2.51-.39ZM517.02,455.29c-.28.05-.56.1-.83.16.27-.05.55-.11.83-.16ZM515.78,455.53c-.26.05-.51.11-.76.16.25-.06.5-.11.76-.16ZM514.65,455.78c-.28.07-.55.13-.81.2.26-.07.53-.14.81-.2ZM513.59,456.05c-.34.09-.67.19-.98.29.32-.1.64-.2.98-.29ZM512.39,456.41c-.24.08-.47.16-.69.24.22-.08.45-.16.69-.24ZM511.41,456.76c-.19.07-.37.15-.55.23.18-.08.36-.15.55-.23ZM510.58,457.12c-.17.08-.34.17-.5.25.16-.09.32-.17.5-.25ZM507,463.44c-.06-.08-.11-.17-.16-.26.05.09.1.17.16.26ZM506.45,461.79c0,.28.05.55.13.8-.08-.25-.12-.52-.13-.8ZM506.73,465.63c-.11,0-.21,0-.32.01.11,0,.21,0,.32-.01ZM508.76,485.48c.16.18.32.37.49.53-.17-.17-.33-.35-.49-.53ZM506.66,481.39c.13.49.28.95.46,1.38-.18-.44-.33-.89-.46-1.38ZM507.31,483.19c.13.28.25.55.4.81-.15-.26-.27-.53-.4-.81ZM507.99,484.43c.14.22.28.44.44.64-.15-.2-.3-.42-.44-.64ZM510.15,486.82c-.18-.14-.36-.29-.53-.45.17.16.35.31.53.45ZM510.56,487.13c.19.13.38.26.58.38-.19-.12-.39-.25-.58-.38ZM511.56,487.76c.2.12.41.22.62.32-.21-.1-.42-.21-.62-.32ZM512.6,488.29c.23.1.45.19.68.28-.23-.09-.46-.18-.68-.28ZM513.66,488.72c.28.1.56.18.84.27-.28-.08-.56-.17-.84-.27ZM514.74,489.06c.36.1.72.18,1.07.26-.35-.07-.71-.16-1.07-.26ZM516.11,489.37c.25.05.5.1.75.13-.25-.04-.5-.08-.75-.13ZM517.25,489.55c.21.03.41.05.61.08-.2-.02-.41-.05-.61-.08ZM518.27,489.67c.18.02.37.03.54.04-.18-.01-.36-.03-.54-.04ZM519.2,489.73c.17,0,.33.01.49.02-.16,0-.32,0-.49-.02ZM520.03,489.75c.17,0,.33,0,.48,0-.09,0-.18,0-.28,0-.06,0-.13,0-.2,0ZM520.71,489.75c.21,0,.41-.01.59-.02-.18,0-.38.01-.59.02ZM563.36,502.9c.08,0,.16.01.24.02-.08,0-.16-.01-.24-.02ZM565.78,503.02c.12,0,.24,0,.36.01-.12,0-.24,0-.36-.01ZM568.42,503.08c.13,0,.27,0,.4,0-.13,0-.27,0-.4,0ZM571.24,503.11c.13,0,.27,0,.41,0-.09,0-.19,0-.29,0-.04,0-.08,0-.12,0ZM576.68,503.05c-.17,0-.33,0-.5.01.17,0,.33,0,.5-.01ZM573.96,503.09c-.13,0-.26,0-.4,0,.13,0,.26,0,.4,0ZM613.02,502.82c0,.24.02.49.06.75-.04-.26-.05-.51-.06-.75ZM613.37,504.8c.1.29.22.58.36.87-.15-.3-.27-.59-.36-.87ZM614.99,507.47c.28.3.59.6.94.89-.35-.29-.67-.59-.94-.89ZM627.4,512.56c.08.01.15.03.23.04-.08-.01-.15-.03-.23-.04ZM628.92,512.81c.08.01.16.02.24.04-.08-.01-.16-.02-.24-.04ZM630.54,513.05s.08.01.13.02c-.04,0-.08-.01-.13-.02ZM632.24,513.3c.1.01.21.03.32.04-.11-.01-.21-.03-.32-.04ZM634.25,513.57c.06,0,.13.02.19.02-.06,0-.13-.02-.19-.02ZM636.17,513.81c.08.01.17.02.25.03-.09-.01-.17-.02-.25-.03ZM638.33,514.06c.12.01.24.03.36.04-.12-.01-.24-.03-.36-.04ZM640.76,514.31s.03,0,.04,0c-.01,0-.03,0-.04,0ZM642.92,514.52c.12.01.25.02.37.03-.13-.01-.25-.02-.37-.03ZM645.49,514.73c.13.01.26.02.39.03-.13,0-.26-.02-.39-.03ZM648.12,514.92s.09,0,.14,0c-.05,0-.09,0-.14,0ZM650.64,515.07c.16,0,.32.02.49.03-.16,0-.32-.02-.49-.03ZM653.55,515.21c.12,0,.24,0,.36.01-.12,0-.24,0-.36-.01ZM656.26,515.31c.12,0,.24,0,.37.01-.12,0-.24,0-.37-.01ZM659.17,515.38c.18,0,.36,0,.54,0-.18,0-.36,0-.54,0ZM662.36,515.4c.16,0,.31,0,.47,0-.14,0-.27,0-.41,0-.02,0-.04,0-.06,0ZM681.24,514.49c-.3.03-.6.06-.9.09.3-.03.6-.06.9-.09ZM678.99,514.7c-.3.03-.59.05-.89.08.29-.02.59-.05.89-.08ZM676.69,514.88c-.26.02-.52.04-.78.06.26-.02.52-.04.78-.06ZM673.94,515.07c-.07,0-.13,0-.2.01.07,0,.13,0,.2-.01ZM671.6,515.19c-.24.01-.47.02-.71.03.24-.01.47-.02.71-.03ZM669.45,515.28c-.27,0-.54.02-.81.03.27,0,.54-.02.81-.03ZM667.31,515.34c-.27,0-.55.01-.82.02.27,0,.54-.01.82-.02ZM665.15,515.38c-.25,0-.5,0-.74,0,.25,0,.5,0,.74,0ZM732.13,498.59c.25-.16.5-.31.75-.48-.25.16-.5.32-.75.48ZM734.22,497.24c.21-.14.42-.28.63-.42-.21.14-.42.28-.63.42ZM983.24,705.55c.08.11.19.25.32.4-.13-.15-.24-.29-.32-.4ZM986.27,707.39s.09,0,.13,0c-.02,0-.05,0-.07,0s-.04,0-.06,0ZM984.69,706.92s.05.03.08.05c-.03-.02-.05-.03-.08-.05ZM985.18,707.17s.05.02.08.03c-.03-.01-.05-.02-.08-.03ZM985.72,707.33s.02,0,.04,0c-.01,0-.02,0-.04,0ZM986.67,707.37c.05,0,.1,0,.15-.02-.05,0-.1.01-.15.02ZM987.16,707.28s.07-.01.1-.02c-.03.01-.07.02-.1.02ZM989.25,706.03c.07-.06.13-.12.2-.19-.07.07-.13.13-.2.19ZM987.72,707.08s.08-.04.13-.06c-.04.02-.09.05-.13.06ZM988.21,706.82c.06-.04.12-.08.18-.12-.06.04-.12.08-.18.12ZM988.72,706.47c.07-.05.13-.1.2-.16-.07.05-.13.11-.2.16ZM989.82,705.45c.06-.06.12-.12.18-.19-.06.07-.12.13-.18.19ZM1023.34,555.73c.36-2.26.73-4.54,1.09-6.82-.36,2.28-.72,4.56-1.09,6.82ZM1029.4,515.7c.17-1.2.33-2.4.49-3.58-.16,1.18-.32,2.38-.49,3.58ZM1030.71,505.92c.26-2.02.51-4,.75-5.93-.23,1.93-.48,3.91-.75,5.93ZM1032.38,491.98c.11-.98.21-1.94.3-2.89-.1.94-.2,1.91-.3,2.89ZM1033.49,479.78c.1-1.4.17-2.72.23-3.95-.05,1.23-.13,2.55-.23,3.95Z"/>
    <path class="cls-9" d="M170.49,149.71h-28.33v6.63c-.9-.15-1.85-.24-2.83-.24-2.08,0-3.98.36-5.68,1.02-1.43-.67-3.05-1.02-4.87-1.02-1.24,0-2.44.16-3.57.46h-2.8c-2.69-3.72-7.05-5.97-12.38-5.97h-14.31v38.96h36.81v-1.08c1.96.99,4.25,1.53,6.8,1.53,1.3,0,2.52-.15,3.67-.42h10.92c.96.26,1.93.39,2.9.39,1.16,0,2.26-.16,3.31-.42h16.33c1.12.27,2.3.42,3.54.42s2.52-.15,3.68-.42h34.89v-18.61c0-10.95-6.75-14.84-12.52-14.84-1.49,0-2.91.24-4.22.7-1.3-.46-2.71-.7-4.18-.7-1.21,0-2.37.16-3.47.46h-10.35c-1.19-.3-2.45-.46-3.78-.46-.82,0-1.61.08-2.38.19v-6.58h-7.18Z"/>
    <path class="cls-9" d="M99.64,147.4h97.15c6.73,0,12.21-5.48,12.21-12.21V46.5c0-6.73-5.48-12.21-12.21-12.21h-21.03c.39-1.98.58-4,.55-6.06-.23-15.01-12.62-27.66-27.61-28.21C148.34,0,147.99,0,147.64,0h0c-7.66,0-14.86,2.98-20.28,8.4-5.41,5.42-8.4,12.62-8.4,20.27,0,1.91.19,3.79.55,5.62h-19.89c-6.73,0-12.21,5.48-12.21,12.21v21.34c0,6.75,5.42,12.24,12.09,12.24.65,0,1.3-.05,1.94-.16.75-.12,1.51-.19,2.27-.19.26,0,.53,0,.8.02,7.29.4,13.35,6.64,13.54,13.92.1,3.89-1.35,7.57-4.06,10.35-2.72,2.79-6.36,4.32-10.25,4.32-.71,0-1.41-.05-2.09-.16-.66-.1-1.3-.15-1.94-.15-6.78,0-12.29,5.45-12.29,12.16v15c0,6.73,5.48,12.21,12.21,12.21ZM148.44,7.19c-.3-.01-.6-.01-.9,0,.03,0,.07,0,.1,0,.26,0,.53,0,.8.01ZM145.6,7.28c-.09,0-.18.02-.27.02.09,0,.18-.02.27-.02ZM143.46,7.59c-.09.02-.18.03-.27.05.09-.02.18-.04.27-.05ZM141.39,8.11c-.09.03-.18.05-.27.08.09-.03.18-.05.27-.08ZM139.41,8.82c-.09.04-.17.07-.26.11.09-.04.17-.07.26-.11ZM137.52,9.71c-.08.04-.16.09-.25.13.08-.05.16-.09.25-.13ZM135.73,10.78c-.08.05-.15.1-.23.16.08-.05.15-.1.23-.16ZM134.07,12.02c-.07.06-.14.12-.21.17.07-.06.14-.12.21-.17ZM132.52,13.4c-.06.06-.12.12-.18.18.06-.06.12-.12.18-.18ZM130.97,15.12c.05-.06.1-.13.16-.19-.05.06-.1.13-.16.19ZM129.87,16.59c-.04.06-.08.13-.13.19.04-.06.08-.13.13-.19ZM128.78,18.36c-.03.06-.06.12-.1.18.03-.06.06-.12.1-.18ZM127.86,20.25c-.02.05-.04.11-.07.17.02-.06.04-.11.07-.17ZM127.13,22.24s-.03.1-.04.14c.01-.05.03-.1.04-.14ZM126.59,24.31s-.01.07-.02.11c0-.04.01-.07.02-.11ZM126.26,26.46s0,.04,0,.06c0-.02,0-.04,0-.06ZM94.7,68.79s0,.07.02.1c0-.03,0-.06-.02-.1ZM94.98,69.73s.03.08.05.13c-.02-.04-.03-.08-.05-.13ZM95.43,70.6s.05.08.08.12c-.03-.04-.05-.08-.08-.12ZM96.03,71.38s.06.06.09.09c-.03-.03-.06-.06-.09-.09ZM99.44,72.89c.05,0,.11,0,.16,0-.03,0-.05,0-.08,0-.03,0-.05,0-.08,0ZM96.78,72.02s.04.03.06.04c-.02-.01-.04-.03-.06-.04ZM97.61,72.49s.02,0,.03.01c0,0-.02,0-.03-.01ZM98.47,72.78s.07.02.1.03c-.04,0-.07-.02-.1-.03ZM100.29,72.84c.49-.08,1-.14,1.5-.19-.51.05-1.01.1-1.5.19ZM103.68,72.56c-.5,0-1,.03-1.49.06.49-.04.99-.06,1.49-.06ZM103.74,72.56c.4,0,.8.01,1.2.03-.4-.02-.8-.03-1.2-.03ZM99.81,115.23c-.06,0-.11,0-.17,0,.03,0,.05,0,.08,0s.06,0,.09,0ZM96.19,116.59s-.06.06-.09.09c.03-.03.06-.06.09-.09ZM98.75,115.31s-.08.02-.12.03c.04,0,.08-.02.12-.03ZM97.77,115.59s-.03.02-.05.02c.02,0,.03-.02.05-.02ZM96.93,116.02s-.04.02-.06.04c.02-.01.04-.02.06-.04ZM95.55,117.31s-.06.08-.08.12c.03-.04.06-.08.08-.12ZM95.05,118.16s-.04.09-.05.13c.02-.04.03-.09.05-.13ZM94.73,119.13s-.01.07-.02.1c0-.03.01-.07.02-.1Z"/>
    <path class="cls-9" d="M350.57,196.16h2.46c3.44,0,9.64-1.46,12.48-11.21l5.59-19.19,2.68-9.19h-24.23c-1.04-.3-2.16-.46-3.37-.46s-2.44.16-3.57.46h-10.8c-1.21-.29-2.49-.46-3.85-.46s-2.65.17-3.85.46h-1.58v-4.5h-15.37c-2.17-1.25-4.77-1.96-7.68-1.96-8.31,0-14.35,5.75-14.35,13.67,0,1.57.22,2.98.61,4.25h-1.14v7.18c0,8.74,6.09,14.84,14.81,14.84,3.64,0,6.85-1.07,9.35-2.9,2.27,1.7,5.12,2.69,8.35,2.69h8.53c.75.1,1.53.17,2.33.17,1.35,0,2.61-.16,3.8-.45h11.63v6.61h7.18Z"/>
    <path class="cls-9" d="M406.92,83.6h5.62v20.81l12.26-12.26,13.33-13.33,3.24-3.24c.85,6.44,5.96,11.67,12.57,12.52,7.85.98,19.21,4.19,28.93,13.96,9.62,9.68,12.8,20.96,13.77,28.71.91,7.26,7.1,12.73,14.4,12.73s13.5-5.47,14.41-12.73c.95-7.55,4.02-18.57,13.18-28.1,9.77-10.17,21.45-13.53,29.52-14.56,7.24-.93,12.7-7.12,12.7-14.39v-.06c0-7.28-5.44-13.46-12.65-14.39-8.41-1.1-20.52-4.65-30.35-15.36-8.61-9.39-11.49-20.02-12.4-27.28-.89-7.25-7.08-12.73-14.4-12.73h-.01c-7.3,0-13.49,5.47-14.4,12.73-.99,7.83-4.21,19.21-13.97,28.91-9.67,9.61-20.95,12.79-28.7,13.76-6.65.83-11.79,6.11-12.61,12.6l-3.22-3.23-13.41-13.42-13.17-13.18.92,18.61.06,1.27v1.92h-5.62c-5.44,0-9.87,4.43-9.87,9.87s4.43,9.86,9.87,9.86ZM571.4,68.35c-.47-.45-1-.83-1.58-1.15.58.31,1.11.7,1.58,1.15ZM557.86,64.39c1.42.42,2.79.77,4.09,1.06s2.53.52,3.68.7c.57.09,1.12.17,1.65.24.69.09,1.34.27,1.95.53-.61-.26-1.26-.44-1.95-.53-.53-.07-1.08-.15-1.65-.24-1.14-.18-2.38-.41-3.68-.7s-2.67-.64-4.09-1.06c-1.42-.42-2.9-.92-4.41-1.5,1.51.58,2.98,1.07,4.41,1.5ZM546.48,59.67c-1.57-.86-3.16-1.83-4.73-2.91,1.57,1.08,3.16,2.05,4.73,2.91ZM474.4,60.37c-2.97,1.55-5.89,2.72-8.65,3.62,2.75-.9,5.67-2.07,8.65-3.62ZM461.76,65.13c-1.28.32-2.5.58-3.66.79,1.15-.21,2.38-.47,3.66-.79Z"/>
    <path class="cls-9" d="M576.54,156.29v-6.58h-35.51v6.61c-.87-.14-1.77-.22-2.73-.22-2,0-3.86.35-5.53,1-1.42-.65-3.03-1-4.83-1-1.24,0-2.44.16-3.57.46h-10.81c-1.21-.29-2.49-.46-3.85-.46-3.11,0-5.84.8-8.05,2.24-2.18-1.56-4.73-2.24-7.12-2.24-1.49,0-2.91.24-4.22.7-1.3-.46-2.71-.7-4.18-.7-1.21,0-2.37.16-3.47.46h-10.35c-1.19-.3-2.45-.46-3.78-.46-1.06,0-2.08.1-3.05.29v-5.8h-17l-.76,1.82-.76-1.82h-17v38.96h34.97c1.12.27,2.3.42,3.54.42s2.52-.15,3.68-.42h33.73c1.19.29,2.46.45,3.8.45s2.61-.16,3.8-.45h18.17v-.44c1.5.6,3.15.94,4.9.94,1.23,0,2.41-.17,3.52-.49h.93v.03h11.77c.96.26,1.93.39,2.9.39,1.16,0,2.26-.16,3.31-.42h16.33c1.12.27,2.3.42,3.54.42,6.04,0,10.85-3.12,13.04-8.11h1v-3.24c.09-.48.16-.98.21-1.49l.77-7.88h-1.02c-.53-7.8-6.12-13.15-13.96-13.15-.82,0-1.61.08-2.38.19Z"/>
    <path class="cls-9" d="M219.86,83.6h5.61v20.81l12.26-12.26,13.33-13.33,3.1-3.1v41.63c0,6.73,5.48,12.21,12.21,12.21h33.7c4.7,0,9.13,1.84,12.45,5.18l7.51,7.54,5.09,5.11,5.09-5.11,7.51-7.54c3.33-3.34,7.75-5.18,12.45-5.18h33.7c6.73,0,12.21-5.48,12.21-12.21V15.2c0-6.73-5.48-12.21-12.21-12.21h-34.1c-9.93,0-18.81,4.57-24.65,11.72-5.84-7.15-14.73-11.72-24.66-11.72h-34.09c-6.73,0-12.21,5.48-12.21,12.21v56.56l-3.1-3.1-13.41-13.42-13.17-13.18.92,18.61.06,1.27v1.92h-5.61c-5.44,0-9.87,4.43-9.87,9.87s4.43,9.86,9.87,9.86Z"/>
    <path class="cls-9" d="M207.47,442.06c11.97,0,21.71-9.74,21.71-21.71v-206.93c0-11.97-9.74-21.71-21.71-21.71H21.71c-11.97,0-21.71,9.74-21.71,21.71v206.93c0,11.97,9.74,21.71,21.71,21.71h185.75ZM213.12,433.74c1.74-.74,3.3-1.8,4.62-3.11-1.32,1.31-2.88,2.38-4.62,3.11ZM218.68,429.6c.59-.72,1.12-1.49,1.57-2.32-.45.82-.97,1.6-1.57,2.32ZM220.24,206.49c-.45-.82-.97-1.6-1.57-2.32.59.72,1.12,1.49,1.57,2.32ZM217.74,203.14c-1.32-1.31-2.88-2.38-4.62-3.11,1.74.74,3.3,1.8,4.62,3.11Z"/>
    <path class="cls-9" d="M212.15,447.06H37.81c-11.97,0-21.71,9.74-21.71,21.71v187.26c0,11.97,9.74,21.71,21.71,21.71h174.35c11.97,0,21.71-9.74,21.71-21.71v-187.26c0-11.97-9.74-21.71-21.71-21.71ZM226.03,464.45c-.42-1.36-1.04-2.64-1.83-3.8.78,1.16,1.4,2.44,1.83,3.8ZM223.37,459.53c-.89-1.08-1.93-2.02-3.09-2.81,1.16.78,2.2,1.73,3.09,2.81ZM28.84,457.35c-.46.36-.9.74-1.31,1.15.41-.41.86-.79,1.31-1.15ZM25.75,460.65c-.78,1.16-1.4,2.44-1.83,3.8.42-1.36,1.04-2.64,1.83-3.8Z"/>
    <path class="cls-9" d="M470.25,483.65h-2.57c8.32-3.04,14.29-11.02,14.29-20.38v-210.55c0-11.97-9.74-21.71-21.71-21.71h-202.96c-11.97,0-21.71,9.74-21.71,21.71v210.55c0,11.97,9.74,21.71,21.71,21.71h3.96c-8.32,3.04-14.29,11.02-14.29,20.38v207.71c0,11.97,9.74,21.71,21.71,21.71h201.58c11.98,0,21.72-9.74,21.72-21.71v-207.71c0-11.97-9.75-21.71-21.72-21.71Z"/>
  </g>
  <g>
    <g>
      <polygon class="cls-21" points="978.69 784.61 870.27 784.61 854.56 683.53 854.02 689.68 845.66 784.61 747.45 784.61 751.88 599.88 791.77 561.76 870.83 561.76 878.91 599.99 949.35 598.15 962.1 625.64 978.69 784.61"/>
      <path class="cls-9" d="M813.85,252.54l69.82-8.36,2.84,8.36v31.19l-8.12,74.37-7.33,64.95,1.57,54.21,1.83,84.06-1.05,2.62s-26.19.52-44.78,0c-18.59-.52-42.69-2.88-42.69-2.88v-69.92l2.36-76.73,1.05-42.95,5.76-42.69,8.38-55.78,10.36-20.46Z"/>
      <path class="cls-4" d="M793.01,601.65c-60.23,0-54.47-8.38-54.47-8.38l-.51-97.18v-1.54c-.42.31-.83.62-1.25.9-36.98,26.96-94.26,19.75-110.58,16.9-16.49-2.88-12.83-11.79-12.83-11.79l15.71-1.31c9.95-54.21-13.09-55.25-13.09-55.25l66.03-9.72,1.53-.23s.17-.59.49-1.71c4.31-14.89,35.93-122.23,57.12-140.75,22.78-19.9,72.69-39.05,72.69-39.05-14.26,30.35-22.68,158.47-23.46,203.51-.79,45.05,2.62,145.61,2.62,145.61Z"/>
      <path class="cls-4" d="M1011.42,625.22s-2.36,6.81-21.73,6.02c-19.39-.78-42.96-12.31-42.96-12.31v-17.28s-.54.03-1.53.09c-10,.57-65.96,3.78-70.49,3.31-4.97-.52-6.29-160.01-6.29-173.88s16.85-158.93,15.23-186.99c0,0,57.05,20.44,81.14,36.41,24.09,15.98,33.79,37.97,41.9,72.28,8.12,34.31,24.88,91.66,26.98,115.48,2.09,23.84-22.26,156.87-22.26,156.87Z"/>
      <path class="cls-18" d="M747.66,336.88c-.04.24-3.94,24.93-6.01,57.98-2.06,33.09-2.09,99.02-2.09,99.69,0,.85-.68,1.53-1.53,1.54v-1.54c-.42.31-.83.62-1.25.9-.18-.26-.3-.56-.3-.9,0-.67.03-66.69,2.1-99.87,2.07-33.21,6-58.04,6.04-58.29.13-.84.92-1.41,1.76-1.27.83.13,1.41.92,1.27,1.76Z"/>
      <path class="cls-18" d="M956.4,485.66c-.27,16.36-8.04,115.11-8.12,116.11-.06.81-.74,1.42-1.53,1.42h-.01v-1.54s-.54.03-1.53.09c-.01-.07-.01-.14,0-.22.07-.99,7.86-99.65,8.11-115.91.26-16.18-17.09-125.12-17.26-126.22-.13-.83.43-1.62,1.27-1.75.84-.13,1.63.43,1.76,1.27.72,4.49,17.56,110.31,17.3,126.75Z"/>
      <path class="cls-18" d="M706.83,431.4c.02.84-.66,1.55-1.51,1.56-12.97.26-21.27,2.54-21.35,2.56-.13.04-.28.06-.41.06-.68,0-1.29-.44-1.49-1.13-.02-.06-.03-.12-.04-.18l1.53-.23s.17-.59.49-1.71c2.53-.62,10.17-2.23,21.21-2.44h.03c.83,0,1.52.67,1.54,1.51Z"/>
      <path class="cls-28" d="M871.75,784.61h-1.48l-15.71-101.08-.54,6.14-6.09-39.22-13.25-4.67c-.8-.29-1.23-1.16-.94-1.96.28-.8,1.16-1.22,1.96-.94l15,5.28,21.11,135.78c.04.23.02.46-.04.67Z"/>
      <path class="cls-26" d="M750.88,81.41l2.26,33.32s-23.44,134.98,60.71,137.81c0,0-2.54,7.48-2.26,18.07.28,10.59,13.55,17.79,29.23,17.23,15.67-.71,51.54-5.65,41.23-71.73,0,0,6.64-13.55,6.5-21.04,0,0,49.56-12.28,15.96-56.48l-4.24-15.39-31.91-11.3-12.28-37.42-62.97,13.7-42.36-6.92h0l.14.14Z"/>
      <path class="cls-20" d="M753.14,114.73s-27.96-54.22,9.88-70.46c37.84-16.24,107.73-17.37,125.81,18.36,0,0,30.92,19.77,15.67,75.82,0,0-12.85-9.46-31.2,16.24,0,0-6.5-15.67-4.8-34.17,0,0-17.65-15.81-15.67-41.79,0,0-52.24,25.27-97.85,12.43l-1.84,23.58h0Z"/>
      <path class="cls-14" d="M806.93,216.11c-5.22,0-10.45-.99-15.25-2.97-.71-.28-.99-.99-.71-1.69s.99-.99,1.69-.71c5.22,2.12,10.73,2.97,16.24,2.68,8.47-.42,14.97-3.67,18.92-6.21.56-.42,1.41-.28,1.84.42.42.56.28,1.41-.42,1.84-4.24,2.82-11.15,6.21-20.19,6.64h-2.12,0Z"/>
      <path class="cls-20" d="M759.84,127.29s.85-5.79,10.59-6.21,14.83.42,14.54,3.11-9.46,1.13-14.26,1.55-7.62.85-10.73,1.69h0l-.14-.14Z"/>
      <path class="cls-20" d="M848.22,127.29s-.85-5.79-10.59-6.21-14.83.42-14.54,3.11,9.46,1.13,14.26,1.55,7.62.85,10.73,1.69h0l.14-.14Z"/>
      <path class="cls-15" d="M775.23,145.6c-1.27-1.13-2.97-1.84-4.8-1.84-3.95,0-7.2,3.25-7.2,7.2s3.25,7.2,7.2,7.2,5.37-1.69,6.5-4.24c.42-.85.71-1.98.71-2.97,0-2.12-.99-4.09-2.4-5.37h0Z"/>
      <path class="cls-15" d="M835.08,145.6c-1.27-1.13-2.97-1.84-4.8-1.84-3.95,0-7.2,3.25-7.2,7.2s3.25,7.2,7.2,7.2,5.37-1.69,6.5-4.24c.42-.85.71-1.98.71-2.97,0-2.12-.99-4.09-2.4-5.37h0Z"/>
      <path class="cls-14" d="M789.14,192.81c-1.55-.56-3.95-1.55-5.51-3.95-.85-1.27-1.27-3.11-1.27-5.22,0-2.82.71-4.94,1.69-7.62l.42-1.13c1.41-3.95,2.68-7.34,3.25-10.87.42-2.4.56-4.94.28-7.48,0-.71.42-1.27,1.13-1.41.71,0,1.27.42,1.41,1.13.28,2.68,0,5.51-.28,8.19-.56,3.81-1.84,7.2-3.39,11.3l-.42,1.13c-.99,2.68-1.55,4.38-1.55,6.64,0,1.55.42,2.97.85,3.81,1.13,1.84,2.97,2.54,4.24,2.97,2.12.85,4.09.99,9.46.71,3.11,0,6.35-.28,9.46-.71.71,0,1.27.42,1.41,1.13s-.42,1.27-1.13,1.41c-3.25.28-6.5.56-9.6.71h-3.81s-4.66,0-6.64-.71Z"/>
      <path class="cls-25" d="M848.45,131.67h-34.45c-4.66,0-8.47,3.81-8.47,8.47v4.38c-1.98-.85-4.52-1.69-7.62-1.69h0c-2.82,0-5.08.71-6.92,1.41v-4.24c0-4.66-3.81-8.47-8.47-8.47h-34.45c-4.66,0-8.47,3.81-8.47,8.47v22.31c0,4.66,3.81,8.47,8.47,8.47h34.45c4.66,0,8.47-3.81,8.47-8.47v-13.84c1.55-.85,3.95-1.84,6.92-1.84h0c3.39,0,5.93,1.13,7.62,2.12v13.55c0,4.66,3.81,8.47,8.47,8.47h34.45c4.66,0,8.47-3.81,8.47-8.47v-22.31c0-4.66-3.81-8.47-8.47-8.47h0v.14ZM787.02,162.45c0,2.54-1.98,4.52-4.52,4.52h-34.45c-2.54,0-4.52-1.98-4.52-4.52v-22.31c0-2.54,1.98-4.52,4.52-4.52h34.45c2.54,0,4.52,1.98,4.52,4.52v22.31ZM852.96,162.45c0,2.54-1.98,4.52-4.52,4.52h-34.45c-2.54,0-4.52-1.98-4.52-4.52v-22.31c0-2.54,1.98-4.52,4.52-4.52h34.45c2.54,0,4.52,1.98,4.52,4.52v22.31Z"/>
      <path class="cls-26" d="M1000.69,671.22c-.52,7.86-5.59,27.42-10.12,33.35-2.79,3.64-4.97,3.08-6.26,2.09-.81-.62-1.25-1.39-1.25-1.39,0,0-.32,1.96-1.33,4.77-.82,2.29-2.11,5.16-4.08,7.98-3.55,5.12-7.56,2.72-8.93,1.65-.32-.26-.49-.43-.49-.43,0,0-.96,1.63-2.47,3.38-1.86,2.12-4.52,4.41-7.3,4.12-2.11-.22-3.41-1.35-4.2-2.59-.79-1.24-1.08-2.61-1.18-3.27-.03-.27-.04-.42-.04-.42-4.18,2.27-10.3,1.05-8.73-13.61,1.57-14.67,1.93-48.54,1.93-48.54-5.07,22.51-26.37,35.44-21.3,12.91,5.06-22.52,25.03-46.08,25.03-46.08v-4.73l51.45,10.2c.88,6.35-.18,32.76-.71,40.62Z"/>
      <path class="cls-24" d="M962.6,671.5c-.16,1.67-3.67,38.21-8.36,52.65-.79-1.24-1.08-2.61-1.18-3.27,4.24-15.7,7.46-49.18,7.5-49.57.05-.56.54-.98,1.12-.92.56.05.97.55.92,1.12Z"/>
      <path class="cls-24" d="M976.04,673.68c-.12,1.31-2.7,28.35-7.33,45.98-.32-.26-.49-.43-.49-.43,0,0-.96,1.63-2.47,3.38,5.21-17.15,8.23-48.79,8.26-49.13.05-.56.54-.97,1.12-.92.56.05.97.55.92,1.12Z"/>
      <path class="cls-24" d="M988.26,672.84c-.02.23-1.55,17.44-3.96,33.82-.81-.62-1.25-1.39-1.25-1.39,0,0-.32,1.96-1.33,4.77,2.72-17.28,4.48-37.12,4.5-37.37.05-.56.54-.97,1.11-.93.56.05.98.54.93,1.11Z"/>
      <path class="cls-26" d="M629.08,499.25s-47.57,5.24-67.83,3.5c-19.39-1.68-33.97-5.91-38.38-12.24-.21-.29-.39-.57-.54-.86,0,0-.39.05-1.04.07-3.15.15-12.52-.13-14.64-8.34-.08-.32-.15-.65-.22-.98,0,0-.4-.04-1.04-.18-2.28-.51-7.52-2.36-7.52-8.37,0-4.49,4.1-5.82,7.52-6.14,2.44-.24,4.52.03,4.52.03,0,0-1.03-.44-1.97-1.25h-.01c-1.56-1.33-2.86-3.66,1.28-6.61,6.64-4.71,33-4.18,38.41-4.18s22.87.35,30.2-4.02c0,0-18.85-10.88-21.12-14.08s-4.2-8.79-2.8-11.75c1.41-2.96,45.76,9.25,62.07,20.16,0,0,26.44,4.8,13.09,55.25Z"/>
      <g>
        <path class="cls-24" d="M579.69,491.16c-.18.14-.41.22-.63.22-.31,0-.62-.13-.81-.4-.82-1.05-1.64-2.23-2.44-3.48-14.51.89-26.12-.88-34.64-2.19-5.4-.83-9.65-1.48-12.43-1.1-2.31.33-3.92,1.11-4.77,2.33-.96,1.36-.67,2.84-.66,2.9.09.43-.1.86-.45,1.08-.21-.29-.39-.57-.54-.86,0,0-.39.05-1.04.07-.09-.55-.29-2.5.98-4.34,1.19-1.72,3.27-2.8,6.2-3.21,3.07-.43,7.46.25,13.02,1.1,8.21,1.26,19.32,2.96,33.09,2.24-1.75-2.92-3.43-6.16-4.95-9.34-7.5-.15-47.41-.92-55.03.02-5.84.71-7.22,3.01-7.14,4.11.04.51-.31.98-.8,1.09-.08-.32-.15-.65-.22-.98,0,0-.4-.04-1.04-.18.01-.5.14-1.54,1.01-2.64,1.41-1.81,4.07-2.96,7.94-3.44,7.56-.92,44.64-.25,54.29-.05-1.86-4-3.42-7.76-4.52-10.52-28.46-1.12-57.24,3.14-57.53,3.18-.05.01-.1.01-.15.01-.5,0-.93-.36-1.02-.87-.01-.06-.01-.12-.01-.18,2.44-.24,4.52.03,4.52.03,0,0-1.03-.44-1.97-1.25,6.52-.87,30.92-3.86,55.34-3-.52-1.35-.84-2.22-.9-2.38-.19-.53.07-1.13.61-1.32s1.13.08,1.32.62c.04.12,7.48,17.16,7.37,17.31,1.63,3.36,7.43,13.04,8.19,14.01.34.45.26,1.09-.18,1.44Z"/>
        <path class="cls-24" d="M604.32,470.87c-.15-.54-.72-.86-1.27-.71-13.05,3.7-17.07,7.97-17.24,8.15-.38.42-.35,1.06.06,1.44.2.18.45.27.7.27.27,0,.55-.11.75-.33.04-.04,3.91-4.05,16.29-7.57.54-.15.86-.72.71-1.27Z"/>
      </g>
    </g>
    <g>
      <path class="cls-2" d="M196.78,41.47h-31.92c2.73-3.66,4.33-8.2,4.26-13.14-.18-11.28-9.42-20.73-20.69-21.13-12.23-.44-22.28,9.34-22.28,21.47,0,4.8,1.6,9.22,4.26,12.8h-30.77c-2.78,0-5.03,2.25-5.03,5.03v21.35c0,3.04,2.69,5.49,5.69,4.99,1.5-.25,3.05-.34,4.64-.25,11.03.61,20.02,9.86,20.3,20.91.3,12.12-9.43,22.03-21.48,22.03-1.09,0-2.16-.08-3.21-.24-3.1-.47-5.93,1.77-5.93,4.91v15c0,2.78,2.25,5.03,5.03,5.03h97.15c2.78,0,5.03-2.25,5.03-5.03V46.5c0-2.78-2.25-5.03-5.03-5.03Z"/>
      <g>
        <path class="cls-27" d="M383.87,10.18h-34.1c-13.62,0-24.65,11.04-24.65,24.65,0-13.62-11.04-24.65-24.65-24.65h-34.1c-2.77,0-5.02,2.25-5.02,5.02v102.15c0,2.77,2.25,5.02,5.02,5.02h33.7c6.59,0,12.9,2.62,17.55,7.29l7.51,7.54,7.51-7.54c4.65-4.67,10.96-7.29,17.55-7.29h33.7c2.77,0,5.02-2.25,5.02-5.02V15.2c0-2.77-2.25-5.02-5.02-5.02Z"/>
        <path class="cls-11" d="M325.11,122.53c-.99,0-1.79-.8-1.79-1.79V38.45c0-.99.8-1.79,1.79-1.79s1.79.8,1.79,1.79v82.29c0,.99-.8,1.79-1.79,1.79Z"/>
      </g>
      <path class="cls-23" d="M511.04,11.07h0c3.71,0,6.82,2.76,7.28,6.45.96,7.71,4.09,20.18,14.23,31.24,11.74,12.8,26.3,16.54,34.72,17.63,3.66.48,6.39,3.58,6.39,7.27v.06c0,3.71-2.76,6.81-6.43,7.28-8.21,1.05-22.17,4.61-33.79,16.71-10.86,11.31-14.14,24.31-15.13,32.18-.46,3.68-3.57,6.44-7.28,6.44h0c-3.71,0-6.82-2.76-7.28-6.45-1-8-4.39-21.4-15.8-32.87-11.52-11.59-25.06-15.02-33.11-16.03-3.68-.46-6.44-3.57-6.44-7.28h0c0-3.71,2.76-6.82,6.45-7.28,8-1,21.4-4.39,32.87-15.8,11.59-11.52,15.02-25.06,16.03-33.11.46-3.68,3.57-6.44,7.28-6.44Z"/>
      <path class="cls-17" d="M245.98,73.74l-13.41-13.41.08,1.45v9.28h-12.8c-1.48,0-2.69,1.2-2.69,2.69s1.2,2.69,2.69,2.69h12.8v10.65l13.33-13.33Z"/>
      <path class="cls-17" d="M433.06,73.74l-13.41-13.41.08,1.45v9.28h-12.8c-1.48,0-2.69,1.2-2.69,2.69s1.2,2.69,2.69,2.69h12.8v10.65l13.33-13.33Z"/>
      <g>
        <path d="M118.15,166.13c0,5.24-3.02,8.33-8.12,8.33h-2.14v7.91h-4.99v-24.6h7.13c5.1,0,8.12,3.09,8.12,8.36ZM113.02,166.13c0-2.39-1.05-3.62-3.06-3.62h-2.07v7.2h2.07c2,0,3.06-1.23,3.06-3.58Z"/>
        <path d="M130.83,163.71v4.57c-.67-.32-1.37-.49-2.25-.49-2,0-3.23.91-3.23,2.88v11.7h-4.78v-18.63h3.16l.35,1.97c.98-1.58,2.6-2.43,4.71-2.43.84,0,1.55.14,2.04.42Z"/>
        <path d="M132.41,175.41v-4.74c0-4.74,2.57-7.38,6.92-7.38s6.92,2.64,6.92,7.38v4.74c0,4.74-2.57,7.42-6.92,7.42s-6.92-2.67-6.92-7.42ZM141.37,175.41v-4.74c0-1.93-.7-2.74-2.04-2.74s-2.04.81-2.04,2.74v4.74c0,1.93.7,2.78,2.04,2.78s2.04-.84,2.04-2.78Z"/>
        <path d="M162.87,170.6v4.85c0,4.39-2.39,7.34-6.04,7.34-1.51,0-3.06-.95-4.01-2.04l-.21,1.65h-3.27v-25.51h4.67v7.42c.81-.63,1.79-1.02,2.81-1.02,3.62,0,6.04,2.92,6.04,7.31ZM157.98,170.6c0-1.83-.67-2.74-1.86-2.74-1.37,0-2.11.91-2.11,2.74v4.85c0,1.83.74,2.78,2.11,2.78,1.2,0,1.86-.95,1.86-2.78v-4.85Z"/>
        <path d="M165.71,156.89h4.78v25.48h-4.78v-25.48Z"/>
        <path d="M187.11,176.43c-.39,4.01-2.95,6.36-7.1,6.36s-6.68-2.74-6.68-7.34v-4.95c0-4.53,2.5-7.2,6.71-7.2s6.82,2.67,6.82,7.2v4.18h-8.72v.77c0,1.93.67,2.78,1.93,2.78,1.44,0,1.86-.53,2.18-1.79h4.85ZM178.15,170.42v.98h3.97v-.98c0-1.9-.7-2.71-2.04-2.71-1.27,0-1.93.81-1.93,2.71Z"/>
        <path d="M211.39,170.95v11.42h-4.74v-11.42c0-2.28-.6-3.09-1.72-3.09-1.19,0-1.93.91-1.93,2.74v11.77h-4.74v-11.42c0-2.28-.6-3.09-1.72-3.09s-1.93.91-1.93,2.74v11.77h-4.74v-18.63h3.13l.32,1.9c.95-1.55,2.42-2.36,4.36-2.36,1.83,0,3.23.74,4.15,2.21.91-1.44,2.39-2.21,4.25-2.21,3.37,0,5.34,2.6,5.34,7.66Z"/>
      </g>
      <g>
        <path d="M291.76,175.2h5.13c0,1.97.98,2.81,2.57,2.81s2.46-.95,2.46-2.18c0-4.08-9.63-4.57-9.63-12.05,0-3.76,2.64-6.5,7.17-6.5s7.27,2.71,7.27,7.24h-5.13c0-1.62-.74-2.43-2.18-2.43-1.3,0-2.07.7-2.07,1.83,0,3.87,9.77,4.11,9.77,11.95,0,4.04-2.85,6.99-7.73,6.99s-7.63-2.71-7.63-7.66Z"/>
        <path d="M318.64,178.15v4.5h-1.55c-4.01,0-6.5-2.64-6.5-6.78v-7.8h-2.43v-4.32h2.43v-4.5h4.74v4.5h3.06v4.32h-3.06v7.87c0,1.55.67,2.21,2.11,2.21h1.19Z"/>
        <path d="M321.03,175.41v-4.74c0-4.74,2.57-7.38,6.92-7.38s6.92,2.64,6.92,7.38v4.74c0,4.74-2.57,7.42-6.92,7.42s-6.92-2.67-6.92-7.42ZM329.99,175.41v-4.74c0-1.93-.7-2.74-2.04-2.74s-2.04.81-2.04,2.74v4.74c0,1.93.7,2.78,2.04,2.78s2.04-.84,2.04-2.78Z"/>
        <path d="M348.22,163.71v4.57c-.67-.32-1.37-.49-2.25-.49-2,0-3.23.91-3.23,2.88v11.7h-4.78v-18.63h3.16l.35,1.97c.98-1.58,2.6-2.43,4.71-2.43.84,0,1.55.14,2.04.42Z"/>
        <path d="M364.21,163.74l-5.59,19.19c-.98,3.37-2.53,6.04-5.59,6.04h-2.46v-4.6h1.4c1.23,0,1.65-.77,2.11-2.32l.46-1.58-6.08-16.73h4.99l3.06,9.87,2.81-9.87h4.88Z"/>
      </g>
      <g>
        <path d="M458.31,157.77v24.6h-4.88v-6.04c.14-2.99.25-5.97.39-8.96l-.18-.07-2.21,6.47-1.23,3.34h-4.92l-1.23-3.34-2.21-6.47-.18.07c.11,2.99.25,5.97.35,8.96v6.04h-4.85v-24.6h5.03l3.86,9.31c.49,1.23,1.34,3.37,1.62,4.29h.14c.28-.91,1.12-3.06,1.62-4.29l3.87-9.31h5.03Z"/>
        <path d="M475.59,176.43c-.39,4.01-2.95,6.36-7.1,6.36s-6.68-2.74-6.68-7.34v-4.95c0-4.53,2.5-7.2,6.71-7.2s6.82,2.67,6.82,7.2v4.18h-8.72v.77c0,1.93.67,2.78,1.93,2.78,1.44,0,1.86-.53,2.18-1.79h4.85ZM466.63,170.42v.98h3.97v-.98c0-1.9-.7-2.71-2.04-2.71-1.27,0-1.93.81-1.93,2.71Z"/>
        <path d="M499.87,170.95v11.42h-4.74v-11.42c0-2.28-.6-3.09-1.72-3.09-1.19,0-1.93.91-1.93,2.74v11.77h-4.74v-11.42c0-2.28-.6-3.09-1.72-3.09s-1.93.91-1.93,2.74v11.77h-4.74v-18.63h3.13l.32,1.9c.95-1.55,2.43-2.36,4.36-2.36,1.83,0,3.23.74,4.15,2.21.91-1.44,2.39-2.21,4.25-2.21,3.37,0,5.34,2.6,5.34,7.66Z"/>
        <path d="M502.78,175.41v-4.74c0-4.74,2.57-7.38,6.92-7.38s6.92,2.64,6.92,7.38v4.74c0,4.74-2.57,7.42-6.92,7.42s-6.92-2.67-6.92-7.42ZM511.74,175.41v-4.74c0-1.93-.7-2.74-2.04-2.74s-2.04.81-2.04,2.74v4.74c0,1.93.7,2.78,2.04,2.78s2.04-.84,2.04-2.78Z"/>
        <path d="M529.98,163.71v4.57c-.67-.32-1.37-.49-2.25-.49-2,0-3.23.91-3.23,2.88v11.7h-4.78v-18.63h3.16l.35,1.97c.98-1.58,2.6-2.43,4.71-2.43.84,0,1.55.14,2.04.42Z"/>
        <path d="M544.7,170.53v11.84h-3.8l-.28-1.76c-.67,1.26-1.93,2.25-4.04,2.25-3.44,0-5.55-2.46-5.55-5.83,0-4.04,3.02-5.94,7.13-5.94h1.72v-.56c0-1.65-.35-2.64-1.65-2.64-.84,0-1.69.42-1.86,1.65h-4.81c.18-3.94,2.67-6.26,6.75-6.26,4.46,0,6.4,2.5,6.4,7.24ZM539.89,175.13h-1.62c-1.44,0-2.36.63-2.36,1.9,0,.91.49,1.76,1.83,1.76s2.14-.84,2.14-2.28v-1.37Z"/>
        <path d="M561.74,170.6v4.85c0,4.39-2.39,7.34-6.04,7.34-1.51,0-3.06-.95-4.01-2.04l-.21,1.65h-3.27v-25.51h4.67v7.42c.81-.63,1.79-1.02,2.81-1.02,3.62,0,6.04,2.92,6.04,7.31ZM556.85,170.6c0-1.83-.67-2.74-1.86-2.74-1.37,0-2.11.91-2.11,2.74v4.85c0,1.83.74,2.78,2.11,2.78,1.2,0,1.86-.95,1.86-2.78v-4.85Z"/>
        <path d="M564.58,156.89h4.78v25.48h-4.78v-25.48Z"/>
        <path d="M585.98,176.43c-.39,4.01-2.95,6.36-7.1,6.36s-6.68-2.74-6.68-7.34v-4.95c0-4.53,2.5-7.2,6.71-7.2s6.82,2.67,6.82,7.2v4.18h-8.72v.77c0,1.93.67,2.78,1.93,2.78,1.44,0,1.86-.53,2.18-1.79h4.85ZM577.02,170.42v.98h3.97v-.98c0-1.9-.7-2.71-2.04-2.71-1.27,0-1.93.81-1.93,2.71Z"/>
      </g>
    </g>
    <g>
      <rect class="cls-10" x="23.27" y="454.24" width="203.42" height="216.32" rx="14.17" ry="14.17"/>
      <g>
        <path class="cls-22" d="M158.19,561.42h19.06c-6.17,22.66-26.9,39.32-51.52,39.32-29.49,0-53.4-23.91-53.4-53.4s23.91-53.4,53.4-53.4c25.14,0,46.22,17.37,51.89,40.76h-18.85c-5.09-13.3-17.97-22.74-33.05-22.74-19.53,0-35.36,15.84-35.36,35.37s15.83,35.37,35.36,35.37c14.54,0,27.03-8.76,32.46-21.3Z"/>
        <path class="cls-22" d="M149.93,551.15l-.73,2.73c-2.92,10.73-12.74,18.22-23.88,18.22-13.65,0-24.75-11.1-24.75-24.75s11.1-24.75,24.75-24.75c11.46,0,21.35,7.78,24.05,18.89l.65,2.67h-12.2l-.53-1.39c-1.88-4.92-6.7-8.24-11.97-8.24-7.07,0-12.82,5.75-12.82,12.82s5.75,12.82,12.82,12.82c5.11,0,9.73-3.03,11.75-7.72l.57-1.29h12.29Z"/>
      </g>
      <text class="cls-6" transform="translate(78.77 652.49)"><tspan x="0" y="0">LOGO</tspan></text>
    </g>
    <g>
      <rect class="cls-10" x="7.18" y="198.88" width="214.81" height="236.01" rx="14.17" ry="14.17"/>
      <rect class="cls-12" x="51.09" y="230.03" width="126.99" height="126.99" rx="28.47" ry="28.47"/>
      <path class="cls-30" d="M114.59,266.02c-13.02-13.02-41.1-6.51-41.1,18.5s41.1,48.98,41.1,48.98c0,0,41.1-23.98,41.1-48.98s-28.09-31.51-41.1-18.5Z"/>
      <text class="cls-5" transform="translate(66.35 414.39)"><tspan x="0" y="0">ICON</tspan></text>
    </g>
    <g>
      <rect class="cls-10" x="242.76" y="238.17" width="232.04" height="239.62" rx="14.17" ry="14.17"/>
      <g>
        <g>
          <path class="cls-16" d="M379.39,378.59h-41.24v-16.37c-10.98-7.01-17.76-19.31-17.76-32.37,0-21.16,17.22-38.38,38.38-38.38s38.38,17.22,38.38,38.38c0,13.25-6.62,25.27-17.76,32.37v16.37ZM341.89,374.85h33.76v-14.73l.91-.54c10.55-6.33,16.85-17.44,16.85-29.72,0-19.1-15.54-34.64-34.64-34.64s-34.64,15.54-34.64,34.64c0,12.11,6.46,23.5,16.85,29.72l.91.54v14.73Z"/>
          <g>
            <path class="cls-16" d="M325.73,302.64h-.02c-1.15,0-2.22-.44-3.02-1.25l-9.46-9.46c-.81-.81-1.26-1.89-1.26-3.03s.45-2.22,1.26-3.03c1.62-1.62,4.44-1.63,6.06,0l9.46,9.46c.81.81,1.26,1.89,1.26,3.03s-.45,2.22-1.26,3.03c-.8.8-1.88,1.25-3.02,1.25ZM316.27,288.35c-.1,0-.25.03-.39.16s-.16.29-.16.39.03.25.16.39l9.46,9.46c.13.13.28.15.38.15h0c.11,0,.26-.03.39-.15.14-.14.17-.29.17-.39s-.03-.25-.16-.39l-9.46-9.46c-.14-.14-.29-.16-.39-.16Z"/>
            <path class="cls-16" d="M358.77,286.76c-2.36,0-4.29-1.92-4.29-4.29v-17.76c0-2.36,1.92-4.29,4.29-4.29s4.29,1.92,4.29,4.29v17.76c0,2.36-1.92,4.29-4.29,4.29ZM358.77,264.16c-.3,0-.55.25-.55.55v17.76c0,.3.25.55.55.55s.55-.25.55-.55v-17.76c0-.31-.24-.55-.55-.55Z"/>
            <path class="cls-16" d="M391.83,302.64h0c-1.15,0-2.23-.44-3.03-1.25-.81-.81-1.26-1.89-1.26-3.03s.45-2.22,1.26-3.03l9.46-9.46c1.62-1.63,4.44-1.62,6.06,0,.81.81,1.26,1.89,1.26,3.03s-.45,2.22-1.26,3.03l-9.46,9.46c-.8.81-1.88,1.25-3.02,1.25ZM401.28,288.35c-.1,0-.25.03-.39.16l-9.46,9.46c-.14.14-.16.29-.16.39s.03.25.16.39c.13.13.28.15.38.15h.02c.1,0,.25-.03.38-.15l9.46-9.46c.14-.14.16-.29.16-.39s-.03-.25-.16-.39-.29-.16-.39-.16Z"/>
          </g>
        </g>
        <path class="cls-16" d="M362.52,400.04h-7.47c-.67,0-1.32-.24-1.82-.69l-6.52-5.8h-5.83c-1.5,0-2.72-1.22-2.72-2.72v-15.98h41.26v15.98c0,1.5-1.22,2.72-2.72,2.72h-5.83l-6.52,5.8c-.54.46-1.17.69-1.82.69ZM355.42,396.3h6.72l6.52-5.8c.5-.44,1.14-.69,1.82-.69h5.19v-11.22h-33.78v11.22h5.19c.64,0,1.27.23,1.77.65l6.56,5.84Z"/>
      </g>
      <text class="cls-8" transform="translate(263.88 449.89)"><tspan x="0" y="0">IL</tspan><tspan class="cls-29" x="24.33" y="0">L</tspan><tspan x="38.28" y="0">US</tspan><tspan class="cls-19" x="74.74" y="0">T</tspan><tspan x="90.39" y="0">R</tspan><tspan class="cls-1" x="109.1" y="0">A</tspan><tspan class="cls-3" x="125.25" y="0">T</tspan><tspan class="cls-13" x="140.91" y="0">ION</tspan></text>
    </g>
    <g>
      <rect class="cls-10" x="254.14" y="490.83" width="230.65" height="236.78" rx="14.17" ry="14.17"/>
      <path class="cls-16" d="M436.04,553.06s-.01-.07-.02-.11c0-.13-.02-.25-.06-.37-.02-.06-.04-.11-.07-.16-.04-.1-.07-.19-.13-.28-.03-.06-.08-.1-.12-.16-.06-.08-.11-.15-.18-.22-.05-.05-.11-.09-.16-.13-.05-.04-.1-.09-.15-.12-.03-.02-.05-.02-.08-.04-.02-.01-.04-.03-.06-.04l-64.73-31.85c-.51-.25-1.11-.25-1.62,0l-64.75,31.83s-.04.03-.07.05c-.03.01-.05.02-.08.03-.06.03-.1.08-.15.12-.06.04-.12.08-.17.13-.07.07-.13.14-.18.22-.04.05-.08.1-.12.16-.05.09-.09.18-.13.28-.02.05-.05.1-.07.16-.03.12-.05.24-.06.37,0,.04-.02.07-.02.11,0,0,0,0,0,0s0,0,0,0v73.03c0,.7.4,1.34,1.02,1.65l64.59,31.76s0,0,0,0c0,0,0,0,.01,0l.13.06s.05.02.07.03c.24.11.5.18.76.18.28,0,.55-.06.81-.19l64.73-31.83c.63-.31,1.02-.95,1.02-1.65v-73.03s0,0,0,0,0,0,0,0ZM369.47,523.27l60.66,29.85-6.3,3.25-54.35,28.04-60.67-31.3h-.02s60.68-29.84,60.68-29.84ZM306.56,624.94v-68.87l61.06,31.51v67.39l-61.06-30.03ZM371.31,654.99v-67.4l54.5-28.11,6.57-3.39v68.87l-61.06,30.03Z"/>
      <text class="cls-7" transform="translate(289.51 700.94)"><tspan x="0" y="0">3D MOCKUP</tspan></text>
    </g>
  </g>
</svg>