<?xml version="1.0" encoding="UTF-8"?>
<svg id="Livello_1" xmlns="http://www.w3.org/2000/svg" version="1.1" viewBox="0 0 1063.45 802.72">
  <!-- Generator: Adobe Illustrator 29.0.1, SVG Export Plug-In . SVG Version: 2.1.0 Build 192)  -->
  <defs>
    <style>
      .st0 {
        fill: #3a89ff;
      }

      .st1 {
        fill: #3f8ff0;
      }

      .st2 {
        fill: #00a739;
      }

      .st2, .st3, .st4, .st5, .st6 {
        stroke: #302e33;
        stroke-width: 5px;
      }

      .st2, .st4, .st6 {
        stroke-linejoin: round;
      }

      .st7, .st3, .st4 {
        fill: #fff;
      }

      .st8 {
        fill: #39c15b;
      }

      .st9 {
        fill: #fed928;
      }

      .st3, .st5 {
        stroke-miterlimit: 10;
      }

      .st10 {
        fill: #2f2f2f;
      }

      .st11 {
        fill: #42362e;
      }

      .st12 {
        fill: #5fa8ff;
      }

      .st13 {
        fill: #2866d8;
      }

      .st14 {
        fill: #453c41;
      }

      .st15 {
        fill: #4c3424;
      }

      .st16 {
        fill: #b37660;
      }

      .st17 {
        fill: #368dea;
      }

      .st18 {
        fill: #523826;
      }

      .st5 {
        fill: none;
      }

      .st6 {
        fill: #ffa739;
      }

      .st19 {
        fill: #f2b68f;
      }

      .st20 {
        fill: #47be60;
      }
    </style>
  </defs>
  <g>
    <path class="st7" d="M524.71,422.2h-72.42c-2.78-12.37-7.84-26.37-14.05-38.74-6.74-13.43-18.31-31.9-35.18-43.58-15.35-10.62-40.86-20.68-61.77-27.88,16.2-6.81,29.36-18.67,39.2-35.35,10.25-17.38,16.81-39.88,19.51-66.91,8.94-1.93,15.44-9.84,15.44-19.19v-29.63c0-9.52-6.9-17.61-16.06-19.31-.63-5.92-1.25-10.4-1.64-12.98,3.44-7.4,12.9-29.82,12.9-52.16,0-24.17-10.86-41.61-31.41-50.42-27.44-11.77-64.84-17.28-97.6-14.36-38.56,3.43-66.7,17.92-79.33,40.82-3.8,2.96-12.35,10.66-19.04,24.38-7.4,15.18-14.11,41.39-4.37,80.35-13.72,19.25-17.95,36.73-12.58,51.97,6.53,18.53,25.68,27.67,35.06,31.13,1.52,8.56,5.68,18.35,7.77,22.94-1.84,12.64-2.49,24.3-1.96,34.7-8.42,2.68-26.32,8.49-45.34,15.39-25.64,9.3-59.66,22.86-76.05,34.68-14.84,10.7-29.43,39.48-43.36,85.55-11.42,37.78-19.31,77.11-22.16,94.4-.87,5.24-2.03,11.14-3.27,17.39-4.15,20.99-9.31,47.11-7.4,70.06,2.4,28.81,15.58,47.31,39.18,54.96,14.3,4.65,34.21,10.34,59.19,16.92-.3,4.11-.65,8.43-1.07,12.88-2.78,29.79-7.62,60.92-11.19,81.79l-1.68,9.8h351.68l-9.47-75.54h88.47c10.1,0,18.32-8.22,18.32-18.32v-257.41c0-10.1-8.22-18.31-18.32-18.31Z"/>
    <path class="st7" d="M967.31,189.77c47.94,0,86.95-39,86.95-86.95s-39-86.95-86.95-86.95-86.96,39-86.96,86.95,39.01,86.95,86.96,86.95ZM967.31,39.58c34.87,0,63.24,28.37,63.24,63.24s-28.37,63.24-63.24,63.24-63.25-28.37-63.25-63.24,28.37-63.24,63.25-63.24Z"/>
    <path class="st7" d="M993.19,139.98c3.05,0,5.88-1.18,7.98-3.31,4.38-4.39,4.38-11.54,0-15.94l-22.58-22.58v-45.08c0-6.21-5.05-11.27-11.27-11.27s-11.28,5.06-11.28,11.27v54.42l29.14,29.14c2.12,2.16,4.97,3.35,8.02,3.35Z"/>
    <polygon class="st7" points="1033.64 402.6 1017.94 391.14 1015.86 371.81 996.53 369.73 988.84 359.2 985.11 354.04 967.31 361.9 955.3 356.6 949.52 354.07 938.07 369.73 925.01 371.14 918.74 371.84 916.67 391.14 900.99 402.61 908.84 420.37 900.98 438.13 916.67 449.59 918.75 468.92 938.07 471 945.76 481.53 949.49 486.72 967.31 478.83 985.08 486.7 996.53 471 1009.6 469.6 1015.86 468.89 1017.94 449.6 1033.64 438.14 1025.77 420.37 1033.64 402.6"/>
    <path class="st7" d="M967.31,336.3c7.81,0,14.17-6.36,14.17-14.17v-52.03l11.16,11.16c2.67,2.7,6.24,4.18,10.05,4.18s7.35-1.48,10-4.14c2.69-2.68,4.17-6.24,4.17-10.03s-1.48-7.35-4.16-10.02l-35.37-35.38c-.73-.73-1.49-1.34-2.33-1.89-.28-.18-.56-.33-.84-.47-.42-.24-.84-.46-1.31-.67l-.22-.09c-5.3-2.14-11.32-.91-15.34,3.12l-35.38,35.38c-5.52,5.52-5.52,14.51,0,20.03,2.68,2.68,6.24,4.16,10.02,4.16s7.34-1.48,10.02-4.16l11.18-11.18v52.02c0,7.81,6.36,14.17,14.18,14.17Z"/>
    <path class="st7" d="M802.07,271.81V27.27c0-6.28-5.11-11.39-11.39-11.39h-187.33c-6.29,0-11.4,5.11-11.4,11.39v244.54c0,6.28,5.12,11.39,11.4,11.39h187.33c6.28,0,11.39-5.11,11.39-11.39Z"/>
    <polygon class="st7" points="821.19 438.61 779.02 438.61 779.02 373.65 738.88 333.52 736.62 331.29 619.94 331.29 619.94 499.04 704.5 499.04 704.5 540.92 614.56 540.92 614.56 708.66 773.63 708.66 773.63 606.36 863.57 606.36 863.57 480.98 823.44 440.84 821.19 438.61"/>
  </g>
  <g>
    <g>
      <path class="st17" d="M359.97,701.11c.81,14.3,3.23,52.54,7.23,82.31h69.01l-9.47-75.55-66.77-6.77Z"/>
      <path class="st17" d="M103.97,783.42h137.32c4.71-18.08,9.77-46.94,11.21-90.07l37.96.72-62.3-6.31v5.06s-3.4,18.96-14.47,19.75c-9.72.7-81.18-9.17-98.44-11.58-2.84,30.4-7.82,62.23-11.27,82.43Z"/>
      <path class="st13" d="M115.24,701c17.27,2.41,88.73,12.28,98.44,11.58,11.07-.79,14.47-19.75,14.47-19.75v-5.06l-111.13-11.26c-.38,7.88-1,16.13-1.78,24.5Z"/>
      <path class="st14" d="M241.29,783.42h125.91c-4-29.77-6.42-68.02-7.23-82.31l-69.51-7.03-37.96-.72c-1.44,43.13-6.5,71.99-11.21,90.07Z"/>
      <path class="st14" d="M290.46,694.07l69.51,7.03c-.21-3.64-.31-5.72-.31-5.72l-69.2-1.31Z"/>
      <polygon class="st7" points="308.41 310.41 323.5 333.79 338.94 443.69 285.57 618.21 252.21 613.64 246.6 593.63 244.14 504.63 215.7 365.74 212.54 313.77 216.07 303.98 308.41 310.41"/>
      <g>
        <path class="st19" d="M392.06,83.08l-3,44.27s31.14,179.31-80.65,183.06c0,0,3.38,9.94,3,24.01-.38,14.07-18.01,23.63-38.83,22.88-20.82-.94-68.46-7.5-54.77-95.28,0,0-8.82-18.01-8.63-27.95,0,0-65.84-16.32-21.19-75.03l5.63-20.44,42.39-15.01,16.32-49.7,83.65,18.19,56.27-9.19h0l-.19.19Z"/>
        <path class="st15" d="M389.06,127.35s37.14-72.03-13.13-93.6c-50.27-21.57-143.11-23.07-167.12,24.38,0,0-41.08,26.26-20.82,100.72,0,0,17.07-12.57,41.45,21.57,0,0,8.63-20.82,6.38-45.39,0,0,23.45-21.01,20.82-55.52,0,0,69.4,33.57,129.98,16.51l2.44,31.32h0Z"/>
        <path class="st10" d="M317.06,262.39c6.91.6,13.94-.12,20.52-2.19.97-.29,1.42-1.2,1.13-2.16s-1.2-1.42-2.16-1.13c-7.16,2.21-14.54,2.7-21.8,1.7-11.16-1.53-19.39-6.57-24.33-10.38-.7-.63-1.84-.53-2.48.35-.63.7-.53,1.84.35,2.48,5.28,4.22,14.05,9.49,25.97,11.09l2.8.24h0Z"/>
        <path class="st15" d="M382.49,138.47s-1.13-7.69-14.07-8.25-19.69.56-19.32,4.13c.38,3.56,12.57,1.5,18.94,2.06,6.38.56,10.13,1.13,14.25,2.25h0l.19-.19Z"/>
        <path class="st15" d="M269.77,138.47s1.13-7.69,14.07-8.25,19.69.56,19.32,4.13c-.38,3.56-12.57,1.5-18.94,2.06-6.38.56-10.13,1.13-14.25,2.25h0l-.19-.19Z"/>
        <path class="st11" d="M356.05,170.11c1.69-1.5,3.94-2.44,6.38-2.44,5.25,0,9.57,4.31,9.57,9.57s-4.31,9.57-9.57,9.57-7.13-2.25-8.63-5.63c-.56-1.13-.94-2.63-.94-3.94,0-2.81,1.31-5.44,3.19-7.13h0Z"/>
        <path class="st11" d="M281.21,170.11c1.69-1.5,3.94-2.44,6.38-2.44,5.25,0,9.57,4.31,9.57,9.57s-4.31,9.57-9.57,9.57-7.13-2.25-8.63-5.63c-.56-1.13-.94-2.63-.94-3.94,0-2.81,1.31-5.44,3.19-7.13h0Z"/>
        <path class="st10" d="M341.23,231.07c2.06-.75,5.25-2.06,7.32-5.25,1.13-1.69,1.69-4.13,1.69-6.94,0-3.75-.94-6.56-2.25-10.13l-.56-1.5c-1.88-5.25-3.56-9.75-4.31-14.44-.56-3.19-.75-6.56-.38-9.94,0-.94-.56-1.69-1.5-1.88-.94,0-1.69.56-1.88,1.5-.38,3.56,0,7.32.38,10.88.75,5.06,2.44,9.57,4.5,15.01l.56,1.5c1.31,3.56,2.06,5.81,2.06,8.82,0,2.06-.56,3.94-1.13,5.06-1.5,2.44-3.94,3.38-5.63,3.94-2.81,1.13-5.44,1.31-12.57.94-4.13,0-8.44-.38-12.57-.94-.94,0-1.69.56-1.88,1.5s.56,1.69,1.5,1.88c4.31.38,8.63.75,12.75.94h5.06s6.19,0,8.82-.94Z"/>
        <path class="st18" d="M262.45,149.85h45.77c6.19,0,11.25,5.06,11.25,11.25v5.81c2.63-1.13,6-2.25,10.13-2.25h0c3.75,0,6.75.94,9.19,1.88v-5.63c0-6.19,5.06-11.25,11.25-11.25h45.77c6.19,0,11.25,5.06,11.25,11.25v29.64c0,6.19-5.06,11.25-11.25,11.25h-45.77c-6.19,0-11.25-5.06-11.25-11.25v-18.38c-2.06-1.13-5.25-2.44-9.19-2.44h0c-4.5,0-7.88,1.5-10.13,2.81v18.01c0,6.19-5.06,11.25-11.25,11.25h-45.77c-6.19,0-11.25-5.06-11.25-11.25v-29.64c0-6.19,5.06-11.25,11.25-11.25h0v.19ZM344.04,190.74c0,3.38,2.63,6,6,6h45.77c3.38,0,6-2.63,6-6v-29.64c0-3.38-2.63-6-6-6h-45.77c-3.38,0-6,2.63-6,6v29.64ZM256.45,190.74c0,3.38,2.63,6,6,6h45.77c3.38,0,6-2.63,6-6v-29.64c0-3.38-2.63-6-6-6h-45.77c-3.38,0-6,2.63-6,6v29.64Z"/>
      </g>
      <path class="st0" d="M308.41,310.41s62.49,17.41,89.88,36.37c27.39,18.96,44.24,61.8,47.4,86.03l-109.56,3.51s-9.11-92.05-27.73-125.91Z"/>
      <path class="st0" d="M51.36,662.45c53.02,17.22,164.71,42.85,164.71,42.85l3.91-9.91,1.89-4.8,30.35-76.94s3.17-101.49-11.58-175.58c-14.75-74.09-23.33-85.46-24.56-134.09,0,0-95.18,29.11-125.38,50.87-30.2,21.77-55.48,134.13-62.16,174.52-6.67,40.38-30.19,115.88,22.83,133.08Z"/>
      <g>
        <rect class="st12" x="287.68" y="433.16" width="244.39" height="272.13" rx="7.14" ry="7.14" transform="translate(819.75 1138.45) rotate(180)"/>
        <path class="st13" d="M295.04,707.87h229.67c5.48,0,9.94-4.46,9.94-9.94v-257.41c0-5.48-4.46-9.94-9.94-9.94h-229.67c-5.48,0-9.94,4.46-9.94,9.94v257.41c0,5.48,4.46,9.94,9.94,9.94ZM524.71,435.74c2.64,0,4.78,2.15,4.78,4.78v257.41c0,2.64-2.15,4.78-4.78,4.78h-229.67c-2.64,0-4.78-2.15-4.78-4.78v-257.41c0-2.64,2.15-4.78,4.78-4.78h229.67Z"/>
      </g>
      <circle class="st20" cx="411.67" cy="565.19" r="78.66"/>
      <g>
        <path class="st13" d="M400.59,432.04l-3.96-30.79c-.22-1.69.98-3.25,2.67-3.46,1.69-.22,3.25.98,3.46,2.67l4,31.1c-2.06.19-4.12.32-6.18.48Z"/>
        <path class="st13" d="M89.13,579.41c.48-1.64,2.2-2.58,3.84-2.09l28.53,8.4,24.42-154.45c.27-1.69,1.85-2.84,3.54-2.57,1.69.27,2.84,1.85,2.57,3.54l-24.55,155.24,115.77,34.08c1.64.48,2.58,2.2,2.09,3.84-.4,1.35-1.63,2.22-2.97,2.22-.29,0-.58-.04-.88-.13l-5.02-1.48c.25.3.43.66.52,1.07.29,1.39-.6,2.76-1.99,3.06l-7.77,1.64c-2.54,4.13-13.33,23.83-10.73,56.3l5.34,2.5-1.89,4.8c-.05-.02-.09-.04-.14-.06l-8.19-3.82-.13-1.48c-3.59-39.34,11.41-61.11,12.05-62.02l.58-.83,9.47-2.01-142.38-41.92c-1.64-.48-2.58-2.2-2.09-3.84Z"/>
      </g>
      <g>
        <path class="st19" d="M214.08,689.79s21.33,10.27,36.86,15.5c15.53,5.22,61.09,5.57,81.25,4.38,13.17-.77,15.98-7.07,16.35-11.33.11-1.3,0-2.41-.11-3.13-.08-.53-.18-.83-.18-.83,14.42-2.02,14.87-9.68,13.83-14.12-.45-1.94-1.19-3.26-1.19-3.26.08-.02.17-.04.24-.07,16.46-4.78,6.36-14.81,3.69-17.15-.37-.33-.6-.51-.6-.51.6-.84,1.13-1.64,1.6-2.42,10.11-17.09-11.38-23.14-25.48-29.24-14.75-6.38-54.43-15.74-54.43-15.74v-14.74c-30.85,5.18-51.44,30.48-51.44,30.48l-8.82,1.87c-15.28,22.77-11.58,60.3-11.58,60.3Z"/>
        <g>
          <path class="st16" d="M284.16,642.41c.01.85.7,1.54,1.55,1.54h.01c.24,0,.48-.01.72-.01,27.31,0,68.8,12.78,78.39,15.86-.37-.33-.6-.51-.6-.51.6-.84,1.13-1.64,1.6-2.42-9.71-3.12-52.34-16.25-80.14-16.02-.86,0-1.54.7-1.54,1.56Z"/>
          <path class="st16" d="M284.16,669.1c-.01.86.67,1.56,1.53,1.57,26.95.45,67.18,7.85,76.4,9.61-.45-1.94-1.19-3.26-1.19-3.26.08-.02.17-.04.24-.07-11.57-2.18-49.5-8.93-75.4-9.38-.87.01-1.56.67-1.58,1.53Z"/>
          <path class="st16" d="M283.24,693.29c.03.85.72,1.52,1.61,1.48,21.23-.87,53.64,2.47,63.69,3.59.11-1.3,0-2.41-.11-3.13-10.62-1.18-42.6-4.43-63.7-3.55-.86.03-1.52.75-1.49,1.61Z"/>
        </g>
      </g>
    </g>
    <g>
      <g>
        <path class="st1" d="M967.3,181.39c-43.32,0-78.57-35.25-78.57-78.57s35.25-78.57,78.57-78.57,78.57,35.25,78.57,78.57-35.25,78.57-78.57,78.57ZM967.3,31.2c-39.49,0-71.62,32.13-71.62,71.62s32.13,71.62,71.62,71.62,71.62-32.13,71.62-71.62-32.13-71.62-71.62-71.62Z"/>
        <path class="st1" d="M993.19,131.6c-.74,0-1.48-.28-2.05-.85l-26.73-26.73v-50.94c0-1.6,1.3-2.9,2.9-2.9s2.9,1.3,2.9,2.9v48.54l25.04,25.04c1.13,1.13,1.13,2.96,0,4.09-.56.57-1.31.85-2.05.85Z"/>
      </g>
      <g>
        <polygon class="st1" points="967.3 371.07 982.29 364.44 991.95 377.67 1008.25 379.43 1010 395.72 1023.23 405.38 1016.6 420.37 1023.23 435.35 1010 445.02 1008.25 461.31 991.95 463.06 982.29 476.3 967.3 469.67 952.32 476.3 942.65 463.06 926.36 461.31 924.61 445.02 911.38 435.35 918 420.37 911.38 405.38 924.61 395.72 926.36 379.43 942.65 377.67 952.32 364.44 967.3 371.07"/>
        <path class="st7" d="M961.61,438.79l-20.53-20.53c-1.13-1.13-1.13-2.96,0-4.09,1.13-1.13,2.96-1.13,4.09,0l16.43,16.43,27.81-27.81c1.13-1.13,2.96-1.13,4.09,0,1.13,1.13,1.13,2.96,0,4.09l-31.91,31.91Z"/>
      </g>
      <path class="st8" d="M1006.78,267.18l-35.38-35.38c-.28-.28-.59-.53-.91-.74-.11-.07-.23-.11-.34-.18-.22-.13-.44-.26-.67-.35-2.09-.85-4.58-.42-6.27,1.27l-35.38,35.38c-2.26,2.26-2.26,5.93,0,8.19,1.13,1.13,2.61,1.7,4.09,1.7s2.96-.57,4.09-1.7l25.49-25.49v72.25c0,3.2,2.59,5.79,5.79,5.79s5.79-2.59,5.79-5.79v-72.25l25.49,25.49c1.13,1.13,2.61,1.7,4.09,1.7s2.96-.57,4.09-1.7c2.26-2.26,2.26-5.93,0-8.19Z"/>
      <g>
        <rect class="st9" x="600.33" y="24.25" width="193.36" height="250.58" rx="2.93" ry="2.93"/>
        <path class="st3" d="M616.76,211.47l43.56-58.7c1.25-1.69,3.72-1.84,5.17-.32l25.2,26.36c1.34,1.41,3.6,1.39,4.92-.03l37.59-40.18c1.47-1.57,4-1.39,5.24.35l51.46,72.57c1.59,2.24-.01,5.35-2.76,5.35h-167.65c-2.78,0-4.38-3.17-2.72-5.41Z"/>
        <circle class="st3" cx="694.35" cy="112.8" r="19.51"/>
        <rect class="st5" x="600.33" y="24.25" width="193.36" height="250.58" rx="2.93" ry="2.93"/>
      </g>
      <polygon class="st6" points="628.32 339.67 628.32 490.66 770.63 490.66 770.63 377.12 733.18 339.67 628.32 339.67"/>
      <polygon class="st6" points="770.63 377.12 733.18 377.12 733.18 339.67 770.63 377.12"/>
      <polygon class="st2" points="712.88 447 712.88 597.98 855.19 597.98 855.19 484.45 817.74 447 712.88 447"/>
      <polygon class="st2" points="855.19 484.45 817.74 484.45 817.74 447 855.19 484.45"/>
      <polygon class="st4" points="622.94 549.3 622.94 700.28 765.25 700.28 765.25 586.75 727.8 549.3 622.94 549.3"/>
      <polygon class="st4" points="765.25 586.75 727.8 586.75 727.8 549.3 765.25 586.75"/>
      <g>
        <path d="M690.9,429.87h-9.57l-1.49,7.5h-9.51l10.87-45.27h9.83l10.87,45.27h-9.51l-1.49-7.5ZM689.09,421.14l-1.03-5.17c-.58-3.23-1.36-8.73-1.81-12.42h-.26c-.45,3.69-1.16,9.18-1.81,12.42l-1.03,5.17h5.95Z"/>
        <path d="M704.93,393.2c0-2.78,2.01-4.85,4.85-4.85s4.85,2.07,4.85,4.85c0,2.59-2.13,4.85-4.85,4.85s-4.85-2.13-4.85-4.85ZM705.32,403.09h8.86v34.28h-8.86v-34.28Z"/>
      </g>
      <g>
        <path d="M740.56,536.11h9.44c0,3.62,1.81,5.17,4.72,5.17s4.53-1.75,4.53-4.01c0-7.5-17.72-8.41-17.72-22.18,0-6.92,4.85-11.96,13.19-11.96s13.39,4.98,13.39,13.32h-9.44c0-2.98-1.36-4.46-4.01-4.46-2.39,0-3.82,1.29-3.82,3.36,0,7.11,17.98,7.57,17.98,21.99,0,7.44-5.24,12.87-14.23,12.87s-14.03-4.98-14.03-14.1Z"/>
        <path d="M769.78,504.03h9.51l4.08,21.41c.65,3.3,1.42,8.86,1.87,12.61h.26c.45-3.75,1.23-9.31,1.88-12.61l4.07-21.41h9.51l-10.73,45.27h-9.7l-10.74-45.27Z"/>
        <path d="M803.86,535.46v-17.59c0-9.51,5.3-14.62,14.36-14.62s13.52,5.11,13.84,14.62h-9.18c-.19-4.07-1.49-5.76-4.66-5.76s-4.79,1.68-4.79,5.76v17.59c0,4.07,1.62,5.76,4.85,5.76s4.98-1.68,4.98-5.76v-3.23h-5.43v-8.15h14.49v11.38c-.26,9.51-5.3,14.62-14.16,14.62s-14.29-5.11-14.29-14.62Z"/>
      </g>
      <g>
        <path d="M673.78,621.84c0,9.64-5.56,15.33-14.94,15.33h-3.95v14.55h-9.18v-45.27h13.13c9.38,0,14.94,5.69,14.94,15.39ZM664.34,621.84c0-4.4-1.94-6.66-5.63-6.66h-3.82v13.26h3.82c3.69,0,5.63-2.26,5.63-6.6Z"/>
        <path d="M707.66,606.45v45.27h-9.05l-7.63-17.53-4.07-11.06-.19.19c.71,5.69,1.16,14.16,1.16,19.21v9.18h-9.05v-45.27h9.05l8.6,19.66c1.1,2.85,2.13,5.82,3.23,8.67l.19-.19c-.78-5.69-1.29-13.45-1.29-17.66v-10.48h9.05Z"/>
        <path d="M714.38,637.88v-17.59c0-9.51,5.3-14.62,14.36-14.62s13.52,5.11,13.84,14.62h-9.18c-.19-4.07-1.49-5.76-4.66-5.76s-4.79,1.68-4.79,5.76v17.59c0,4.07,1.62,5.76,4.85,5.76s4.98-1.68,4.98-5.76v-3.23h-5.43v-8.15h14.49v11.38c-.26,9.51-5.3,14.62-14.16,14.62s-14.29-5.11-14.29-14.62Z"/>
      </g>
    </g>
    <g>
      <path class="st7" d="M364.37,572.51v5.99h-15.53v-31.06h6.3v25.07h9.23Z"/>
      <path class="st7" d="M366.6,548.2c0-1.91,1.37-3.33,3.33-3.33s3.33,1.42,3.33,3.33c0,1.77-1.46,3.33-3.33,3.33s-3.33-1.46-3.33-3.33ZM366.87,554.99h6.08v23.51h-6.08v-23.51Z"/>
      <path class="st7" d="M376.85,570.21v-7.01c0-5.5,3.11-8.78,8.39-8.78,5.54,0,8.38,3.28,8.56,8.78h-6.08c-.09-2-.84-3.02-2.35-3.02s-2.39,1.02-2.39,3.02v7.01c0,2,.84,3.06,2.39,3.06,1.64,0,2.4-1.07,2.53-3.06h6.08c-.13,5.54-3.37,8.83-8.74,8.83s-8.39-3.28-8.39-8.83Z"/>
      <path class="st7" d="M413.86,571.01c-.49,5.06-3.73,8.03-8.96,8.03s-8.43-3.46-8.43-9.27v-6.25c0-5.72,3.15-9.09,8.47-9.09s8.61,3.37,8.61,9.09v5.28h-11v.98c0,2.44.84,3.51,2.44,3.51,1.82,0,2.35-.67,2.75-2.26h6.12ZM402.55,563.42v1.24h5.01v-1.24c0-2.4-.89-3.42-2.57-3.42-1.6,0-2.44,1.02-2.44,3.42Z"/>
      <path class="st7" d="M434.24,564.08v14.42h-6.08v-14.42c0-2.88-.8-3.9-2.26-3.9-1.55,0-2.53,1.15-2.53,3.46v14.86h-6.03v-23.51h3.99l.44,2.39c1.2-1.95,3.11-2.97,5.55-2.97,4.35,0,6.92,3.28,6.92,9.67Z"/>
      <path class="st7" d="M437.04,571.01h6.03c.09,1.15.66,2.66,2.88,2.66,1.6,0,2.53-.75,2.53-1.86,0-3.68-11.05-2.62-11.05-10.56,0-4.3,3.15-6.83,8.12-6.83,5.64,0,7.94,3.37,8.3,7.81h-5.81c-.13-1.51-.75-2.49-2.49-2.49-1.29,0-2.13.62-2.13,1.51,0,3.28,11.09,2,11.09,10.51,0,4.44-3.06,7.41-8.34,7.41-6.12,0-9.01-3.99-9.14-8.16Z"/>
      <path class="st7" d="M474.5,571.01c-.49,5.06-3.73,8.03-8.96,8.03s-8.43-3.46-8.43-9.27v-6.25c0-5.72,3.15-9.09,8.47-9.09s8.61,3.37,8.61,9.09v5.28h-11v.98c0,2.44.84,3.51,2.44,3.51,1.82,0,2.35-.67,2.75-2.26h6.12ZM463.18,563.42v1.24h5.01v-1.24c0-2.4-.89-3.42-2.57-3.42-1.6,0-2.44,1.02-2.44,3.42Z"/>
    </g>
  </g>
</svg>