<?xml version="1.0" encoding="UTF-8"?>
<svg id="Livello_1" data-name="Livello 1" xmlns="http://www.w3.org/2000/svg" viewBox="0 0 806.35 801.85">
  <defs>
    <style>
      .cls-1 {
        fill: #faf3ea;
      }

      .cls-1, .cls-2, .cls-3, .cls-4, .cls-5, .cls-6 {
        stroke: #2f3534;
        stroke-linecap: round;
        stroke-linejoin: round;
        stroke-width: 9px;
      }

      .cls-2 {
        fill: #fed263;
      }

      .cls-7 {
        fill: #fff;
      }

      .cls-3, .cls-8 {
        fill: #3e82c4;
      }

      .cls-9 {
        fill: #2f3534;
      }

      .cls-4 {
        fill: #59b680;
      }

      .cls-5 {
        fill: #eb664e;
      }

      .cls-6 {
        fill: #85bde2;
      }
    </style>
  </defs>
  <g>
    <rect class="cls-7" y="334.25" width="402.91" height="169.17" rx="36.52" ry="36.52"/>
    <path class="cls-7" d="M477.75,0h292.09c20.16,0,36.52,16.36,36.52,36.52v166.34c0,20.16-16.36,36.52-36.52,36.52h-292.09c-20.16,0-36.52-16.36-36.52-36.52V36.52c0-20.16,16.36-36.52,36.52-36.52Z"/>
    <path class="cls-7" d="M769.82,279.83h-292.08c-20.14,0-36.52,16.38-36.52,36.52v448.98c0,20.14,16.38,36.52,36.52,36.52h292.08c20.14,0,36.53-16.38,36.53-36.52v-448.98c0-20.14-16.39-36.52-36.53-36.52Z"/>
    <rect class="cls-7" x="0" y="0" width="402.91" height="299.01" rx="36.52" ry="36.52"/>
  </g>
  <g>
    <g>
      <rect class="cls-1" x="15.84" y="350.08" width="371.23" height="137.49" rx="20.68" ry="20.68"/>
      <path class="cls-9" d="M341.11,423.33h-164.68c-2.49,0-4.5-2.01-4.5-4.5s2.01-4.5,4.5-4.5h164.68c2.49,0,4.5,2.01,4.5,4.5s-2.01,4.5-4.5,4.5Z"/>
      <path class="cls-8" d="M136.62,453.51l-16.19-16.19c4.7-6.23,7.49-13.97,7.49-22.35,0-20.5-16.68-37.18-37.18-37.18s-37.18,16.68-37.18,37.18,16.68,37.18,37.18,37.18c8.88,0,17.05-3.14,23.45-8.35l16.07,16.07,6.36-6.36ZM90.73,443.15c-15.54,0-28.18-12.64-28.18-28.18s12.64-28.18,28.18-28.18,28.18,12.64,28.18,28.18-12.64,28.18-28.18,28.18Z"/>
    </g>
    <g>
      <rect class="cls-3" x="457.07" y="15.84" width="333.45" height="207.71" rx="20.68" ry="20.68"/>
      <path class="cls-7" d="M665.76,127.44c-1.76-1.76-4.61-1.76-6.36,0l-31.11,31.11V62.95c0-2.49-2.01-4.5-4.5-4.5s-4.5,2.01-4.5,4.5v95.6l-31.11-31.11c-1.76-1.76-4.61-1.76-6.36,0-1.76,1.76-1.76,4.61,0,6.36l38.79,38.79c.21.21.44.39.68.56.07.04.14.07.21.11.18.11.36.22.56.3.1.04.2.06.3.09.18.06.36.13.54.17.29.06.59.09.89.09s.6-.03.89-.09c.19-.04.36-.1.54-.17.1-.03.2-.05.3-.09.2-.08.38-.19.56-.3.07-.04.15-.07.21-.12.24-.16.47-.35.68-.56l38.79-38.79c1.76-1.76,1.76-4.61,0-6.36Z"/>
    </g>
    <g>
      <path class="cls-1" d="M790.51,316.35v448.98c0,11.42-9.26,20.68-20.69,20.68h-292.08c-11.42,0-20.68-9.26-20.68-20.68v-448.98c0-11.43,9.26-20.68,20.68-20.68h292.08c11.43,0,20.69,9.25,20.69,20.68Z"/>
      <g>
        <path class="cls-9" d="M739.07,366.17h-230.55c-2.49,0-4.5-2.01-4.5-4.5s2.01-4.5,4.5-4.5h230.55c2.49,0,4.5,2.01,4.5,4.5s-2.01,4.5-4.5,4.5Z"/>
        <path class="cls-9" d="M679.32,411.36h-170.81c-2.49,0-4.5-2.01-4.5-4.5s2.01-4.5,4.5-4.5h170.81c2.49,0,4.5,2.01,4.5,4.5s-2.01,4.5-4.5,4.5Z"/>
        <path class="cls-9" d="M628,461.15h-119.49c-2.49,0-4.5-2.01-4.5-4.5s2.01-4.5,4.5-4.5h119.49c2.49,0,4.5,2.01,4.5,4.5s-2.01,4.5-4.5,4.5Z"/>
      </g>
      <g>
        <path class="cls-5" d="M721.26,695.25c-.15.25-.27.45-.36.6-.03.05-.06.1-.08.14l-96.78-60.36v-114.04c40.7.58,77.85,21.97,98.09,55.84.33.56.66,1.12.98,1.68.65,1.12,1.27,2.26,1.88,3.41.3.56.59,1.12.88,1.69.31.63.63,1.27.94,1.91.31.65.62,1.3.92,1.95.16.35.31.69.47,1.04.24.54.48,1.09.71,1.63.22.51.43,1.02.64,1.53.21.52.42,1.05.63,1.57,19.32,49.37-4.85,94.41-8.92,101.41Z"/>
        <path class="cls-3" d="M720.82,695.99c-20.15,32.24-55.96,53.68-96.78,53.68-62.98,0-114.04-51.06-114.04-114.04s51.06-114.04,114.04-114.04v114.04l96.78,60.36Z"/>
      </g>
    </g>
    <g>
      <path class="cls-6" d="M387.07,36.52v225.96s-83.07-102.6-149.15-58.77c-26.36-32.38-63.44-61.1-103.61-61.1-77.37,0-118.47,92.68-118.47,92.68V36.52c0-11.43,9.26-20.68,20.68-20.68h329.87c11.42,0,20.68,9.25,20.68,20.68Z"/>
      <circle class="cls-2" cx="286.73" cy="100.48" r="33.7"/>
      <path class="cls-4" d="M237.92,203.71c-66.08,43.83-71.44,79.46-71.44,79.46H36.52c-11.42,0-20.68-9.26-20.68-20.69v-27.19s41.1-92.68,118.47-92.68c40.17,0,77.25,28.72,103.61,61.1Z"/>
      <path class="cls-4" d="M387.07,262.48c0,11.43-9.26,20.69-20.68,20.69h-199.91s5.36-35.63,71.44-79.46c66.08-43.83,149.15,58.77,149.15,58.77Z"/>
    </g>
  </g>
</svg>