<?xml version="1.0" encoding="UTF-8"?>
<svg xmlns="http://www.w3.org/2000/svg" viewBox="0 0 359.63 242.92">
  <defs>
    <style>
      .cls-1 {
        fill: #019be1;
      }

      .cls-2 {
        fill: #3a89ff;
      }

      .cls-3 {
        fill: #fff;
      }

      .cls-4 {
        fill: none;
        stroke: #019be1;
        stroke-miterlimit: 10;
      }

      .cls-5 {
        fill: #2f2f2f;
      }

      .cls-6 {
        fill: #b0bec5;
      }

      .cls-7 {
        fill: #011c63;
        mix-blend-mode: multiply;
      }

      .cls-8 {
        fill: #42362e;
      }

      .cls-9 {
        isolation: isolate;
      }

      .cls-10 {
        fill: #2866d8;
      }

      .cls-11 {
        fill: #eee;
      }

      .cls-12 {
        fill: #4c3424;
      }

      .cls-13 {
        fill: #2f7889;
      }

      .cls-14 {
        fill: #b37660;
      }

      .cls-15 {
        fill: #523826;
      }

      .cls-16 {
        fill: #f2b68f;
      }

      .cls-17 {
        fill: #84b0c1;
      }

      .cls-18 {
        fill: #c9e3e6;
      }
    </style>
  </defs>
  <g class="cls-9">
    <g id="Livello_1" data-name="Livello 1">
      <g>
        <path class="cls-3" d="M205.61,108.73c-.96-6.72-3.54-10.72-7.68-11.89-3.69-1.04-8.05-1.09-12.96-.17-.24.04-.48.09-.72.14.18-2.15.29-4.37.22-6.07-.16-3.91-1.85-9.26-5.29-12.41-1.91-1.75-4.16-2.62-6.5-2.52-7.78.36-7.58,9.68-7.49,14.16.02.76.03,1.54,0,1.95-.09,1.55-1.8,10.66-2.83,16.1-.78,4.12-1.45,7.69-1.71,9.36-.67,4.19.72,9.2,1.83,13.23.35,1.26.68,2.46.83,3.25.09.44.1,1.04.07,1.7l-2.78-.91-1.58,12.05c-3.34-5.05-7.57-10.73-12.49-15.8-3.96-4.08-8.89-8.67-16.66-12.21-2.96-1.35-5.58-2.18-7.48-2.69,3.22-3.09,8.17-8.64,11.69-16.91,2.84-6.66,3.71-12.65,3.98-16.72,3.3-1.32,5.64-4.55,5.64-8.31v-10.48c0-3.85-2.44-7.14-5.86-8.4-.13-1.09-.25-2-.35-2.7,2.01-4.4,6.84-16.74,3.13-27.04-1.85-5.15-5.65-9.08-10.99-11.37-19.71-8.44-54.25-8.6-64.85,9.88-3.73,3.07-14.44,14.25-8.89,37.88-4.81,7.09-6.21,13.63-4.14,19.47,2.38,6.73,8.6,10.22,12.54,11.82.6,2.58,1.64,5.17,2.39,6.86-.32,2.3-.53,4.51-.63,6.63-10.45,4.38-41.24,18.17-48.67,31.41C8.61,153.71-.24,214.31,0,237.97l.05,4.95h145.33l.27-4.71c.42-7.25.05-18.52-.45-28.36,1.65,1.7,3.26,3.35,4.57,4.66,1.46,1.45,4.04,3.67,7.69,6.59,5.35,4.29,12.22,5.76,18.87,4.04,6.64-1.71,11.94-6.33,14.53-12.66,1.48-3.6,2.6-6.55,3.33-8.79,2.88-8.94,6.91-50.36,7.36-55.06l.49-5.17-3.39-.2.14-.87c6.34-6.34,8.08-24.73,6.81-33.67Z"/>
        <path class="cls-3" d="M358.37,28.35l-.84-4.22-4.3.19c-.32.02-32.29,1.13-65.99-20.82-1.69-1.17-3.38-2.33-5.06-3.5-1.68,1.17-3.35,2.33-5.03,3.5-33.7,21.94-65.67,20.83-65.98,20.82l-4.31-.2-.83,4.23c-.25,1.3-6.06,32.38,9.59,82.34,13.65,43.58,50.64,65.18,61.53,70.72,1.69.77,3.37,1.53,5.06,2.3,1.68-.77,3.36-1.53,5.04-2.3,10.89-5.54,47.88-27.14,61.53-70.72,15.65-49.96,9.85-81.04,9.59-82.34Z"/>
      </g>
      <g>
        <polygon class="cls-3" points="71.01 109.99 103.87 116.34 112.04 125.44 121.26 187.35 113.86 237.92 81.52 237.92 75.69 195.65 67.64 121.22 71.01 109.99"/>
        <path class="cls-16" d="M133.42,36.02l-1.09,15.66s11.01,63.31-28.47,64.65c0,0,1.19,3.52,1.03,8.48-.16,4.96-6.36,8.37-13.7,8.07-7.34-.31-24.2-2.64-19.32-33.65,0,0-3.11-6.37-3.03-9.86,0,0-23.26-5.73-7.52-26.51l2.01-7.21,14.96-5.27,5.73-17.52,29.54,6.44,19.84-3.25v-.03h0Z"/>
        <path class="cls-12" d="M132.34,51.68s13.1-25.43-4.65-33.02c-17.75-7.6-50.54-8.14-58.99,8.6,0,0-14.5,9.31-7.37,35.59,0,0,6.05-4.42,14.65,7.6,0,0,3.03-7.37,2.24-16.05,0,0,8.29-7.44,7.37-19.61,0,0,24.5,11.86,45.89,5.81l.85,11.09h0Z"/>
        <path class="cls-5" d="M106.58,99.53c2.37.56,4.86.67,7.28.3.33-.05.56-.36.5-.69-.05-.33-.36-.56-.69-.5-2.59.39-5.26.21-7.73-.53-3.8-1.13-6.41-3.29-7.93-4.9-.23-.24-.61-.25-.86-.02-.24.23-.25.61-.02.86,1.62,1.72,4.41,4.02,8.47,5.23.32.1.65.19.98.27h0s0-.01,0-.01Z"/>
        <path class="cls-12" d="M130.01,57.57s-.41-2.69-4.96-2.95-6.97.2-6.82,1.48,4.44.54,6.71.69,3.56.36,5.07.78h0Z"/>
        <path class="cls-12" d="M90.21,57.57s.41-2.69,4.96-2.95,6.97.2,6.82,1.48-4.44.54-6.71.69-3.56.36-5.07.78h0Z"/>
        <path class="cls-8" d="M122.81,66.77c.6-.54,1.38-.86,2.24-.86,1.86,0,3.37,1.51,3.37,3.38s-1.51,3.37-3.37,3.37c-1.36,0-2.54-.81-3.07-1.97-.2-.42-.31-.91-.31-1.4,0-1,.44-1.9,1.13-2.52h0Z"/>
        <path class="cls-5" d="M112.3,88.77c1.47,0,2.28-.13,3.15-.46.69-.26,1.85-.69,2.58-1.88.37-.6.58-1.44.61-2.43.04-1.35-.31-2.29-.78-3.59l-.19-.51c-.67-1.86-1.25-3.47-1.52-5.11-.19-1.15-.25-2.34-.15-3.52.03-.33-.22-.62-.56-.66-.34-.03-.62.22-.66.56-.1,1.28-.05,2.57.17,3.82.29,1.75.89,3.4,1.58,5.33l.19.52c.46,1.26.74,2.02.71,3.14-.02.76-.17,1.4-.42,1.82-.52.84-1.4,1.16-1.97,1.38-1,.38-1.92.45-4.46.34-1.48-.06-2.98-.17-4.46-.31-.34-.03-.63.21-.66.55s.21.63.55.66c1.5.15,3.03.25,4.53.31.69.03,1.28.05,1.79.05h-.01s0,0,0,0Z"/>
        <path class="cls-15" d="M87.66,59.61h16.18c2.17,0,3.95,1.77,3.95,3.95v2.07c.93-.42,2.12-.78,3.54-.78h.05c1.3,0,2.4.32,3.27.68v-1.97c0-2.17,1.77-3.95,3.95-3.95h16.18c2.17,0,3.95,1.77,3.95,3.95v10.48c0,2.17-1.77,3.95-3.95,3.95h-16.18c-2.17,0-3.95-1.77-3.95-3.95v-6.49c-.74-.41-1.86-.87-3.28-.88h-.04c-1.56,0-2.77.54-3.54,1.02v6.35c0,2.17-1.77,3.95-3.95,3.95h-16.18c-2.17,0-3.95-1.77-3.95-3.95v-10.48c0-2.17,1.77-3.95,3.95-3.95h0ZM116.47,74.04c0,1.17.95,2.13,2.13,2.13h16.18c1.17,0,2.13-.95,2.13-2.13v-10.48c0-1.17-.95-2.13-2.13-2.13h-16.18c-1.17,0-2.13.95-2.13,2.13v10.48ZM85.53,74.04c0,1.17.95,2.13,2.13,2.13h16.18c1.17,0,2.13-.95,2.13-2.13v-10.48c0-1.17-.95-2.13-2.13-2.13h-16.18c-1.17,0-2.13.95-2.13,2.13v10.48Z"/>
        <path class="cls-8" d="M104.18,69.25c-.06-.22-.2-.4-.4-.51-1.17-.66-3.06-1.45-5.47-1.45-.23,0-.47,0-.71.02l-1.05.07.05.05c-1.07.17-2.12.5-3.09.96-.2.1-.36.27-.43.48-.07.21-.05.44.04.63.1.2.27.36.48.43.21.07.44.06.63-.04,1.24-.6,2.61-.92,3.97-.93,2.07-.06,3.73.66,4.74,1.23.13.07.27.11.41.11.07,0,.15-.01.22-.03.22-.06.4-.2.51-.39.11-.19.14-.42.08-.63Z"/>
        <path class="cls-2" d="M81.51,237.92H5c-.26-24.75,8.94-83.5,16.77-97.46,7.83-13.96,49.24-30.47,49.24-30.47-.17,4.92,6.84,39.58,8.37,50.38,1.53,10.81,2.13,77.55,2.13,77.55Z"/>
        <path class="cls-2" d="M196.57,148.16s-4.34,45.32-7.14,54c-.74,2.26-1.89,5.24-3.2,8.42-4.19,10.21-17.04,13.52-25.65,6.62-3.12-2.5-5.84-4.79-7.28-6.23-3.49-3.49-9.15-9.42-12.06-12.47-1.14-1.2-1.86-1.96-1.86-1.96,0,0,.21,2.93.48,7.35.55,9.26,1.32,25.05.8,34.03h-26.81s1.02-46.61,0-63.08c-1.02-16.47-4.66-48.33-9.99-58.5,0,0,4.63-1.5,24.03,6.93,16.13,7,29.08,28.99,33,36.22.8,1.47,1.22,2.33,1.22,2.33l1.5-11.53,1.18-9.02s18.64,6.12,31.78,6.89Z"/>
        <path class="cls-10" d="M51.52,166.69c-.04.26-3.85,25.81-5.74,39.44-1.55,11.2-2.72,24.53-3,31.79h-2c.28-7.34,1.46-20.79,3.02-32.07,1.89-13.63,5.7-39.2,5.74-39.45.08-.55.6-.92,1.14-.85.55.09.92.6.84,1.14Z"/>
        <path class="cls-10" d="M139.38,196.54s.21,2.93.48,7.35c-.27-.17-.45-.46-.46-.8l-1.65-47.23c-.02-.56.41-1.02.96-1.04.58-.04,1.01.41,1.03.97l1.5,42.71c-1.14-1.2-1.86-1.96-1.86-1.96Z"/>
        <path class="cls-10" d="M163.87,151.08l-4.85,42.39c-.06.51-.5.88-1,.88h-.11c-.55-.07-.94-.56-.88-1.11l3.86-33.75c.8,1.47,1.22,2.33,1.22,2.33l1.5-11.53c.19.2.29.49.26.79Z"/>
        <path class="cls-16" d="M194.63,139.38c-.15.09-.29.17-.44.23l-.09.51h0s-1.27,7.7-1.27,7.7l-25.28-2.68-.18-3.06s1.54-5.68.86-9.18c-.68-3.51-3.32-10.4-2.63-14.74.68-4.34,4.42-22.98,4.59-25.96.17-2.98-.93-11.23,2.72-11.4,3.66-.17,6.39,5.87,6.56,10.13.15,3.84-.8,11.14-.99,12.53-.02.15-.03.23-.03.23,0,0,3.21-1.33,7.42-2.11,3.31-.62,7.25-.9,10.7.07,7.66,2.16,4.41,33.77-1.94,37.73Z"/>
        <path class="cls-14" d="M178.72,124.22c.68-.53,7.87-2.08,14.29-3.27.27-.05.45-.31.4-.58-.05-.27-.32-.45-.58-.4-4.2.78-14.04,2.68-14.83,3.56-1.66,1.84-3.39,5.97.63,9.73.1.09.22.14.34.14.13,0,.27-.05.36-.16.19-.2.18-.52-.02-.71-4.25-3.99-.96-7.9-.59-8.32Z"/>
        <path class="cls-14" d="M194.63,139.38c-.15.09-.29.17-.44.23l-.09.51h0c-2.89.45-5.03.6-6.77.6-1.29,0-2.35-.09-3.32-.19-2.55-.27-3.64-1.36-4.02-4-.21-1.51-.02-2.68.56-3.39.37-.45.86-.7,1.44-.74.88-.05,8.48-1.56,11.34-2.13.26-.06.53.12.59.39.05.27-.13.53-.4.59-.42.08-10.34,2.08-11.47,2.15-.3.02-.53.14-.72.37-.4.48-.52,1.41-.35,2.62.32,2.21,1.02,2.92,3.14,3.15,2.23.24,4.99.35,10-.43.21-.03.42.08.51.27Z"/>
        <path class="cls-14" d="M192.9,110.8c.02.28-.18.52-.46.54-4.07.33-14.88,1.76-15.91,4.45-1.35,3.53-.52,5.18.53,6.68.16.23.1.54-.12.7-.09.06-.19.09-.29.09-.16,0-.31-.08-.41-.22-1.41-2.03-2.02-4.01-.64-7.61.18-.48.57-.92,1.1-1.32-2.67-2.05-2.5-5.68-1.17-8.26.47-.92,1.61-1.72,2.95-2.39-.02.15-.03.23-.03.23,0,0,3.21-1.33,7.42-2.11.05.26-.12.52-.38.58-2.18.48-8.04,2.15-9.07,4.15-1.22,2.37-1.35,5.51,1.12,7.18.02.02.03.04.05.06,4.25-2.3,13.51-3.11,14.77-3.21.28-.01.52.19.54.46Z"/>
      </g>
      <g>
        <g>
          <path class="cls-6" d="M210.94,29.31s34.84,1.64,71.31-23.2v172.2s-46.4-19.8-61.85-69.12c-15.45-49.32-9.46-79.88-9.46-79.88Z"/>
          <ellipse class="cls-11" cx="282.25" cy="168.67" rx="3.52" ry="3.42"/>
          <path class="cls-17" d="M353.46,29.31s-34.84,1.64-71.31-23.2v172.2s46.4-19.8,61.85-69.12c15.45-49.32,9.46-79.88,9.46-79.88Z"/>
          <ellipse class="cls-11" cx="282.15" cy="168.67" rx="3.52" ry="3.42"/>
          <ellipse class="cls-11" cx="298.79" cy="160.8" rx="3.52" ry="3.42"/>
          <ellipse class="cls-11" cx="313.75" cy="146.41" rx="3.52" ry="3.42"/>
          <ellipse class="cls-11" cx="325.58" cy="130.24" rx="3.52" ry="3.42"/>
          <ellipse class="cls-11" cx="334.32" cy="113.09" rx="3.52" ry="3.42"/>
          <ellipse class="cls-11" cx="341.1" cy="92.3" rx="3.52" ry="3.42"/>
          <ellipse class="cls-11" cx="345.13" cy="72.55" rx="3.52" ry="3.42"/>
          <ellipse class="cls-11" cx="347.49" cy="52.73" rx="3.52" ry="3.42"/>
          <ellipse class="cls-11" cx="291.84" cy="20.9" rx="3.52" ry="3.42"/>
          <ellipse class="cls-11" cx="308.75" cy="28.24" rx="3.52" ry="3.42"/>
          <ellipse class="cls-11" cx="327.29" cy="33.27" rx="3.52" ry="3.42"/>
          <ellipse class="cls-11" cx="346.71" cy="36.06" rx="3.52" ry="3.42"/>
          <ellipse class="cls-11" cx="265.6" cy="160.8" rx="3.52" ry="3.42"/>
          <ellipse class="cls-11" cx="250.65" cy="146.41" rx="3.52" ry="3.42"/>
          <ellipse class="cls-11" cx="238.81" cy="130.24" rx="3.52" ry="3.42"/>
          <ellipse class="cls-11" cx="230.08" cy="113.09" rx="3.52" ry="3.42"/>
          <ellipse class="cls-11" cx="223.29" cy="92.3" rx="3.52" ry="3.42"/>
          <ellipse class="cls-11" cx="219.27" cy="72.55" rx="3.52" ry="3.42"/>
          <ellipse class="cls-11" cx="216.9" cy="52.73" rx="3.52" ry="3.42"/>
          <ellipse class="cls-11" cx="272.56" cy="20.9" rx="3.52" ry="3.42"/>
          <ellipse class="cls-11" cx="255.64" cy="28.24" rx="3.52" ry="3.42"/>
          <ellipse class="cls-11" cx="237.1" cy="33.27" rx="3.52" ry="3.42"/>
          <ellipse class="cls-11" cx="217.68" cy="36.06" rx="3.52" ry="3.42"/>
          <path class="cls-6" d="M325.88,104.81c-10.84,36.36-43.27,51.1-43.71,51.3h0V28.31h0c25.77,18.43,50.39,17.22,50.39,17.22,0,0,4.23,22.68-6.68,59.29Z"/>
          <path class="cls-4" d="M282.41,22.94v.17s-.08-.06-.12-.09c.04-.03.08-.06.12-.09Z"/>
          <path class="cls-4" d="M282.29,23.03s-.08.06-.12.09v-.17s.08.06.12.09Z"/>
          <path class="cls-18" d="M282.26,28.31v127.81h0c-.44-.2-32.86-14.94-43.7-51.3-10.92-36.6-6.69-59.29-6.69-59.29,0,0,24.62,1.21,50.39-17.22h0Z"/>
        </g>
        <path class="cls-13" d="M336.7,41.6s-26.53,1.31-54.38-18.49c-.04-.03-.08-.06-.12-.09-.04.03-.08.06-.12.09-27.84,19.8-54.38,18.49-54.38,18.49,0,0-4.59,24.59,7.24,64.27,11.26,37.76,44,54.02,47.13,55.5.04.02.08.03.12.05.04-.02.08-.03.13-.05,3.14-1.48,35.87-17.74,47.13-55.5,11.83-39.68,7.24-64.27,7.24-64.27ZM325.78,104.81c-10.11,33.91-38.99,49.01-43.19,51.06-.13.06-.26.13-.39.19-.1-.05-.21-.1-.31-.15-.5-.24-1.42-.7-2.68-1.4-8.45-4.7-31.73-19.97-40.59-49.69-10.92-36.6-6.69-59.29-6.69-59.29,0,0,24.54,1.21,50.27-17.13,25.72,18.34,50.27,17.13,50.27,17.13,0,0,4.23,22.68-6.68,59.29Z"/>
      </g>
      <g>
        <path class="cls-3" d="M307.44,67.37c1.5-9.48-5.82-18.06-15.42-18.06h-29.82c-1.55,0-2.88,1.13-3.12,2.67l-9.53,60.53c-.3,1.92,1.18,3.65,3.12,3.65h13.64l3.79-24.07h11.24c12.78,0,23.67-9.3,25.67-21.92l.44-2.8Z"/>
        <g>
          <path class="cls-1" d="M314.72,83.17c1.28-8.09-4.97-15.42-13.17-15.42h-25.46c-1.33,0-2.46.97-2.66,2.28l-8.14,51.69c-.26,1.64,1.01,3.12,2.66,3.12h9.34c1.33,0,2.46-.97,2.66-2.28l2.88-18.28h9.6c10.92,0,20.21-7.94,21.92-18.72l.38-2.39Z"/>
          <path class="cls-7" d="M307.44,67.37c1.5-9.48-5.82-18.06-15.42-18.06h-29.82c-1.55,0-2.88,1.13-3.12,2.67l-9.53,60.53c-.3,1.92,1.18,3.65,3.12,3.65h13.64l3.79-24.07h11.24c12.78,0,23.67-9.3,25.67-21.92l.44-2.8Z"/>
        </g>
      </g>
    </g>
  </g>
</svg>