<?xml version="1.0" encoding="UTF-8"?>
<svg id="Livello_1" data-name="Livello 1" xmlns="http://www.w3.org/2000/svg" viewBox="0 0 1049.15 795.1">
  <defs>
    <style>
      .cls-1 {
        fill: #3a89ff;
      }

      .cls-2 {
        fill: #fff;
      }

      .cls-3 {
        fill: #2f2f2f;
      }

      .cls-4 {
        fill: #42362e;
      }

      .cls-5 {
        fill: #3d97ed;
      }

      .cls-6 {
        fill: #cfe9fa;
      }

      .cls-7 {
        fill: #2866d8;
      }

      .cls-8 {
        fill: #4c3424;
      }

      .cls-9 {
        fill: #b37660;
      }

      .cls-10 {
        fill: #523826;
      }

      .cls-11 {
        fill: #f2b68f;
      }

      .cls-12 {
        fill: #3c96ec;
      }
    </style>
  </defs>
  <g>
    <path class="cls-2" d="M990.7,446.17c-11.9-21.22-43.67-45.51-94.41-72.21-29.41-15.47-57.75-27.8-70.98-33.35-.28-8.24-1.09-17.02-2.41-26.21,2.69-5.95,6.95-16.3,8.86-25.95,12.43-4.75,34.27-16,42.13-38.2,6.66-18.81,1.74-40.19-14.62-63.61,11.32-46.53,3.25-78.08-5.75-96.58-7.97-16.36-18.1-25.82-23.06-29.77-18.01-32.19-60.83-50.59-118.13-50.59-34.12,0-69.27,6.67-96.43,18.29-16.91,7.24-28.95,19.66-34.8,35.93-12.19,33.89,5,76.29,11.04,89.4-.44,2.97-1.05,7.51-1.69,13.26-11.2,2.84-19.52,13.01-19.52,25.08v35.51c0,11.8,7.95,21.79,18.77,24.88,3.25,30.6,10.65,56.37,22.04,76.72,9.86,17.61,22.54,31,37.9,40.08-9.72,3.43-21.14,7.9-34.49,13.7-44.79,19.44-82.43,70.21-103.42,103.65l-6.22-47.72-9.63,3.14c-.62-4.85-.82-9.48-.21-12.6.56-2.86,1.64-6.77,2.9-11.34,3.65-13.24,8.2-29.71,6.1-42.93-.89-5.7-3.17-17.83-5.82-31.87-3.7-19.66-9.29-49.37-9.61-54.89-.09-1.55-.03-4.16.03-6.93.14-6.71.32-15.07-1.07-22.51-3.42-18.24-15.17-20.74-20.05-20.97-.37-.02-.75-.03-1.12-.03-4.41,0-11.05,1.28-17.71,7.39-10.64,9.76-16,27.03-16.48,38.96-.28,7.19.44,17.25,1.3,26.07-2.58-.63-5.33-1.23-8.21-1.77-7.57-1.41-14.78-2.13-21.44-2.13-7.4,0-14.3.88-20.5,2.63-12.17,3.43-19.84,15.75-22.82,36.63-4.28,30.07,1.43,92.45,22.83,111.35l1.54,9.28-11.82.71,1.23,12.87c.6,6.32,14.9,155.15,24.76,185.72,2.43,7.4,6.29,17.57,11.16,29.4,8.28,20.16,25.14,34.85,46.26,40.31,5.7,1.47,11.54,2.22,17.35,2.22,15.61,0,30.37-5.22,42.68-15.09,12.22-9.79,20.87-17.2,25.71-22.04,6.59-6.59,15.48-15.77,23.72-24.33-1.74,31.2-3.82,79.16-2.18,107.57l.68,11.76h483.94l.12-12.36c.93-88-30.81-287.32-58.43-336.57Z"/>
    <path class="cls-2" d="M195.68,0C87.78,0,0,87.78,0,195.68s87.78,195.68,195.68,195.68,195.68-87.78,195.68-195.68S303.58,0,195.68,0Z"/>
  </g>
  <g>
    <polygon class="cls-2" points="812.92 349.01 701.58 370.53 673.87 401.37 642.62 611.22 667.72 782.61 777.33 782.61 797.09 639.34 824.34 387.09 812.92 349.01"/>
    <path class="cls-11" d="M601.39,98.31l3.68,53.09s-37.3,214.57,96.5,219.13c0,0-4.04,11.92-3.5,28.73.54,16.81,21.55,28.37,46.42,27.34,24.87-1.06,82.02-8.94,65.5-114.05,0,0,10.52-21.59,10.26-33.42,0,0,78.84-19.44,25.48-89.86l-6.82-24.43-50.71-17.87-19.44-59.38-100.12,21.82-67.25-11.02v-.09h0Z"/>
    <path class="cls-8" d="M605.05,151.4s-44.4-86.17,15.76-111.92c60.16-25.75,171.3-27.59,199.94,29.16,0,0,49.13,31.54,24.96,120.61,0,0-20.49-14.98-49.65,25.75,0,0-10.26-24.96-7.61-54.39,0,0-28.1-25.23-24.96-66.46,0,0-83.03,40.2-155.54,19.68l-2.87,37.58h-.02Z"/>
    <path class="cls-3" d="M691.94,313.36c-8.13,1.48-16.58,1.38-24.7-.29-1.12-.23-1.83-1.31-1.58-2.42.23-1.12,1.31-1.83,2.42-1.58,8.68,1.79,17.76,1.65,26.26-.39,13.07-3.14,22.28-9.98,27.72-15.14.81-.79,2.12-.75,2.91.08.79.81.75,2.12-.08,2.91-5.79,5.53-15.64,12.8-29.62,16.15-1.09.27-2.23.52-3.36.73h0l.02-.05h0Z"/>
    <path class="cls-8" d="M620.65,164.57s1.39-9.11,16.81-9.99c15.42-.88,23.63.69,23.12,5.01-.51,4.31-15.06,1.84-22.76,2.35-7.7.51-12.08,1.23-17.17,2.63h0Z"/>
    <path class="cls-8" d="M755.55,174.52s-1.39-9.11-16.81-9.99c-15.42-.88-23.63.69-23.12,5.01.51,4.31,15.06,1.84,22.76,2.35,7.7.51,12.08,1.23,17.17,2.63h0Z"/>
    <path class="cls-4" d="M645.06,202.53c-2.02-1.84-4.69-2.92-7.61-2.92-6.31,0-11.42,5.12-11.42,11.45s5.12,11.42,11.42,11.42c4.6,0,8.6-2.74,10.39-6.67.68-1.44,1.06-3.07,1.06-4.76,0-3.39-1.48-6.44-3.84-8.53h0Z"/>
    <path class="cls-3" d="M673,277.11c-4.98,0-7.72-.45-10.68-1.57-2.35-.88-6.26-2.35-8.76-6.38-1.26-2.04-1.97-4.87-2.07-8.22-.13-4.58,1.06-7.76,2.65-12.17l.63-1.73c2.26-6.31,4.22-11.76,5.16-17.33.65-3.91.83-7.92.51-11.94-.09-1.12.76-2.11,1.88-2.22,1.15-.12,2.11.76,2.22,1.88.36,4.33.16,8.71-.56,12.95-.99,5.95-3.01,11.54-5.34,18.05l-.63,1.75c-1.57,4.26-2.49,6.85-2.4,10.64.07,2.59.59,4.76,1.44,6.15,1.75,2.85,4.73,3.95,6.69,4.69,3.39,1.28,6.51,1.53,15.11,1.15,5.03-.2,10.1-.56,15.13-1.06,1.15-.12,2.13.72,2.25,1.87s-.72,2.13-1.87,2.25c-5.1.5-10.28.85-15.36,1.06-2.35.12-4.33.16-6.06.16h.04v.02h0Z"/>
    <path class="cls-10" d="M756.51,178.27h-54.84c-7.36,0-13.38,6.01-13.38,13.38v7.03c-3.14-1.44-7.19-2.65-12.01-2.65h-.16c-4.4,0-8.14,1.07-11.09,2.31v-6.67c0-7.36-6.01-13.38-13.38-13.38h-54.84c-7.36,0-13.38,6.01-13.38,13.38v35.51c0,7.36,6.01,13.38,13.38,13.38h54.84c7.36,0,13.38-6.01,13.38-13.38v-22c2.49-1.39,6.31-2.97,11.11-2.98h.13c5.28,0,9.38,1.84,12.01,3.45v21.53c0,7.36,6.01,13.38,13.38,13.38h54.84c7.36,0,13.38-6.01,13.38-13.38v-35.51c0-7.36-6.01-13.38-13.38-13.38h0v-.02h0ZM658.86,227.16c0,3.97-3.23,7.2-7.2,7.2h-54.84c-3.97,0-7.2-3.23-7.2-7.2v-35.51c0-3.97,3.23-7.2,7.2-7.2h54.84c3.97,0,7.2,3.23,7.2,7.2v35.51ZM763.71,227.16c0,3.97-3.23,7.2-7.2,7.2h-54.84c-3.97,0-7.2-3.23-7.2-7.2v-35.51c0-3.97,3.23-7.2,7.2-7.2h54.84c3.97,0,7.2,3.23,7.2,7.2v35.51Z"/>
    <path class="cls-4" d="M708.19,210.95c.2-.73.68-1.35,1.34-1.72,3.97-2.25,10.38-4.91,18.54-4.91.78,0,1.6.01,2.41.06l3.54.23-.16.17c3.61.58,7.17,1.69,10.46,3.27.69.34,1.21.92,1.45,1.64.24.72.19,1.49-.14,2.13-.33.69-.92,1.21-1.64,1.45-.71.24-1.49.19-2.14-.14-4.19-2.02-8.84-3.11-13.45-3.16-7-.19-12.64,2.23-16.08,4.18-.43.25-.91.38-1.4.38-.25,0-.5-.03-.75-.1-.74-.2-1.35-.68-1.72-1.34-.38-.66-.47-1.42-.27-2.15Z"/>
    <path class="cls-1" d="M777.33,782.61h259.32c.88-83.89-30.3-283.01-56.84-330.32-26.54-47.31-166.89-103.27-166.89-103.27.58,16.68-23.18,134.15-28.37,170.75-5.19,36.64-7.22,262.84-7.22,262.84Z"/>
    <path class="cls-1" d="M387.36,478.38s14.71,153.6,24.2,183.02c2.51,7.66,6.41,17.76,10.85,28.54,14.2,34.6,57.75,45.82,86.94,22.44,10.57-8.47,19.79-16.23,24.67-21.12,11.83-11.83,31.01-31.93,40.88-42.26,3.86-4.07,6.3-6.64,6.3-6.64,0,0-.71,9.93-1.63,24.91-1.86,31.38-4.47,84.9-2.71,115.34h90.87s-3.46-157.98,0-213.8c3.46-55.82,15.79-163.8,33.86-198.27,0,0-15.69-5.08-81.45,23.49-54.67,23.73-98.56,98.26-111.85,122.76-2.71,4.98-4.13,7.9-4.13,7.9l-5.08-39.08-4-30.57s-63.18,20.74-107.71,23.35Z"/>
    <path class="cls-7" d="M878.97,541.19c.14.88,13.05,87.48,19.45,133.67,5.25,37.96,9.22,83.14,10.17,107.75h6.78c-.95-24.88-4.95-70.46-10.24-108.7-6.41-46.2-19.32-132.86-19.45-133.71-.27-1.86-2.03-3.12-3.86-2.88-1.86.3-3.12,2.03-2.85,3.86Z"/>
    <path class="cls-7" d="M581.19,642.36s-.71,9.93-1.63,24.91c.91-.58,1.53-1.56,1.56-2.71l5.59-160.08c.07-1.9-1.39-3.46-3.25-3.52-1.97-.14-3.42,1.39-3.49,3.29l-5.08,144.76c3.86-4.07,6.3-6.64,6.3-6.64Z"/>
    <path class="cls-7" d="M498.19,488.28l16.44,143.67c.2,1.73,1.69,2.98,3.39,2.98h.37c1.86-.24,3.19-1.9,2.98-3.76l-13.08-114.39c-2.71,4.98-4.13,7.9-4.13,7.9l-5.08-39.08c-.64.68-.98,1.66-.88,2.68Z"/>
    <path class="cls-11" d="M393.93,448.63c.51.3.98.58,1.49.78l.31,1.73v.03l4.3,26.06,85.68-9.08.61-10.37s-5.22-19.25-2.91-31.11c2.3-11.9,11.25-35.25,8.91-49.96-2.3-14.71-14.98-77.89-15.56-87.99-.58-10.1,3.15-38.06-9.22-38.64-12.4-.58-21.66,19.9-22.23,34.33-.51,13.01,2.71,37.76,3.36,42.47.07.51.1.78.1.78,0,0-10.88-4.51-25.15-7.15-11.22-2.1-24.57-3.05-36.27.24-25.96,7.32-14.95,114.46,6.58,127.88Z"/>
    <path class="cls-9" d="M447.88,397.24c-2.3-1.79-26.67-7.04-48.44-11.07-.92-.17-1.53-1.05-1.36-1.97.17-.92,1.07-1.54,1.97-1.36,14.22,2.63,47.59,9.08,50.28,12.07,5.62,6.25,11.49,20.23-2.12,32.99-.33.31-.74.46-1.16.46-.45,0-.9-.18-1.23-.54-.64-.68-.61-1.75.08-2.39,14.41-13.51,3.24-26.79,1.99-28.19Z"/>
    <path class="cls-9" d="M393.93,448.63c.51.3.98.58,1.49.78l.31,1.73v.03c9.79,1.49,17.05,2,22.95,2,4.37,0,7.96-.3,11.25-.64,8.64-.91,12.34-4.61,13.63-13.56.71-5.12.07-9.08-1.9-11.49-1.25-1.53-2.91-2.37-4.88-2.51-2.98-.17-28.74-5.29-38.43-7.22-.88-.2-1.8.41-2,1.32-.17.92.44,1.8,1.36,2,1.42.27,35.05,7.05,38.88,7.29,1.02.07,1.8.47,2.44,1.25,1.36,1.63,1.76,4.78,1.19,8.88-1.08,7.49-3.46,9.9-10.64,10.68-7.56.81-16.91,1.19-33.89-1.46-.71-.1-1.42.27-1.73.92Z"/>
    <path class="cls-9" d="M399.79,351.76c-.07.95.61,1.76,1.56,1.83,13.79,1.12,50.43,5.97,53.92,15.08,4.58,11.96,1.76,17.56-1.8,22.64-.54.78-.34,1.83.41,2.37.31.2.64.31.98.31.54,0,1.05-.27,1.39-.75,4.78-6.88,6.85-13.59,2.17-25.79-.61-1.63-1.93-3.12-3.73-4.47,9.05-6.95,8.47-19.25,3.97-28-1.59-3.12-5.46-5.83-10-8.1.07.51.1.78.1.78,0,0-10.88-4.51-25.15-7.15-.17.88.41,1.76,1.29,1.97,7.39,1.63,27.25,7.29,30.74,14.07,4.13,8.03,4.58,18.68-3.8,24.34-.07.07-.1.14-.17.2-14.4-7.8-45.79-10.54-50.06-10.88-.95-.03-1.76.64-1.83,1.56Z"/>
  </g>
  <g>
    <circle class="cls-5" cx="195.68" cy="195.68" r="183.2"/>
    <g>
      <path class="cls-6" d="M258.35,100.99v74.02c-2.55,1.47-4.86,3.37-6.81,5.64l-57.31,66.38c-2.54,2.94-4.44,6.46-5.5,10.2l-6.06,21.44h-77.9c-10.26,0-18.6-8.32-18.6-18.59V100.99c0-10.28,8.34-18.6,18.6-18.6h134.99c10.26,0,18.59,8.32,18.59,18.6Z"/>
      <path class="cls-12" d="M188.8,140.1h-63.36c-3.72,0-6.74-3.02-6.74-6.74s3.02-6.74,6.74-6.74h63.36c3.72,0,6.74,3.02,6.74,6.74s-3.02,6.74-6.74,6.74Z"/>
      <path class="cls-12" d="M167.57,160.76h-44.17c-2.6,0-4.7-3.02-4.7-6.74s2.11-6.74,4.7-6.74h44.17c2.6,0,4.7,3.02,4.7,6.74s-2.11,6.74-4.7,6.74Z"/>
      <path class="cls-6" d="M301.23,208.43l-21.97-18.97c-4.78-4.12-12.02-3.59-16.14,1.18l-6.99,8.09h0s-5.05,5.85-5.05,5.85l-6.36,7.37h0s-38.91,45.07-38.91,45.07c-1.09,1.26-1.9,2.77-2.35,4.37l-9.33,33.02c-1.22,4.32.13,8.84,3.54,11.77,2.14,1.84,4.77,2.8,7.44,2.8,1.59,0,3.19-.34,4.72-1.02l31.31-14.05c1.52-.68,2.89-1.7,3.98-2.96l50.33-58.29h0s6.99-8.09,6.99-8.09c4.12-4.78,3.59-12.01-1.18-16.14ZM232.75,278.52l-18.31,8.22,5.46-19.31,38.04-44.05,6.43,5.55,6.43,5.55-38.04,44.05Z"/>
    </g>
  </g>
</svg>