<?xml version="1.0" encoding="UTF-8"?>
<svg id="Livello_1" data-name="Livello 1" xmlns="http://www.w3.org/2000/svg" viewBox="0 0 1049.87 1260.39">
  <defs>
    <style>
      .cls-1 {
        fill: #faf6f3;
      }

      .cls-2 {
        fill: #e8451a;
      }

      .cls-3 {
        fill: #fff;
      }

      .cls-4 {
        fill: #1f69b2;
      }

      .cls-5 {
        fill: #1a9d5c;
      }

      .cls-6 {
        fill: #fcc420;
      }
    </style>
  </defs>
  <rect class="cls-3" x="534.35" y="520.96" width="515.53" height="367"/>
  <rect class="cls-3" x="534.35" width="515.53" height="515.53"/>
  <rect class="cls-3" x="534.35" y="893.41" width="515.53" height="366.98"/>
  <rect class="cls-3" width="515.55" height="515.53"/>
  <rect class="cls-3" y="520.96" width="515.55" height="739.43"/>
  <path class="cls-4" d="M500.91,14.63v486.26h-170.33c0-174.49-141.45-315.93-315.94-315.93V14.63h486.27Z"/>
  <path class="cls-4" d="M1035.24,14.63v170.33c-174.49,0-315.93,141.44-315.93,315.93h-170.33V14.63h486.26Z"/>
  <path class="cls-1" d="M500.91,535.59v710.17h-94.78c0-216.21-175.28-391.48-391.49-391.48v-318.69h486.27Z"/>
  <path class="cls-2" d="M330.58,500.89H14.64V184.96c174.49,0,315.94,141.44,315.94,315.93Z"/>
  <path class="cls-5" d="M406.13,1245.76H14.64v-391.48c216.21,0,391.49,175.27,391.49,391.48Z"/>
  <path class="cls-6" d="M1035.24,184.96v315.93h-315.93c0-174.49,141.44-315.93,315.93-315.93Z"/>
  <path class="cls-4" d="M1035.24,535.59v113.83c-79.71,0-149.69,41.66-189.36,104.37-21.88,34.58-34.54,75.58-34.54,119.53h-262.36v-337.73h486.26Z"/>
  <path class="cls-6" d="M1035.24,649.42v223.9h-223.9c0-43.95,12.66-84.95,34.54-119.53,39.68-62.72,109.66-104.37,189.36-104.37Z"/>
  <path class="cls-2" d="M1035.24,908.04v113.83c-46,0-88.77,13.88-124.35,37.69-60.03,40.15-99.56,108.57-99.56,186.2h-262.36v-337.72h486.26Z"/>
  <path class="cls-5" d="M1035.24,1021.87v223.89h-223.9c0-77.63,39.53-146.05,99.56-186.2,35.58-23.81,78.35-37.69,124.35-37.69Z"/>
</svg>