<?xml version="1.0" encoding="UTF-8"?>
<svg id="Livello_1" data-name="Livello 1" xmlns="http://www.w3.org/2000/svg" viewBox="0 0 927 862.88">
  <defs>
    <style>
      .cls-1, .cls-2, .cls-3, .cls-4, .cls-5, .cls-6, .cls-7, .cls-8, .cls-9, .cls-10, .cls-11 {
        stroke: #2f3534;
        stroke-width: 9px;
      }

      .cls-1, .cls-6, .cls-7 {
        stroke-linejoin: round;
      }

      .cls-1, .cls-8 {
        fill: none;
      }

      .cls-2, .cls-3, .cls-4, .cls-5, .cls-8, .cls-9, .cls-10, .cls-11 {
        stroke-miterlimit: 10;
      }

      .cls-2, .cls-4 {
        fill: #62a96a;
      }

      .cls-3, .cls-6 {
        fill: #5b9cd5;
      }

      .cls-12 {
        fill: #f4c328;
      }

      .cls-13 {
        fill: #fff;
      }

      .cls-4, .cls-5, .cls-8, .cls-9 {
        stroke-linecap: round;
      }

      .cls-5, .cls-10 {
        fill: #f6c429;
      }

      .cls-14 {
        fill: #2f3534;
      }

      .cls-7, .cls-9, .cls-11 {
        fill: #dc5726;
      }
    </style>
  </defs>
  <g>
    <path class="cls-13" d="M191.28,294.21c-21,0-40.89,8.3-55.64,22.54-14.73-14.24-34.63-22.54-55.63-22.54-44.12,0-80.02,35.9-80.02,80.02,0,1.3.03,2.61.1,3.91l.04.61c.06,1.05.14,2.13.25,3.27.02.22.11,1.09.11,1.09.09.82.2,1.66.32,2.53l.23,1.52c.13.74.26,1.5.41,2.27.08.45.17.9.27,1.35.04.21.09.45.15.71.09.4.25,1.11.47,2.01,0,0,.48,1.84.54,2.07l2.13,6.65c10.09,27.54,36.02,58.9,37.16,60.28,9,10.83,22.59,27.19,44.07,46.5,12.41,11.16,25.59,21.64,39.21,31.16.36.29.73.57,1.11.82,1.96,1.41,3.92,2.82,5.89,4.24,2.21,1.59,5.21,1.55,7.37-.12,4.03-3.1,8.05-6.19,12.08-9.29,13.57-9.86,24.62-19.16,33.12-26.81,5.01-4.51,11.07-10.18,17.69-16.93,11.68-11.9,20.13-22.06,26.38-29.57,1.19-1.43,28.85-34.89,38.13-63.05l1.17-2.3v-1.6c.06-.23.12-.45.18-.67.12-.46.23-.9.34-1.35.37-1.44.56-2.41.59-2.51v-.07c.1-.37.17-.74.24-1.11l.04-.22c.16-.84.32-1.67.44-2.48.06-.35.12-.69.17-1.05l.07-.46c.12-.87.23-1.7.32-2.53l.03-.21s.07-.66.09-.89c.11-1.14.19-2.22.25-3.17l.05-.88c.05-1.27.08-2.46.09-3.55v-.19c0-44.12-35.89-80.02-80.02-80.02Z"/>
    <path class="cls-13" d="M804.75,733.46c28.01-11.07,47.88-38.4,47.88-70.29,0-41.67-33.9-75.58-75.57-75.58s-75.58,33.91-75.58,75.58c0,31.9,19.88,59.22,47.89,70.29-20.42,5.02-39.21,15.57-54.57,30.93-22.1,22.1-34.27,51.32-34.27,82.26v16.08h233.07v-16.08c0-30.95-12.17-60.16-34.27-82.26-15.36-15.36-34.15-25.91-54.57-30.93Z"/>
    <path class="cls-13" d="M699.61,288.21c-22.08,0-40.04,17.96-40.04,40.03v181.57c0,22.08,17.96,40.04,40.04,40.04h154.91c22.07,0,40.03-17.96,40.03-40.04v-144.58l-77.01-77.01h-117.93Z"/>
    <path class="cls-13" d="M837.62,0h-121.1c-49.29,0-89.39,40.1-89.39,89.38v48.1c0,19.6,6.23,38.2,18.01,53.8,8.91,11.8,20.77,21.28,34.14,27.44v24.73c0,7.52,2.99,14.46,8.43,19.54,5.02,4.69,11.57,7.27,18.43,7.27h0c7.09,0,13.79-2.79,18.86-7.87l35.54-35.54h77.07c49.28,0,89.38-40.1,89.38-89.38v-48.1c0-49.28-40.1-89.38-89.38-89.38Z"/>
    <path class="cls-13" d="M244.81,668.46h-47.23c-2.32,0-4.55.35-6.66.99,7.48-5.48,14.87-10.93,21.67-15.97,3.29,5.63,9.12,9.67,16.05,10.41.92.11,1.68.12,2.26.12,11,0,20.07-8.26,21.1-19.26l2.89-31.52c.08-.79.08-1.45.07-1.95,0-.53,0-1.2-.09-2-.05-.55-.13-1.1-.23-1.66-.11-.66-.25-1.3-.41-1.92l-.08-.29-.09-.29c-.16-.5-.34-1.01-.53-1.51l-.06-.15c-.18-.47-.41-1.04-.76-1.73l-.12-.23-.12-.23c-.2-.37-.43-.75-.67-1.14-.18-.31-.38-.63-.59-.94l-.83-1.23-.59-.6c-.4-.46-.78-.83-1.08-1.13-.38-.38-.77-.74-1.18-1.09-.67-.58-1.27-1.01-1.75-1.33-.52-.37-1.04-.7-1.58-1.01l-.41-.23-.42-.21c-.17-.08-.33-.16-.51-.24l-.46-.23-.67-.27c-.45-.18-.89-.35-1.35-.5l-.32-.1c-.66-.2-1.21-.33-1.64-.42-.31-.07-.62-.14-.93-.2l-1.36-.32h-1.25l-30.6-2.55c-.59-.05-1.2-.08-1.79-.08-11.09,0-20.17,8.34-21.1,19.41-.43,5.08.94,10.03,3.88,14.12-20.79,15.39-46.8,34.43-63.76,46.12-32.79,22.63-100.48,63.49-101.2,63.93-4.83,2.93-8.24,7.55-9.6,13.03-1.37,5.51-.5,11.22,2.41,16.02,1.65,2.75,3.91,5.05,6.53,6.78-9.45,2.93-16.33,11.75-16.33,22.14v50.7c0,12.79,10.4,23.19,23.19,23.19h47.22c7.96,0,14.99-4.03,19.17-10.16,4.18,6.13,11.21,10.16,19.17,10.16h47.22c7.96,0,14.99-4.03,19.17-10.16,4.18,6.12,11.2,10.16,19.16,10.16h47.23c12.79,0,23.19-10.4,23.19-23.19v-148.06c0-12.78-10.4-23.18-23.19-23.18ZM174.41,691.64v34.93c-4.07-3.52-9.36-5.67-15.15-5.67h-42.33c10.61-6.81,20.6-13.37,28.64-18.91,9.15-6.31,20.82-14.67,32.93-23.47-2.58,3.73-4.09,8.25-4.09,13.12ZM88.85,744.09v27.39c-4.07-3.52-9.36-5.67-15.15-5.67h-29.04c9.02-5.47,26.3-16.01,44.99-27.68-.51,1.9-.8,3.89-.8,5.95Z"/>
    <path class="cls-13" d="M135.65,259.86c68.78,0,124.74-55.95,124.74-124.73S204.43,10.41,135.65,10.41,10.92,66.36,10.92,135.13s55.95,124.73,124.73,124.73Z"/>
    <path class="cls-13" d="M401.94,219.41c6.56,6.56,15.3,10.18,24.59,10.18s18.02-3.62,24.58-10.18l119.37-119.37c6.57-6.57,10.19-15.31,10.19-24.59,0-19.17-15.6-34.76-34.77-34.76-9.29,0-18.03,3.61-24.59,10.18l-94.78,94.79-30.47-30.47c-6.56-6.57-15.3-10.18-24.58-10.18-19.17,0-34.77,15.6-34.77,34.77,0,9.29,3.62,18.02,10.18,24.58l55.05,55.05Z"/>
    <path class="cls-13" d="M533.87,457.78c-4.55-4.84-10.97-7.61-17.62-7.61-1.37,0-2.72.13-4.05.36,30.84-39.53,29.11-96.89-6.31-134.48-19.45-20.64-46.89-32.48-75.26-32.48-26.45,0-51.63,9.99-70.88,28.14-41.49,39.1-43.44,104.67-4.34,146.16,19.45,20.64,46.89,32.48,75.26,32.48,21.15,0,41.47-6.4,58.61-18.24-1.76,7.63.18,15.97,5.94,22.07l49.7,52.75c4.55,4.82,10.97,7.59,17.6,7.59,6.2,0,12.09-2.34,16.57-6.58l3.45-3.24c9.67-9.13,10.13-24.46,1-34.2l-49.68-52.71Z"/>
    <path class="cls-13" d="M486.39,733.46c28.01-11.07,47.88-38.4,47.88-70.29,0-41.67-33.9-75.58-75.57-75.58s-75.58,33.91-75.58,75.58c0,31.9,19.88,59.22,47.89,70.29-20.42,5.02-39.21,15.57-54.57,30.93-22.1,22.1-34.27,51.32-34.27,82.26v16.08h233.07v-16.08c0-30.95-12.17-60.16-34.27-82.26-15.36-15.36-34.15-25.91-54.57-30.93Z"/>
  </g>
  <g>
    <circle class="cls-10" cx="135.65" cy="135.13" r="108.65"/>
    <path class="cls-2" d="M564.59,75.45c0-10.32-8.37-18.69-18.69-18.69-5.16,0-9.83,2.09-13.22,5.47l-106.16,106.16-41.84-41.84c-3.38-3.38-8.05-5.47-13.21-5.47-10.32,0-18.69,8.37-18.69,18.69,0,5.16,2.09,9.83,5.47,13.21l55.05,55.05c3.38,3.38,8.05,5.47,13.21,5.47s9.83-2.09,13.21-5.47l119.37-119.37c3.38-3.38,5.47-8.05,5.47-13.21Z"/>
    <g>
      <path class="cls-3" d="M837.62,16.08h-121.11c-40.48,0-73.3,32.82-73.3,73.3v48.1c0,33.13,21.98,61.11,52.15,70.19v35.79c0,9.54,11.53,14.31,18.28,7.57l40.25-40.25h83.73c40.48,0,73.3-32.82,73.3-73.3v-48.1c0-40.48-32.82-73.3-73.3-73.3Z"/>
      <g>
        <path class="cls-12" d="M836.41,118.05c-3.72,0-6.75-3.03-6.75-6.75s3.03-6.75,6.75-6.75,6.75,3.03,6.75,6.75-3.03,6.75-6.75,6.75Z"/>
        <path class="cls-14" d="M836.41,110.56c.41,0,.75.34.75.75s-.34.75-.75.75-.75-.34-.75-.75.34-.75.75-.75M836.41,98.56c-7.04,0-12.75,5.71-12.75,12.75s5.71,12.75,12.75,12.75,12.75-5.71,12.75-12.75-5.71-12.75-12.75-12.75h0Z"/>
      </g>
      <g>
        <path class="cls-12" d="M775.9,118.05c-3.72,0-6.75-3.03-6.75-6.75s3.03-6.75,6.75-6.75,6.75,3.03,6.75,6.75-3.03,6.75-6.75,6.75Z"/>
        <path class="cls-14" d="M775.9,110.56c.41,0,.75.34.75.75s-.34.75-.75.75-.75-.34-.75-.75.34-.75.75-.75M775.9,98.56c-7.04,0-12.75,5.71-12.75,12.75s5.71,12.75,12.75,12.75,12.75-5.71,12.75-12.75-5.71-12.75-12.75-12.75h0Z"/>
      </g>
      <g>
        <path class="cls-12" d="M715.97,118.25c-3.72,0-6.75-3.03-6.75-6.75s3.03-6.75,6.75-6.75,6.75,3.03,6.75,6.75-3.03,6.75-6.75,6.75Z"/>
        <path class="cls-14" d="M715.97,110.75c.41,0,.75.34.75.75s-.34.75-.75.75-.75-.34-.75-.75.34-.75.75-.75M715.97,98.75c-7.04,0-12.75,5.71-12.75,12.75s5.71,12.75,12.75,12.75,12.75-5.71,12.75-12.75-5.71-12.75-12.75-12.75h0Z"/>
      </g>
    </g>
    <path class="cls-7" d="M191.28,310.29c-23.85,0-44.64,13.07-55.63,32.43-10.99-19.36-31.78-32.43-55.63-32.43-35.31,0-63.93,28.62-63.93,63.93,0,.96.03,2,.08,3.09,0,.19.02.38.03.57.05.84.11,1.72.2,2.63.03.26.06.52.09.78.08.69.17,1.4.27,2.12.05.36.11.71.16,1.07.11.67.23,1.35.37,2.04.07.34.13.68.2,1.02.02.11.04.22.07.34,0,0,.15.71.42,1.76.09.38.19.76.29,1.13.19.73.42,1.53.67,2.34.02.05.03.1.05.15,0,.01,0,.02,0,.03,7.96,25.71,35.58,58.91,35.58,58.91,9.43,11.34,22.3,26.7,42.46,44.83,14.47,13.02,27.81,23.07,38.44,30.46,0,0,.13.18.19.13.06.04.13.09.19.13v-.27c10.63-7.39,23.97-17.45,38.44-30.46,20.15-18.13,33.03-33.49,42.46-44.83,0,0,27.61-33.2,35.58-58.91,0-.01,0-.02,0-.03.02-.05.03-.1.05-.15.25-.82.47-1.62.67-2.34.1-.38.2-.75.29-1.13.26-1.05.42-1.76.42-1.76.02-.11.04-.22.07-.34.07-.34.14-.68.2-1.02.13-.69.26-1.38.37-2.04.06-.36.11-.71.16-1.07.1-.73.19-1.43.27-2.12.03-.26.06-.52.09-.78.09-.91.15-1.78.2-2.63.01-.19.02-.38.03-.57.05-1.1.08-2.13.08-3.09,0-35.31-28.62-63.93-63.93-63.93Z"/>
    <g>
      <circle class="cls-1" cx="430.65" cy="386.95" r="87.31"/>
      <rect class="cls-6" x="528.92" y="458" width="20.92" height="88.68" rx="7.15" ry="7.15" transform="translate(-197.67 506.69) rotate(-43.3)"/>
      <line class="cls-1" x1="490.53" y1="450.49" x2="508.98" y2="470.07"/>
    </g>
    <g>
      <path class="cls-6" d="M878.47,373.44v136.37c0,13.23-10.71,23.96-23.94,23.96h-154.91c-13.23,0-23.96-10.72-23.96-23.96v-181.57c0-13.22,10.72-23.94,23.96-23.94h108.94v48.98c0,11.14,9.02,20.17,20.17,20.17h49.75Z"/>
      <path class="cls-6" d="M878.47,371.89v1.55h-49.75c-11.14,0-20.17-9.02-20.17-20.17v-48.98h2.33l67.59,67.59Z"/>
      <line class="cls-8" x1="720.76" y1="397.98" x2="787.98" y2="397.98"/>
      <line class="cls-8" x1="720.76" y1="433.03" x2="834.62" y2="433.03"/>
      <line class="cls-8" x1="720.76" y1="468.09" x2="834.62" y2="468.09"/>
    </g>
    <g>
      <rect class="cls-4" x="19.39" y="781.89" width="61.42" height="64.9" rx="6.26" ry="6.26"/>
      <rect class="cls-5" x="104.94" y="736.99" width="61.42" height="109.81" rx="6.26" ry="6.26"/>
      <rect class="cls-9" x="190.49" y="684.54" width="61.42" height="162.25" rx="6.26" ry="6.26"/>
      <path class="cls-14" d="M238.87,610.83c-.01-.15-.04-.3-.07-.45-.03-.18-.06-.35-.11-.52-.04-.15-.1-.3-.16-.45-.06-.16-.12-.32-.2-.48-.08-.16-.18-.3-.27-.45-.07-.1-.11-.21-.19-.31-.03-.04-.06-.06-.09-.1-.03-.04-.05-.08-.08-.11-.08-.1-.19-.18-.28-.27-.12-.12-.23-.25-.36-.35-.12-.1-.25-.19-.38-.28-.15-.1-.29-.2-.44-.29-.13-.07-.28-.13-.42-.19-.16-.07-.32-.14-.49-.2-.15-.05-.3-.08-.45-.11-.17-.04-.34-.08-.52-.1-.05,0-.09-.02-.14-.03l-31.29-2.61c-2.81-.24-5.28,1.85-5.51,4.66s1.85,5.28,4.66,5.51l17.89,1.49c-20.25,15.13-64.26,47.84-89.33,65.13-33.1,22.82-101.33,64.03-102.02,64.44-2.41,1.46-3.19,4.6-1.73,7.01.96,1.59,2.65,2.47,4.38,2.47.9,0,1.81-.24,2.63-.74.69-.41,69.19-41.78,102.54-64.78,25.87-17.84,71.7-51.94,91.21-66.53l-1.85,20.14c-.26,2.81,1.81,5.29,4.62,5.55.16.01.32.02.47.02,2.61,0,4.84-1.99,5.08-4.64l2.9-31.58c.01-.11,0-.22,0-.33,0-.18.01-.36,0-.54Z"/>
    </g>
    <g>
      <circle class="cls-10" cx="458.7" cy="663.16" r="59.49"/>
      <path class="cls-10" d="M559.15,846.65c0-55.11-45.35-100.45-100.45-100.45s-100.45,45.35-100.45,100.45h200.91Z"/>
    </g>
    <g>
      <circle class="cls-10" cx="777.06" cy="663.16" r="59.49"/>
      <path class="cls-11" d="M877.51,846.65c0-55.11-45.35-100.45-100.45-100.45s-100.45,45.35-100.45,100.45h200.91Z"/>
    </g>
  </g>
</svg>