<?xml version="1.0" encoding="UTF-8"?>
<svg id="Livello_1" xmlns="http://www.w3.org/2000/svg" version="1.1" viewBox="0 0 574.1 465.2">
  <!-- Generator: Adobe Illustrator 29.0.1, SVG Export Plug-In . SVG Version: 2.1.0 Build 192)  -->
  <defs>
    <style>
      .st0 {
        fill: #79afff;
      }

      .st0, .st1, .st2 {
        stroke: #2785ff;
        stroke-miterlimit: 10;
        stroke-width: 1.5px;
      }

      .st3 {
        fill: #d5985c;
      }

      .st4 {
        fill: #3a89ff;
      }

      .st5 {
        fill: #fde8a5;
      }

      .st6 {
        fill: #837e7c;
      }

      .st7 {
        fill: #fff;
      }

      .st1 {
        fill: none;
      }

      .st8 {
        fill: #9c9e9c;
      }

      .st9 {
        fill: #2f2f2f;
      }

      .st10 {
        fill: #fffcf7;
      }

      .st11 {
        fill: #42362e;
      }

      .st12 {
        fill: #e9a962;
      }

      .st13 {
        fill: #f9be73;
      }

      .st2 {
        fill: #9dc9ff;
      }

      .st14 {
        fill: #424042;
      }

      .st15 {
        fill: #2866d8;
      }

      .st16 {
        fill: #fffdf7;
      }

      .st17 {
        fill: #4c3424;
      }

      .st18 {
        fill: #67686c;
      }

      .st19 {
        fill: #ffde30;
      }

      .st20 {
        fill: #ed6743;
      }

      .st21 {
        fill: #b37660;
      }

      .st22 {
        fill: #523826;
      }

      .st23 {
        fill: #f2b68f;
      }

      .st24 {
        fill: #3d3d3d;
      }

      .st25 {
        fill: #b5b6b6;
      }
    </style>
  </defs>
  <g>
    <g>
      <rect class="st7" x="34.9" y="28.1" width="207.6" height="181.6"/>
      <path class="st7" d="M247.6,214.7H29.9V23.1h217.6v191.6ZM39.9,204.7h197.6V33.1H39.9v171.6Z"/>
    </g>
    <g>
      <path class="st7" d="M518.1,243.6c-9.5-41.6-22.4-52.1-59.5-69.7-15.1-7.2-31.2-14.4-47.3-19.1-.2-2.8-1.1-6.1-1-8.4.3-4.7,5.6-11.7,5.1-17.4,15.3-3.6,24.4-14.2,19.5-30.3-1.3-4.3-6.4-10.3-6.7-13.7-.4-5.2,3-15.4,3-21.5,0-10.2-3.4-22.1-9.6-30.3-14.9-19.7-26-26.7-51.3-28-4.7-.3-10.2-.2-15,0-13,.5-39.1,3.9-47.4,15-8.4,11.3-5,31.2.6,43.2.7,1.5.5,3.1,2.8,2.6-.4,4.3-2.5,9.3-2,14-3,.2-7,.8-8.5,4-1,2.2-.9,20.4,0,23,1.4,4.2,5.1,3.7,8.5,3.9.4,23.2,9.6,52.6,33.9,60.4,3.9,1.2,8,1.6,12,2.5-20.3,7.9-42.2,18-55.3,36-7.1,9.7-12.9,23-17.8,34.1-10.7,24.3-19.1,49.7-27.7,74.8l-8,1.7c-6.4-21.4-11.7-43.4-18.7-64.6-.9-2.8-2.2-9.2-5-10H55.6c-2.2.8-3.1,2.8-2.5,5l39.8,133.5c-.2,0-1.6,1.1-3.4,1.1-28.2,0-56.3-.2-84.5,0v25.9c11.6,0,23.3,0,34.9,0l-5,48.9h25c-.3-14.9,4.5-31.3,4-45.9l2.4-3.1h242.1c0,5.7-1.9,10.4,0,16-33.5,3.5-74.3,11-100.8,32.4,31.2.9,62.6.5,93.8.5,1,0,2,0,3,0,31.6,0,63.2,0,94.8,0,8.3,0,16.7,0,25,0,23.9,0,47.9,0,71.9,0,2.3,0,4.7,0,7,0,8,0,16,0,24,0,4.4,0,17.3.9,20.3-.1,1.6-.5,1.8-2.5,2.2-3.8,6.1-21.1,8.8-50.2,11.4-72.4,3-25.5,6.6-54.4,8-79.8,1.9-34.9-16.1-56.6-50.9-60.4Z"/>
      <path class="st7" d="M541.2,465.5c-2.4,0-5.3,0-8.6-.2-2.2,0-4.3-.2-5.5-.1-4.6,0-9.3,0-13.8,0-3.4,0-6.8,0-10.2,0-1.2,0-2.5,0-3.7,0-1.1,0-2.2,0-3.3,0-14.1,0-28.5,0-42.4,0-9.8,0-19.7,0-29.5,0-4.2,0-8.5,0-12.8,0-4.1,0-8.1,0-12.2,0-29.5,0-60.5,0-94.8,0h-3c-8.1,0-16.1,0-24.2,0-22.9,0-46.5.1-69.8-.5l-13.5-.4,10.5-8.5c27.3-22.1,68-29.5,98.1-32.9,0-2.4.2-4.5.4-6.6H68.9c0,7.2-1,14.7-2.1,22.1-1,7.3-2.1,14.9-2,21.7v5.1c0,0-35.5,0-35.5,0l5-48.9c-4.3,0-8.6,0-12.8,0-5.5,0-11.1,0-16.6,0H0v-35.9h5c16.1,0,32.4,0,48.2,0,11.1,0,22.2,0,33.3,0l-38.2-128.2c-1.3-4.8,1-9.3,5.6-11l.8-.3h168.9s.7.2.7.2c4.9,1.5,6.6,7.4,7.8,11.7.2.6.3,1.1.5,1.6,4.3,12.9,7.9,26.3,11.5,39.2,1.9,7,3.9,14.1,5.9,21.2l.7-.2,1.8-5.2c7.6-22.3,15.6-45.4,25.2-67.3v-.3c5-11,11-24.7,18.3-34.8,10.6-14.7,26.4-24.3,43.1-31.8-23.4-9.2-33.1-36.5-34.5-59.5-3.1-.5-6.9-2.1-8.5-7-1.1-3.3-1.4-22.9.3-26.6,1.7-3.8,5.1-5.5,8.1-6.2.2-2,.7-3.9,1.1-5.7,0-.4.2-.7.2-1-.6-.7-1.2-1.7-1.6-3,0-.1,0-.3-.2-.4-6.6-14.3-9.5-35.6,0-48.3C314.6,3,345.8.6,355.2.2c3.2-.1,9.6-.3,15.5,0,25.9,1.4,38.8,8.4,55,30,6.6,8.7,10.6,21.5,10.6,33.3,0,3.4-.9,7.5-1.7,11.5-.7,3.5-1.5,7.6-1.4,9.6.2.8,1.7,3.4,2.6,5,1.5,2.5,3.1,5.2,3.9,7.8,2.5,8.3,1.9,16.1-1.7,22.4-3.5,6.1-9.7,10.6-17.9,13.3-.6,2.9-1.8,5.8-2.9,8.4-.9,2-1.9,4.3-1.9,5.5,0,.7.2,2.2.4,3.4,0,.2,0,.5.1.8,15.2,4.7,30.5,11.6,44.9,18.4,36.1,17.1,51.3,27.9,61.5,69.7,35,5.1,53.8,28.7,51.8,65.1-1.2,22.8-4.3,48.8-7,71.8l-1,8.4c-.4,3-.7,6.1-1.1,9.4-2.4,21.2-5.1,45.2-10.5,63.8,0,.2,0,.3-.1.5-.4,1.6-1.3,5.3-5.2,6.6-1.6.6-4.3.7-7.8.7ZM527.4,455.2c1.4,0,3.3,0,5.5.1,3,.1,8.8.3,11.6.1,0-.2.1-.4.2-.6,5.2-17.8,7.9-41.4,10.2-62.2.4-3.2.7-6.4,1.1-9.4l1-8.4c2.7-22.8,5.7-48.6,7-71.1,1.8-32.6-14.3-51.6-46.4-55.1l-3.5-.4-.8-3.5c-8.9-38.9-19.5-48.6-56.8-66.3-15-7.1-30.9-14.3-46.5-18.8l-3.4-1-.2-3.5c0-.9-.2-2.1-.4-3.2-.3-1.9-.6-3.9-.5-5.8.2-2.9,1.4-5.8,2.7-8.8,1.2-2.8,2.6-5.9,2.4-7.9l-.4-4.3,4.2-1c7.2-1.7,12.5-5,15.1-9.5,2.3-3.9,2.5-8.8.8-14.5-.4-1.4-1.7-3.6-2.9-5.5-1.9-3.2-3.8-6.3-4-9.3-.3-3.4.6-7.8,1.5-12.4.7-3.5,1.5-7.1,1.5-9.5,0-9.6-3.4-20.3-8.6-27.3-14.5-19.2-24.7-24.8-47.6-26-5.5-.3-11.4-.1-14.5,0-17.4.7-37.6,5-43.5,13-6.5,8.8-4.5,25.7.8,37.5l4.2-.8-.6,6.7c-.2,1.9-.6,3.9-1.1,5.7-.6,2.6-1.2,5.1-.9,7.2l.6,5.1-5.2.4c-3.1.3-4,.7-4.2,1-.5,3.3-.5,16.9,0,19.6,0,0,0,0,0,0,.5.2,1.7.2,2.6.2.5,0,1,0,1.5,0l4.6.3v4.6c.4,21.3,8.6,48.7,30.5,55.7,2.1.7,4.4,1.1,6.8,1.5,1.5.3,3.1.5,4.7.9l16,3.6-15.3,6c-20.4,7.9-40.9,17.6-53.1,34.3-6.7,9.2-12.4,22.3-17.1,32.9v.3c-9.6,21.6-17.5,44.4-25,66.5l-3.6,10.6-15.3,3.2-1.3-4.4c-2.6-8.5-5-17.3-7.3-25.8-3.5-12.8-7.2-26-11.4-38.7-.2-.5-.4-1.2-.6-1.9-.3-1.1-1-3.4-1.6-4.6H58.3s41.2,138.5,41.2,138.5h-5.5c-1.1.5-2.6,1.1-4.5,1.1-12.1,0-24.2,0-36.3,0-14.2,0-28.8,0-43.2,0v16c3.8,0,7.7,0,11.5,0,6,0,12.3,0,18.4,0h5.5s-5,48.9-5,48.9h14.5c.3-6.1,1.1-12.2,2-18.2,1.1-8,2.2-15.5,1.9-22.5v-1.8c0,0,5-6.4,5-6.4h249.6c0,0,0,5.1,0,5.1,0,2.2-.3,4.2-.5,6-.4,3.1-.7,5.6.2,8.3l2,5.9-6.3.7c-25,2.6-59.4,7.8-85.6,22.8,18,.3,36.2.2,53.9.2,8.1,0,16.2,0,24.2,0h3c34.4,0,65.4,0,94.8,0,4.1,0,8.1,0,12.2,0,4.3,0,8.5,0,12.7,0,9.8,0,19.7,0,29.5,0,13.9,0,28.2,0,42.4,0,1.1,0,2.2,0,3.3,0,1.2,0,2.4,0,3.7,0,3.4,0,6.8,0,10.3,0,4.5,0,9.1,0,13.7,0,.1,0,.3,0,.4,0ZM305.8,105.7h0Z"/>
    </g>
  </g>
  <path class="st24" d="M517.7,243.7l11.7,2.3c25,5,42.2,28,40,53.3-4.6,53.6-12.9,139.2-20.9,161.5h-52.2l21.4-217.2h0Z"/>
  <g>
    <rect class="st25" x="34.4" y="27.9" width="208.1" height="182"/>
    <rect class="st16" x="77.6" y="35.6" width="158" height="166.7"/>
    <rect class="st1" x="110.5" y="63.2" width="92.2" height="111.6"/>
    <rect class="st2" x="106.1" y="59" width="8.3" height="8.3" rx="1.5" ry="1.5"/>
    <rect class="st0" x="152.4" y="59" width="8.3" height="8.3" rx="1.5" ry="1.5"/>
    <rect class="st2" x="198.5" y="59" width="8.3" height="8.3" rx="1.5" ry="1.5"/>
    <rect class="st2" x="106.1" y="170.6" width="8.3" height="8.3" rx="1.5" ry="1.5"/>
    <rect class="st0" x="152.4" y="170.6" width="8.3" height="8.3" rx="1.5" ry="1.5"/>
    <rect class="st2" x="198.5" y="170.6" width="8.3" height="8.3" rx="1.5" ry="1.5"/>
    <rect class="st0" x="106.1" y="114.8" width="8.3" height="8.3" rx="1.5" ry="1.5"/>
    <rect class="st0" x="198.5" y="114.8" width="8.3" height="8.3" rx="1.5" ry="1.5"/>
    <rect class="st8" x="41.5" y="35.6" width="23.5" height="23.5"/>
    <rect class="st8" x="41.5" y="74.1" width="23.5" height="9.7"/>
    <rect class="st8" x="41.5" y="93.3" width="23.5" height="9.7"/>
    <rect class="st8" x="41.5" y="112.4" width="23.5" height="9.7"/>
    <rect class="st10" x="46.7" y="40.7" width="13.2" height="13.2"/>
    <path class="st5" d="M187.7,81.3v13.1l-32.7,32.7h0c-7.6-7.6-18-12.2-29.5-12.2v-33.6s62.2,0,62.2,0Z"/>
    <path class="st20" d="M167.2,156.6h-41.7v-41.7c11.5,0,21.9,4.7,29.5,12.2h0c7.5,7.5,12.2,18,12.2,29.5Z"/>
    <path class="st19" d="M187.7,94.4v62.2h-20.5c0-11.5-4.7-21.9-12.2-29.5,0,0,32.7-32.7,32.7-32.7Z"/>
  </g>
  <g>
    <polygon class="st7" points="344.7 406.3 348.7 426.7 398.2 426.7 395.9 405 344.7 406.3"/>
    <path class="st4" d="M357.8,173.7s-39.5,11.7-57.4,36.2c-17.8,24.5-46.2,110.3-46.2,110.3l-13,2,16.1,51.6h97l47.2,11.9h99.6c23.7,0,41.4-21.8,36.6-45l-22-106.6c-4.7-22.9-19.9-42.2-41-52.2-24.7-11.7-55.3-25.7-63.1-27.2l-53.8,18.9h0Z"/>
    <path class="st4" d="M309.6,407.1s-2.6,8.2-1,21.2l40.1-1.5-4.6-23.2-34.5,3.6h0Z"/>
    <path class="st4" d="M417.1,407.3l5,28.1s53.6,10.6,79.4,8.3v-36.5h-84.4Z"/>
    <path class="st7" d="M357.8,173.7s-21.6,98.4-6.3,211.8l50.1.3c-1-10.3-2.1-24.2-2.9-40.7-1.2-24.1-2.1-43.9-.7-68.8,1-17.7,4.5-42.6,11.4-92.3.5-3.4.9-6.2,1.1-8-17.6-.8-35.1-1.6-52.7-2.3h0Z"/>
    <path class="st23" d="M309.1,41.5l1.8,25.8s-18.1,104.3,46.9,106.5c0,0-2,5.8-1.7,14s10.5,13.8,22.5,13.3,39.9-4.3,31.8-55.4c0,0,5.1-10.5,5-16.2,0,0,38.3-9.4,12.4-43.7l-3.3-11.9-24.6-8.7-9.5-28.9-48.6,10.6-32.7-5.4h0Z"/>
    <path class="st17" d="M310.9,67.2s-21.6-41.9,7.7-54.4,83.2-13.4,97.1,14.2c0,0,23.9,15.3,12.1,58.6,0,0-10-7.3-24.1,12.5,0,0-5-12.1-3.7-26.4,0,0-13.7-12.3-12.1-32.3,0,0-40.3,19.5-75.6,9.6l-1.4,18.3h0Z"/>
    <path class="st9" d="M352.5,145.5c-4,0-8-.8-11.8-2.3-.5-.2-.8-.8-.5-1.3.2-.5.8-.8,1.3-.6,4,1.6,8.3,2.3,12.6,2.1,6.5-.4,11.5-2.8,14.6-4.8.5-.3,1.1-.2,1.4.3s.2,1.1-.3,1.4c-3.2,2.1-8.6,4.8-15.6,5.1h-1.7Z"/>
    <path class="st17" d="M314.7,76.9s.7-4.4,8.2-4.8,11.5.3,11.2,2.4-7.3.9-11.1,1.2-5.9.6-8.3,1.3h0Z"/>
    <path class="st17" d="M380.3,76.9s-.7-4.4-8.2-4.8-11.5.3-11.2,2.4,7.3.9,11.1,1.2,5.9.6,8.3,1.3h0Z"/>
    <path class="st11" d="M326.6,92.1c-1-.9-2.3-1.4-3.7-1.4-3.1,0-5.5,2.5-5.5,5.6s2.5,5.6,5.5,5.6,4.2-1.3,5-3.2c.3-.7.5-1.5.5-2.3,0-1.7-.7-3.1-1.9-4.1v-.2Z"/>
    <path class="st11" d="M370.1,92.1c-1-.9-2.3-1.4-3.7-1.4-3.1,0-5.5,2.5-5.5,5.6s2.5,5.6,5.5,5.6,4.2-1.3,5-3.2c.3-.7.5-1.5.5-2.3,0-1.7-.7-3.1-1.9-4.1v-.2Z"/>
    <path class="st9" d="M343.9,128.3c-2.4,0-3.8-.2-5.2-.8-1.1-.4-3-1.2-4.2-3.1-.6-1-1-2.4-1-4s.5-3.8,1.3-5.9l.3-.8c1.1-3.1,2-5.7,2.5-8.4.3-1.9.4-3.8.2-5.8,0-.6.4-1,.9-1.1.6,0,1,.4,1.1.9.2,2.1,0,4.2-.3,6.3-.5,2.9-1.5,5.6-2.6,8.8l-.3.8c-.8,2.1-1.2,3.3-1.2,5.2s.3,2.3.7,3c.9,1.4,2.3,1.9,3.2,2.3,1.6.6,3.2.7,7.3.6,2.4,0,4.9-.3,7.4-.5.6,0,1,.3,1.1.9s-.4,1-.9,1.1c-2.5.2-5,.4-7.5.5h-3,.2Z"/>
    <path class="st15" d="M308.6,246.5c-.5,0-1,.4-1,1v96c0,.5.5,1,1,1s1-.5,1-1v-96c0-.6-.5-1-1-1h0Z"/>
    <path class="st22" d="M384.5,80.3h-26.6c-3.6,0-6.5,2.9-6.5,6.5v3.4c-1.5-.7-3.5-1.3-5.8-1.3h0c-2.1,0-4,.5-5.4,1.1v-3.2c0-3.6-2.9-6.5-6.5-6.5h-26.6c-3.6,0-6.5,2.9-6.5,6.5v17.3c0,3.6,2.9,6.5,6.5,6.5h26.6c3.6,0,6.5-2.9,6.5-6.5v-10.7c1.2-.7,3.1-1.4,5.4-1.4h0c2.6,0,4.6.9,5.8,1.7v10.5c0,3.6,2.9,6.5,6.5,6.5h26.6c3.6,0,6.5-2.9,6.5-6.5v-17.3c0-3.6-2.9-6.5-6.5-6.5h0ZM337,104.1c0,1.9-1.6,3.5-3.5,3.5h-26.6c-1.9,0-3.5-1.6-3.5-3.5v-17.3c0-1.9,1.6-3.5,3.5-3.5h26.6c1.9,0,3.5,1.6,3.5,3.5,0,0,0,17.3,0,17.3ZM388,104.1c0,1.9-1.6,3.5-3.5,3.5h-26.6c-1.9,0-3.5-1.6-3.5-3.5v-17.3c0-1.9,1.6-3.5,3.5-3.5h26.6c1.9,0,3.5,1.6,3.5,3.5,0,0,0,17.3,0,17.3Z"/>
    <path class="st23" d="M393,385.8h-18.9c0-.1-32.6-9.9-32.6-9.9l-12.2-.8c6.4-6.8,11.2-11.5,13.8-13.8.7-.6,2.1-2,4.2-2.1,1.2-.1,2.4.2,3.7.9.5.3,1.1.1,1.4-.4s.1-1.1-.4-1.4c-1.6-.9-3.2-1.3-4.8-1.1-2.7.2-4.6,1.9-5.4,2.6-2.7,2.4-8,7.6-15,15.1l-12.5-.8c2.1-3.5,4.5-7,7.2-10.1,4.1-5,8.8-9.6,14-13.6.4-.3.5-1,.2-1.4s-1-.5-1.4-.2c-5.3,4.1-10.1,8.8-14.3,13.9-2.9,3.5-5.5,7.3-7.9,11.3l-13.8-.9c2.7-4.7,5.7-9.2,8.9-13.5,5-6.6,10.6-12.7,16.7-18.2.4-.4.5-1,0-1.4-.4-.4-1-.5-1.4,0-6.2,5.6-12,11.8-17,18.5-3.5,4.6-6.7,9.5-9.5,14.6l-12.1-.8s20.3-36.5,37.6-40.8c17.4-4.2,24.5,4.4,40.2,6.3s23,2,23,2c0,0,26,24.9,8.3,46.1h0Z"/>
    <path class="st21" d="M323.9,341.3c-6.1,5.5-11.8,11.7-16.7,18.2-3.2,4.3-6.2,8.8-8.9,13.5h-2.2c2.8-5.2,6-10.1,9.5-14.7,5-6.7,10.8-12.9,17-18.5.4-.4,1-.3,1.4,0,.4.4.3,1,0,1.4h0Z"/>
    <path class="st21" d="M335.4,350.3c-5.1,4-9.8,8.6-14,13.6-2.6,3.2-5,6.6-7.2,10.1h-2.2c2.3-4.1,5-7.9,7.9-11.4,4.2-5.1,9-9.8,14.3-13.9.4-.3,1.1-.3,1.4.2.3.4.3,1.1-.2,1.4h0Z"/>
    <path class="st21" d="M352.4,359.7c-.3.5-.9.6-1.4.4-1.2-.7-2.5-1-3.7-.9-2,.2-3.5,1.5-4.2,2.1-2.5,2.3-7.3,7-13.8,13.8l-2.6-.2c7-7.5,12.3-12.6,15-15.1.8-.7,2.6-2.4,5.4-2.6,1.6-.1,3.2.2,4.8,1.1.5.3.6.9.4,1.4h.1Z"/>
    <polygon class="st4" points="398.1 333 383.3 335.6 382.3 340.5 393 385.8 401.5 385.8 409.5 385.8 401.7 332.4 398.1 333"/>
    <path class="st15" d="M482.3,319.5l-13.5,2.1-18.1-75.3c-.1-.5-.7-.9-1.2-.7-.5.1-.9.7-.7,1.2l18,75.2-67.7,10.8c-.5,0-.9.6-.8,1.1,0,.5.5.8,1,.8s.1,0,.2,0l83.2-13.3c.5,0,.9-.6.8-1.1s-.6-.9-1.1-.8h-.1Z"/>
    <path class="st6" d="M497.3,444.1l-1.1,16.8h-191.8c7.9-4.8,16.1-8.9,24.7-12.3,14.4-5.6,29.6-9.1,45.2-10.4.5,0,1-.5.9-1.1,0-.5-.5-1-1.1-.9-15.7,1.3-31.1,4.8-45.7,10.5-9.6,3.8-19,8.5-27.7,14.1h-93.1s18.2-23.4,101-32.6c82.8-9.2,188.8,15.8,188.8,15.8h0Z"/>
    <path class="st18" d="M375.2,437.1c0,.6-.4,1-.9,1.1-15.5,1.2-30.7,4.8-45.2,10.4-8.5,3.4-16.8,7.5-24.7,12.3h-3.8c8.8-5.6,18.1-10.4,27.7-14.1,14.6-5.7,30-9.3,45.7-10.5.6,0,1,.4,1.1.9h0Z"/>
  </g>
  <g>
    <polygon class="st3" points="64.9 403.5 40.4 403.5 34.4 460.9 58.9 460.9 64.9 403.5"/>
    <polygon class="st3" points="394.3 403.5 418.8 403.5 424.8 460.9 400.3 460.9 394.3 403.5"/>
    <polygon class="st3" points="497.3 403.5 521.8 403.5 527.9 460.9 503.4 460.9 497.3 403.5"/>
    <rect class="st13" x="4.5" y="385.8" width="414.6" height="25.5"/>
    <rect class="st12" x="419.1" y="385.8" width="132.4" height="25.5"/>
  </g>
  <g>
    <path class="st9" d="M261.7,372.1l-36.4-123.4c-.4-1.4-1.7-2.4-3.2-2.4H56.1c-2.2,0-3.8,2.1-3.2,4.3l39.2,132.9c.4,1.4,1.7,2.4,3.2,2.4h253.5c7.6,0,13.7-6.1,13.7-13.7h-100.8Z"/>
    <path class="st14" d="M170.5,316c1.8,6.4-2.1,11.6-8.6,11.6s-13.2-5.2-15-11.6,2.1-11.6,8.6-11.6,13.2,5.2,15,11.6Z"/>
  </g>
</svg>