<?xml version="1.0" encoding="UTF-8"?>
<svg id="Livello_1" data-name="Livello 1" xmlns="http://www.w3.org/2000/svg" viewBox="0 0 1270.87 913.08">
  <defs>
    <style>
      .cls-1 {
        fill: #f69939;
      }

      .cls-1, .cls-2 {
        stroke: #e08033;
      }

      .cls-1, .cls-2, .cls-3 {
        stroke-linejoin: round;
        stroke-width: 5px;
      }

      .cls-4 {
        fill: #ff6e3b;
      }

      .cls-2 {
        fill: #e08033;
      }

      .cls-5 {
        fill: #328dff;
      }

      .cls-6 {
        fill: #3a89ff;
      }

      .cls-7, .cls-3 {
        fill: #93d0ff;
      }

      .cls-8 {
        fill: #deefff;
      }

      .cls-9 {
        fill: #fff;
      }

      .cls-10 {
        fill: #2f2f2f;
      }

      .cls-3 {
        stroke: #328dff;
      }

      .cls-11 {
        fill: #cfd1ce;
      }

      .cls-12 {
        fill: #42362e;
      }

      .cls-13 {
        fill: #dadedd;
      }

      .cls-14 {
        fill: #868686;
      }

      .cls-15 {
        fill: #2866d8;
      }

      .cls-16 {
        fill: #dddfde;
      }

      .cls-17 {
        fill: #4c3424;
      }

      .cls-18 {
        fill: #e3f3ff;
      }

      .cls-19 {
        fill: #b37660;
      }

      .cls-20 {
        fill: #b33f18;
      }

      .cls-21 {
        fill: #f46227;
      }

      .cls-22 {
        fill: #523826;
      }

      .cls-23 {
        fill: #fffffd;
      }

      .cls-24 {
        fill: #fffef9;
      }

      .cls-25 {
        fill: #f2b68f;
      }
    </style>
  </defs>
  <g>
    <path class="cls-9" d="M1268.82,720.5c-2.47-19.5-10.96-73.17-21.34-126.43-13.02-66.83-23.99-107.67-32.58-121.39-10.23-16.32-33.74-36.54-64.5-55.49-29.41-18.11-60.09-31.8-87.32-39.04-.18-7.9-.92-16.37-2.19-25.29,2.39-5.27,6.29-14.69,8.02-23.4,10.91-4.15,30.7-14.21,37.76-34.27,5.93-16.82,1.48-35.94-13.23-56.88,10.27-41.82,3.04-70.14-5.04-86.72-7.2-14.77-16.12-23.08-20.7-26.67-8.58-15.35-23.1-27.08-43.2-34.89-17.52-6.81-39.2-10.41-62.69-10.41v10-10c-30.6,0-62.08,5.98-86.37,16.4-15.32,6.58-25.77,17.38-31.08,32.1-5.29,14.69-5.2,32.66.27,53.4,3.15,11.93,7.37,21.85,9.64,26.78-.4,2.71-.95,6.8-1.52,11.98-9.99,2.54-17.41,11.61-17.41,22.37v31.81c0,10.53,7.08,19.44,16.73,22.2,2.95,28.03,9.77,51.52,20.29,69.93,9.38,16.4,21.54,28.63,36.36,36.58-13.62,5.02-29.51,12.24-46.25,22.58-21.56,13.31-43.22,42.11-66.22,88.04-17.86,35.68-33.56,75.4-47.51,111.32l-20.65-15.64c2.83-2.03,4.72-3.74,5.39-4.37h0s.41-.38.41-.38c2.58-2.39,3.71-5.96,2.99-9.4l-8.1-38.37c9.96-9.53,12.99-27.46,8.36-50.91.32-.07.64-.15.96-.24,3.58-1.1,6.24-4.12,6.9-7.8l.34-1.91c1.19-6.67,1.37-13.02,1.17-18.17l3.73-.49c3.31-.43,6.19-2.49,7.67-5.49,1.48-3,1.36-6.53-.3-9.42l-.75-1.3c-2.98-5.14-7.83-10.04-14.77-14.93,2.19-2.07,3.81-4.32,4.88-6.77,3.56-8.15,2.74-18.12-2.15-26.04-5.27-8.56-14.57-13.82-25.53-14.41-.44-.02-.9-.04-1.36-.04-7.89,0-14.67,3.7-20.29,8.86l-9.3-81.72-.05-.44c-.32-2.99-1.97-5.69-4.49-7.33l-.4-.26c-1.64-1.07-16.77-10.54-37.52-10.54-2.5,0-5.02.14-7.48.42-27.09,3.1-34.36,22.03-35.1,24.18l-.1.29c-.63,1.84-.72,3.82-.24,5.71l31.97,126.67c-1.68.81-3.22,1.59-4.56,2.32-18.16,9.92-27.98,27.28-27.67,48.9.38,26.45,15.48,81.23,20.1,97.39,1.52,5.34,3.31,10.57,5.33,15.61-1.73,7.65-3.07,24.18,10.16,42.78,8.26,11.6,46.36,61.01,68.34,89.43,14.27,18.46,35.8,29.05,59.08,29.05.83,0,1.68-.01,2.51-.04,24.28-.78,45.99-12.78,59.58-32.92l5.74-8.51v154.17c0,5.52,4.48,10,10,10h415.33c5.44,0,9.89-4.35,10-9.79l.02-.92c.13-4.24,4.42-146.36-.08-181.86ZM937.85,404.81c-3.29.77-7.07,1.75-11.26,2.99,4.19-1.24,7.97-2.22,11.26-2.99ZM923.06,92.89c.1-.02.2-.03.29-.05-.1.02-.2.03-.29.05ZM928.26,92.08c.26-.04.52-.08.78-.11-.26.04-.52.07-.78.11ZM933.97,91.32c.15-.02.3-.03.46-.05-.15.02-.3.03-.46.05ZM939.27,90.75c.16-.02.32-.03.48-.05-.16.02-.32.03-.48.05ZM912.3,94.96c.26-.06.51-.11.77-.17-.26.05-.51.11-.77.17ZM917.78,93.84c.18-.03.35-.07.53-.1-.18.03-.35.06-.53.1ZM920,409.86c-1.53.5-3.1,1.04-4.71,1.6,1.61-.57,3.18-1.1,4.71-1.6ZM1053.07,378.02c-.04-1.39-.09-2.8-.16-4.23.07,1.43.12,2.84.16,4.23ZM1058.04,128.24c.16.27.34.54.5.82-.16-.28-.33-.54-.5-.82ZM1056.37,125.64c.21.31.42.61.62.93-.2-.31-.41-.62-.62-.93ZM1054.63,123.22c.23.31.46.61.69.92-.23-.31-.45-.62-.69-.92ZM1052.79,120.92c.24.28.47.57.71.86-.23-.29-.47-.58-.71-.86ZM1050.85,118.72c.21.23.41.46.62.69-.21-.23-.41-.47-.62-.69ZM1050.55,351.36c.49,3.15.91,6.24,1.26,9.27-.35-3.03-.77-6.12-1.26-9.27h0ZM1241.54,616.36c-.35-1.88-.7-3.77-1.06-5.65.36,1.89.71,3.77,1.06,5.65ZM1244.2,630.87c-.38-2.09-.76-4.19-1.14-6.3.39,2.11.77,4.21,1.14,6.3ZM1230.78,562.21c-.41-1.91-.82-3.8-1.23-5.68.41,1.88.82,3.77,1.23,5.68ZM1195.3,464.28c-.77-.8-1.57-1.6-2.39-2.41.82.81,1.62,1.61,2.39,2.41ZM1183.95,453.65c-1-.86-2.02-1.73-3.06-2.59,1.04.87,2.06,1.73,3.06,2.59ZM1190.37,459.42c-1.23-1.16-2.52-2.34-3.84-3.51,1.32,1.18,2.61,2.35,3.84,3.51ZM1178.83,449.36c-3.48-2.83-7.19-5.68-11.07-8.52,3.89,2.84,7.59,5.69,11.07,8.52ZM1160.56,435.74c-1.31-.9-2.64-1.8-3.98-2.7,1.34.9,2.67,1.8,3.98,2.7ZM1147.81,427.36c-1.76-1.1-3.54-2.2-5.34-3.29,1.8,1.09,3.58,2.18,5.34,3.29ZM1134.26,419.25c-1.85-1.06-3.72-2.1-5.6-3.13,1.88,1.03,3.75,2.08,5.6,3.13ZM1120.12,411.56c-4.79-2.47-9.65-4.85-14.53-7.11,4.89,2.26,9.74,4.63,14.53,7.11ZM1096.76,400.54c1.97.84,3.93,1.7,5.89,2.58-1.96-.88-3.92-1.74-5.89-2.58-2.95-1.26-5.9-2.47-8.85-3.63,2.95,1.16,5.91,2.37,8.85,3.63ZM1067.38,389.77c2.9.87,5.82,1.81,8.75,2.81,2.93,1,5.88,2.07,8.82,3.19-2.95-1.12-5.89-2.18-8.82-3.19-2.93-1-5.85-1.94-8.75-2.81-2.9-.87-5.78-1.68-8.64-2.41-1.9-.49-3.79-.95-5.67-1.37h0c1.88.42,3.77.88,5.67,1.37,2.85.73,5.74,1.54,8.64,2.41ZM1099.2,280.46c0-1.49-.07-3-.23-4.54.17,1.54.24,3.05.23,4.54ZM1048.83,116.65c-.16-.15-.32-.3-.48-.46.16.15.33.3.48.46ZM1024.89,101.03c-.46-.2-.92-.4-1.39-.6.47.2.93.4,1.39.6ZM1046.68,114.64c-.28-.25-.58-.5-.86-.75.29.25.58.49.86.75ZM1044.42,112.72c-.32-.27-.65-.53-.99-.79.33.26.66.52.99.79ZM1042.05,110.87c-.34-.26-.69-.51-1.04-.77.35.25.7.51,1.04.77ZM1039.56,109.08c-.35-.24-.69-.48-1.05-.71.35.23.7.48,1.05.71ZM1036.86,107.31c-.31-.19-.61-.4-.93-.59.31.19.62.39.93.59ZM1033.37,105.22c-.34-.19-.7-.38-1.05-.57.35.19.7.37,1.05.57ZM1030.63,103.75c-.42-.22-.84-.42-1.27-.63.42.21.85.42,1.27.63ZM1027.8,102.35c-.45-.21-.9-.42-1.35-.63.45.21.9.41,1.35.63ZM962.59,89.64c-.42,0-.84,0-1.26,0,.16,0,.31,0,.47,0,.26,0,.53,0,.79,0ZM1021.89,99.78c-.46-.18-.92-.37-1.39-.55.47.18.93.37,1.39.55ZM1018.67,98.55c-.53-.19-1.06-.39-1.59-.57.53.19,1.06.38,1.59.57ZM1014.47,97.1c-.48-.16-.97-.3-1.46-.45.49.15.97.3,1.46.45ZM1011.29,96.12c-.52-.15-1.04-.3-1.57-.45.52.15,1.05.29,1.57.45ZM1008.04,95.21c-.53-.14-1.07-.28-1.61-.42.54.14,1.07.28,1.61.42ZM1004.72,94.37c-.54-.13-1.07-.26-1.61-.38.54.12,1.08.25,1.61.38ZM1001.3,93.59c-.52-.11-1.04-.23-1.56-.33.52.11,1.04.22,1.56.33ZM997.49,92.81c-.7-.13-1.4-.26-2.1-.38.7.12,1.4.25,2.1.38ZM993.05,92.03c-.52-.08-1.04-.16-1.57-.24.52.08,1.05.16,1.57.24ZM989.55,91.5c-.54-.08-1.09-.15-1.64-.22.55.07,1.09.14,1.64.22ZM986,91.04c-.55-.07-1.09-.13-1.64-.19.55.06,1.1.12,1.64.19ZM982.37,90.64c-.53-.05-1.05-.11-1.58-.16.53.05,1.06.1,1.58.16ZM978.57,90.3c-.46-.04-.92-.08-1.38-.11.46.03.92.07,1.38.11ZM973.67,89.96c-.31-.02-.62-.03-.93-.04.31.02.62.03.93.04ZM970.01,89.79c-.46-.02-.91-.03-1.37-.04.46.01.91.03,1.37.04ZM966.32,89.69c-.48-.01-.97-.02-1.45-.02.48,0,.97.01,1.45.02ZM944.71,90.28c.29-.02.58-.04.88-.06-.29.02-.58.04-.88.06ZM950.55,89.92c.16,0,.31-.01.47-.02-.16,0-.31.01-.47.02ZM955.75,89.72c.24,0,.48-.02.72-.02-.24,0-.48.01-.72.02ZM907.62,96.03c-.07.02-.13.03-.2.05.07-.02.13-.03.2-.05ZM902.95,97.22c-.21.06-.43.11-.64.17.21-.06.43-.11.64-.17ZM897.96,98.61c-.26.08-.52.16-.78.23.26-.08.52-.16.78-.23ZM892.86,100.19s-.09.03-.13.04c.05-.01.09-.03.13-.04ZM888.64,101.63c-.24.09-.49.17-.73.26.24-.09.48-.17.73-.26ZM884.01,103.34c-.25.1-.5.2-.74.29.25-.1.49-.2.74-.29ZM868.7,111.32c-1.26.94-2.46,1.94-3.6,2.98,1.13-1.05,2.33-2.04,3.6-2.98ZM860.44,119.36c.94-1.2,1.94-2.35,3.01-3.45-1.07,1.1-2.07,2.25-3.01,3.45-.94,1.2-1.81,2.45-2.62,3.75.81-1.3,1.68-2.55,2.62-3.75ZM856.66,125.11c-.74,1.35-1.42,2.76-2.02,4.21.61-1.45,1.28-2.86,2.02-4.21ZM850.11,284.58c-.97-.8-1.82-1.74-2.53-2.78-.94-1.39-1.62-2.98-1.97-4.68-.17-.85-.27-1.73-.27-2.64v-31.81c0-.9.09-1.78.27-2.63.35-1.7,1.03-3.28,1.97-4.67.71-1.04,1.56-1.98,2.53-2.78.65-.53,1.34-1.01,2.09-1.41-.74.4-1.44.88-2.09,1.41-.97.8-1.82,1.74-2.53,2.78-.94,1.39-1.62,2.97-1.97,4.67-.17.85-.27,1.73-.27,2.63v31.81c0,.9.09,1.78.27,2.64.35,1.7,1.03,3.29,1.97,4.68.71,1.04,1.56,1.98,2.53,2.78.65.53,1.34,1.01,2.09,1.41-.74-.4-1.44-.88-2.09-1.41ZM910.35,413.27c-2.52.95-5.13,1.99-7.8,3.11,2.67-1.12,5.28-2.15,7.8-3.11ZM879.86,427.25c-1.98,1.08-3.99,2.2-6.01,3.37,2.02-1.17,4.02-2.29,6.01-3.37ZM754.72,779.45c-.07-.01-.14-.02-.21-.03.07.01.14.02.21.03ZM694,464.36c.96.72,1.77,1.57,2.43,2.54-.66-.97-1.47-1.82-2.43-2.54l-.04-.34.04.34ZM702.92,473.99c.13.05.27.1.41.16-.14-.05-.27-.11-.41-.16-.31-.12-.6-.21-.89-.31.29.1.58.19.89.31ZM708.41,476.7c-1.62-1-3.16-1.76-4.54-2.33,1.38.57,2.91,1.33,4.54,2.33ZM724.69,447.44c2.86,1.44,4.85,2.57,6.17,3.39.38.23.7.44.97.62-.27-.18-.59-.38-.97-.62-1.32-.81-3.3-1.95-6.17-3.39ZM729.07,490.2c-.66-.64-1.37-1.33-2.13-2.06.76.73,1.47,1.42,2.13,2.06ZM725.3,486.58c-2.48-2.35-5.34-5.01-8.39-7.73,3.04,2.71,5.91,5.37,8.39,7.73ZM713.81,476.12c.97.84,1.93,1.69,2.88,2.53-.95-.84-1.91-1.69-2.88-2.53ZM707.22,412.97c.18-.13.37-.26.55-.39-.19.13-.37.26-.55.39ZM708.3,412.23c.19-.12.38-.24.57-.36-.19.12-.38.24-.57.36ZM709.4,411.55c.19-.11.38-.22.58-.32-.19.1-.39.21-.58.32ZM710.52,410.94c.19-.1.39-.19.59-.28-.2.09-.39.19-.59.28ZM704.14,415.53c.17-.16.34-.32.51-.47-.17.16-.34.31-.51.47ZM705.14,414.63c.18-.15.35-.3.53-.45-.18.15-.35.3-.53.45ZM706.17,413.77c.18-.14.36-.28.54-.42-.18.14-.36.28-.54.42ZM693.72,429.22c.11-.19.22-.38.33-.57-.11.19-.22.38-.33.57ZM694.33,428.18c.12-.19.23-.38.35-.58-.12.19-.23.39-.35.58ZM694.98,427.12c.12-.19.24-.39.36-.58-.12.2-.24.39-.36.58ZM695.66,426.03c.12-.19.25-.38.37-.58-.13.19-.25.39-.37.58ZM696.38,424.94c.13-.19.25-.38.38-.57-.13.19-.26.38-.38.57ZM697.12,423.85c.13-.19.27-.39.4-.58-.14.19-.27.39-.4.58ZM697.89,422.76c.14-.19.28-.38.42-.58-.14.19-.28.38-.42.58ZM698.7,421.66c.14-.19.29-.38.43-.57-.15.19-.29.38-.43.57ZM699.54,420.58c.15-.19.3-.37.45-.56-.15.19-.3.37-.45.56ZM700.4,419.52c.15-.18.31-.37.46-.55-.16.18-.31.37-.46.55ZM701.29,418.48c.16-.18.32-.36.48-.53-.16.18-.32.36-.48.53ZM702.21,417.46c.16-.17.33-.35.49-.52-.17.17-.33.35-.49.52ZM690.66,434.98c.12-.24.24-.5.37-.76-.13.26-.26.52-.37.76h0ZM691.14,434c.1-.2.2-.39.3-.6-.1.21-.2.4-.3.6ZM691.59,433.12c.1-.19.2-.38.3-.58-.1.2-.2.39-.3.58ZM692.08,432.18c.1-.18.19-.37.3-.56-.1.19-.2.37-.3.56ZM692.59,431.24c.1-.19.21-.38.31-.57-.11.19-.21.38-.31.57ZM693.14,430.24c.11-.19.21-.38.32-.57-.11.19-.21.38-.32.57ZM729.27,526.24c0-1.22-.03-2.47-.09-3.76s-.16-2.6-.29-3.95c-.13-1.35-.29-2.73-.49-4.14.2,1.41.36,2.79.49,4.14.13,1.35.22,2.67.29,3.95s.09,2.54.09,3.76ZM731.4,492.49c-.33-.33-.69-.68-1.08-1.07.39.38.75.74,1.08,1.07.33.33.63.63.9.89-.27-.27-.57-.56-.9-.89ZM733.79,494.88s-.19-.2-.52-.52c.33.33.51.51.52.52l1.36,1.39-1.36-1.39ZM736.57,482.3c.01-1.22,0-2.4-.04-3.51.04,1.11.05,2.28.04,3.51ZM748.19,466.24l.75,1.3-.75-1.3c-.49-.84-1.07-1.69-1.73-2.55-.41-.53-.86-1.07-1.34-1.61.48.54.93,1.08,1.34,1.61.66.86,1.24,1.71,1.73,2.55ZM743.34,460.23s-.03-.03-.05-.05c.02.02.03.03.05.05ZM741.55,458.57c-.7-.62-1.44-1.23-2.23-1.85-.75-.59-1.53-1.18-2.35-1.77.82.59,1.61,1.18,2.35,1.77.79.62,1.53,1.24,2.23,1.85ZM737.83,421.78c.69,1.74,1.12,3.55,1.28,5.36.06.73.09,1.45.07,2.17.02-.72,0-1.45-.07-2.17-.16-1.81-.59-3.62-1.28-5.36-.28-.69-.59-1.38-.95-2.04.36.66.67,1.35.95,2.04ZM718.75,409.08c1.38.07,2.7.25,3.97.51-1.27-.26-2.6-.44-3.97-.51-.35-.02-.7-.02-1.05-.01.08,0,.16-.01.24-.01.27,0,.54,0,.82.02ZM725.53,410.34c-.75-.25-1.54-.47-2.34-.65.8.18,1.58.39,2.34.65ZM711.67,410.41c.2-.08.4-.16.6-.24-.2.08-.4.16-.6.24ZM712.83,409.96c.2-.07.41-.14.61-.2-.2.06-.41.13-.61.2ZM714.02,409.59c.21-.05.41-.1.62-.15-.21.05-.41.1-.62.15ZM715.23,409.32c.21-.04.42-.07.63-.1-.21.03-.42.06-.63.1ZM716.45,409.14c.21-.02.43-.04.64-.05-.21.01-.43.03-.64.05ZM703.66,415.98c-.17.16-.33.33-.5.5.17-.17.33-.33.5-.5ZM678.36,326.82l-.4-.26s-.06-.04-.11-.07c.05.03.08.05.11.07l.4.26ZM646.73,317.64c-.34,0-.67,0-1.01,0,.06,0,.12,0,.18,0,.28,0,.56,0,.83.01ZM677.82,326.47s-.09-.06-.15-.09c.06.04.11.07.15.09ZM677.59,326.33c-.06-.03-.12-.07-.19-.11.07.04.13.08.19.11ZM677.28,326.14c-.07-.04-.15-.09-.23-.14.08.05.16.09.23.14ZM676.9,325.92c-.09-.05-.18-.1-.28-.16.1.06.19.11.28.16ZM676.44,325.66c-.1-.06-.22-.12-.33-.19.12.06.23.13.33.19ZM675.91,325.36c-.13-.07-.26-.14-.4-.22.14.07.27.15.4.22ZM675.3,325.03c-.17-.09-.35-.18-.53-.28.18.09.36.19.53.28ZM674.62,324.68c-.24-.12-.5-.25-.76-.38.27.13.52.26.76.38ZM673.85,324.29c-.26-.13-.52-.25-.8-.39.28.13.54.26.8.39ZM672.81,323.8c-.21-.1-.42-.2-.64-.3.22.1.43.2.64.3ZM671.85,323.36c-.21-.09-.42-.19-.63-.28.22.09.42.19.63.28ZM670.85,322.92c-.21-.09-.43-.18-.65-.27.22.09.43.18.65.27ZM669.81,322.48c-.22-.09-.45-.18-.67-.27.23.09.45.18.67.27ZM668.7,322.04c-.24-.09-.48-.18-.72-.27.24.09.48.18.72.27ZM667.55,321.61c-.26-.1-.53-.19-.8-.29.27.1.54.19.8.29ZM666.34,321.17c-.33-.11-.67-.23-1.01-.34.34.11.68.22,1.01.34ZM665.08,320.75c-.43-.14-.87-.28-1.32-.41.45.14.89.27,1.32.41ZM663.51,320.26c-.37-.11-.74-.22-1.11-.32.38.1.75.21,1.11.32ZM661.93,319.82c-.31-.08-.63-.17-.95-.25.32.08.63.17.95.25ZM660.43,319.43c-.3-.07-.6-.15-.91-.22.31.07.61.14.91.22ZM658.92,319.08c-.3-.07-.6-.13-.91-.19.3.06.61.13.91.19ZM657.38,318.76c-.31-.06-.62-.12-.93-.17.31.06.62.11.93.17ZM655.81,318.48c-.32-.05-.65-.1-.97-.15.33.05.65.1.97.15ZM654.19,318.23c-.35-.05-.71-.09-1.06-.14.36.04.71.09,1.06.14ZM652.54,318.01c-.45-.05-.92-.1-1.38-.14.46.04.92.09,1.38.14ZM650.86,317.85c-.57-.05-1.14-.09-1.72-.12.58.03,1.15.07,1.72.12ZM648.64,317.7c-.41-.02-.83-.04-1.25-.05.42.01.83.03,1.25.05ZM643,317.71c-.19,0-.37.02-.56.03.19-.01.37-.02.56-.03ZM633.95,318.97c-1.15.28-2.25.6-3.29.94,1.04-.35,2.13-.66,3.29-.94ZM627.71,321.05c-1.39.61-2.66,1.27-3.82,1.96,1.16-.7,2.43-1.36,3.82-1.96ZM621.72,324.44c-.68.49-1.3.99-1.89,1.49.58-.5,1.21-1,1.89-1.49ZM616.83,328.91c-.42.49-.8.96-1.14,1.42.34-.46.72-.94,1.14-1.42ZM612.67,335.78l.1-.29c.04-.11.25-.71.71-1.63.38-.76.94-1.75,1.72-2.85-.77,1.1-1.33,2.09-1.72,2.85-.46.92-.68,1.52-.71,1.63l-.1.29,34.02,134.8-34.02-134.8ZM621.6,487.28c.58-.74,1.18-1.45,1.79-2.12,2.15-2.37,4.46-4.36,6.8-6.04,1.67-1.2,3.34-2.23,4.97-3.12,1.08-.59,2.36-1.24,3.76-1.92.94-.45,1.93-.92,2.96-1.39-1.03.47-2.02.94-2.96,1.39-1.4.68-2.68,1.33-3.76,1.92-1.63.89-3.3,1.92-4.97,3.12-2.33,1.67-4.65,3.67-6.8,6.04-.61.68-1.21,1.38-1.79,2.12-.87,1.11-1.71,2.29-2.49,3.55.78-1.26,1.62-2.44,2.49-3.55ZM616.93,494.83c.45-.94.92-1.85,1.42-2.72-.5.87-.97,1.78-1.42,2.72-.45.94-.86,1.92-1.25,2.94.39-1.02.8-2,1.25-2.94ZM612.72,515.97c-.01-.71,0-1.41,0-2.1.06-2.75.3-5.34.71-7.76.2-1.21.45-2.38.73-3.51.28-1.13.6-2.22.95-3.28-.35,1.05-.67,2.15-.95,3.28-.28,1.13-.53,2.3-.73,3.51-.41,2.42-.66,5-.71,7.76-.01.69-.02,1.39,0,2.1.04,3.14.32,6.73.76,10.64-.45-3.91-.72-7.5-.76-10.64ZM615.22,538.62c-.53-3.12-.99-6.14-1.37-9.02.38,2.88.84,5.9,1.37,9.02ZM616.54,545.9c1.09,5.71,2.35,11.61,3.67,17.45-1.33-5.84-2.58-11.74-3.67-17.45ZM623.48,577.11c1.1,4.46,2.2,8.75,3.24,12.74-1.05-3.99-2.14-8.28-3.24-12.74ZM628.4,596.16c.44,1.62.86,3.17,1.26,4.63-.4-1.46-.82-3.01-1.26-4.63ZM631.47,607.35c.36,1.27.68,2.41.97,3.41-.28-.99-.61-2.13-.97-3.41ZM638.72,628.5c-.06.14-.2.52-.38,1.12-.23.75-.51,1.83-.75,3.21.24-1.38.53-2.46.75-3.21.18-.6.33-.98.38-1.12-1.82-4.25-3.46-8.67-4.91-13.19,1.44,4.52,3.08,8.94,4.91,13.19ZM719.37,760.76c.07.07.13.14.19.2-.07-.07-.13-.14-.19-.2ZM716.89,758.05s.07.08.1.12c-.04-.04-.07-.08-.1-.12ZM751.16,778.75c-.1-.02-.21-.04-.31-.07.1.02.21.05.31.07ZM747.65,777.84c-.13-.04-.25-.07-.38-.11.13.04.25.07.38.11ZM744.19,776.73c-.14-.05-.28-.1-.42-.15.14.05.28.1.42.15ZM740.79,775.43c-.15-.06-.3-.12-.44-.18.15.06.3.12.44.18ZM737.46,773.93c-.15-.07-.3-.15-.45-.22.15.07.3.15.45.22ZM734.22,772.24c-.15-.08-.29-.16-.44-.25.15.08.29.17.44.25ZM731.07,770.35c-.14-.09-.27-.18-.41-.27.14.09.27.18.41.27ZM728.02,768.28c-.13-.09-.25-.18-.38-.28.13.09.25.19.38.28ZM725.09,766.02c-.11-.09-.22-.18-.33-.27.11.09.22.18.33.27ZM722.26,763.58c-.09-.08-.18-.17-.27-.25.09.08.18.17.27.25ZM765.56,780.37c.09,0,.18,0,.27,0-.03,0-.07,0-.1,0-.06,0-.11,0-.17,0ZM758.21,779.95s.05,0,.08,0c-.03,0-.05,0-.08,0ZM761.88,780.26s.07,0,.11,0c-.04,0-.07,0-.11,0Z"/>
    <path class="cls-9" d="M228.17,169.59c2.28,1.5,5.01,2.38,7.94,2.38,8,0,14.5-6.5,14.5-14.5V14.5c0-8-6.5-14.5-14.5-14.5H14.5C6.5,0,0,6.5,0,14.5v209.7c0,8,6.5,14.5,14.5,14.5h194.04c8,0,14.5-6.5,14.5-14.5s-6.5-14.5-14.5-14.5H29V29h192.61v128.47c0,2.93.88,5.66,2.38,7.94l-13-13c6.71-9.92,10.32-21.59,10.32-33.76,0-26.61-17.28-49.24-41.2-57.31h26.39c8,0,14.5-6.5,14.5-14.5s-6.5-14.5-14.5-14.5h-77.28c-8,0-14.5,6.5-14.5,14.5s6.5,14.5,14.5,14.5h12.33c-23.92,8.07-41.2,30.7-41.2,57.31,0,24.65,14.83,45.89,36.03,55.3H51.26c-8,0-14.5,6.5-14.5,14.5s6.5,14.5,14.5,14.5h137.2c8,0,14.5-6.5,14.5-14.5,0-3.47-1.23-6.66-3.27-9.16l36.24,36.24c2.55,2.55,5.94,3.95,9.55,3.95s6.99-1.4,9.54-3.95c2.55-2.55,3.96-5.94,3.96-9.55s-1.41-6.99-3.96-9.54l-26.85-26.85ZM19,219.7h0V19h0v200.7ZM188.46,173.95h-3.21c2.06-.91,4.08-1.93,6.03-3.07l6.34,6.34c-2.5-2.04-5.69-3.27-9.16-3.27Z"/>
    <path class="cls-9" d="M154.57,308.24c2.64,1.39,5.7,2.17,9.04,2.17,2.53,0,4.89-.41,7.05-1.17,1.12.43,2.33.68,3.6.68h5.17c.99,4.47,4.99,7.82,9.76,7.82h3.91c4.78,0,13.37-1.96,17.17-15.1l6.99-23.98c.88-3.02.29-6.28-1.6-8.8-1.89-2.52-4.85-4-8-4h-7.87c-.94,0-1.85.13-2.73.38-.87-.25-1.79-.38-2.72-.38h-4.99c-1.37-.36-2.83-.54-4.36-.54s-3.14.19-4.61.55c-.18,0-.36-.01-.54-.01h-5.58c-1.28,0-2.5.25-3.63.69-2.14-.79-4.48-1.23-6.98-1.23-2.06,0-4.02.29-5.83.84-.77-.19-1.57-.3-2.39-.3h-8.16c-.76,0-1.5.08-2.21.25-.71-.16-1.45-.25-2.21-.25h-8.16c-.63,0-1.25.07-1.86.19-1.74-.47-3.6-.73-5.57-.73-3.48,0-6.64.78-9.35,2.19-2.7-1.41-5.86-2.19-9.36-2.19s-6.61.81-9.31,2.27c-2.7-1.46-5.87-2.27-9.37-2.27-.03,0-.06,0-.1,0-2.07-5.23-7.17-8.94-13.12-8.94-3.59,0-6.82,1.28-9.29,3.42-2.08-.65-4.33-1.01-6.73-1.01h-8.98c-5.52,0-10,4.48-10,10v31.12c0,5.52,4.48,10,10,10h9.07c2.62,0,5.05-.44,7.28-1.22,1.42.78,3.05,1.22,4.78,1.22h7.69c1.06,0,2.09-.17,3.05-.48,2.07.69,4.38,1.1,6.93,1.1,3.46,0,6.62-.77,9.33-2.14,2.58,1.29,5.54,2.01,8.77,2.01,3.46,0,6.6-.77,9.3-2.17.58.3,1.18.57,1.8.82-2.15,2.53-3.45,5.8-3.45,9.37v92.94c0,8,6.5,14.5,14.5,14.5s14.5-6.5,14.5-14.5v-92.94c0-3.18-1.04-6.12-2.79-8.51h6.62c2.03,0,3.94-.61,5.54-1.68ZM133.88,315.25c-.41-.41-.89-.74-1.43-.97.54.23,1.02.56,1.43.97ZM132.45,415.51c.54-.23,1.02-.56,1.43-.97-.41.41-.89.74-1.43.97Z"/>
    <path class="cls-9" d="M231.6,569.64v-60.37c7.39-1.45,12.99-7.99,12.99-15.81v-18.76c0-8.88-7.22-16.11-16.1-16.11h-18.77c-7.81,0-14.34,5.59-15.8,12.99h-38c.91-2.75,1.42-5.69,1.42-8.75,0-15.36-12.49-27.86-27.85-27.86s-27.85,12.5-27.85,27.86c0,3.06.5,6,1.42,8.75h-38c-1.46-7.4-7.99-12.99-15.81-12.99h-18.76c-8.88,0-16.11,7.23-16.11,16.11v18.76c0,7.82,5.59,14.35,12.99,15.81v60.37c-9.25,4.57-15.35,14.01-15.35,24.93,0,15.36,12.49,27.85,27.85,27.85s27.85-12.49,27.85-27.85c0-10.92-6.1-20.37-15.35-24.93v-60.37c6.39-1.26,11.43-6.3,12.69-12.69h128.87c1.26,6.39,6.3,11.43,12.68,12.69v60.37c-9.25,4.57-15.35,14.01-15.35,24.93,0,15.36,12.49,27.85,27.85,27.85s27.86-12.49,27.86-27.85c0-10.92-6.11-20.37-15.36-24.94ZM55.36,474.71v6.88h0v-6.88c0-2.11-1.07-3.97-2.7-5.07,1.63,1.1,2.7,2.96,2.7,5.07ZM49.25,468.6c.63,0,1.24.1,1.82.28-.57-.18-1.18-.28-1.82-.28h0ZM53.35,582.83c.68.78,1.3,1.63,1.84,2.53-.54-.9-1.15-1.74-1.84-2.53-1.37-1.57-3.01-2.9-4.86-3.91-.93-.51-1.9-.93-2.93-1.27-1.02-.34-2.09-.59-3.19-.74,1.1.15,2.17.4,3.19.74,1.02.34,2,.77,2.93,1.27,1.85,1.01,3.5,2.34,4.86,3.91ZM55.36,493.47c0,1.88-.85,3.56-2.19,4.68,1.33-1.12,2.19-2.8,2.19-4.68v-6.88h0v6.88Z"/>
    <path class="cls-9" d="M181.36,581.58l-38.46-74.83s-.02-.04-.03-.06c-1.02-1.96-2.46-3.68-4.17-4.98-2.62-2.03-5.89-3.14-9.23-3.14h0c-3.35,0-6.63,1.12-9.24,3.17-1.69,1.31-3.12,3.03-4.12,4.95-.01.02-.02.04-.03.06l-38.21,74.34-.23.44c-1.5,2.88-1.51,6.31-.03,9.2l20.45,39.79c-.9,1.95-1.39,4.1-1.39,6.33v8.68c0,8.39,6.82,15.21,15.21,15.21h35.24c8.39,0,15.21-6.82,15.21-15.21v-8.68c0-2.23-.5-4.38-1.4-6.34l20.44-39.78c1.47-2.87,1.47-6.27,0-9.14ZM131.89,509.17c-.09-.05-.19-.08-.29-.12.1.04.19.07.29.12ZM131.12,508.84c-.11-.04-.23-.06-.35-.09.12.03.24.05.35.09ZM130.31,508.64c-.12-.02-.25-.02-.37-.03.12.01.25.01.37.03ZM129.47,508.57s0,0,0,0c-.16,0-.32.02-.47.04.16-.01.31-.04.47-.04ZM127.09,509.16c-.25.13-.48.29-.71.46.22-.18.46-.33.71-.46ZM128.66,508.63c-.16.03-.32.07-.48.12.16-.04.31-.09.48-.12ZM127.85,508.83c-.17.06-.32.13-.48.21.16-.07.32-.15.48-.21ZM124.97,511.32c.17-.33.38-.65.62-.94-.24.29-.45.6-.62.94l-38.23,74.37,38.23-74.37ZM134.01,511.32c-.09-.17-.18-.33-.29-.49.1.16.2.32.29.49l38.46,74.83-38.46-74.83Z"/>
    <path class="cls-9" d="M194.25,677.94h-7.87c-.94,0-1.86.13-2.73.38-.87-.25-1.79-.38-2.73-.38h-4.97c-1.37-.36-2.83-.54-4.37-.54s-3.14.19-4.61.55c-.18,0-.36-.01-.55-.01h-5.58c-1.28,0-2.5.25-3.62.69-2.14-.78-4.47-1.23-6.98-1.23-2.06,0-4.02.29-5.83.84-.77-.19-1.57-.3-2.39-.3h-8.16c-.76,0-1.5.08-2.21.25-.2-.04-.4-.07-.6-.1-1.88-5.59-7.16-9.63-13.38-9.63-2.22,0-4.3.5-6.15,1.38h-7.24c-4.69,0-8.62,3.24-9.7,7.6-.21,0-.4-.03-.61-.03-1.46,0-2.87.16-4.21.43-3.61-4.37-9.1-6.96-15.71-6.96h-8.99c-5.52,0-10,4.48-10,10v31.11c0,5.52,4.48,10,10,10h9.07c3.63,0,6.92-.81,9.76-2.26,2.86,1.76,6.27,2.76,10.05,2.76,2.47,0,4.79-.4,6.9-1.12,1.08.4,2.23.62,3.45.62h7.66c.31,0,.62-.02.93-.05.31.03.62.05.93.05h7.7c1.08,0,2.12-.17,3.09-.49.98.32,2.02.49,3.09.49h7.94c2.03,0,3.94-.61,5.54-1.68,2.64,1.4,5.7,2.18,9.04,2.18,2.53,0,4.9-.41,7.06-1.17,1.11.43,2.32.67,3.58.67h5.17c.99,4.47,4.99,7.82,9.76,7.82h3.92c4.76,0,13.33-1.96,17.17-15.06l6.99-24c.88-3.02.29-6.28-1.6-8.8-1.89-2.52-4.85-4-8-4Z"/>
    <path class="cls-9" d="M573.69,60.78c0-2.65-1.05-5.2-2.93-7.07l-20.7-20.7c-1.88-1.88-4.42-2.93-7.07-2.93h0c-2.65,0-5.2,1.05-7.07,2.93l-7.16,7.16c.16-1.19.18-2.42.01-3.65-.48-3.58-2.33-6.76-5.21-8.95-7.85-5.98-36.55-25.5-76.14-25.5v10V2.08c-10.36,0-20.73,1.37-30.84,4.07-49.16,13.14-72.25,51.99-78.16,63.58-1.64,3.24-1.92,6.89-.81,10.31,1.11,3.39,3.47,6.17,6.65,7.82.02,0,.04.02.06.03.96.49,1.99.86,3.04,1.11-3.28,7.35-5.14,15.47-5.21,24.02-6.8,4.45-11.12,12.09-11.12,20.6s4.82,16.82,12.05,21.14c-2.09,9.82-7.02,25.16-18.02,32.23l-.58.37c-3.59,2.27-5.35,6.56-4.39,10.7l9.53,41.29c1.05,4.54,5.09,7.75,9.74,7.75h32.57c4.66,0,8.7-3.21,9.74-7.75l9.53-41.29c.95-4.11-.78-8.37-4.33-10.66l-.59-.38c-11.04-7.07-15.98-22.42-18.07-32.25,7.23-4.32,12.05-12.22,12.05-21.14s-4.31-16.15-11.11-20.59c.25-18.18,15.11-32.89,33.35-32.89h21.58c2.05,6.11,7.84,10.52,14.63,10.52h17.19c8.51,0,15.43-6.92,15.43-15.42v-17.19c0-8.51-6.92-15.43-15.43-15.43h-17.19c-6.79,0-12.57,4.41-14.63,10.52h-21.58c-7.69,0-15.04,1.46-21.81,4.1,9.88-9.92,23.88-19.92,42.86-24.99,7.85-2.1,15.89-3.16,23.91-3.16,31.89,0,55.37,16.66,59.75,19.99.01.01.03.02.04.03,2.36,1.78,5.17,2.72,8.13,2.72.63,0,1.26-.06,1.88-.15l-5.59,5.59-81.1,81.1c-1.72.93-3.14,2.36-4.07,4.13-1.01,1.22-1.71,2.66-2.05,4.2l-18.27,37.52c-1.87,3.84-1.1,8.43,1.92,11.45,1.92,1.92,4.48,2.93,7.07,2.93,1.48,0,2.98-.33,4.38-1.01l37.5-18.26c1.54-.34,2.99-1.04,4.22-2.05,1.77-.93,3.19-2.36,4.13-4.07l75.38-75.38c.08.65.19,1.3.37,1.94,2.63,9.73,3.74,19.77,3.27,29.82-.41,8.84-2.03,17.58-4.82,25.99-.4,1.2-.62,2.43-.67,3.66-2.47-.59-5.05-.92-7.71-.92-18.22,0-33.04,14.82-33.04,33.04,0,6.3,1.77,12.19,4.84,17.21-.93-.2-1.89-.31-2.85-.31h0c-2.21,0-4.41.55-6.37,1.6-13.15,7.02-27.97,10.95-42.85,11.34-.83.02-1.67.03-2.5.03-18.76,0-33.77-5.51-43.05-10.14-1.85-.93-3.94-1.42-6.01-1.42-1.43,0-2.85.23-4.21.67-.03.01-.06.02-.1.03-3.44,1.16-6.2,3.58-7.8,6.82-1.61,3.24-1.85,6.91-.69,10.32,1.15,3.4,3.56,6.17,6.8,7.76,11.89,5.92,31.08,12.96,55.03,12.96,1.04,0,2.11-.02,3.17-.04.02,0,.05,0,.07,0,19.04-.5,38-5.52,54.85-14.51,3.18-1.68,5.51-4.51,6.57-7.96.66-2.15.77-4.38.35-6.53,5.14,3.3,11.24,5.22,17.79,5.22,18.22,0,33.04-14.83,33.04-33.05,0-7.18-2.31-13.84-6.22-19.26,3.35-1.53,6-4.4,7.2-8.06,3.55-10.71,5.63-21.89,6.16-33.18.59-12.91-.82-25.75-4.2-38.17-1.43-5.33-6-9.2-11.41-9.85l14.97-14.97c1.88-1.88,2.93-4.42,2.93-7.07ZM517.44,41.14c.07-.05.14-.09.2-.14-.06.05-.13.09-.2.14ZM447.78,12.08c-.22,0-.44,0-.67,0,.1,0,.2,0,.29,0,.12,0,.25,0,.37,0ZM516.96,35.12s-.09-.06-.13-.1c.04.03.09.06.13.1ZM516.18,34.55s-.09-.06-.13-.09c.04.03.09.06.13.09ZM515.38,33.98s-.1-.07-.15-.1c.05.04.1.07.15.1ZM514.4,33.29c-.08-.05-.16-.11-.24-.17.08.06.16.11.24.17ZM513.23,32.5c-.06-.04-.12-.08-.17-.12.06.04.12.08.17.12ZM512.17,31.8c-.11-.07-.21-.14-.32-.21.11.07.21.14.32.21ZM510.79,30.91c-.12-.08-.24-.15-.37-.23.12.08.25.15.37.23ZM509.47,30.09c-.11-.07-.22-.14-.33-.21.11.07.22.14.33.21ZM507.92,29.16c-.15-.09-.31-.18-.46-.27.16.09.31.18.46.27ZM506.15,28.13c-.13-.08-.27-.15-.41-.23.14.08.28.16.41.23ZM504.63,27.28c-.18-.1-.35-.19-.53-.29.18.1.35.19.53.29ZM502.68,26.23c-.19-.1-.39-.2-.59-.31.2.1.39.2.59.31ZM500.86,25.28c-.21-.11-.43-.22-.64-.32.22.11.43.22.64.32ZM498.81,24.27c-.22-.11-.43-.21-.65-.32.22.11.44.21.65.32ZM496.5,23.17c-.2-.09-.41-.19-.62-.28.21.09.41.19.62.28ZM494.53,22.29c-.22-.1-.43-.19-.65-.29.22.1.44.19.65.29ZM492.09,21.24c-.24-.1-.49-.2-.73-.3.25.1.49.2.73.3ZM489.7,20.28c-.25-.1-.5-.19-.75-.29.25.1.5.19.75.29ZM487.3,19.37c-.25-.09-.51-.19-.76-.28.26.09.51.19.76.28ZM484.52,18.38c-.24-.08-.48-.16-.72-.24.24.08.48.16.72.24ZM482.08,17.58c-.22-.07-.44-.14-.66-.21.22.07.44.14.66.21ZM479.24,16.71c-.26-.08-.52-.15-.79-.23.26.08.53.15.79.23ZM476.17,15.86c-.18-.05-.37-.09-.55-.14.18.05.37.09.55.14ZM473.6,15.21c-.25-.06-.5-.12-.75-.18.25.06.5.12.75.18ZM470.44,14.5c-.24-.05-.49-.1-.73-.15.24.05.49.1.73.15ZM467.47,13.92c-.16-.03-.32-.06-.47-.09.16.03.32.06.47.09ZM464.39,13.4c-.25-.04-.51-.08-.76-.12.25.04.51.08.76.12ZM460.96,12.92c-.18-.02-.36-.04-.53-.06.18.02.36.04.53.06ZM457.97,12.59c-.21-.02-.42-.04-.63-.06.21.02.42.04.63.06ZM454.52,12.31c-.23-.01-.45-.03-.68-.04.23.01.45.03.68.04ZM450.94,12.14s-.07,0-.11,0c.04,0,.07,0,.11,0ZM447.19,19.08c-.91,0-1.83.02-2.75.04.92-.03,1.84-.04,2.75-.04ZM444.16,12.13c-.14,0-.27.01-.41.02.14,0,.27-.01.41-.02ZM441.02,12.27c-.2.01-.4.02-.6.04.2-.01.4-.02.6-.04ZM437.36,12.55c-.18.02-.36.04-.55.05.18-.02.36-.04.55-.05ZM434,12.92c-.16.02-.33.04-.49.06.16-.02.33-.04.49-.06ZM430.37,13.43c-.22.03-.44.07-.66.11.22-.04.44-.07.66-.11ZM426.75,14.07c-.11.02-.23.04-.34.06.11-.02.23-.04.34-.06ZM423.2,14.82c-.25.06-.5.12-.76.18.25-.06.5-.12.76-.18ZM353.57,77.45c.64-1.25,1.51-2.87,2.62-4.77-1.12,1.9-1.98,3.52-2.62,4.77-.23.44-.53.82-.9,1.12.37-.3.68-.68.9-1.12ZM375.4,48.43c-1.44,1.38-2.8,2.77-4.09,4.14-1.29,1.38-2.51,2.74-3.66,4.09,1.15-1.35,2.37-2.72,3.66-4.09,1.29-1.38,2.66-2.76,4.09-4.14ZM364.4,60.64c-1.01,1.3-1.96,2.57-2.83,3.79.88-1.23,1.82-2.5,2.83-3.79ZM359.13,67.98c-.75,1.13-1.43,2.21-2.05,3.23.62-1.02,1.3-2.1,2.05-3.23ZM356.63,148.18c.12.11.22.24.3.39-.08-.15-.18-.28-.31-.39h0ZM357.57,152.3c.13.79.28,1.64.45,2.52.25,1.32.55,2.74.89,4.22.23.99.49,2,.76,3.04-.28-1.04-.53-2.06-.76-3.04-.35-1.48-.64-2.89-.89-4.22-.17-.88-.32-1.72-.45-2.52-.13-.79-.24-1.54-.34-2.24.1.69.21,1.44.34,2.24ZM362.27,170.2c-.42-1.11-.81-2.21-1.16-3.31.36,1.09.75,2.2,1.16,3.31ZM362.92,171.86c.45,1.11.93,2.23,1.44,3.34-.51-1.11-.99-2.23-1.44-3.34ZM373.56,189.26c-.86-.92-1.68-1.89-2.46-2.88.78.99,1.6,1.95,2.46,2.88ZM369.96,184.88c-.74-1.02-1.43-2.06-2.09-3.12.66,1.06,1.35,2.11,2.09,3.12ZM379.93,44.3c1.59-1.36,3.25-2.71,4.99-4.04-1.74,1.32-3.4,2.67-4.99,4.04ZM420.97,22.57c1.03-.28,2.06-.53,3.08-.77-1.02.24-2.05.49-3.08.77ZM443.98,19.13c-.82.03-1.65.07-2.47.12.83-.05,1.65-.09,2.47-.12ZM440.87,19.29c-.93.06-1.87.13-2.81.22.94-.09,1.88-.16,2.81-.22ZM437.46,19.57c-.83.08-1.67.18-2.51.28.84-.1,1.68-.2,2.51-.28ZM434.4,19.92c-.96.12-1.92.26-2.89.42.97-.15,1.93-.29,2.89-.42ZM430.82,20.45c-.89.15-1.79.31-2.7.48.9-.17,1.8-.33,2.7-.48ZM427.76,21c-.99.2-1.99.41-3,.64,1-.23,2-.44,3-.64ZM506.89,36.72c.39.24.76.48,1.12.72-.36-.23-.73-.47-1.12-.72ZM447.8,19.08c1.94,0,3.86.07,5.74.18-1.88-.11-3.8-.17-5.74-.18ZM454.09,19.29c.92.06,1.83.13,2.74.21-.91-.08-1.82-.15-2.74-.21ZM457.25,19.54c.86.08,1.71.17,2.56.28-.85-.1-1.7-.19-2.56-.28ZM460.11,19.85c.9.11,1.79.23,2.67.37-.88-.13-1.77-.26-2.67-.37ZM463.28,20.29c.89.14,1.78.28,2.65.44-.87-.16-1.76-.3-2.65-.44ZM465.99,20.75c.87.16,1.72.32,2.57.5-.85-.17-1.71-.34-2.57-.5ZM468.96,21.32c.85.18,1.68.36,2.51.56-.83-.19-1.67-.38-2.51-.56ZM471.82,21.96c.83.2,1.65.4,2.46.61-.81-.21-1.63-.41-2.46-.61ZM474.34,22.59c.83.22,1.64.44,2.45.67-.81-.23-1.62-.46-2.45-.67ZM477.15,23.37c.8.23,1.59.47,2.37.71-.78-.24-1.57-.48-2.37-.71ZM479.63,24.12c.77.24,1.52.49,2.27.74-.75-.25-1.5-.5-2.27-.74ZM482.14,24.94c.75.26,1.49.52,2.23.78-.73-.27-1.47-.53-2.23-.78ZM484.65,25.83c1.48.54,2.91,1.1,4.29,1.67-1.38-.57-2.81-1.13-4.29-1.67ZM489.21,27.6c.68.28,1.35.57,2.01.85-.66-.29-1.33-.57-2.01-.85ZM491.37,28.52c.65.28,1.28.57,1.91.85-.62-.29-1.26-.57-1.91-.85ZM493.4,29.43c.63.29,1.25.58,1.86.87-.61-.29-1.23-.58-1.86-.87ZM495.51,30.42c1.22.59,2.38,1.18,3.5,1.76-1.11-.58-2.28-1.17-3.5-1.76ZM499.2,32.29c.55.29,1.08.57,1.6.86-.52-.28-1.05-.57-1.6-.86ZM500.96,33.23c.51.28,1.02.56,1.5.84-.49-.28-.99-.56-1.5-.84ZM502.51,34.1c.49.28.97.56,1.43.83-.46-.27-.94-.55-1.43-.83ZM504.15,35.05c.46.27.9.54,1.33.8-.43-.26-.87-.53-1.33-.8ZM505.51,35.87c.42.26.83.51,1.22.76-.39-.25-.8-.5-1.22-.76ZM512.75,40.72c.19.14.36.27.52.39.18.13.37.24.56.34-.19-.1-.38-.2-.56-.34-.16-.12-.33-.25-.52-.39ZM508.17,37.54c.36.23.7.46,1.03.68-.33-.22-.67-.45-1.03-.68ZM509.22,38.23c.33.22.64.43.94.64-.3-.21-.61-.42-.94-.64ZM510.32,38.98c.29.2.56.39.82.57-.26-.18-.53-.37-.82-.57ZM511.24,39.62c.23.17.46.32.67.48-.21-.15-.43-.31-.67-.48ZM512.02,40.18c.22.16.42.31.61.45-.19-.14-.39-.29-.61-.45ZM514.02,41.53c.13.06.27.11.41.15-.14-.04-.28-.09-.41-.15ZM514.65,41.73c.14.03.27.05.41.06-.14-.01-.27-.03-.41-.06ZM515.27,41.81c.1,0,.19,0,.29-.01-.06,0-.12.02-.18.02-.04,0-.07,0-.11,0ZM517.01,41.41c-.08.04-.17.08-.25.11.09-.04.17-.07.25-.11ZM516.31,41.68c-.09.02-.18.05-.28.06.09-.02.18-.04.28-.06ZM554.69,92.75c.21.03.41.08.61.14-.2-.07-.4-.11-.61-.14ZM555.35,92.92c.18.06.35.14.52.23-.17-.09-.34-.17-.52-.23ZM554.03,92.72s.09,0,.14,0c.11,0,.22.02.33.03-.15-.01-.31-.02-.47-.02ZM553.26,92.83c.21-.06.42-.08.62-.1-.21.02-.41.05-.62.1ZM500.17,218.25c.08,0,.15.01.23.02-.12,0-.24,0-.36,0,.05,0,.09-.02.13-.02ZM501.19,218.4c-.2-.06-.4-.1-.61-.12.2.02.41.06.61.12ZM499.5,218.33c-.08.02-.16.03-.24.05.08-.02.16-.03.24-.05ZM406.14,222.44c-.31-.13-.63-.27-.93-.4.3.13.62.27.93.4ZM447.77,231.2c-.61,0-1.21-.02-1.81-.03.6.01,1.2.03,1.81.03ZM443.88,231.11c-.6-.03-1.19-.06-1.78-.1.59.04,1.18.07,1.78.1ZM440.1,230.88c-.58-.05-1.16-.1-1.74-.15.58.06,1.15.11,1.74.15ZM436.42,230.52c-.57-.06-1.13-.13-1.69-.21.56.07,1.12.14,1.69.21ZM432.86,230.05c-.55-.08-1.1-.17-1.64-.26.54.09,1.09.17,1.64.26ZM429.41,229.48c-.53-.1-1.06-.2-1.58-.3.52.1,1.05.2,1.58.3ZM426.07,228.81c-.51-.11-1.02-.22-1.53-.34.5.12,1.01.23,1.53.34ZM422.86,228.07c-.49-.12-.98-.24-1.47-.37.48.13.97.25,1.47.37ZM419.76,227.25c-.47-.13-.94-.26-1.4-.4.46.14.93.27,1.4.4ZM416.79,226.37c-.44-.14-.89-.27-1.32-.41.43.14.88.28,1.32.41ZM413.94,225.44c-.42-.14-.84-.28-1.24-.43.41.14.83.29,1.24.43ZM411.22,224.47c-.39-.14-.78-.29-1.15-.43.38.15.77.29,1.15.43ZM408.63,223.47c-.35-.14-.72-.28-1.06-.43.35.14.71.28,1.06.43ZM403.7,221.35c-.23-.11-.47-.21-.7-.32.23.11.47.21.7.32ZM400.23,219.77c-.08-.02-.16-.03-.24-.04.08.01.16.02.24.04ZM399.49,219.67c-.13,0-.26,0-.4.01.1,0,.2-.02.29-.02.04,0,.07.01.1.01ZM398.89,219.7c-.21.03-.42.07-.62.14.21-.07.41-.11.62-.14ZM556.83,93.95c-.09-.1-.18-.2-.28-.29.1.09.19.19.28.29ZM557.55,95.29c-.06-.22-.14-.42-.23-.61.09.19.18.4.23.61ZM557.21,94.5c-.07-.13-.15-.25-.23-.37.09.12.16.24.23.37ZM556.04,93.26c.12.08.23.15.34.24-.11-.09-.23-.17-.34-.24ZM456.62,168.42l-.29-.29.29.29h0Z"/>
    <path class="cls-9" d="M549.45,552.18v-84.33c0-4.38-2.85-8.25-7.03-9.55l-53.28-16.56-39.45-12.26c6.53-1.41,11.43-7.22,11.43-14.17v-92.94c0-6.77-4.67-12.46-10.96-14.04.97-.09,1.91-.25,2.82-.49h6.08c.59,0,1.16-.06,1.72-.16.56.1,1.13.16,1.72.16h7.62c2.01,0,3.88-.59,5.45-1.61,2.55,1.25,5.47,1.94,8.65,1.94h2.83c5.52,0,10-4.48,10-10v-7.32c0-1.91-.54-3.7-1.47-5.22.75-1.41,1.18-3.01,1.18-4.72v-7.12c0-3.26-1.56-6.16-3.98-7.98-1.17-4.23-5.04-7.34-9.64-7.34h-1.45c-1.83-2.07-4.51-3.37-7.49-3.37h-2.42c-7.42,0-13.32,3.26-16.55,8.67-1.49-.33-3.06-.52-4.74-.52-2.29,0-4.46.34-6.45.99-1.76-.66-3.71-.99-5.82-.99-1.6,0-3.14.19-4.61.55-.18,0-.36-.01-.54-.01h-.68c-3.57-4.8-9.23-7.65-16.17-7.65-11.98,0-20.03,8.23-20.03,20.48v11.32c0,12.2,8.03,20.4,19.99,20.4,2.73,0,5.25-.44,7.54-1.24,1.16.47,2.43.74,3.76.74h7.66c1.85,0,3.58-.5,5.06-1.38,1.37.71,2.86,1.23,4.44,1.56-7.06.97-12.53,7.03-12.53,14.35v92.94c0,4.37,1.95,8.29,5.02,10.95-.82.04-1.64.16-2.43.41l-101.76,31.63c-4.18,1.3-7.03,5.17-7.03,9.55v121.65c0,4.4,2.88,8.29,7.09,9.57l101.44,30.84.26.08c.97.3,1.96.45,2.96.45s1.96-.14,2.91-.43l36.44-11.08c9.21,13.03,24.36,21.08,40.61,21.08,27.39,0,49.68-22.29,49.68-49.68,0-14.87-6.59-28.76-17.87-38.15ZM335.92,467.85l101.76-31.63,48.49,15.07,53.28,16.56h0s-53.28-16.56-53.28-16.56l-48.49-15.07-101.76,31.63h0ZM556.1,580.53c.4,1.58.7,3.19.91,4.83-.2-1.64-.51-3.25-.91-4.83s-.9-3.13-1.48-4.64c.59,1.51,1.08,3.06,1.48,4.64ZM551.37,569.4c.85,1.37,1.62,2.8,2.3,4.26-.68-1.47-1.45-2.89-2.3-4.26Z"/>
    <path class="cls-9" d="M511.38,675.86h-7.87c-.94,0-1.86.13-2.73.38-.87-.25-1.79-.38-2.73-.38h-4.98c-1.37-.36-2.83-.54-4.36-.54s-3.14.19-4.61.55c-.18,0-.36-.01-.54-.01h-5.59c-1.28,0-2.5.25-3.62.69-2.14-.78-4.47-1.23-6.98-1.23-2.06,0-4.02.29-5.83.84-.77-.19-1.57-.3-2.39-.3h-8.16c-.76,0-1.5.08-2.21.25-.2-.04-.4-.07-.6-.1-1.88-5.59-7.16-9.63-13.37-9.63-2.21,0-4.28.5-6.13,1.37h-7.27c-4.69,0-8.62,3.24-9.7,7.6-.21,0-.4-.03-.61-.03-1.46,0-2.87.16-4.21.44-3.61-4.37-9.1-6.97-15.71-6.97h-8.99c-5.52,0-10,4.48-10,10v31.12c0,5.52,4.48,10,10,10h9.07c3.64,0,6.93-.81,9.77-2.27,2.86,1.76,6.26,2.76,10.03,2.76,2.47,0,4.78-.4,6.89-1.12,1.08.4,2.24.63,3.46.63h7.66c.32,0,.63-.02.93-.05.31.03.62.05.93.05h7.69c1.08,0,2.12-.17,3.09-.49.98.32,2.02.49,3.09.49h7.94c2.03,0,3.94-.61,5.54-1.68,2.64,1.39,5.7,2.17,9.04,2.17,2.53,0,4.89-.41,7.05-1.17,1.12.43,2.33.68,3.59.68h5.18c.99,4.47,4.99,7.82,9.76,7.82h3.91c4.78,0,13.37-1.96,17.17-15.1l6.99-23.98c.88-3.02.29-6.28-1.6-8.8-1.89-2.52-4.85-4-8-4Z"/>
  </g>
  <g>
    <g>
      <path class="cls-6" d="M1257.91,902.08h-413.35v-189.14l-3.29,4.89-22.57,33.44c-24.31,36.03-76.75,37.72-103.34,3.34-29.22-37.79-60.78-78.83-68.08-89.09-14.31-20.13-7.6-36.68-7.6-36.68l53.23-32.21,60.84,46.08c.15-.38.29-.75.44-1.13.56-1.45,1.13-2.92,1.71-4.4,29.27-75.45,67.84-174.54,112.38-202.05,45.63-28.18,84-31.98,84-31.98,0,0,39.02-29.76,99.78-16.36,60.76,13.39,134.73,61.76,153.52,91.73,18.78,29.98,47.86,208.02,52.34,243.36,4.48,35.34,0,180.2,0,180.2Z"/>
      <path class="cls-23" d="M952.26,403.15s-20.92,21.69-28.53,106.24c-7.61,84.55-2.68,307.78,1.34,343.12h110.5s-9.39-109.15-8.95-185.65c.45-76.5,17.74-249.69,25.42-280.08l-99.79,16.37Z"/>
      <path class="cls-14" d="M930,902.08s-4.69-33.91-6.13-65.21h110.44s2.15,37.39,5.73,65.21h-110.05Z"/>
      <path class="cls-15" d="M858.35,514.18c-8.8,59.06-13.32,221.37-13.8,239.26v-40.51l-3.29,4.89c1.87-55.79,6.09-159.49,12.76-204.28.18-1.2,1.29-2.02,2.49-1.85,1.19.18,2.01,1.3,1.84,2.49Z"/>
      <path class="cls-15" d="M1161.86,902.08h-4.39c-1.2-31.14-6.16-157.73-7.32-172.87-1.32-17.12-29.65-164.67-29.94-166.16-.23-1.19.55-2.34,1.74-2.57,1.18-.23,2.33.55,2.56,1.73,1.17,6.09,28.67,149.29,30.01,166.66,1.17,15.26,6.16,142.37,7.35,173.21Z"/>
      <path class="cls-15" d="M786.66,668.8c-.44.46-1.02.69-1.6.69-.53,0-1.07-.19-1.5-.59l-29.38-27.33c.56-1.45,1.13-2.92,1.71-4.4l30.66,28.52c.88.82.94,2.22.11,3.1Z"/>
      <path class="cls-15" d="M643.85,637.03s-2.99,11.64,3.57,20.58c0,0-.68,4,10.14,0,0,0-6.77-4.81-13.71-20.58Z"/>
      <g>
        <g>
          <polygon class="cls-24" points="616.82 337.93 675.22 330.21 691.06 469.42 652.23 478.23 616.82 337.93"/>
          <path class="cls-11" d="M673.03,333.03l15.29,134.46-34.27,7.77-34.12-135.21,53.09-7.01M677.42,327.4l-63.71,8.42,36.69,145.39,43.39-9.84-16.38-143.96h0Z"/>
        </g>
        <g>
          <path class="cls-24" d="M697.19,606.42c-9.56,0-20.69-2.48-25.24-3.61l4.93-37.4,26.82-18.16,10.57,6.4,8.97,42.51c-2.88,2.43-11.55,9.04-21.66,10.05-1.35.13-2.83.2-4.41.2Z"/>
          <path class="cls-11" d="M703.79,550.22l8.27,5.01,8.44,39.96c-3.44,2.7-10.81,7.71-19.15,8.54-1.26.13-2.66.19-4.16.19-8.03,0-17.24-1.81-22.46-3.02l4.49-34.05,24.56-16.63M703.64,544.28l-29.08,19.68-5.37,40.71s15.2,4.24,28,4.24c1.6,0,3.16-.07,4.65-.22,13.42-1.34,24.16-11.63,24.16-11.63l-9.5-44.99-12.87-7.79h0Z"/>
        </g>
        <path class="cls-21" d="M638.72,434.92l6.42,25.46s8.54,1.98,24.05,0,22.79-4.98,22.79-4.98l-3.08-27.09s-13.74,4.74-24.78,6.23c-11.03,1.49-25.4.39-25.4.39Z"/>
        <path class="cls-4" d="M690.08,438.67s12.22-29.49,28.62-28.6c16.4.89,22.37,15.51,18.19,25.05-4.18,9.54-31.56,15.47-45.45,15.49l-1.36-11.94Z"/>
        <path class="cls-21" d="M734.5,468.43s2.39,12.33,0,25.75c0,0-27.43-28.03-42.05-34.6l-1.02-8.97s18.32-.81,27.89-4.64c0,0,21.44,9.43,28,20.76l-12.82,1.69Z"/>
        <path class="cls-20" d="M691.43,450.62l1.02,8.97s9.31,4.57,19.73,13.84l4.27-3.34s-7.46-9.75-13.57-13.63c0,0,10.61-2.56,29.54-3.37,0,0-3.07-2.52-13.1-7.11,0,0-10.42,4.02-27.89,4.64Z"/>
        <g>
          <path class="cls-24" d="M643.01,340.1c-10.48,0-21.27-3.75-25.91-5.58,2.18-3.77,8.33-11.39,22.85-13.05,1.93-.22,3.91-.33,5.88-.33,12.1,0,22.2,4.18,27.08,6.63-5.26,3.93-16.85,11.64-27.49,12.27-.78.05-1.59.07-2.41.07Z"/>
          <path class="cls-11" d="M645.83,318.64v5s0,0,0,0c9.01,0,16.87,2.43,22.11,4.6-5.73,3.87-14.56,8.82-22.66,9.3-.73.04-1.5.06-2.27.06-8.25,0-16.76-2.44-22.01-4.29,2.88-3.51,8.6-8.14,19.24-9.36,1.83-.21,3.72-.32,5.6-.32v-5M645.83,318.64c-2,0-4.06.11-6.16.35-21.03,2.4-25.95,16.83-25.95,16.83,0,0,14.77,6.78,29.3,6.78.85,0,1.71-.02,2.56-.07,15.3-.89,31.85-15.13,31.85-15.13,0,0-13.55-8.77-31.59-8.76h0Z"/>
        </g>
      </g>
      <g>
        <path class="cls-25" d="M707.79,553.26c-.81-.07-1.66-.18-2.51-.32,0,0,16.11,27.14-24.45,33.4.26,2.01.39,4.48.11,7.27-.55,5.52-2.45,9.78-3.92,12.42,2.98.88,6.46,1.69,10.37,2.23,2.79.38,5.39.57,7.75.63l.3,3.7s-4.18,36.98-37.88,45.03c0,0-15.21-15.8-24.15-47.12-8.94-31.31-19.39-73.66-19.69-94.54-.3-20.88,10.44-32.81,21.92-39.07,11.49-6.26,60.4-27.44,61.89-3.28,0,0,.26.03.75.11.85.16,2.37.5,4.29,1.22,6.84,2.58,18.73,9.97,23.29,30.88,6.29,28.87.53,48.96-18.06,47.45Z"/>
        <path class="cls-19" d="M713.12,535.81c-.73,9.2-3.87,15.07-5.36,17.38,0,.03.02.04.03.07,3.41,8.19,3.41,15.31,0,21.17-5.73,9.86-19.37,12.95-24.64,13.8.48,12.2-4.93,20.19-7.54,23.3-.74.88-1.24,1.37-1.33,1.45-.43.39-.96.59-1.5.59-.59,0-1.17-.23-1.6-.69-.82-.88-.78-2.26.1-3.09.38-.35,8.74-8.51,7.38-23.25l-.2-2.18,2.17-.2c.18-.02,17.5-1.8,23.4-11.94,2.69-4.63,2.58-10.48-.31-17.39-4.7-.97-25.07-4.31-45.17,5.74-1.08.53-2.39.1-2.93-.98-.54-1.09-.11-2.4.98-2.94,21.13-10.57,41.95-7.37,47.71-6.18,1.28-2.1,3.85-7.21,4.47-15,.72-9.08-6.48-12.79-7.52-13.27-14.95-4.39-50.86,9.96-51.21,10.11-.27.11-.55.16-.82.16-.87,0-1.68-.52-2.03-1.38-.45-1.12.1-2.39,1.22-2.85,1.52-.61,36.92-14.75,53.57-10.39,1.25-.53,5.14-2.97,4.01-12.68-1.29-11.13-11.35-13.57-12.79-13.86-18.2.37-48.24,11.95-48.55,12.07-.26.1-.53.15-.79.15-.88,0-1.71-.53-2.05-1.4-.44-1.12.12-2.39,1.25-2.83,1.25-.49,30.51-11.77,49.51-12.35,4.35-3.6,5.46-9.65,5.72-13.24.85.16,2.37.5,4.29,1.22-.37,3.7-1.52,8.99-4.97,13.14,5.2,2.1,11.63,7.08,12.73,16.59,1.03,8.87-1.55,13.32-4.05,15.53,3.61,2.83,7.45,8.01,6.84,15.61Z"/>
      </g>
      <path class="cls-25" d="M862.45,159.11l3.22,47.52s-33.43,192.5,86.58,196.53c0,0-3.62,10.67-3.22,25.77s19.33,25.37,41.68,24.57c22.35-1.01,73.5-8.05,58.8-102.29,0,0,9.46-19.33,9.26-30,0,0,70.68-17.52,22.75-80.54l-6.04-21.95-45.51-16.11-17.52-53.36-89.81,19.53-60.41-9.87h0l.2.2Z"/>
      <path class="cls-17" d="M865.68,206.63s-39.87-77.32,14.1-100.48c53.96-23.16,153.64-24.77,179.41,26.18,0,0,44.1,28.19,22.35,108.13,0,0-18.32-13.49-44.5,23.16,0,0-9.26-22.35-6.85-48.73,0,0-25.17-22.55-22.35-59.6,0,0-74.5,36.04-139.54,17.72l-2.62,33.63h0Z"/>
      <path class="cls-10" d="M942.39,351.2c-7.45,0-14.9-1.41-21.75-4.23-1.01-.4-1.41-1.41-1.01-2.42s1.41-1.41,2.42-1.01c7.45,3.02,15.3,4.23,23.16,3.83,12.08-.6,21.34-5.24,26.98-8.86.81-.6,2.01-.4,2.62.6.6.81.4,2.01-.6,2.62-6.04,4.03-15.91,8.86-28.79,9.46h-3.02,0Z"/>
      <path class="cls-17" d="M883.12,220.04s1.21-8.26,15.1-8.86c13.89-.6,21.14.6,20.74,4.43-.4,3.83-13.49,1.61-20.34,2.21s-10.87,1.21-15.3,2.42h0l-.2-.2Z"/>
      <path class="cls-17" d="M999.48,220.04s-1.21-8.26-15.1-8.86c-13.89-.6-21.14.6-20.74,4.43.4,3.83,13.49,1.61,20.34,2.21s10.87,1.21,15.3,2.42h0l.2-.2Z"/>
      <path class="cls-12" d="M905.06,248.03c-1.81-1.61-4.23-2.62-6.85-2.62-5.64,0-10.27,4.63-10.27,10.27s4.63,10.27,10.27,10.27,7.65-2.42,9.26-6.04c.6-1.21,1.01-2.82,1.01-4.23,0-3.02-1.41-5.84-3.42-7.65h0Z"/>
      <path class="cls-12" d="M985.41,248.03c-1.81-1.61-4.23-2.62-6.85-2.62-5.64,0-10.27,4.63-10.27,10.27s4.63,10.27,10.27,10.27,7.65-2.42,9.26-6.04c.6-1.21,1.01-2.82,1.01-4.23,0-3.02-1.41-5.84-3.42-7.65h0Z"/>
      <path class="cls-10" d="M917.02,317.98c-2.21-.81-5.64-2.21-7.85-5.64-1.21-1.81-1.81-4.43-1.81-7.45,0-4.03,1.01-7.05,2.42-10.87l.6-1.61c2.01-5.64,3.83-10.47,4.63-15.5.6-3.42.81-7.05.4-10.67,0-1.01.6-1.81,1.61-2.01,1.01,0,1.81.6,2.01,1.61.4,3.83,0,7.85-.4,11.68-.81,5.44-2.62,10.27-4.83,16.11l-.6,1.61c-1.41,3.83-2.21,6.24-2.21,9.46,0,2.21.6,4.23,1.21,5.44,1.61,2.62,4.23,3.62,6.04,4.23,3.02,1.21,5.84,1.41,13.49,1.01,4.43,0,9.06-.4,13.49-1.01,1.01,0,1.81.6,2.01,1.61s-.6,1.81-1.61,2.01c-4.63.4-9.26.81-13.69,1.01h-5.44s-6.64,0-9.46-1.01Z"/>
      <path class="cls-22" d="M1001.59,230.79h-49.13c-6.64,0-12.08,5.44-12.08,12.08v6.24c-2.82-1.21-6.44-2.42-10.87-2.42h0c-4.03,0-7.25,1.01-9.87,2.01v-6.04c0-6.64-5.44-12.08-12.08-12.08h-49.13c-6.64,0-12.08,5.44-12.08,12.08v31.81c0,6.64,5.44,12.08,12.08,12.08h49.13c6.64,0,12.08-5.44,12.08-12.08v-19.73c2.21-1.21,5.64-2.62,9.87-2.62h0c4.83,0,8.46,1.61,10.87,3.02v19.33c0,6.64,5.44,12.08,12.08,12.08h49.13c6.64,0,12.08-5.44,12.08-12.08v-31.81c0-6.64-5.44-12.08-12.08-12.08h0v.2ZM914,274.69c0,3.62-2.82,6.44-6.44,6.44h-49.13c-3.62,0-6.44-2.82-6.44-6.44v-31.81c0-3.62,2.82-6.44,6.44-6.44h49.13c3.62,0,6.44,2.82,6.44,6.44v31.81ZM1008.04,274.69c0,3.62-2.82,6.44-6.44,6.44h-49.13c-3.62,0-6.44-2.82-6.44-6.44v-31.81c0-3.62,2.82-6.44,6.44-6.44h49.13c3.62,0,6.44,2.82,6.44,6.44v31.81Z"/>
    </g>
    <path class="cls-16" d="M130.7,414.87c-1.93,0-3.5-1.57-3.5-3.5v-92.94c0-1.93,1.57-3.5,3.5-3.5s3.5,1.57,3.5,3.5v92.94c0,1.93-1.57,3.5-3.5,3.5Z"/>
    <g>
      <g>
        <g>
          <g>
            <path class="cls-18" d="M160.83,170.63c-28.66,0-51.98-23.32-51.98-51.98s23.32-51.98,51.98-51.98,51.98,23.32,51.98,51.98-23.32,51.98-51.98,51.98Z"/>
            <path class="cls-5" d="M160.83,69.17c27.33,0,49.48,22.15,49.48,49.48s-22.15,49.48-49.48,49.48-49.48-22.15-49.48-49.48,22.15-49.48,49.48-49.48M160.83,64.17c-30.04,0-54.48,24.44-54.48,54.48s24.44,54.48,54.48,54.48,54.48-24.44,54.48-54.48-24.44-54.48-54.48-54.48h0Z"/>
          </g>
          <path class="cls-5" d="M245.48,208.49c-.64,0-1.28-.24-1.77-.73l-48.85-48.85c-.98-.98-.98-2.56,0-3.54.98-.98,2.56-.98,3.54,0l48.85,48.85c.98.98.98,2.56,0,3.54-.49.49-1.13.73-1.77.73Z"/>
        </g>
        <path class="cls-16" d="M208.54,227.7H14.5c-1.93,0-3.5-1.57-3.5-3.5V14.5c0-1.93,1.57-3.5,3.5-3.5h221.62c1.93,0,3.5,1.57,3.5,3.5v142.98c0,1.93-1.57,3.5-3.5,3.5s-3.5-1.57-3.5-3.5V18H18v202.7h190.54c1.93,0,3.5,1.57,3.5,3.5s-1.57,3.5-3.5,3.5Z"/>
        <path class="cls-16" d="M206.5,50.34h-77.28c-1.93,0-3.5-1.57-3.5-3.5s1.57-3.5,3.5-3.5h77.28c1.93,0,3.5,1.57,3.5,3.5s-1.57,3.5-3.5,3.5Z"/>
        <path class="cls-16" d="M188.46,191.95H51.26c-1.93,0-3.5-1.57-3.5-3.5s1.57-3.5,3.5-3.5h137.19c1.93,0,3.5,1.57,3.5,3.5s-1.57,3.5-3.5,3.5Z"/>
      </g>
      <g>
        <g>
          <rect class="cls-5" x="38.37" y="484.09" width="3" height="110.49"/>
          <rect class="cls-5" x="217.6" y="484.09" width="3" height="110.49"/>
          <rect class="cls-5" x="41.37" y="482.59" width="180.8" height="3"/>
          <g>
            <g>
              <path class="cls-8" d="M129.49,477.19c-7.91,0-14.35-6.44-14.35-14.35s6.44-14.35,14.35-14.35,14.35,6.44,14.35,14.35-6.44,14.35-14.35,14.35Z"/>
              <path class="cls-5" d="M129.49,450.99c6.53,0,11.85,5.32,11.85,11.85s-5.32,11.85-11.85,11.85-11.85-5.32-11.85-11.85,5.32-11.85,11.85-11.85M129.49,445.99c-9.31,0-16.85,7.54-16.85,16.85s7.54,16.85,16.85,16.85,16.85-7.54,16.85-16.85-7.54-16.85-16.85-16.85h0Z"/>
            </g>
            <g>
              <g>
                <path class="cls-8" d="M39.87,608.93c-7.91,0-14.35-6.44-14.35-14.35s6.44-14.35,14.35-14.35,14.35,6.44,14.35,14.35-6.44,14.35-14.35,14.35Z"/>
                <path class="cls-5" d="M39.87,582.73c6.53,0,11.85,5.32,11.85,11.85s-5.32,11.85-11.85,11.85-11.85-5.32-11.85-11.85,5.32-11.85,11.85-11.85M39.87,577.73c-9.31,0-16.85,7.54-16.85,16.85s7.54,16.85,16.85,16.85,16.85-7.54,16.85-16.85-7.54-16.85-16.85-16.85h0Z"/>
              </g>
              <g>
                <path class="cls-8" d="M219.1,608.93c-7.91,0-14.35-6.44-14.35-14.35s6.44-14.35,14.35-14.35,14.35,6.44,14.35,14.35-6.44,14.35-14.35,14.35Z"/>
                <path class="cls-5" d="M219.1,582.73c6.53,0,11.85,5.32,11.85,11.85s-5.32,11.85-11.85,11.85-11.85-5.32-11.85-11.85,5.32-11.85,11.85-11.85M219.1,577.73c-9.31,0-16.85,7.54-16.85,16.85s7.54,16.85,16.85,16.85,16.85-7.54,16.85-16.85-7.54-16.85-16.85-16.85h0Z"/>
              </g>
              <g>
                <rect class="cls-7" x="27.88" y="472.1" width="23.98" height="23.98" rx="2.61" ry="2.61"/>
                <path class="cls-5" d="M49.25,474.6c.06,0,.11.05.11.11v18.77c0,.06-.05.11-.11.11h-18.77c-.06,0-.11-.05-.11-.11v-18.77c0-.06.05-.11.11-.11h18.77M49.25,469.6h-18.77c-2.82,0-5.11,2.29-5.11,5.11v18.77c0,2.82,2.29,5.11,5.11,5.11h18.77c2.82,0,5.11-2.29,5.11-5.11v-18.77c0-2.82-2.29-5.11-5.11-5.11h0Z"/>
              </g>
              <g>
                <rect class="cls-7" x="207.12" y="472.1" width="23.98" height="23.98" rx="2.61" ry="2.61"/>
                <path class="cls-5" d="M228.49,474.6c.06,0,.11.05.11.11v18.77c0,.06-.05.11-.11.11h-18.77c-.06,0-.11-.05-.11-.11v-18.77c0-.06.05-.11.11-.11h18.77M228.49,469.6h-18.77c-2.82,0-5.11,2.29-5.11,5.11v18.77c0,2.82,2.29,5.11,5.11,5.11h18.77c2.82,0,5.11-2.29,5.11-5.11v-18.77c0-2.82-2.29-5.11-5.11-5.11h0Z"/>
              </g>
            </g>
          </g>
        </g>
        <g>
          <path class="cls-3" d="M171.35,586.15l-23.89,46.49c-.12-.02-.23-.02-.35-.02h-35.24c-.12,0-.23,0-.35.02l-23.89-46.49,38.23-74.37c.29-.56.68-1.02,1.13-1.36,1.45-1.14,3.55-1.14,5,0,.45.34.84.8,1.13,1.36l38.23,74.37Z"/>
          <path class="cls-5" d="M151.32,636.84v8.68c0,2.32-1.89,4.21-4.21,4.21h-35.24c-2.32,0-4.21-1.89-4.21-4.21v-8.68c0-2.21,1.7-4.03,3.86-4.2.12-.02.23-.02.35-.02h35.24c.12,0,.23,0,.35.02,2.16.17,3.86,1.99,3.86,4.2Z"/>
          <path class="cls-5" d="M137.06,586.15c0,4.18-3.39,7.57-7.57,7.57s-7.57-3.39-7.57-7.57c0-3.31,2.14-6.13,5.11-7.15-.02-.13-.04-.27-.04-.41v-68.17c1.45-1.14,3.55-1.14,5,0v68.17c0,.14-.02.28-.04.41,2.97,1.02,5.11,3.84,5.11,7.15Z"/>
        </g>
      </g>
      <g>
        <path d="M52.65,269.8h7.99c5.86,0,9.32,3.58,9.32,9.65v9.61c0,6.2-3.41,9.86-9.23,9.86h-8.07v-29.12ZM60.72,293.3c2.12,0,3.24-1.46,3.24-4.24v-9.61c0-2.66-1.12-4.03-3.24-4.03h-2.16v17.89h2.16Z"/>
        <path d="M73.53,270.51c0-1.79,1.29-3.12,3.12-3.12s3.12,1.33,3.12,3.12c0,1.66-1.37,3.12-3.12,3.12s-3.12-1.37-3.12-3.12ZM73.78,276.87h5.7v22.05h-5.7v-22.05Z"/>
        <path d="M81.89,291.89h5.66c.08,1.08.62,2.5,2.7,2.5,1.5,0,2.37-.71,2.37-1.75,0-3.45-10.36-2.45-10.36-9.9,0-4.03,2.95-6.41,7.61-6.41,5.28,0,7.45,3.16,7.78,7.32h-5.45c-.12-1.41-.71-2.33-2.33-2.33-1.21,0-2,.58-2,1.41,0,3.08,10.4,1.87,10.4,9.86,0,4.16-2.87,6.95-7.82,6.95-5.74,0-8.44-3.74-8.57-7.65Z"/>
        <path d="M100.69,291.14v-6.57c0-5.16,2.91-8.24,7.86-8.24,5.2,0,7.86,3.08,8.03,8.24h-5.7c-.08-1.87-.79-2.83-2.2-2.83s-2.25.96-2.25,2.83v6.57c0,1.87.79,2.87,2.25,2.87,1.54,0,2.25-1,2.37-2.87h5.7c-.12,5.2-3.16,8.28-8.19,8.28s-7.86-3.08-7.86-8.28Z"/>
        <path d="M119.07,290.68v-5.62c0-5.62,3.04-8.74,8.19-8.74s8.19,3.12,8.19,8.74v5.62c0,5.62-3.04,8.78-8.19,8.78s-8.19-3.16-8.19-8.78ZM129.67,290.68v-5.62c0-2.29-.83-3.24-2.41-3.24s-2.41.96-2.41,3.24v5.62c0,2.29.83,3.29,2.41,3.29s2.41-1,2.41-3.29Z"/>
        <path d="M154.13,276.87l-5.87,22.05h-6.41l-5.86-22.05h6.03l1.33,6.86c.58,2.91,1.29,6.66,1.58,8.61h.25c.33-1.95,1.04-5.74,1.58-8.61l1.33-6.86h6.03Z"/>
        <path d="M172.01,291.89c-.46,4.74-3.49,7.53-8.4,7.53s-7.9-3.24-7.9-8.69v-5.86c0-5.37,2.95-8.53,7.94-8.53s8.07,3.16,8.07,8.53v4.95h-10.32v.92c0,2.29.79,3.29,2.29,3.29,1.71,0,2.2-.62,2.58-2.12h5.74ZM161.41,284.77v1.17h4.7v-1.17c0-2.25-.83-3.2-2.41-3.2-1.5,0-2.29.96-2.29,3.2Z"/>
        <path d="M187.4,276.83v5.41c-.79-.37-1.62-.58-2.66-.58-2.37,0-3.83,1.08-3.83,3.41v13.85h-5.66v-22.05h3.74l.42,2.33c1.16-1.87,3.08-2.87,5.57-2.87,1,0,1.83.17,2.41.5Z"/>
        <path d="M206.33,276.87l-6.61,22.71c-1.16,3.99-2.99,7.15-6.61,7.15h-2.91v-5.45h1.66c1.46,0,1.96-.92,2.5-2.75l.54-1.87-7.2-19.8h5.91l3.62,11.69,3.33-11.69h5.78Z"/>
      </g>
      <g>
        <path d="M66.06,681.87h7.99c5.86,0,9.32,3.58,9.32,9.65v9.61c0,6.2-3.41,9.86-9.23,9.86h-8.07v-29.12ZM74.13,705.37c2.12,0,3.24-1.46,3.24-4.24v-9.61c0-2.66-1.12-4.03-3.24-4.03h-2.16v17.89h2.16Z"/>
        <path d="M102.33,703.95c-.46,4.74-3.49,7.53-8.4,7.53s-7.9-3.24-7.9-8.69v-5.86c0-5.37,2.95-8.53,7.94-8.53s8.07,3.16,8.07,8.53v4.95h-10.32v.92c0,2.29.79,3.29,2.29,3.29,1.71,0,2.2-.62,2.58-2.12h5.74ZM91.72,696.84v1.17h4.7v-1.17c0-2.25-.83-3.2-2.41-3.2-1.5,0-2.29.96-2.29,3.2Z"/>
        <path d="M105.28,680.83h5.66v30.16h-5.66v-30.16Z"/>
        <path d="M114.55,682.57c0-1.79,1.29-3.12,3.12-3.12s3.12,1.33,3.12,3.12c0,1.66-1.37,3.12-3.12,3.12s-3.12-1.37-3.12-3.12ZM114.8,688.94h5.7v22.04h-5.7v-22.04Z"/>
        <path d="M140.72,688.94l-5.87,22.04h-6.41l-5.86-22.04h6.03l1.33,6.86c.58,2.91,1.29,6.66,1.58,8.61h.25c.33-1.95,1.04-5.74,1.58-8.61l1.33-6.86h6.03Z"/>
        <path d="M158.6,703.95c-.46,4.74-3.49,7.53-8.4,7.53s-7.9-3.24-7.9-8.69v-5.86c0-5.37,2.95-8.53,7.94-8.53s8.07,3.16,8.07,8.53v4.95h-10.32v.92c0,2.29.79,3.29,2.29,3.29,1.71,0,2.2-.62,2.58-2.12h5.74ZM147.99,696.84v1.17h4.7v-1.17c0-2.25-.83-3.2-2.41-3.2-1.5,0-2.29.96-2.29,3.2Z"/>
        <path d="M173.99,688.9v5.41c-.79-.37-1.62-.58-2.66-.58-2.37,0-3.83,1.08-3.83,3.41v13.85h-5.66v-22.04h3.74l.42,2.33c1.16-1.87,3.08-2.87,5.57-2.87,1,0,1.83.17,2.41.5Z"/>
        <path d="M192.91,688.94l-6.61,22.71c-1.16,3.99-2.99,7.15-6.61,7.15h-2.91v-5.45h1.66c1.46,0,1.96-.92,2.5-2.75l.54-1.87-7.2-19.8h5.91l3.62,11.69,3.33-11.69h5.78Z"/>
      </g>
    </g>
    <g>
      <g>
        <path class="cls-13" d="M350.45,78.36c-.38,0-.77-.09-1.13-.27-1.23-.63-1.72-2.13-1.09-3.36,5.38-10.57,26.43-45.99,71.2-57.95,50.59-13.52,90.08,13.92,97.48,19.56,1.1.84,1.31,2.41.47,3.5-.84,1.1-2.4,1.31-3.5.48-7.08-5.39-44.84-31.62-93.16-18.71-42.77,11.43-62.89,45.29-68.03,55.39-.44.87-1.32,1.37-2.23,1.37Z"/>
        <path class="cls-13" d="M552.41,162.32c-.26,0-.53-.04-.79-.13-1.31-.44-2.02-1.85-1.59-3.16,3.11-9.37,4.92-19.11,5.37-28.94.52-11.2-.71-22.38-3.65-33.23-.36-1.33.43-2.71,1.76-3.07,1.33-.36,2.71.43,3.07,1.76,3.08,11.35,4.36,23.05,3.82,34.77-.48,10.29-2.37,20.48-5.62,30.29-.35,1.05-1.33,1.71-2.37,1.71Z"/>
        <path class="cls-13" d="M448.42,237.22c-21.75,0-39.18-6.35-50.16-11.82-1.24-.62-1.74-2.12-1.12-3.35.61-1.24,2.12-1.74,3.35-1.12,10.95,5.46,28.64,11.83,50.74,11.26,16.58-.44,33.09-4.81,47.76-12.64,1.22-.65,2.73-.19,3.38,1.03.65,1.22.19,2.73-1.03,3.38-15.35,8.19-32.63,12.77-49.98,13.23-.99.03-1.98.04-2.95.04Z"/>
        <g>
          <path class="cls-8" d="M355.65,144.73c-6.13,0-11.12-4.99-11.12-11.12s4.99-11.12,11.12-11.12,11.12,4.99,11.12,11.12-4.99,11.12-11.12,11.12Z"/>
          <path class="cls-5" d="M355.65,124.99c4.75,0,8.62,3.87,8.62,8.62s-3.87,8.62-8.62,8.62-8.62-3.87-8.62-8.62,3.87-8.62,8.62-8.62M355.65,119.99c-7.52,0-13.62,6.1-13.62,13.62s6.1,13.62,13.62,13.62,13.62-6.1,13.62-13.62-6.1-13.62-13.62-13.62h0Z"/>
        </g>
        <g>
          <path class="cls-7" d="M438.71,56.11h17.19c1.06,0,1.93.86,1.93,1.93v17.19c0,1.06-.86,1.93-1.93,1.93h-17.19c-1.06,0-1.93-.86-1.93-1.93v-17.19c0-1.06.86-1.93,1.93-1.93Z"/>
          <path class="cls-5" d="M455.33,58.61v16.04h-16.04v-16.04h16.04M455.9,53.61h-17.19c-2.44,0-4.43,1.98-4.43,4.43v17.19c0,2.44,1.98,4.43,4.43,4.43h17.19c2.44,0,4.43-1.98,4.43-4.43v-17.19c0-2.44-1.98-4.43-4.43-4.43h0Z"/>
        </g>
        <path class="cls-5" d="M358.15,122.46h-5v-8.98c0-27.21,22.14-49.35,49.35-49.35h34.94v5h-34.94c-24.46,0-44.35,19.9-44.35,44.35v8.98Z"/>
        <g>
          <path class="cls-7" d="M342.15,233.58l-8.36-36.22c12.86-9.09,18.98-25,21.86-36.93,2.88,11.94,9,27.84,21.86,36.93l-8.36,36.22h-27Z"/>
          <path class="cls-5" d="M355.65,169.43c3.46,10.23,9.29,21.46,19.05,28.97l-7.54,32.68h-23.02l-7.54-32.68c9.76-7.51,15.59-18.74,19.05-28.97M355.65,148.8c-.21,0-.42.13-.46.4-1.34,10.33-6.38,35.62-24.22,47.05l9.19,39.83h30.98l9.19-39.83c-17.85-11.43-22.88-36.72-24.22-47.05-.03-.27-.25-.4-.46-.4h0Z"/>
        </g>
        <circle class="cls-5" cx="355.65" cy="206.97" r="6.21"/>
        <g>
          <g>
            <path class="cls-7" d="M538.73,86.81c-.66,0-1.3-.26-1.77-.73l-19.28-19.28c-.98-.98-.98-2.56,0-3.54l23.54-23.54c.47-.47,1.1-.73,1.77-.73s1.3.26,1.77.73l19.28,19.28c.98.98.98,2.56,0,3.54l-23.54,23.54c-.47.47-1.1.73-1.77.73Z"/>
            <path class="cls-5" d="M542.99,41.5l19.28,19.28-23.54,23.54-19.28-19.28,23.54-23.54M542.99,36.5c-1.28,0-2.56.49-3.54,1.46l-23.54,23.54c-1.95,1.95-1.95,5.12,0,7.07l19.28,19.28c.94.94,2.21,1.46,3.54,1.46s2.6-.53,3.54-1.46l23.54-23.54c1.95-1.95,1.95-5.12,0-7.07l-19.28-19.28c-.98-.98-2.26-1.46-3.54-1.46h0Z"/>
          </g>
          <g>
            <path class="cls-7" d="M454.92,170.63c-.64,0-1.28-.24-1.77-.73l-19.28-19.28c-.98-.98-.98-2.56,0-3.54l83.82-83.82c.47-.47,1.1-.73,1.77-.73s1.3.26,1.77.73l19.28,19.28c.98.98.98,2.56,0,3.54l-83.82,83.82c-.49.49-1.13.73-1.77.73Z"/>
            <path class="cls-5" d="M519.45,65.04l19.28,19.28-83.82,83.82-19.28-19.28,83.82-83.82M519.45,60.04c-1.28,0-2.56.49-3.54,1.46l-83.82,83.82c-.94.94-1.46,2.21-1.46,3.54s.53,2.6,1.46,3.54l19.28,19.28c.98.98,2.26,1.46,3.54,1.46s2.56-.49,3.54-1.46l83.82-83.82c1.95-1.95,1.95-5.12,0-7.07l-19.28-19.28c-.98-.98-2.26-1.46-3.54-1.46h0Z"/>
          </g>
          <g>
            <path class="cls-7" d="M417.35,188.92c-.65,0-1.29-.25-1.77-.73-.75-.75-.95-1.9-.48-2.86l18.29-37.57c.35-.73,1.04-1.24,1.83-1.37.14-.02.28-.03.41-.03.66,0,1.29.26,1.77.73l19.28,19.28c.57.57.83,1.38.7,2.18-.13.8-.64,1.48-1.37,1.83l-37.57,18.29c-.35.17-.72.25-1.09.25Z"/>
            <path class="cls-5" d="M435.64,148.85l19.28,19.28-37.57,18.29,18.29-37.57M435.64,143.85c-.27,0-.55.02-.83.07-1.59.27-2.96,1.29-3.67,2.74l-18.29,37.57c-.93,1.92-.55,4.22.96,5.72.96.96,2.24,1.46,3.54,1.46.74,0,1.49-.17,2.19-.5l37.57-18.29c1.45-.71,2.48-2.07,2.74-3.67.27-1.59-.25-3.22-1.4-4.36l-19.28-19.28c-.95-.95-2.22-1.46-3.54-1.46h0Z"/>
          </g>
        </g>
        <g>
          <circle class="cls-3" cx="531.22" cy="191.35" r="22.04"/>
          <path class="cls-9" d="M527.64,202.37c-.05,0-.1,0-.16,0-.76-.05-1.46-.44-1.9-1.07l-8.06-11.65c-.79-1.14-.5-2.69.63-3.48,1.13-.79,2.69-.5,3.48.63l6.26,9.04,13.12-14.66c.92-1.03,2.5-1.12,3.53-.2,1.03.92,1.12,2.5.2,3.53l-15.23,17.02c-.48.53-1.15.83-1.86.83Z"/>
        </g>
      </g>
      <g>
        <g>
          <g>
            <polygon class="cls-1" points="336.92 468.59 336.92 588.76 437.68 619.4 437.68 499.91 336.92 468.59"/>
            <polygon class="cls-1" points="538.45 468.59 538.45 588.76 437.68 619.4 437.68 499.91 538.45 468.59"/>
            <polygon class="cls-1" points="336.92 468.59 437.68 437.27 538.45 468.59 437.68 499.91 336.92 468.59"/>
          </g>
          <polygon class="cls-2" points="465.06 445.78 377.35 481.16 377.35 513.92 399.55 521.69 399.55 487.03 485.88 452.25 465.06 445.78"/>
        </g>
        <g>
          <circle class="cls-3" cx="517.64" cy="590.33" r="38.68"/>
          <path class="cls-9" d="M511.35,609.65c-.09,0-.18,0-.27,0-1.34-.08-2.57-.78-3.33-1.88l-14.15-20.44c-1.38-1.99-.88-4.72,1.11-6.1,1.99-1.38,4.72-.88,6.1,1.11l10.98,15.86,23.02-25.72c1.62-1.81,4.39-1.96,6.2-.34,1.81,1.62,1.96,4.39.34,6.2l-26.73,29.87c-.83.93-2.03,1.46-3.27,1.46Z"/>
        </g>
      </g>
      <path class="cls-16" d="M446.62,418.81c-1.93,0-3.5-1.57-3.5-3.5v-92.94c0-1.93,1.57-3.5,3.5-3.5s3.5,1.57,3.5,3.5v92.94c0,1.93-1.57,3.5-3.5,3.5Z"/>
      <g>
        <path d="M407.19,287.94v-11.31c0-6.16,3.33-9.48,9.03-9.48s9.07,3.33,9.28,9.48h-5.91c-.17-2.66-1.17-3.74-3.41-3.74-1.79,0-2.83,1.16-2.83,3.74v11.31c0,2.5,1,3.66,2.83,3.66,2.29,0,3.33-1.08,3.49-3.66h5.91c-.12,6.11-3.49,9.4-9.4,9.4s-8.98-3.29-8.98-9.4Z"/>
        <path d="M440.63,274.75v5.41c-.79-.37-1.62-.58-2.66-.58-2.37,0-3.83,1.08-3.83,3.41v13.85h-5.66v-22.05h3.74l.42,2.33c1.16-1.87,3.08-2.87,5.57-2.87,1,0,1.83.17,2.41.5Z"/>
        <path d="M458.06,282.82v14.02h-4.49l-.33-2.08c-.79,1.5-2.29,2.66-4.78,2.66-4.08,0-6.57-2.91-6.57-6.9,0-4.78,3.58-7.03,8.44-7.03h2.04v-.67c0-1.96-.42-3.12-1.96-3.12-1,0-2,.5-2.21,1.96h-5.7c.21-4.66,3.16-7.4,7.99-7.4,5.28,0,7.57,2.95,7.57,8.57ZM452.36,288.27h-1.91c-1.71,0-2.79.75-2.79,2.25,0,1.08.58,2.08,2.16,2.08s2.54-1,2.54-2.7v-1.62Z"/>
        <path d="M469.12,274.25v.54h3.7v5.2h-3.7v16.85h-5.62v-16.85h-3.08v-5.2h3.08v-.54c0-4.58,2.25-8.15,8.28-8.15h1.41v5.12h-1.41c-2,0-2.66.87-2.66,3.04Z"/>
        <path d="M486.05,291.85v5.32h-1.83c-4.74,0-7.7-3.12-7.7-8.03v-9.23h-2.87v-5.12h2.87v-5.32h5.62v5.32h3.62v5.12h-3.62v9.32c0,1.83.79,2.62,2.5,2.62h1.41Z"/>
      </g>
      <g>
        <path d="M383.19,679.79h7.99c5.86,0,9.32,3.58,9.32,9.65v9.61c0,6.2-3.41,9.86-9.23,9.86h-8.07v-29.12ZM391.26,703.29c2.12,0,3.24-1.46,3.24-4.24v-9.61c0-2.66-1.12-4.03-3.24-4.03h-2.16v17.89h2.16Z"/>
        <path d="M419.46,701.88c-.46,4.74-3.49,7.53-8.4,7.53s-7.9-3.24-7.9-8.69v-5.86c0-5.37,2.95-8.53,7.95-8.53s8.07,3.16,8.07,8.53v4.95h-10.32v.92c0,2.29.79,3.29,2.29,3.29,1.71,0,2.21-.62,2.58-2.12h5.74ZM408.86,694.76v1.17h4.7v-1.17c0-2.25-.83-3.2-2.41-3.2-1.5,0-2.29.96-2.29,3.2Z"/>
        <path d="M422.41,678.75h5.66v30.16h-5.66v-30.16Z"/>
        <path d="M431.69,680.5c0-1.79,1.29-3.12,3.12-3.12s3.12,1.33,3.12,3.12c0,1.66-1.37,3.12-3.12,3.12s-3.12-1.37-3.12-3.12ZM431.94,686.86h5.7v22.04h-5.7v-22.04Z"/>
        <path d="M457.85,686.86l-5.87,22.04h-6.41l-5.86-22.04h6.03l1.33,6.86c.58,2.91,1.29,6.66,1.58,8.61h.25c.33-1.95,1.04-5.74,1.58-8.61l1.33-6.86h6.03Z"/>
        <path d="M475.73,701.88c-.46,4.74-3.49,7.53-8.4,7.53s-7.9-3.24-7.9-8.69v-5.86c0-5.37,2.95-8.53,7.94-8.53s8.07,3.16,8.07,8.53v4.95h-10.32v.92c0,2.29.79,3.29,2.29,3.29,1.71,0,2.2-.62,2.58-2.12h5.74ZM465.13,694.76v1.17h4.7v-1.17c0-2.25-.83-3.2-2.41-3.2-1.5,0-2.29.96-2.29,3.2Z"/>
        <path d="M491.12,686.82v5.41c-.79-.37-1.62-.58-2.66-.58-2.37,0-3.83,1.08-3.83,3.41v13.85h-5.66v-22.04h3.74l.42,2.33c1.16-1.87,3.08-2.87,5.57-2.87,1,0,1.83.17,2.41.5Z"/>
        <path d="M510.04,686.86l-6.61,22.71c-1.17,3.99-3,7.15-6.61,7.15h-2.91v-5.45h1.66c1.46,0,1.96-.92,2.5-2.75l.54-1.87-7.2-19.8h5.91l3.62,11.69,3.33-11.69h5.78Z"/>
      </g>
    </g>
  </g>
</svg>