<?xml version="1.0" encoding="UTF-8"?>
<svg id="Livello_1" data-name="Livello 1" xmlns="http://www.w3.org/2000/svg" viewBox="0 0 577.84 385.82">
  <defs>
    <style>
      .cls-1 {
        fill: #111;
      }

      .cls-2 {
        fill: #2d1400;
      }

      .cls-3 {
        fill: #d57b4a;
      }

      .cls-4 {
        fill: #3a89ff;
      }

      .cls-5 {
        fill: #fff;
      }

      .cls-6 {
        fill: #2f2f2f;
      }

      .cls-7 {
        fill: #42362e;
      }

      .cls-8 {
        fill: #92bff4;
      }

      .cls-9 {
        fill: #4d9ceb;
      }

      .cls-10 {
        fill: #30c94c;
      }

      .cls-11 {
        fill: #2866d8;
      }

      .cls-12 {
        fill: #363a3a;
      }

      .cls-13 {
        fill: #ffac83;
      }

      .cls-14 {
        fill: #4c3424;
      }

      .cls-15 {
        fill: #b4b4b4;
      }

      .cls-16 {
        fill: #b37660;
      }

      .cls-17 {
        fill: #523826;
      }

      .cls-18 {
        fill: #f2b68f;
      }

      .cls-19 {
        fill: #239b21;
      }

      .cls-20 {
        fill: #dedfe2;
      }

      .cls-21 {
        fill: #fdc708;
      }

      .cls-22 {
        fill: #29292a;
      }
    </style>
  </defs>
  <g>
    <path class="cls-20" d="M321.83,223.45l.1-.08c2.63-2.95,4.04-7.8,1.46-11-1.42-1.57-3.42-1.83-5.26-1.6l.6-.44-2.57.74c-.64.18-1.21.4-1.65.59.03-.3.03-.6.03-.91v-.49h-.03c-.11-1.27-.6-2.23-1.47-2.84-1.57-1.12-4.3-1.04-8.11.23-4.53,1.45-30.62,19.24-35.49,22.58-.13-4.38-.98-22.73-6.23-25.27-1.2-.58-2.51-.34-3.9.72-7.25,5.46-13.67,42.24-15.18,51.51-.54-.37-1.06-.7-1.55-.99l-.37-.22-17.49,21.98-.63,1.23-1.58,1.97c-.03-.16-.06-.33-.1-.52l-.25-1.4-.11.21c-4.75-27.89-13.7-74.55-21.44-82.12-8.26-8.18-35.2-20.14-43.2-23.59,31.13-2.35,39.99-31.69,41.86-56.38h1.39c3.5,0,6.34-2.85,6.34-6.34v-15.42c0-3.5-2.85-6.34-6.34-6.34h-1.68c-.52-6.05-1.19-10.2-1.33-11.05.95-1.91,10.52-21.84,5.27-36.45-2.1-5.84-6.27-10.13-12.42-12.77-26.47-11.36-74.82-12.02-87.53,12.8-1.69,1.18-20.98,15.67-10.97,52.71-7.19,9.52-9.58,17.92-7.1,24.95,3.56,10.09,15.81,13.94,18.16,14.59.11,4.99,3.89,13.04,4.47,14.24-.7,4.58-1.12,8.89-1.22,12.82-3.01,1.28-44.03,18.76-55.74,26.91-13.38,9.31-21.01,20.07-26.34,37.14-5.31,17.01-17.6,89.63-17.3,153.17v.49h56.21v.1h2.44l.49-.1h54.16v.1h47.53l.49-.1h34.25v-11.94s-.19-.03-.19-.03v-9.72l.35.1.63.09h0s6.79,1.96,6.79,1.96c9.82,2.81,20.23-1,25.91-9.47l42.28-63.18-.49-.49s-1.13-1.07-3-2.81c20.82-12.33,35.51-27.2,42.68-34.49v.1l.84-.85c2.12-2.16,3.12-4.18,2.96-5.98-.12-1.36-.86-2.34-1.6-3.01l.08-.06-.52-.37c-.26-.19-.51-.34-.73-.45.95-.84,1.81-1.69,2.66-2.63h0c2.37-2.72,3.46-5.13,3.24-7.19-.13-1.22-.72-2.29-1.74-3.19h0s-.02-.01-.02-.01c-.15-.13-.31-.26-.48-.38l-.27-.2-.07.04c-.31-.2-.61-.35-.85-.48.13-.13.27-.26.4-.4l.47-.31Z"/>
    <path class="cls-20" d="M570.71,341.37l-5.61-51.93,4.53-.59-13.08-66.19c-4.59-23.24-21.39-42.49-43.85-50.24-21.59-7.32-33.92-10.87-38.75-11.14-1.7-3.32-4.41-9.23-4.54-13.4-.18-5.71-.03-24.24,0-27.12,2.22-.59,13.25-3.94,17.12-13.33,2.74-6.63,1.21-14.68-4.55-23.94,6.36-14.53,3.54-38.54-12.23-53.83-17.04-16.53-51.98-17.73-73.92-8.49-21.77,9.17-15.91,27.78-15.09,30.07-.67,1.18-3.77,7.22-4.83,19.43-1.16,13.35-.01,38.07,0,38.3,0,.48.43,47.78,37.05,49.55-.1,1.66-.43,7.21-.44,12.63-4.34.98-39.52,9.67-49.85,35.32-10.82,26.86-22.55,82.48-22.67,83.03l-.1.49,6.46,1.12-16.72,87.78h198.14l.85-5.43c10.07,4,21.24,2.48,29.92-4.07,8.77-6.62,13.31-17.1,12.14-28.03Z"/>
    <path class="cls-20" d="M306.59,85.37c-.03.99.6,1.83,1.56,2.07l13.86,3.56-8,11.87c-.55.82-.47,1.86.21,2.59.68.72,1.71.87,2.57.36l12.32-7.28,2.74,14.05c.19.97.99,1.65,1.98,1.68.02,0,.04,0,.07,0,.96,0,1.77-.62,2.01-1.56l3.57-13.86,11.87,8c.82.55,1.86.47,2.59-.21.72-.68.87-1.71.36-2.57l-7.28-12.32,14.05-2.74c.97-.19,1.65-.98,1.68-1.98s-.6-1.83-1.56-2.07l-13.86-3.57,8-11.87c.55-.82.47-1.86-.21-2.59-.68-.72-1.72-.87-2.57-.36l-12.32,7.28-2.74-14.05c-.19-.97-.99-1.65-1.98-1.68-.99-.02-1.83.6-2.07,1.56l-3.57,13.86-11.87-8c-.82-.55-1.86-.47-2.59.21-.72.68-.87,1.71-.36,2.57l7.28,12.32-14.05,2.74c-.97.19-1.65.98-1.68,1.98Z"/>
    <path class="cls-20" d="M336.07,182.78h0c4.02-.06,7.8-1.82,10.41-4.85.61-.71,1.1-1.34,1.51-1.94,1.01-1.43.89-3.34-.28-4.62-1.22-1.34-3.17-3.28-5.52-4.89-2.26-1.56-4.51-2.68-5.99-3.35-1.51-.68-3.25-.29-4.32.96l-2.93,3.39s-.09.05-.14.02c-1.83-1.35-6.3-4.72-8.18-6.88-2.13-2.46-5.95-8.5-6.7-9.7-.02-.03-.01-.09.03-.12l3.34-2.78c1.1-.91,1.58-2.41,1.22-3.8-.46-1.77-1.34-4.38-2.87-6.79-1.34-2.1-2.84-3.92-3.87-5.08-1.23-1.37-3.43-1.61-4.92-.55-1.04.75-2.06,1.5-3.02,2.23-5.15,3.89-6.98,10.74-4.45,16.65,2.09,4.89,5.99,12,12.7,18.07,5.16,4.67,10.84,8.78,16.89,12.21,2.09,1.19,4.48,1.82,6.9,1.82h.2Z"/>
    <path class="cls-20" d="M231.92,61.42v9.59c0,1.19.68,2.21,1.78,2.66.37.15.75.23,1.12.23.74,0,1.46-.29,2.02-.85l10.54-10.54h39.47c11.16,0,20.23-9.08,20.23-20.23v-15.12c0-11.16-9.08-20.23-20.23-20.23h-48.37c-11.16,0-20.23,9.08-20.23,20.23v15.12c0,8.7,5.48,16.35,13.68,19.15Z"/>
    <g>
      <path class="cls-5" d="M323.24,252.92c3.59-3.67,5.25-7.51,4.91-11.41,0-.11-.02-.22-.03-.34l3.06-2.45-2.18-1.56,1.97-2.19-.81-.71c.81-1.89,1.19-3.76,1.15-5.61l5.37-2.62-6.07-3.92c1.71-4.58,1.56-9.86-1.84-14.08l-.12-.15-.13-.14c-1.89-2.1-4.36-3.4-7.23-3.82v-.59h-2.52c-.51-.58-1.1-1.11-1.74-1.57-1.93-1.37-4.27-2.06-6.96-2.06-2.18,0-4.58.45-7.26,1.34-3.15,1.01-12.35,6.63-27.41,16.75-2.14-15.66-7.09-18.06-9.18-19.08-1.37-.67-2.83-1.01-4.34-1.01-2.37,0-4.65.82-6.74,2.42-3.27,2.46-7.29,7.74-12.3,28.21-1.88,7.67-3.42,15.58-4.45,21.3l-11.88,14.93-1.16-6.41-.07.13c-10.74-57.03-17.24-63.38-19.82-65.9-5.48-5.42-17.42-11.95-28.27-17.23,15.63-8.44,25.46-26.2,28.44-51.89,4.85-1.97,8.27-6.74,8.27-12.29v-15.42c0-5.67-3.58-10.53-8.6-12.42-.18-1.58-.36-2.91-.51-3.93,3.05-6.76,10-24.88,4.63-39.83-2.73-7.61-8.33-13.41-16.2-16.79-12.02-5.16-27.58-8.12-42.67-8.12-25.48,0-44.66,8.25-52.97,22.71-5.34,4.45-21.27,21.07-13.07,55.86-7.1,10.43-9.17,20.06-6.13,28.67,3.49,9.91,12.53,15.06,18.47,17.46.87,3.73,2.38,7.51,3.54,10.11-.34,2.45-.59,4.83-.76,7.12-11.55,4.98-42.58,18.64-53.01,25.9-14.57,10.14-23.24,22.33-28.99,40.76C12.21,240.39-.3,314.1,0,378.35l.04,7.37h56.18v.1h10.04l.49-.1h46.57v.1h55.12l.49-.1h40.49v-18.35l.03-1.12c2.34.56,4.73.85,7.12.85,10.11,0,19.52-5.03,25.17-13.45l45.44-67.9-1.25-1.25c9.9-6.56,18.15-13.41,24.62-19.3v.68l12.69-12.95Z"/>
      <path class="cls-5" d="M572.7,295.42l5.15-.67-14.51-73.43c-5.06-25.65-23.6-46.89-48.41-55.45-21.16-7.18-31.03-9.9-36.34-10.92-1.59-3.59-2.23-6.09-2.26-7.28-.13-4.11-.08-15.37-.04-21.99,5.46-2.32,13.07-6.96,16.64-15.61,3.31-8.01,2.19-17.15-3.3-27.21,5.49-16.58,2.27-41.36-15.06-58.16-10.62-10.3-28.04-16.21-47.8-16.21-12.02,0-23.96,2.24-33.62,6.31-20.46,8.62-22.29,25.41-19.78,35.86-1.47,3.49-3.51,9.83-4.34,19.41-.32,3.63-.47,8.01-.52,12.51-1.17-2.08-3.14-3.67-5.6-4.3l-4.38-1.13,2.53-3.75c2.36-3.51,1.99-8.11-.92-11.2-1.7-1.8-4.08-2.83-6.53-2.83-1.61,0-3.2.44-4.58,1.26l-3.89,2.3-.86-4.44c-.81-4.15-4.33-7.14-8.66-7.27h-.15c-4.12,0-7.71,2.78-8.74,6.75l-1.13,4.37-3.75-2.53c-1.5-1.01-3.24-1.54-5.03-1.54-2.29,0-4.48.87-6.16,2.46-3.08,2.9-3.72,7.47-1.57,11.12l2.3,3.89-4.43.86c-4.15.81-7.14,4.33-7.27,8.56-.13,4.23,2.65,7.92,6.75,8.98l4.37,1.13-2.53,3.75c-2.36,3.51-1.99,8.11.92,11.19,1.7,1.8,4.08,2.83,6.53,2.83,1.6,0,3.18-.43,4.59-1.26l3.89-2.3.87,4.44c.81,4.15,4.33,7.14,8.46,7.26h.22s.15,0,.15,0c4.1,0,7.68-2.78,8.71-6.75l1.13-4.37,3.75,2.52c1.5,1.01,3.24,1.54,5.03,1.54,2.29,0,4.48-.87,6.16-2.46,3.08-2.9,3.73-7.47,1.57-11.12l-2.3-3.89,4.43-.86c2.68-.52,4.88-2.18,6.13-4.43.1,8.97.44,16.7.5,17.8.03,1.78.42,14.08,5.25,26.57,6.22,16.08,17.03,25.94,31.49,28.84-.01.39-.03.79-.04,1.2-12.58,3.67-39.8,14.17-49.44,38.1-11.04,27.4-22.9,83.63-23.02,84.2l-1.58,7.51,6.59,1.14-16.97,89.08h212.42l.58-3.68c1.9.3,3.82.44,5.76.44,8.2,0,16.05-2.65,22.69-7.66,10.73-8.1,16.28-20.92,14.85-34.29l-4.88-45.21Z"/>
      <path class="cls-5" d="M325.22,142.47c-.59-2.25-1.71-5.59-3.72-8.74-1.58-2.49-3.34-4.62-4.56-5.99-2-2.23-4.9-3.51-7.95-3.51-2.24,0-4.37.68-6.16,1.96-1.09.78-2.15,1.56-3.16,2.33-7.69,5.81-10.42,16.04-6.64,24.88,2.36,5.53,6.78,13.57,14.41,20.48,5.53,5.01,11.63,9.42,18.1,13.09,3.13,1.79,6.7,2.73,10.33,2.73h2.92s.26-.25.26-.25c4.9-.75,9.41-3.22,12.69-7.02.76-.89,1.39-1.7,1.92-2.46,2.88-4.1,2.54-9.55-.83-13.25-1.47-1.61-3.82-3.94-6.71-5.93-2.69-1.86-5.34-3.18-7.09-3.96-1.38-.62-2.85-.94-4.36-.94-2.4,0-4.71.82-6.56,2.28-1.11-.94-1.87-1.65-2.24-2.08-.68-.78-1.74-2.27-2.89-3.97,2.26-2.62,3.13-6.23,2.24-9.65Z"/>
      <path class="cls-5" d="M225.01,65.85v5.15c0,3.98,2.37,7.53,6.05,9.05,1.21.5,2.48.75,3.77.75,2.6,0,5.06-1.02,6.91-2.88l8.51-8.51h36.61c14.97,0,27.15-12.18,27.15-27.15v-15.12c0-14.97-12.18-27.15-27.15-27.15h-48.37c-14.97,0-27.15,12.18-27.15,27.15v15.12c0,9.88,5.33,18.82,13.68,23.58Z"/>
      <rect class="cls-5" x="232.71" y="83.67" width="65.22" height="51.46" rx="14.88" ry="14.88"/>
    </g>
    <rect class="cls-20" x="239.63" y="90.58" width="51.39" height="37.63" rx="7.96" ry="7.96"/>
  </g>
  <g>
    <g>
      <path class="cls-4" d="M277.64,286.68l-42.06,62.85c-5.56,8.3-15.81,12-25.37,9.27l-7.42-2.15-3.22-115.16c0-.59-.49-.98-.98-.98-.59,0-.98.49-.98.98l3.51,124.82c0,.49.39.88.88.98v11.03c.1,0-136.43,0-136.43,0v-38.65c0-20.1,9.86-92.32,9.95-93.1,0-.49-.29-.98-.78-1.07-.59,0-1.07.29-1.07.88,0,.78-9.95,73.1-9.95,93.3v38.65H7.41c-.29-61.97,11.52-134.58,17.27-153.02,5.76-18.44,13.96-28.4,26.15-36.89s55.82-26.94,55.82-26.94l48.41,11.81s35.52,14.83,45.18,24.4c8.88,8.69,19.62,71.92,21.47,82.86l-11.91,22.84c-.2.49,0,1.07.39,1.27.1,0,.29.1.49.1.39,0,.68-.2.88-.49l13.57-26.06,17.18-21.57c9.66,5.76,35.13,29.86,35.13,29.86h0l.2.2Z"/>
      <path class="cls-5" d="M156.04,176.89c10.25,43.33,10.64,82.76,10.83,92.13s.88,109.4.88,109.4h-47.04s-.29-33.86-.49-67.92c-.29-49.19,0-55.24-2.05-69.09-2.83-19.23-4.2-28.79-5.66-35.04-1.17-5.17-3.81-15.22-4.98-29.28-.29-3.12-.39-5.76-.49-7.51l48.99,7.22h0v.1Z"/>
      <path class="cls-18" d="M198.69,55.09l-1.56,23.03s16.2,93.3-41.96,95.25c0,0,1.76,5.17,1.56,12.49s-9.37,12.3-20.2,11.91c-10.83-.49-35.62-3.9-28.5-49.58,0,0-4.59-9.37-4.49-14.54,0,0-34.25-8.49-11.03-39.04l2.93-10.64,22.06-7.81,8.49-25.86,43.53,9.47,29.28-4.78h0l-.1.1Z"/>
      <path class="cls-14" d="M197.13,78.12s19.32-37.48-6.83-48.7-74.46-12-86.95,12.69c0,0-21.37,13.66-10.83,52.41,0,0,8.88-6.54,21.57,11.22,0,0,4.49-10.83,3.32-23.62,0,0,12.2-10.93,10.83-28.89,0,0,36.11,17.47,67.63,8.59l1.27,16.3h0Z"/>
      <path class="cls-14" d="M194.54,85.98s-.59-4-7.32-4.29-10.25.29-10.05,2.15,6.54.78,9.86,1.07,5.27.59,7.42,1.17h0l.1-.1Z"/>
      <path class="cls-14" d="M135.89,85.98s.59-4,7.32-4.29,10.25.29,10.05,2.15-6.54.78-9.86,1.07-5.27.59-7.42,1.17h0l-.1-.1Z"/>
      <path class="cls-7" d="M183.9,99.54c.88-.78,2.05-1.27,3.32-1.27,2.73,0,4.98,2.24,4.98,4.98s-2.24,4.98-4.98,4.98-3.71-1.17-4.49-2.93c-.29-.59-.49-1.37-.49-2.05,0-1.46.68-2.83,1.66-3.71h0Z"/>
      <path class="cls-7" d="M144.96,99.54c.88-.78,2.05-1.27,3.32-1.27,2.73,0,4.98,2.24,4.98,4.98s-2.24,4.98-4.98,4.98-3.71-1.17-4.49-2.93c-.29-.59-.49-1.37-.49-2.05,0-1.46.68-2.83,1.66-3.71h0Z"/>
      <path class="cls-6" d="M172.24,132.09c1.07-.39,2.73-1.07,3.81-2.73.59-.88.88-2.15.88-3.61,0-1.95-.49-3.42-1.17-5.27l-.29-.78c-.98-2.73-1.85-5.07-2.24-7.51-.29-1.66-.39-3.42-.2-5.17,0-.49-.29-.88-.78-.98-.49,0-.88.29-.98.78-.2,1.85,0,3.81.2,5.66.39,2.63,1.27,4.98,2.34,7.81l.29.78c.68,1.85,1.07,3.03,1.07,4.59,0,1.07-.29,2.05-.59,2.63-.78,1.27-2.05,1.76-2.93,2.05-1.46.59-2.83.68-6.54.49-2.15,0-4.39-.2-6.54-.49-.49,0-.88.29-.98.78s.29.88.78.98c2.24.2,4.49.39,6.64.49h2.63s3.22,0,4.59-.49Z"/>
      <path class="cls-17" d="M131.25,89.83h23.81c3.22,0,5.86,2.63,5.86,5.86v3.03c1.37-.59,3.12-1.17,5.27-1.17h0c1.95,0,3.51.49,4.78.98v-2.93c0-3.22,2.63-5.86,5.86-5.86h23.81c3.22,0,5.86,2.63,5.86,5.86v15.42c0,3.22-2.63,5.86-5.86,5.86h-23.81c-3.22,0-5.86-2.63-5.86-5.86v-9.56c-1.07-.59-2.73-1.27-4.78-1.27h0c-2.34,0-4.1.78-5.27,1.46v9.37c0,3.22-2.63,5.86-5.86,5.86h-23.81c-3.22,0-5.86-2.63-5.86-5.86v-15.42c0-3.22,2.63-5.86,5.86-5.86h0v.1ZM173.71,111.11c0,1.76,1.37,3.12,3.12,3.12h23.81c1.76,0,3.12-1.37,3.12-3.12v-15.42c0-1.76-1.37-3.12-3.12-3.12h-23.81c-1.76,0-3.12,1.37-3.12,3.12v15.42ZM128.13,111.11c0,1.76,1.37,3.12,3.12,3.12h23.81c1.76,0,3.12-1.37,3.12-3.12v-15.42c0-1.76-1.37-3.12-3.12-3.12h-23.81c-1.76,0-3.12,1.37-3.12,3.12v15.42Z"/>
      <path class="cls-11" d="M75.53,246.66c0,.78-9.95,72.9-9.95,93.1v38.65h-1.95v-38.65c0-20.3,9.86-92.61,9.95-93.3,0-.49.59-.88,1.07-.88s.88.59.78,1.07h.1Z"/>
      <path class="cls-11" d="M201.81,356.45v10.93c-.29,0-.68-.49-.68-.98l-3.51-124.82c0-.59.39-.98.98-.98s.98.39.98.98l3.22,115.16-.98-.29h0Z"/>
      <path class="cls-11" d="M225.33,278.38l-13.57,26.06c-.2.29-.49.49-.88.49s-.29,0-.49-.1c-.49-.2-.68-.88-.39-1.27l11.91-22.84c.2,1.07.29,1.56.29,1.56l3.22-4-.1.1Z"/>
      <path class="cls-18" d="M317.95,247.64c-6.64,6.73-22.06,22.74-44.01,35.62l-29.47-25.18s7.22-46.06,15.13-52.02c7.81-5.95,9.27,18.54,9.37,25.08,0,0,31.23-21.47,36.11-23.03,4.39-1.46,8.98-1.85,8.98,2.73-5.17,3.81-18.64,14.15-26.25,21.96l-.59.59.49.68s6.83,8.59,7.71,14.83c0,.49.49.88.98.88h.1c.49,0,.88-.59.88-1.07-.29-1.95-.98-4-1.95-6.05l26.45-17.47c1.85,1.37,4,4.29-1.17,10.15l-24.11,17.37c-.39.29-.49.88-.2,1.37.2.29.49.39.78.39s.39,0,.59-.2l21.08-15.22c1.66,1.17,3.81,3.9-.88,8.69h0v-.1Z"/>
      <path class="cls-18" d="M289.84,233.59c8.3-8.3,22.64-19.13,26.54-21.96h0c2.05-.59,4.88-.88,6.64,1.07,2.44,3.03.98,7.61-1.46,10.34l-26.94,17.76c-1.76-3.22-3.81-6.05-4.68-7.32l-.1.1Z"/>
      <path class="cls-16" d="M295.4,242.56c.98,2.05,1.66,4.1,1.95,6.05,0,.49-.29.98-.88,1.07h-.1c-.49,0-.88-.39-.98-.88-.88-6.25-7.61-14.74-7.71-14.83l-.49-.68.59-.59c7.61-7.81,21.08-18.15,26.25-21.96,0,.49,0,1.07-.2,1.76,0,0,1.07-.59,2.44-.98-3.81,2.83-18.25,13.66-26.54,21.96.98,1.27,3.03,4,4.68,7.32l26.94-17.76c-.39.49-.88.88-1.27,1.27,0,0,.78.29,1.66.88l-26.45,17.47h0l.1-.1Z"/>
      <path class="cls-16" d="M317.65,238.37s.59.2,1.27.68l-21.08,15.13c-.2.1-.39.2-.59.2-.29,0-.59-.1-.78-.39-.29-.49-.2-1.07.2-1.37l24.11-17.37c-.88.98-1.85,1.95-3.12,3.03h0v.1Z"/>
    </g>
    <g>
      <path class="cls-10" d="M413.1,171.52s-39.04,8-49.97,35.13c-10.93,27.13-22.64,82.95-22.64,82.95l33.18,5.76-.49,83.05h154.19l2.24-14.25-22.45-67.73,61.87-8-12.98-65.68c-4.59-23.23-21.18-42.16-43.53-49.87-16.4-5.56-33.28-10.93-38.84-11.13l-60.51,9.76h-.1Z"/>
      <path class="cls-19" d="M372.01,302.58h0c-.49,0-.98-.49-.88-1.07l3.9-66.36c0-.59.49-.98,1.07-.88.49,0,.98.49.88,1.07l-3.9,66.36c0,.49-.49.88-.98.88h-.1Z"/>
      <path class="cls-19" d="M509.62,302.1c-.39,0-.78-.29-.98-.78l-15.22-58.55c-.1-.49.2-1.07.68-1.17s1.07.2,1.17.68l15.22,58.55c.1.49-.2,1.07-.68,1.17h-.2v.1Z"/>
      <path class="cls-13" d="M528.26,372.95c-1.95-.78-3.9-1.66-5.86-2.54-26.54-11.81-56.8-29.38-60.31-30.74-3.51-1.37-12.1-3.71-16.3-4.49-4.1-.88-28.4-5.95-38.16-10.25-8.98-4-12.78-5.17-14.15-12.88,4.78,2.54,14.44,7.12,26.74,10.34h.2c.39,0,.88-.29.98-.68.1-.49-.2-1.07-.68-1.17-14.15-3.71-24.69-9.27-28.2-11.22-2.05-1.76-7.51-7.32-5.17-13.27,5.07,3.03,18.35,10.34,35.04,14.35h.2c.49,0,.88-.29.98-.78s-.2-1.07-.68-1.17c-19.81-4.68-34.55-14.05-36.5-15.32h0c-1.27-1.95-2.83-5.07-2.73-7.81.1-3.51,2.34-4.98,4.88-4.59,3.22,2.54,13.86,10.15,33.96,15.81h.29c.39,0,.78-.29.98-.68.1-.49-.1-1.07-.68-1.17-18.54-5.27-29.08-12.3-32.69-15.03-.29-2.54-.2-6.73,4.2-7.71,6.34-1.37,46.16,13.96,46.16,13.96,0,0-8.98-12-8.49-20.79s3.81-5.86,7.12-3.12c3.32,2.63,19.62,17.47,24.79,23.62,5.17,6.15,8.49,10.15,8.49,10.15l33.96,13.57,3.51,1.37h.2l.59.2h0c5.07,1.66,14.74,4.78,25.47,7.61h.2c.39,0,.78-.29.98-.78.1-.49-.2-1.07-.68-1.17-11.52-3.03-21.76-6.34-26.45-8l-2.93-12.2,57.09-7.32,5.66,52.41c2.44,22.84-20.3,40.11-41.57,31.52h-.39Z"/>
      <polygon class="cls-13" points="346.93 290.78 330.24 378.41 373.08 378.41 373.57 295.36 346.93 290.78"/>
      <path class="cls-3" d="M423.83,295.88c-.1.39-.49.68-.98.68s-.2,0-.29,0c-20.01-5.66-30.74-13.27-33.96-15.81.68.1,1.46.39,2.15.78,0,0-.2-.78-.39-1.85,3.61,2.73,14.15,9.76,32.69,15.03.49.1.78.68.68,1.17h.1Z"/>
      <path class="cls-3" d="M423.58,309.55c-.1.49-.49.78-.98.78s-.1,0-.2,0c-16.79-4-29.96-11.22-35.04-14.35.1-.29.29-.59.39-.88,0,0-.59-.78-1.37-1.95,1.95,1.27,16.69,10.64,36.5,15.32.49.1.88.68.68,1.17h0v-.1Z"/>
      <path class="cls-3" d="M421.44,321.74c-.1.39-.49.68-.98.68s-.2,0-.2,0c-12.3-3.22-21.96-7.81-26.74-10.34-.1-.68-.2-1.37-.29-2.15,0,0-.29-.2-.68-.59,3.51,1.95,14.05,7.61,28.2,11.22.49.1.88.68.68,1.17h0Z"/>
      <path class="cls-3" d="M537.59,317.68c-.1.49-.49.78-.98.78s-.2,0-.2,0c-10.74-2.83-20.3-5.86-25.47-7.61l-.49-2.24c4.68,1.56,14.93,4.98,26.45,8,.49.1.78.68.68,1.17v-.1Z"/>
      <path class="cls-13" d="M381.28,51.29s-3.71,5.95-4.88,19.42,0,38.26,0,38.26c0,0,0,47.72,37.08,49.09,0,0-1.46,20.88.78,24.89s10.83,8.39,20.59,7.71,27.91-4.78,40.01-26.64c0,0-5.76-9.86-5.95-16.1s0-27.52,0-27.52c0,0,31.13-7.22,12.49-36.89l-7.22-12-17.57,4.1-4.78-34.35-69.29-.49-1.27,10.44h0v.1Z"/>
      <path class="cls-2" d="M393.48,74.04c-.2,0-.39,0-.59-.1-1.95-.88-4.1-1.37-6.25-1.27-1.85,0-3.61.39-5.27,1.07-.78.29-1.56,0-1.95-.78s0-1.56.78-1.85c2.05-.78,4.2-1.27,6.34-1.27,2.54,0,5.17.49,7.51,1.56.78.29,1.07,1.17.78,1.95-.2.59-.78.88-1.37.88v-.2Z"/>
      <path class="cls-2" d="M417.83,73.55c-.49,0-1.07-.29-1.37-.78-.39-.68,0-1.56.68-1.95,2.05-.98,4.29-1.56,6.54-1.76,2.63-.2,5.27.29,7.71,1.37.78.29,1.07,1.17.78,1.95-.29.78-1.17,1.07-1.95.78-2.05-.88-4.2-1.27-6.44-1.17-1.85.1-3.71.59-5.37,1.46-.2,0-.39.2-.68.2h0l.1-.1Z"/>
      <path class="cls-1" d="M387.14,84.56c-2.24.2-3.71,2.44-3.61,4.49.1,2.15,1.95,4.29,4.2,4.2,2.34-.2,3.9-2.63,3.61-4.78-.2-2.05-2.05-4-4.2-3.81h0v-.1Z"/>
      <path class="cls-1" d="M421.93,83.88c-2.24.2-3.71,2.44-3.61,4.49.1,2.15,1.95,4.29,4.2,4.2,2.34-.2,3.9-2.63,3.61-4.78-.2-2.05-2.05-4-4.2-3.81h0v-.1Z"/>
      <path class="cls-2" d="M381.28,51.29s-8.2-20.01,14.74-29.67c22.93-9.66,57.29-7.22,73.39,8.39,16.1,15.61,18.15,39.91,12,53.58,0,0-13.96-8.39-22.64,8.98,0,0-15.71-11.81-10.64-47.82,0,0-43.72,6.73-63.04-1.76l-3.71,8.3h-.1Z"/>
    </g>
    <path class="cls-22" d="M407.95,115.42c-3.79,0-6.54-.88-8.17-2.61-1.28-1.36-1.83-3.16-1.63-5.37.44-4.73,6.37-11.94,6.62-12.24.35-.42.96-.47,1.37-.13.42.34.47.96.13,1.37-.06.07-5.8,7.05-6.18,11.18-.15,1.62.22,2.92,1.1,3.85,1.35,1.42,3.97,2.11,7.61,1.98.49-.03.99.4,1.01.94.02.54-.4.99-.94,1.01-.31.01-.62.02-.93.02Z"/>
    <path class="cls-22" d="M397.68,127.76c-.28-.54.2-1.17.79-1.04,3.19.74,8.24,1.43,14.24.31,5.91-1.1,10.32-3.49,13.01-5.29.5-.34,1.18.08,1.11.69-.74,6.46-5.26,11.85-11.3,13.47-6.88,1.85-14.41-1.54-17.86-8.15Z"/>
    <path class="cls-6" d="M143.01,142.34c-.28-.64.36-1.3,1.02-1.06,3.32,1.2,8,2.45,13.7,2.63,5.14.16,9.49-.6,12.7-1.44.67-.18,1.25.53.92,1.15-2.71,5.05-7.88,8.32-13.52,8.44-6.36.14-12.24-3.76-14.81-9.72Z"/>
    <g>
      <path class="cls-21" d="M346.52,81.7l14.53,3.74c1.64.42,1.57,2.78-.09,3.1l-14.72,2.87,7.63,12.92c.86,1.46-.85,3.07-2.26,2.13l-12.44-8.38-3.74,14.53c-.42,1.64-2.78,1.57-3.1-.09l-2.87-14.72-12.92,7.63c-1.46.86-3.07-.85-2.13-2.26l8.38-12.44-14.53-3.74c-1.64-.42-1.57-2.78.09-3.1l14.72-2.87-7.63-12.92c-.86-1.46.85-3.07,2.26-2.13l12.44,8.38,3.74-14.53c.42-1.64,2.78-1.57,3.1.09l2.87,14.72,12.92-7.63c1.46-.86,3.07.85,2.13,2.26l-8.38,12.44Z"/>
      <path class="cls-12" d="M347.6,175.72c-.43.62-.93,1.25-1.49,1.9-2.63,3.05-6.41,4.67-10.24,4.67h0c-2.28,0-4.57-.56-6.66-1.75-6.03-3.42-11.68-7.5-16.8-12.14-6.64-6.01-10.5-13.06-12.58-17.9-2.44-5.7-.67-12.31,4.3-16.06.96-.73,1.98-1.48,3.01-2.22.56-.4,1.22-.6,1.87-.6.89,0,1.77.37,2.4,1.08,1.02,1.14,2.51,2.94,3.83,5.02,1.5,2.35,2.36,4.91,2.81,6.65.31,1.21-.1,2.51-1.06,3.3l-3.34,2.78c-.23.19-.28.52-.12.76,1.36,2.18,4.76,7.47,6.74,9.75,1.93,2.21,6.42,5.6,8.26,6.95.25.18.59.14.79-.09l2.93-3.39c.94-1.09,2.44-1.42,3.75-.83,1.46.65,3.67,1.75,5.92,3.31,2.32,1.59,4.23,3.5,5.43,4.82,1.02,1.12,1.11,2.77.24,4.02Z"/>
      <path class="cls-20" d="M286.85,7.4h-48.37c-10.91,0-19.75,8.84-19.75,19.75v15.12c0,8.79,5.75,16.24,13.68,18.79v9.94c0,2.13,2.58,3.2,4.09,1.69l10.68-10.68h39.67c10.91,0,19.75-8.84,19.75-19.75v-15.12c0-10.91-8.84-19.75-19.75-19.75Z"/>
      <path class="cls-15" d="M285.82,28.51h-48.06c-.65,0-1.18-.53-1.18-1.18s.53-1.18,1.18-1.18h48.06c.65,0,1.18.53,1.18,1.18s-.53,1.18-1.18,1.18Z"/>
      <path class="cls-15" d="M275.3,40.21h-37.79c-.51,0-.92-.53-.92-1.18s.41-1.18.92-1.18h37.79c.51,0,.92.53.92,1.18s-.41,1.18-.92,1.18Z"/>
      <g>
        <rect class="cls-8" x="240.12" y="91.07" width="50.42" height="36.65" rx="7.66" ry="7.66"/>
        <path class="cls-9" d="M264.87,115.38c-.21,0-.43-.07-.6-.22l-20.47-17.05c-.4-.33-.45-.93-.12-1.32.33-.4.93-.45,1.32-.12l19.88,16.55,20.77-16.57c.41-.32,1-.26,1.32.15.32.41.26,1-.15,1.32l-21.37,17.05c-.17.14-.38.21-.59.21Z"/>
      </g>
    </g>
  </g>
</svg>