<?xml version="1.0" encoding="UTF-8"?>
<svg id="Livello_1" data-name="Livello 1" xmlns="http://www.w3.org/2000/svg" viewBox="0 0 930.99 805.2">
  <defs>
    <style>
      .cls-1, .cls-2, .cls-3 {
        stroke-linecap: round;
        stroke-linejoin: round;
      }

      .cls-1, .cls-2, .cls-3, .cls-4, .cls-5, .cls-6 {
        stroke: #2f3534;
        stroke-width: 9px;
      }

      .cls-1, .cls-4 {
        fill: #5a94cf;
      }

      .cls-7 {
        fill: #fff;
      }

      .cls-2 {
        fill: #529851;
      }

      .cls-3 {
        fill: none;
      }

      .cls-8 {
        fill: #2f3534;
      }

      .cls-4, .cls-5, .cls-6 {
        stroke-miterlimit: 10;
      }

      .cls-5 {
        fill: #f6c429;
      }

      .cls-6 {
        fill: #dc5726;
      }
    </style>
  </defs>
  <g>
    <path class="cls-7" d="M17.31,192.26c.19,7.72,1.46,28.37,9.19,53.39,9.91,32.11,26.52,59.6,49.43,81.76.84.81,1.69,1.62,2.57,2.44.87.81,1.76,1.62,2.6,2.36,2.13,1.9,4.18,3.66,6.25,5.36.56.45,1.12.91,1.69,1.36l1.72,1.35c.49.39.98.76,1.48,1.14l.29.23c.58.44,1.17.88,1.75,1.31,1.22.91,2.44,1.79,3.72,2.69l1.7,1.19,1.04.7c.78.53,1.55,1.05,2.34,1.57l.2.13c.55.35,1.1.71,1.72,1.12l.13.08c.9.57,1.8,1.14,2.68,1.67.29.18,1.28.78,1.28.78.94.58,1.87,1.14,2.75,1.64.66.38,1.31.75,1.96,1.12l.06.06,1.46.8c1.18.65,2.37,1.28,3.58,1.92,26.83,14.03,56.53,21.15,88.27,21.15h0c29.75,0,52.66-6.36,61.07-9.08.25-.08.96-.31,1.07-.35l1.23-.42.15-.06c76.12-26.71,127.27-98.89,127.27-179.63,0-44.57-15.74-87.92-44.32-122.08l-.36-.48-.31-.3c-1.52-1.74-2.92-3.3-4.25-4.75,0,0-.64-.68-.89-.94-.3-.32-.61-.65-.92-.97-.88-.91-1.76-1.82-2.65-2.72-.64-.67-1.31-1.33-1.96-1.96-5.02-4.94-10.42-9.69-16.04-14.12-1.36-1.07-2.74-2.12-4.1-3.13-.97-.72-1.95-1.44-2.95-2.16-.85-.61-1.71-1.2-2.53-1.77-.95-.66-1.89-1.31-2.84-1.94-1.03-.68-2.06-1.37-3.1-2.04l-.09-.05c-.74-.47-1.5-.94-2.25-1.41l-.13-.08c-.63-.39-1.27-.78-1.89-1.16l-.25-.15c-.48-.29-.97-.59-1.46-.87-.77-.46-1.54-.9-2.39-1.39l-.27-.15c-.8-.45-1.59-.89-2.39-1.33-1.14-.63-2.28-1.24-3.44-1.85l-.45-.24c-.34-.18-.67-.35-1.01-.52l-1.47-.75c-.59-.3-1.19-.59-1.78-.89l-.61-.3-2.34-1.12c-.78-.37-1.56-.73-2.35-1.09-.77-.35-1.54-.69-2.32-1.03-.8-.36-1.61-.71-2.43-1.04-1.56-.66-3.15-1.3-4.72-1.92-1.45-.57-2.91-1.12-4.38-1.66-.94-.34-1.87-.67-2.81-1l-.12-.04c-.81-.28-1.63-.56-2.4-.81-.85-.28-1.69-.55-2.54-.82l-.14-.04c-1.54-.48-3.1-.95-4.73-1.43-3.26-.94-6.61-1.8-9.91-2.57-4.87-1.14-9.95-2.11-15.11-2.87-.87-.14-1.73-.26-2.6-.38l-.17-.02c-1.59-.22-3.21-.42-4.92-.6-2.67-.29-5.17-.51-7.66-.67-1.64-.12-3.34-.21-5.11-.28-.89-.04-1.79-.08-2.69-.09-.81-.02-1.62-.04-2.44-.05h0s-1.91-.02-2.46-.02-1.06,0-1.59,0h-5.28s-.11.12-.11.12c-1.02.03-2.05.07-3.06.14-.62.02-1.23.06-1.87.1-1,.06-2.01.13-3.01.22-.65.05-1.31.11-1.97.16h-.17s-2.25.23-2.6.27c-1.42.15-2.83.31-4.26.49-.72.09-1.43.19-2.14.29-.5.06-1,.13-1.49.21l-.62.09c-.78.11-1.57.23-2.34.37-.64.1-1.3.22-1.95.33-.76.12-1.56.26-2.44.44-1.36.25-2.7.51-4.06.8l-2.27.5c-1.38.31-2.75.64-4.18.98l-.34.08c-2.11.53-4.07,1.06-6,1.6-1.42.41-2.84.84-4.18,1.25-.59.18-1.17.37-1.76.56l-.29.09c-.38.12-.76.24-1.14.37-.34.11-.69.23-1.04.36-.25.08-.51.17-.76.25l-1.36.48c-.64.22-1.27.44-1.92.68-.22.08-.42.15-.6.22-.07.02-.14.05-.21.08-.31.11-.62.22-.9.33-.26.1-.53.2-.79.3l-1.68.64c-.27.1-.55.21-.87.34l-1.33.53c-.6.24-1.22.49-1.79.74-1.07.45-2.14.91-3.2,1.37l-3.02,1.35c-2.26,1.04-4.6,2.19-6.99,3.41-.91.47-1.83.95-2.73,1.43-.71.38-1.43.76-2.19,1.19l-2.01,1.12-2.1,1.22c-.7.41-1.39.81-2.09,1.24-2.67,1.61-5.33,3.31-8.11,5.18-.88.59-1.76,1.2-2.63,1.8-.89.62-1.77,1.25-2.65,1.89-.86.62-1.72,1.25-2.57,1.9-1.16.86-2.14,1.62-3.09,2.38-.59.46-1.17.92-1.71,1.35-1.01.8-2.05,1.66-3.17,2.61-.66.54-1.33,1.11-1.97,1.68-.82.7-1.62,1.4-2.34,2.06-.82.73-1.63,1.46-2.35,2.14-.79.72-1.56,1.46-2.32,2.18-.75.71-1.49,1.44-2.24,2.18l-.11.11c-.66.66-1.31,1.31-1.96,1.98-8.75,8.92-16.66,18.75-23.51,29.23-.36.54-.71,1.08-1.06,1.63-.95,1.49-1.98,3.1-2.95,4.75-.48.79-.95,1.59-1.42,2.41-.38.64-.75,1.28-1.11,1.93-.36.63-.71,1.25-1.06,1.9-.39.71-.78,1.41-1.15,2.12-.3.55-.59,1.09-.87,1.64-.32.6-.63,1.2-.91,1.75-.54,1.04-1.06,2.09-1.56,3.12-.4.82-.79,1.63-1.17,2.45-3.94,8.35-7.32,17.12-10.05,26.06-.31,1.01-.61,2.02-.9,3.03l-.04.15c-.28.99-.56,1.98-.82,2.97-.22.78-.42,1.57-.63,2.39-.17.67-.34,1.35-.5,2.03-.17.63-.31,1.26-.46,1.9-.21.88-.41,1.76-.61,2.64l-.02.05-.14.66c-.21.98-.4,1.95-.6,2.94-.13.61-.25,1.22-.36,1.84l-.18.94c-.1.52-.19,1.03-.27,1.52l-.04.23c-.05.3-.1.6-.15.9-.13.72-.25,1.43-.36,2.15l-.14.92c-.09.56-.17,1.13-.25,1.69-.11.74-.21,1.5-.31,2.24l-.03.24c-.1.77-.2,1.52-.28,2.21l-.02.17c-.07.59-.15,1.17-.21,1.75-.1.95-.2,1.91-.28,2.76-.09.87-.16,1.75-.25,2.69-.38,4.69-.59,9.31-.64,13.73v.13c0,.35,0,.85.01,1.45,0,.14.01.78.01.78Z"/>
    <path class="cls-7" d="M914.8,332.32h-32.94V72.22h-95.05v260.1h-5.94v-203.71h-95.05v203.71h-5.94v-142.76h-95.05v142.76h-16.79V31.05c0-8.93-7.26-16.19-16.19-16.19s-16.19,7.26-16.19,16.19v317.46c0,8.93,7.26,16.19,16.19,16.19h362.95c8.93,0,16.19-7.26,16.19-16.19s-7.26-16.19-16.19-16.19Z"/>
    <rect class="cls-7" x="0" y="465.96" width="415.24" height="308.81" rx="37.04" ry="37.04"/>
    <path class="cls-7" d="M829.75,531.97c0-53.17-43.26-96.42-96.42-96.42s-96.42,43.26-96.42,96.42,43.26,96.42,96.42,96.42,96.42-43.26,96.42-96.42Z"/>
    <path class="cls-7" d="M733.32,638.77c-41.1,0-79.91,16.18-109.28,45.55-29.37,29.37-45.55,68.18-45.55,109.28v11.59h309.66v-11.59c0-41.1-16.18-79.91-45.55-109.28-29.37-29.37-68.18-45.55-109.28-45.55Z"/>
  </g>
  <g>
    <g>
      <path class="cls-4" d="M386.36,190.03c0,78-49.96,144.34-119.63,168.73-19.7-56.24-39.42-112.49-59.12-168.73l136.96-114.84c26.07,31.07,41.78,71.11,41.78,114.84Z"/>
      <path class="cls-5" d="M344.58,75.19l-136.96,114.84H28.88c.05-4.33.26-8.65.61-12.92.07-.82.14-1.64.23-2.46.08-.9.18-1.82.27-2.72.06-.57.13-1.13.2-1.7.08-.7.17-1.39.26-2.09.11-.8.21-1.6.33-2.4.11-.8.24-1.58.36-2.38.12-.72.24-1.45.37-2.17.05-.36.12-.71.18-1.07.08-.51.18-1.01.27-1.52.15-.8.3-1.58.46-2.36.19-.96.38-1.9.58-2.85.02-.07.04-.14.05-.21.21-.97.43-1.94.67-2.91.13-.58.26-1.15.42-1.72.15-.67.32-1.33.49-1.98.19-.74.38-1.47.58-2.2.26-.97.53-1.95.81-2.92.29-.97.57-1.94.87-2.91,2.58-8.43,5.74-16.63,9.47-24.54.34-.75.7-1.48,1.07-2.23.48-.97.95-1.94,1.45-2.9.3-.58.59-1.16.9-1.73.26-.52.53-1.03.82-1.56.34-.67.71-1.33,1.08-2,.33-.61.67-1.2,1.01-1.81.32-.58.65-1.16,1-1.73.44-.77.89-1.53,1.34-2.28.9-1.52,1.84-3,2.79-4.49.32-.5.64-1,.97-1.5,6.45-9.87,13.86-19.08,22.11-27.49.63-.64,1.26-1.27,1.89-1.9.71-.7,1.43-1.4,2.14-2.08.72-.69,1.45-1.38,2.19-2.05.72-.68,1.46-1.34,2.21-2.01.74-.67,1.48-1.32,2.24-1.97.59-.52,1.21-1.05,1.82-1.54.97-.83,1.95-1.64,2.93-2.42.55-.44,1.09-.88,1.65-1.31.96-.77,1.92-1.51,2.91-2.24.8-.61,1.6-1.2,2.41-1.78.81-.59,1.63-1.18,2.45-1.75.82-.57,1.64-1.14,2.47-1.7,2.49-1.69,5.02-3.31,7.61-4.87.65-.39,1.29-.77,1.95-1.15.29-.17.58-.33.87-.5l1.1-.64c.37-.2.74-.42,1.12-.62.29-.17.57-.32.87-.49.67-.37,1.33-.72,2-1.08.84-.45,1.7-.9,2.55-1.34,2.16-1.1,4.35-2.17,6.56-3.19.93-.42,1.85-.83,2.78-1.25,1.01-.44,2.03-.88,3.05-1.31.53-.23,1.08-.45,1.62-.67.45-.18.9-.36,1.35-.53.2-.08.4-.17.59-.24.65-.25,1.29-.5,1.95-.75.21-.1.44-.17.65-.25.27-.11.56-.2.83-.3.09-.05.18-.07.27-.11.08-.04.17-.07.25-.1.64-.24,1.27-.46,1.9-.68.33-.12.67-.24,1.01-.36.32-.11.64-.23.96-.32.33-.12.67-.24,1-.34.32-.11.64-.21.96-.31.67-.21,1.32-.43,1.98-.63,1.33-.42,2.66-.82,3.99-1.2,1.88-.53,3.75-1.03,5.64-1.51.11-.02.2-.05.3-.07,1.32-.32,2.62-.63,3.94-.93.7-.15,1.41-.31,2.11-.46,1.29-.27,2.58-.52,3.87-.76.7-.14,1.4-.27,2.11-.38.68-.12,1.35-.24,2.02-.34.67-.12,1.34-.23,2.02-.32s1.35-.2,2.03-.29c.67-.1,1.34-.19,2.02-.27,1.35-.17,2.7-.32,4.05-.46.67-.07,1.34-.13,2.01-.2h.06c.8-.07,1.6-.14,2.4-.2.94-.08,1.89-.14,2.83-.2.56-.04,1.1-.07,1.66-.08,1.03-.07,2.08-.12,3.12-.14.07-.01.14-.01.21,0,1.31-.06,2.62-.1,3.94-.1t.02,0c2.28-.04,4.57-.01,6.85.05.81.01,1.62.05,2.41.08,1.62.06,3.22.14,4.82.26,2.41.15,4.81.37,7.21.63,1.6.17,3.19.36,4.79.58h.01c.8.11,1.58.21,2.38.34,4.77.7,9.52,1.59,14.23,2.7,3.14.72,6.26,1.53,9.36,2.42,1.5.44,2.99.89,4.48,1.35.82.26,1.64.52,2.46.8.76.25,1.53.51,2.29.77.91.32,1.83.64,2.74.97,1.37.5,2.73,1.01,4.09,1.54,1.51.59,3.02,1.2,4.5,1.83.75.31,1.5.63,2.23.96.75.32,1.48.65,2.22.99s1.47.68,2.21,1.02c.74.36,1.47.7,2.21,1.06.72.36,1.46.71,2.19,1.08.51.26,1.02.52,1.53.78.42.2.83.43,1.25.64,1.08.57,2.15,1.14,3.22,1.73.88.49,1.75.97,2.61,1.46.75.43,1.48.86,2.22,1.29.52.3,1.05.62,1.56.93.59.36,1.18.71,1.75,1.07.78.49,1.57.97,2.34,1.46,1,.64,1.98,1.29,2.97,1.95.88.58,1.75,1.18,2.61,1.78.81.56,1.62,1.12,2.41,1.69.93.67,1.84,1.33,2.74,2.01,1.31.97,2.6,1.96,3.88,2.97,5.23,4.12,10.26,8.54,15.08,13.28.59.58,1.2,1.18,1.78,1.78.87.88,1.73,1.77,2.59,2.66.56.58,1.1,1.18,1.66,1.76,1.46,1.58,2.9,3.19,4.32,4.83.02.02.04.05.06.07Z"/>
      <path class="cls-6" d="M266.74,358.76c-.06.02-.13.05-.19.07-.07.02-.15.06-.23.08-.17.06-.36.12-.56.19-.12.04-.24.08-.37.12-.2.07-.43.14-.65.21-13.46,4.35-76.94,21.93-140.48-11.29-1.13-.59-2.26-1.2-3.38-1.82-.04-.04-.07-.05-.12-.07-1.03-.58-2.07-1.16-3.11-1.77-.83-.47-1.66-.97-2.49-1.48-.43-.26-.87-.52-1.31-.8-.83-.5-1.67-1.03-2.52-1.57-.62-.4-1.24-.81-1.85-1.2-1.06-.7-2.1-1.41-3.16-2.13-.55-.38-1.1-.77-1.66-1.16-1.16-.82-2.3-1.64-3.43-2.48-.56-.42-1.12-.83-1.66-1.25-.56-.43-1.1-.84-1.65-1.27-.55-.43-1.08-.86-1.63-1.28-.53-.43-1.07-.86-1.59-1.28-2.02-1.65-3.97-3.33-5.87-5.02-.82-.72-1.64-1.47-2.45-2.22-.83-.77-1.64-1.54-2.45-2.32-50.57-48.93-54.7-113.5-55.03-127.05,0-.24-.01-.46-.01-.67-.01-.53-.01-.97-.01-1.28h178.74c19.7,56.24,39.42,112.49,59.12,168.73Z"/>
    </g>
    <g>
      <path class="cls-8" d="M914.8,353.12h-362.95c-2.54,0-4.6-2.06-4.6-4.6V31.05c0-2.54,2.06-4.6,4.6-4.6s4.6,2.06,4.6,4.6v312.86h358.35c2.54,0,4.6,2.06,4.6,4.6s-2.06,4.6-4.6,4.6Z"/>
      <rect class="cls-2" x="596.42" y="201.16" width="71.86" height="147.36"/>
      <rect class="cls-5" x="697.41" y="140.21" width="71.86" height="208.31"/>
      <rect class="cls-2" x="798.4" y="83.81" width="71.86" height="264.7"/>
    </g>
    <g>
      <rect class="cls-1" x="11.59" y="477.56" width="392.05" height="285.63" rx="24.89" ry="24.89"/>
      <line class="cls-3" x1="76.18" y1="561.24" x2="322.69" y2="561.24"/>
      <line class="cls-3" x1="76.18" y1="611.27" x2="241.73" y2="611.27"/>
      <line class="cls-3" x1="76.18" y1="661.3" x2="207.62" y2="661.3"/>
    </g>
    <g>
      <circle class="cls-5" cx="733.32" cy="531.97" r="84.83"/>
      <path class="cls-6" d="M876.56,793.6c0-78.58-64.66-143.24-143.24-143.24s-143.24,64.66-143.24,143.24h286.47Z"/>
    </g>
  </g>
</svg>