<?xml version="1.0" encoding="UTF-8"?>
<svg id="Livello_1" xmlns="http://www.w3.org/2000/svg" version="1.1" viewBox="0 0 935 714.63">
  <!-- Generator: Adobe Illustrator 29.0.1, SVG Export Plug-In . SVG Version: 2.1.0 Build 192)  -->
  <defs>
    <style>
      .st0 {
        fill: #c3dff7;
      }

      .st1 {
        fill: #3a89ff;
      }

      .st2 {
        fill: #5facf2;
      }

      .st3 {
        fill: #fff;
      }

      .st4 {
        fill: #4796e3;
      }

      .st5 {
        fill: #3f8ce6;
      }

      .st6 {
        fill: #2f2f2f;
      }

      .st7 {
        fill: #497bb8;
      }

      .st8 {
        fill: #42362e;
      }

      .st9 {
        fill: #2866d8;
      }

      .st10 {
        fill: #265ba1;
      }

      .st11 {
        fill: #4c3424;
      }

      .st12 {
        fill: #74aad9;
      }

      .st13 {
        fill: #b37660;
      }

      .st14 {
        fill: #523826;
      }

      .st15 {
        fill: #ffd543;
      }

      .st16 {
        fill: #f2b68f;
      }
    </style>
  </defs>
  <g>
    <path class="st3" d="M894.62,418.21c-10.33-33.07-25.17-53.96-51.22-72.08-19.83-13.81-81.26-40.54-99.01-48.15-.31-5.41-.9-11.15-1.76-17.13,2.11-4.61,5.83-13.47,7.31-21.46,9.58-3.55,27.23-12.28,33.46-29.96,5.17-14.68,1.16-31.46-11.92-49.91,9.22-37.13,2.81-62.15-4.28-76.7-6.36-13.04-14.36-20.39-18.22-23.4-12.2-21.97-39.2-35.84-76.18-39.09-5.48-.48-11.18-.73-16.96-.73-27.06,0-54.84,5.26-76.23,14.44-13.31,5.72-22.38,15.1-26.97,27.88-9.58,26.68,3.66,59.36,8.92,70.59-.38,2.58-.93,6.61-1.48,11.73-8.76,1.84-15.35,9.63-15.35,18.93v28.25c0,9.14,6.22,16.75,14.75,18.8,5.32,52.4,25.65,86.2,59.16,98.69-23.07,10.75-48.87,24.21-59.9,35.12-11,10.76-23.62,55.2-37.53,132.16l-.1-.2-1.51,8.35-29.29-36.77c-5.45-31.17-15.76-78.9-29.01-88.87-3-2.29-6.17-3.45-9.42-3.45-1.98,0-3.98.46-5.78,1.33-8,3.89-13.04,17.06-14.99,39.17-20.02-13.55-48.48-32.33-55.66-34.63-3.39-1.08-7.15-1.65-10.88-1.65s-8.49.59-10.84,2.26c-1.15.82-2.04,1.77-2.21,1.96-.56.61-1.77,1.94-2.54,3.99-1.81-.35-3.56-.53-5.18-.53-2.13,0-3.86.31-5.16.93-1.49.71-2.73,1.64-2.87,1.74-.83.63-1.61,1.34-2.3,2.11l-.3.36c-6.34,7.85-4.89,17.98-.34,25.6l-.71.87-.16.27c-1.23,2.04-1.98,4.25-2.23,6.59-.55,5.11,1.17,10.33,5.23,15.87l-.16.16,2.6,2.92-.1.17c-1.08,1.95-1.71,4.02-1.89,6.13-.49,5.66,2.06,11.39,7.6,17.06l14.77,15.08v-.55c11.56,11.11,31.93,29.42,57.87,45.96l-3.74,3.72,80.99,121.02c9.43,14.05,25.12,22.43,41.98,22.43,4.73,0,9.45-.66,14.05-1.98l2.43-.7v.32l1.89-.57-.35,37.05h373.71s.04-8.57.04-8.57c.51-110.16-20.45-245.79-32.03-282.93Z"/>
    <path class="st3" d="M303.99,276.08h-90.72v-130.85c0-7.69-6.25-13.94-13.94-13.94H22.29c-7.69,0-13.95,6.25-13.95,13.94v202.15c0,7.69,6.26,13.94,13.95,13.94h134.29v81.45c0,7.69,6.26,13.95,13.95,13.95h133.46c7.69,0,13.95-6.26,13.95-13.95v-152.73c0-7.69-6.26-13.95-13.95-13.95Z"/>
    <path class="st3" d="M343.88,283.53c-4,4.72-3.41,11.82,1.31,15.82,2.02,1.71,4.6,2.66,7.25,2.66h0c3.31,0,6.43-1.44,8.56-3.96,3.18-3.74,6.39-5.98,8.55-5.99,1.43,0,2.88,1.16,6.54,4.65,3.83,3.65,8.6,8.18,15.69,10.11l.28.07,6.15.84h.3c10.27,0,16.57-6.08,20.75-10.1,3.6-3.47,4.85-4.42,6.82-4.5h.23c2.21,0,4.1,1.35,8.2,4.66,5.06,4.09,12,9.69,22.58,9.93h.54c11.44,0,22.38-6.28,32.52-18.67,1.91-2.33,2.8-5.25,2.5-8.25-.3-2.99-1.75-5.68-4.05-7.55-2.01-1.65-4.53-2.56-7.1-2.56-.38,0-.77.02-1.14.06-2.97.3-5.66,1.74-7.57,4.06-5.6,6.84-10.81,10.46-15.07,10.46h-.17c-2.74-.06-4.94-1.74-8.95-4.98-5.3-4.29-11.89-9.62-22.23-9.62-.37,0-.74,0-1.12.02-10.81.4-17.03,6.39-21.57,10.77-2.97,2.85-4.14,3.8-5.2,3.8h-.09c-1.87-.08-4.18-2.28-6.86-4.85-2.58-2.46-5.68-5.4-9.66-7.59l43.52-16.47,86.22-86.23c2.3-2.3,4.12-5,5.42-8.04,1.32-3.14,1.99-6.45,1.99-9.84,0-13.95-11.35-25.29-25.29-25.29-6.75,0-13.11,2.63-17.88,7.41l-86.24,86.24-18.57,49.07c-.51-.03-1.03-.06-1.56-.06-9.17.03-17.78,4.71-25.59,13.92Z"/>
    <path class="st3" d="M341.9,92.54c0-9.43-2.62-18.64-7.48-26.62,1.07-.54,2.05-1.25,2.92-2.12l11.06-11.06c4.46-4.46,4.46-11.72,0-16.19-2.16-2.16-5.03-3.35-8.09-3.35s-5.93,1.19-8.09,3.35l-11.06,11.06c-.73.73-1.36,1.55-1.86,2.43-5.61-3.81-11.88-6.44-18.49-7.78.78-1.54,1.23-3.28,1.23-5.12v-20.77c0-6.31-5.14-11.45-11.45-11.45s-11.45,5.14-11.45,11.45v20.77c0,1.84.45,3.58,1.23,5.12-6.61,1.34-12.88,3.97-18.48,7.77-.5-.87-1.12-1.69-1.85-2.42l-11.06-11.06c-2.16-2.16-5.03-3.35-8.09-3.35s-5.93,1.19-8.09,3.35c-4.46,4.46-4.46,11.72,0,16.19l11.06,11.06c.87.87,1.85,1.58,2.91,2.12-4.86,7.99-7.48,17.19-7.48,26.63,0,16.31,7.72,31.55,20.77,41.23v30.09c0,5.3,4.32,9.62,9.62,9.62h4.37l5.8,5.16c1.76,1.57,4.03,2.43,6.39,2.43h8.74c2.25,0,4.45-.8,6.19-2.25l6.01-5.34h4.37c5.3,0,9.62-4.32,9.62-9.62v-30.09c13.04-9.68,20.76-24.92,20.76-41.23Z"/>
  </g>
  <g>
    <g>
      <path class="st1" d="M423,533.22l77.06,115.13c10.19,15.19,28.96,21.99,46.48,16.98l13.59-3.94,5.9-210.95c0-1.08.9-1.79,1.79-1.79,1.08,0,1.79.9,1.79,1.79l-6.43,228.65c0,.9-.71,1.61-1.61,1.79v20.21c-.18,0,249.93,0,249.93,0v-70.79c0-36.83-18.06-169.12-18.23-170.55,0-.9.53-1.79,1.43-1.96,1.08,0,1.96.53,1.96,1.61,0,1.43,18.23,133.9,18.23,170.91v70.79h103.15c.53-113.52-21.09-246.53-31.64-280.32-10.55-33.79-25.56-52.02-47.91-67.57-22.35-15.55-102.26-49.34-102.26-49.34l-88.67,21.64s-65.08,27.17-82.78,44.69c-16.27,15.91-35.93,131.75-39.33,151.78l21.81,41.83c.36.9,0,1.96-.71,2.33-.18,0-.53.18-.9.18-.71,0-1.25-.36-1.61-.9l-24.85-47.73-31.46-39.51c-17.7,10.55-64.36,54.71-64.36,54.71h0l-.36.36h-.01Z"/>
      <path class="st3" d="M645.76,332.1c-18.78,79.37-19.49,151.6-19.84,168.76-.36,17.16-1.61,200.4-1.61,200.4h86.17s.53-62.04.9-124.42c.53-90.1,0-101.19,3.76-126.57,5.18-35.22,7.69-52.73,10.37-64.18,2.14-9.47,6.98-27.89,9.12-53.63.53-5.72.71-10.55.9-13.76l-89.74,13.23h0v.18h-.02Z"/>
      <path class="st16" d="M567.63,109l2.86,42.19s-29.68,170.91,76.88,174.48c0,0-3.22,9.47-2.86,22.88s17.17,22.52,37.01,21.81c19.84-.9,65.26-7.15,52.2-90.82,0,0,8.41-17.17,8.23-26.64,0,0,62.75-15.55,20.21-71.51l-5.37-19.49-40.4-14.31-15.55-47.38-79.73,17.35-53.63-8.76h0l.18.18h-.02Z"/>
      <path class="st11" d="M570.5,151.18s-35.4-68.65,12.51-89.21c47.91-20.56,136.4-21.99,159.29,23.25,0,0,39.15,25.03,19.84,96,0,0-16.27-11.98-39.5,20.56,0,0-8.23-19.84-6.08-43.26,0,0-22.35-20.02-19.84-52.91,0,0-66.14,32-123.89,15.74l-2.33,29.86h0Z"/>
      <path class="st6" d="M639.27,279.98c-6.58.72-13.28.2-19.6-1.63-.93-.26-1.38-1.11-1.12-2.04s1.11-1.38,2.04-1.12c6.87,1.94,13.92,2.26,20.8,1.14,10.61-1.7,18.33-6.68,22.95-10.42.65-.62,1.73-.55,2.37.28.62.65.55,1.73-.28,2.37-4.94,4.14-13.18,9.36-24.5,11.13l-2.66.29h0Z"/>
      <path class="st11" d="M576.75,167.1s1.08-7.33,13.41-7.86c12.33-.53,18.78.53,18.41,3.94s-11.98,1.43-18.06,1.96-9.65,1.08-13.59,2.14h0l-.18-.18h0Z"/>
      <path class="st11" d="M684.2,167.1s-1.08-7.33-13.41-7.86c-12.33-.53-18.78.53-18.41,3.94s11.98,1.43,18.06,1.96c6.08.53,9.65,1.08,13.59,2.14h0l.18-.18h0Z"/>
      <path class="st8" d="M591.85,188.76c-1.61-1.43-3.76-2.33-6.08-2.33-5,0-9.12,4.11-9.12,9.12s4.11,9.12,9.12,9.12,6.8-2.14,8.23-5.37c.53-1.08.9-2.51.9-3.76,0-2.68-1.25-5.18-3.04-6.8h0v.02Z"/>
      <path class="st8" d="M663.18,188.76c-1.61-1.43-3.76-2.33-6.08-2.33-5,0-9.12,4.11-9.12,9.12s4.11,9.12,9.12,9.12,6.8-2.14,8.23-5.37c.53-1.08.9-2.51.9-3.76,0-2.68-1.25-5.18-3.04-6.8h0v.02Z"/>
      <path class="st6" d="M624.67,251.3c-3.94,0-6.08-.36-8.58-1.25-1.96-.71-5-1.96-6.98-5-1.08-1.61-1.61-3.94-1.61-6.61,0-3.57.9-6.26,2.14-9.65l.53-1.43c1.79-5,3.39-9.29,4.11-13.76.53-3.04.71-6.26.36-9.47,0-.9.53-1.61,1.43-1.79.9,0,1.61.53,1.79,1.43.36,3.39,0,6.98-.36,10.37-.71,4.82-2.33,9.12-4.29,14.31l-.53,1.43c-1.25,3.39-1.96,5.54-1.96,8.41,0,1.96.53,3.76,1.08,4.82,1.43,2.33,3.76,3.22,5.37,3.76,2.68,1.08,5.18,1.25,11.98.9,3.94,0,8.04-.36,11.98-.9.9,0,1.61.53,1.79,1.43s-.53,1.61-1.43,1.79c-4.11.36-8.23.71-12.16.9h-4.82l.18.36v-.03Z"/>
      <path class="st14" d="M691.17,172.63h-43.62c-5.9,0-10.72,4.82-10.72,10.72v5.54c-2.51-1.08-5.72-2.14-9.65-2.14h0c-3.57,0-6.43.9-8.76,1.79v-5.37c0-5.9-4.82-10.72-10.72-10.72h-43.62c-5.9,0-10.72,4.82-10.72,10.72v28.25c0,5.9,4.82,10.72,10.72,10.72h43.62c5.9,0,10.72-4.82,10.72-10.72v-17.52c1.96-1.08,5-2.33,8.76-2.33h0c4.29,0,7.51,1.43,9.65,2.68v17.17c0,5.9,4.82,10.72,10.72,10.72h43.62c5.9,0,10.72-4.82,10.72-10.72v-28.25c0-5.9-4.82-10.72-10.72-10.72h0s0,.18,0,.18ZM613.4,211.62c0,3.22-2.51,5.72-5.72,5.72h-43.62c-3.22,0-5.72-2.51-5.72-5.72v-28.25c0-3.22,2.51-5.72,5.72-5.72h43.62c3.22,0,5.72,2.51,5.72,5.72v28.25ZM696.89,211.62c0,3.22-2.51,5.72-5.72,5.72h-43.62c-3.22,0-5.72-2.51-5.72-5.72v-28.25c0-3.22,2.51-5.72,5.72-5.72h43.62c3.22,0,5.72,2.51,5.72,5.72v28.25Z"/>
      <path class="st9" d="M793.25,459.93c0,1.43,18.23,133.55,18.23,170.55v70.79h3.57v-70.79c0-37.19-18.06-169.66-18.23-170.91,0-.9-1.08-1.61-1.96-1.61s-1.61,1.08-1.43,1.96h-.18Z"/>
      <path class="st9" d="M561.92,661.05v20.02c.53,0,1.25-.9,1.25-1.79l6.43-228.65c0-1.08-.71-1.79-1.79-1.79s-1.79.71-1.79,1.79l-5.9,210.95,1.79-.53h0Z"/>
      <path class="st9" d="M518.84,518.03l24.85,47.73c.36.53.9.9,1.61.9s.53,0,.9-.18c.9-.36,1.25-1.61.71-2.33l-21.81-41.83c-.36,1.96-.53,2.86-.53,2.86l-5.9-7.33.18.18h0Z"/>
      <path class="st16" d="M349.18,461.71c12.16,12.33,40.4,41.66,80.63,65.26l53.99-46.12s-13.23-84.39-27.71-95.29c-14.31-10.9-16.98,33.97-17.17,45.95,0,0-57.2-39.33-66.14-42.19-8.04-2.68-16.45-3.39-16.45,5,9.47,6.98,34.15,25.92,48.09,40.22l1.08,1.08-.9,1.25s-12.51,15.74-14.12,27.17c0,.9-.9,1.61-1.79,1.61h-.18c-.9,0-1.61-1.08-1.61-1.96.53-3.57,1.79-7.33,3.57-11.08l-48.44-32c-3.39,2.51-7.33,7.86,2.14,18.59l44.16,31.82c.71.53.9,1.61.36,2.51-.36.53-.9.71-1.43.71s-.71,0-1.08-.36l-38.62-27.89c-3.04,2.14-6.98,7.15,1.61,15.91h0v-.18h.01Z"/>
      <path class="st16" d="M400.66,435.97c-15.19-15.19-41.48-35.05-48.63-40.22h0c-3.76-1.08-8.94-1.61-12.16,1.96-4.47,5.54-1.79,13.94,2.68,18.95l49.34,32.54c3.22-5.9,6.98-11.08,8.58-13.41l.18.18h0Z"/>
      <path class="st13" d="M390.48,452.42c-1.79,3.76-3.04,7.51-3.57,11.08,0,.9.53,1.79,1.61,1.96h.18c.9,0,1.61-.71,1.79-1.61,1.61-11.44,13.94-26.99,14.12-27.17l.9-1.25-1.08-1.08c-13.94-14.31-38.62-33.25-48.09-40.22,0,.9,0,1.96.36,3.22,0,0-1.96-1.08-4.47-1.79,6.98,5.18,33.43,25.03,48.63,40.22-1.79,2.33-5.54,7.33-8.58,13.41l-49.34-32.54c.71.9,1.61,1.61,2.33,2.33,0,0-1.43.53-3.04,1.61l48.44,32h0l-.18-.18h0Z"/>
      <path class="st13" d="M349.71,444.73s-1.08.36-2.33,1.25l38.62,27.71c.36.18.71.36,1.08.36.53,0,1.08-.18,1.43-.71.53-.9.36-1.96-.36-2.51l-44.16-31.82c1.61,1.79,3.39,3.57,5.72,5.54h0v.18h0Z"/>
    </g>
    <g>
      <path class="st2" d="M204.65,145.22v138.63l-45.32-45.32-28.26,28.27-54.57-54.57-59.54,59.54v-126.55c0-2.94,2.39-5.33,5.34-5.33h177.03c2.94,0,5.33,2.38,5.33,5.33Z"/>
      <path class="st2" d="M16.96,315.33h187.69v32.04c0,2.94-2.38,5.33-5.33,5.33H22.29c-2.94,0-5.34-2.38-5.34-5.33v-32.04h0Z"/>
      <polygon class="st0" points="204.65 283.86 204.65 315.33 16.96 315.33 16.96 271.77 76.5 212.23 131.07 266.8 159.33 238.54 204.65 283.86"/>
      <circle class="st0" cx="143.69" cy="193.39" r="21.51"/>
    </g>
    <g>
      <rect class="st5" x="165.2" y="284.69" width="144.13" height="163.4" rx="5.34" ry="5.34"/>
      <rect class="st0" x="196.65" y="327.41" width="82.83" height="82.83" rx="13.69" ry="13.69"/>
      <circle class="st5" cx="230.42" cy="366.39" r="20.26"/>
      <path class="st5" d="M255.22,388.2h11.47v8.89h-16v-4.35c0-2.51,2.03-4.53,4.53-4.53h0Z"/>
    </g>
    <g>
      <path class="st10" d="M398.52,299.08c-.23,0-.45,0-.68-.01-7.07-.28-11.72-4.71-15.82-8.62-3.95-3.77-7.36-7.02-12.47-7.02h-.04c-4.93.02-10,3.06-15.08,9.03-.93,1.1-2.58,1.23-3.68.3s-1.23-2.58-.3-3.68c6.11-7.19,12.52-10.85,19.05-10.87h.05c7.21,0,11.91,4.5,16.07,8.46,3.76,3.59,7.32,6.98,12.42,7.18,4.96.19,8.04-2.77,11.61-6.2,3.94-3.79,8.39-8.08,15.91-8.36,7.74-.28,12.76,3.77,17.63,7.71,4.29,3.47,8.34,6.75,14.16,6.87,7.14.16,14.58-4.43,22.1-13.62.92-1.12,2.56-1.28,3.68-.37,1.12.91,1.28,2.56.37,3.68-8.58,10.49-17.42,15.68-26.25,15.53-7.61-.17-12.77-4.34-17.33-8.03-4.5-3.63-8.39-6.77-14.15-6.55-5.54.21-8.92,3.47-12.49,6.91-3.74,3.6-7.97,7.68-14.76,7.68v-.03Z"/>
      <g>
        <polygon class="st12" points="408.81 237.17 397.02 225.38 382.66 263.32 420.59 248.96 408.81 237.17"/>
        <polygon class="st10" points="387.41 250.76 382.66 263.32 395.21 258.57 387.41 250.76"/>
        <circle class="st10" cx="493.73" cy="152.24" r="16.68"/>
        <rect class="st7" x="387.28" y="179.66" width="120.1" height="22.19" transform="translate(-3.86 372.18) rotate(-45)"/>
        <rect class="st10" x="399.07" y="196.98" width="120.1" height="11.15" transform="translate(-8.75 383.97) rotate(-45)"/>
      </g>
    </g>
    <g>
      <g>
        <path class="st15" d="M333.28,92.54c0-23.58-19.12-42.7-42.7-42.7s-42.7,19.12-42.7,42.7c0,15.57,8.33,29.19,20.77,36.64v18.18h43.86v-18.18c12.45-7.47,20.77-21.08,20.77-36.64Z"/>
        <g>
          <path class="st15" d="M251.92,58.53c-.72,0-1.44-.27-1.99-.82l-11.06-11.06c-1.11-1.11-1.11-2.89,0-4,1.11-1.11,2.89-1.11,4,0l11.06,11.06c1.11,1.11,1.11,2.89,0,4-.55.55-1.27.82-1.99.82h-.01Z"/>
          <path class="st15" d="M290.58,39.96c-1.56,0-2.83-1.26-2.83-2.83v-20.77c0-1.56,1.26-2.83,2.83-2.83s2.83,1.26,2.83,2.83v20.77c0,1.56-1.26,2.83-2.83,2.83Z"/>
          <path class="st15" d="M329.25,58.53c.72,0,1.44-.27,1.99-.82l11.06-11.06c1.11-1.11,1.11-2.89,0-4-1.11-1.11-2.89-1.11-4,0l-11.06,11.06c-1.11,1.11-1.11,2.89,0,4,.55.55,1.27.82,1.99.82h.01Z"/>
        </g>
      </g>
      <path class="st4" d="M290.58,147.36h-21.93v16.5c0,.55.45,1,1,1h7.26c.25,0,.48.09.67.25l7.97,7.09c.19.17.42.25.67.25h8.74c.25,0,.48-.09.67-.25l7.97-7.09c.19-.17.42-.25.67-.25h7.26c.55,0,1-.45,1-1v-16.5h-21.94Z"/>
    </g>
  </g>
</svg>