<?xml version="1.0" encoding="UTF-8"?>
<svg id="Livello_1" data-name="Livello 1" xmlns="http://www.w3.org/2000/svg" viewBox="0 0 1053.23 793.55">
  <defs>
    <style>
      .cls-1 {
        fill: #3a89ff;
      }

      .cls-2 {
        fill: #fff;
      }

      .cls-3 {
        fill: #2f2f2f;
      }

      .cls-4 {
        fill: #42362e;
      }

      .cls-5 {
        fill: #2866d8;
      }

      .cls-6 {
        fill: #363a3a;
      }

      .cls-7 {
        fill: #4c3424;
      }

      .cls-8 {
        fill: #878785;
      }

      .cls-9 {
        fill: #523826;
      }

      .cls-10 {
        fill: #f2b68f;
      }

      .cls-11 {
        fill: #d28a60;
      }
    </style>
  </defs>
  <g>
    <path class="cls-2" d="M167.71,460.73c-42.9,0-77.8,34.9-77.8,77.81s34.9,77.8,77.8,77.8,77.8-34.9,77.8-77.8-34.9-77.81-77.8-77.81Z"/>
    <path class="cls-2" d="M301.78,119.72v-41.42c0-26.25-21.35-47.6-47.6-47.6h-85.13c-26.25,0-47.6,21.35-47.6,47.6v41.42c0,26.25,21.35,47.6,47.6,47.6h42.39l23.38,23.38c2.89,2.92,6.91,4.59,11.04,4.59,2.08,0,4.11-.41,5.92-1.16,5.88-2.4,9.67-8.06,9.67-14.42v-12.93c22.81-3.51,40.34-23.27,40.34-47.05Z"/>
    <path class="cls-2" d="M656.73,320.66l-58.67-19.57v-8.06c13.77-11.09,25.03-26.29,32.79-44.34,3.52-8.2,5.69-15.51,6.95-20.6,10.03-4.89,26.85-16.36,30.56-39.42,3.07-19.12.32-34.57-7.96-44.68-2.41-2.94-5.2-5.33-8.32-7.14,5.91-29.62,4.75-53.26-3.48-70.4-5.19-10.81-11.97-16.52-16.68-19.39-18.23-30.8-52.18-47.04-98.5-47.04-34.49,0-63.99,8.84-75.07,12.64-46,15.78-45.6,59.26-45.45,75.63,0,.83.01,1.6.01,2.31,0,10.2,2.27,33.79,3.65,47.2-10.1,5.74-20.33,17.37-19.17,37.79,1.55,26.96,13.13,46.11,31.57,53.16,3.03,15.67,12.49,47.75,40.8,68.31v4.05l-58.67,19.57c-48.14,16.05-84.63,54.9-97.61,103.93-23,86.84-50.41,219.13-50.41,356.18v12.77h541.67v-12.77c0-137.01-27.41-269.32-50.4-356.19-12.99-49.03-49.48-87.88-97.61-103.93Z"/>
    <path class="cls-2" d="M159.59,387.74h1.41l1.24-.62h.05s3.28-1.69,3.28-1.69l.14-.14.28-.14,1.1-1.03.1-.08.19-.19c.51-.48.98-.98,1.42-1.51l.61-.61.85-1.47c.21-.36.7-1.21,1.13-2.36l.27-.75s.19-.72.22-.87c.08-.32.15-.64.22-.96l.28-.86v-103.32s-.29-.85-.29-.85c-.04-.23-.09-.45-.15-.67l-.44-2.2-.78-1.17c-.19-.39-.36-.68-.46-.85l-.85-1.48-.62-.62c-.44-.53-.91-1.03-1.42-1.51l-1.31-1.22-.19-.1-2.46-2.59h-2.88l-.47-.22h-2.47c-.24-.01-.52-.02-.82-.02H15.59c-.31,0-.6.01-.85.02h-2.49s-.44.22-.44.22h-2.67l-2.52,2.52-.31.16-1.31,1.22c-.51.47-.98.98-1.42,1.51l-.62.62-.85,1.49c-.21.36-.68,1.2-1.11,2.33l-.25.65-.12.47c-.05.17-.1.35-.14.53-.07.26-.13.53-.18.8l-.31.9v103.5s.31.88.31.88c.03.17.07.34.11.51l.44,2.27.82,1.22c.16.31.31.58.44.81l.85,1.48.61.61c.44.53.91,1.03,1.42,1.51l.19.19.1.08,1.11,1.03.4.2.11.11,3.16,1.65.09.02,1.23.61h1.4c.93.17,1.87.26,2.8.26h141.2c.93,0,1.87-.09,2.8-.26Z"/>
    <path class="cls-2" d="M1053.23,332.11l-1.92-9.02c-.13-.58-3.16-14.37-10.68-30.03-7.73-16.12-20.81-29.15-22.29-30.59l-7.71-7.52-30.79,14.31c-6.15-1.27-13.11-1.96-20.1-1.96-6.21,0-15.14.56-22.4,3.21-.63.23-1.28.5-1.96.81h-22.28l-12.18-7.08c-3.83-2.22-8.2-3.39-12.64-3.39-7.12,0-13.95,3-18.73,8.25-7.21,7.94-12.56,14.73-15.9,20.17-3.4,5.52-7.41,13.63-11.89,24.12-4.44,10.33-1.62,22.12,7.02,29.35l16.66,13.92c.33,7.77,3.87,14.8,10.01,19.14,2.31,1.62,4.88,2.8,7.61,3.49,1.66,3.8,4.26,7.08,7.67,9.49,1.98,1.4,4.16,2.45,6.46,3.15,1.62,3.68,4.15,6.86,7.47,9.21,1.13.8,2.33,1.48,3.59,2.05,1.51,4.34,4.25,8.08,8.04,10.75,3.69,2.61,8.09,3.99,12.73,3.99,3.89,0,7.79-.98,11.39-2.79,3.38,1.52,7.07,2.31,10.94,2.31,4.77,0,9.64-1.23,13.72-3.46l.34-.19.98-.62.34-.24c1.85-1.33,3.46-2.85,4.82-4.51,4.2-.78,8.26-2.69,12.1-5.68,2.13-1.66,3.93-3.52,5.37-5.55,3.7-1.08,7.95-3.35,12.14-7.82.94-.99,1.78-2.03,2.54-3.1.78-.07,1.55-.17,2.29-.32,6.72-1.29,12.19-5.53,15.42-11.95,3.36-6.73,4.07-12.59,3.64-17.31l28.19-24.59Z"/>
    <path class="cls-2" d="M792.62,148.52c15.62,14.16,32.9,26.66,51.37,37.14,7.85,4.45,16.76,6.8,25.77,6.8,15.26,0,29.69-6.6,39.58-18.09,1.9-2.2,3.62-4.4,5.14-6.56,6-8.56,5.3-19.94-1.71-27.67-3.95-4.34-10.3-10.65-18.09-16.01-7.33-5.04-14.54-8.65-19.31-10.8-2.89-1.3-5.95-1.95-9.09-1.95-6.43,0-12.55,2.81-16.76,7.71l-1.78,2.06c-6.45-5.06-11.58-9.54-13.92-12.24-3.15-3.62-8.34-11.15-13.3-18.76l2.26-1.88c6.61-5.49,9.46-14.41,7.27-22.7-1.56-5.95-4.52-14.78-9.79-23.05-4.33-6.81-9.16-12.63-12.43-16.3-4.21-4.72-10.24-7.44-16.56-7.44-4.65,0-9.11,1.43-12.91,4.15-3.22,2.31-6.27,4.55-9.07,6.67-19.21,14.53-26.03,40.09-16.58,62.17,6.57,15.35,18.82,37.65,39.91,56.75Z"/>
    <path class="cls-2" d="M836.14,56.54c-1.74,8.36,3.65,16.62,12.05,18.43,2.86.6,8.33,2.34,12.89,7.26,4.92,5.28,6.14,11.29,6.44,14.48.8,8.01,7.47,14.06,15.51,14.06.38,0,.94,0,1.63-.08,2.82-.3,5.45-1.35,7.67-3,2.61,1.95,5.84,3.09,9.35,3.09.4,0,.97-.01,1.67-.09,4.06-.44,7.72-2.4,10.32-5.55,2.66-3.21,3.91-7.27,3.52-11.4-.94-10.06-4.9-29.5-20.87-46.64-14.86-15.98-32.52-21.6-41.74-23.54-1.04-.22-2.12-.33-3.18-.33-7.3,0-13.71,5.18-15.27,12.43-1.04,5.06.52,10.06,3.74,13.63-1.81,2-3.14,4.48-3.74,7.26Z"/>
    <path class="cls-2" d="M997.7,507.53l-.03-.24c-.03-.34-.08-.67-.14-1.01-.09-.56-.21-1.13-.36-1.68l-.15-.56-.2-.54c-.09-.25-.22-.59-.4-1-.35-.81-.77-1.59-1.25-2.33l-.16-.25-.11-.15c-.21-.3-.44-.61-.68-.9-.49-.6-1.02-1.16-1.63-1.72l-.17-.15-.16-.14c-.12-.1-.25-.21-.41-.34-.68-.57-1.42-1.06-2.2-1.47-.2-.11-.38-.2-.56-.28-.47-.24-.94-.45-1.44-.64l-74.19-28.47c-1.77-.66-3.62-1-5.51-1-2.14,0-4.23.43-6.16,1.27l-28.74,12.35h-2.66s-2.01,2.01-2.01,2.01l-36.13,15.53c-.17.07-.34.15-.51.23l-.12.05s-.39.21-.48.26c-.32.16-.71.37-1.13.64l-.63.4-.07.05-.59.35-.87.87s-.09.09-.14.13c-.71.66-1.34,1.38-1.98,2.27.07-.09.13-.18.19-.26-.1.13-.19.25-.29.39l-.29.4-.26.43c-.46.76-.86,1.57-1.19,2.42-.16.39-.35.88-.5,1.43-.41,1.41-.61,2.85-.61,4.29v80.52c0,6.18,3.66,11.78,9.34,14.28l77.09,33.78.31.12c.36.13.68.24.97.33l.43.14.5.12c1.26.31,2.49.47,3.75.47,1.36,0,2.74-.19,4.11-.56l.19-.05c.42-.12.79-.25,1.08-.36.47-.16,1.04-.39,1.66-.7l.15-.07,67.25-35.79c5.03-2.74,8.16-7.99,8.16-13.71v-80.07c0-.31-.01-.62-.03-.93v-.14Z"/>
  </g>
  <g>
    <g>
      <rect class="cls-8" x="456.45" y="729.01" width="157.6" height="51.77"/>
      <polygon class="cls-2" points="469.68 729.01 469.68 324.67 482.54 310.29 585.29 310.29 598.23 323.23 598.23 729.01 469.68 729.01"/>
      <path class="cls-11" d="M482.54,290.21v37.91s9.17,27.32,51.79,27.32,50.96-30.77,50.96-30.77v-38.03l-102.75,3.58Z"/>
      <path class="cls-1" d="M482.54,310.29l-5.38,417.57c0,32.21-4.6,52.92-4.6,52.92h-196.71c0-138.94,28.97-273.55,49.99-352.91,11.84-44.72,45.42-80.46,89.3-95.09l67.4-22.48Z"/>
      <path class="cls-5" d="M385.07,443.2c-.21,12.14-5.23,296.35-13.74,337.57h-5.7c0-.2.02-.41.07-.61,8.47-38.39,13.69-334.08,13.74-337.07.02-1.55,1.31-2.79,2.86-2.76,1.55.02,2.79,1.31,2.77,2.86Z"/>
      <path class="cls-1" d="M791.97,780.78h-196.7s-4.61-20.7-4.61-52.92l-5.38-417.57,67.4,22.48c43.88,14.63,77.46,50.37,89.31,95.09,21.01,79.36,49.98,213.98,49.98,352.91Z"/>
      <path class="cls-5" d="M702.19,780.78h-5.7c-8.52-41.23-13.53-325.43-13.73-337.57-.03-1.55,1.21-2.84,2.76-2.86,1.55-.03,2.84,1.21,2.87,2.76.05,2.98,5.26,298.68,13.73,337.07.05.2.07.41.07.61Z"/>
      <path class="cls-10" d="M430.28,146.08s-21.57,3.74-20.13,28.76c1.44,25.02,12.37,41.12,30.2,43.71,0,0,6.61,83.97,90.3,83.97s96.05-83.69,96.05-83.69c0,0,25.02-7.19,29.05-32.21s-3.74-40.55-18.69-41.12l-17.83-3.74-10.35-67.87-25.59-6.9-59.53,14.67-73.05-6.04-2.88,40.55-17.54,29.91Z"/>
      <path class="cls-3" d="M530.41,252.59c-7.32,0-14.64-1.38-21.36-4.15-.99-.4-1.38-1.38-.99-2.37s1.38-1.38,2.37-.99c7.32,2.97,15.03,4.15,22.75,3.76,11.87-.59,20.97-5.14,26.51-8.7.79-.59,1.98-.4,2.57.59.59.79.4,1.98-.59,2.57-5.93,3.96-15.63,8.7-28.29,9.3h-2.97,0Z"/>
      <path class="cls-7" d="M469.67,133.04s1.19-8.11,14.84-8.7,20.77.59,20.38,4.35-13.25,1.58-19.98,2.18-10.68,1.19-15.03,2.37h0l-.2-.2Z"/>
      <path class="cls-7" d="M598.22,133.04s-1.19-8.11-14.84-8.7-20.77.59-20.38,4.35c.4,3.76,13.25,1.58,19.98,2.18s10.68,1.19,15.03,2.37h0l.2-.2Z"/>
      <path class="cls-4" d="M491.24,160.54c-1.78-1.58-4.15-2.57-6.73-2.57-5.54,0-10.09,4.55-10.09,10.09s4.55,10.09,10.09,10.09,7.52-2.37,9.1-5.93c.59-1.19.99-2.77.99-4.15,0-2.97-1.38-5.74-3.36-7.52h0Z"/>
      <path class="cls-4" d="M579.83,160.54c-1.78-1.58-4.15-2.57-6.73-2.57-5.54,0-10.09,4.55-10.09,10.09s4.55,10.09,10.09,10.09,7.52-2.37,9.1-5.93c.59-1.19.99-2.77.99-4.15,0-2.97-1.38-5.74-3.36-7.52h0Z"/>
      <path class="cls-3" d="M527.52,226.22c-4.35,0-6.73-.4-9.5-1.38-2.18-.79-5.54-2.18-7.72-5.54-1.19-1.78-1.78-4.35-1.78-7.32,0-3.96.99-6.92,2.37-10.68l.59-1.58c1.98-5.54,3.76-10.29,4.55-15.23.59-3.36.79-6.92.4-10.48,0-.99.59-1.78,1.58-1.98.99,0,1.78.59,1.98,1.58.4,3.76,0,7.72-.4,11.47-.79,5.34-2.57,10.09-4.75,15.83l-.59,1.58c-1.38,3.76-2.18,6.13-2.18,9.3,0,2.18.59,4.15,1.19,5.34,1.58,2.57,4.15,3.56,5.93,4.15,2.97,1.19,5.74,1.38,13.25.99,4.35,0,8.9-.4,13.25-.99.99,0,1.78.59,1.98,1.58s-.59,1.78-1.58,1.98c-4.55.4-9.1.79-13.45.99h-5.34l.2.4Z"/>
      <path class="cls-9" d="M601.11,139.18h-48.27c-6.53,0-11.87,5.34-11.87,11.87v6.13c-2.77-1.19-6.33-2.37-10.68-2.37h0c-3.96,0-7.12.99-9.69,1.98v-5.93c0-6.53-5.34-11.87-11.87-11.87h-48.27c-6.53,0-11.87,5.34-11.87,11.87v31.26c0,6.53,5.34,11.87,11.87,11.87h48.27c6.53,0,11.87-5.34,11.87-11.87v-19.39c2.18-1.19,5.54-2.57,9.69-2.57h0c4.75,0,8.31,1.58,10.68,2.97v18.99c0,6.53,5.34,11.87,11.87,11.87h48.27c6.53,0,11.87-5.34,11.87-11.87v-31.26c0-6.53-5.34-11.87-11.87-11.87h0v.2ZM515.06,182.3c0,3.56-2.77,6.33-6.33,6.33h-48.27c-3.56,0-6.33-2.77-6.33-6.33v-31.26c0-3.56,2.77-6.33,6.33-6.33h48.27c3.56,0,6.33,2.77,6.33,6.33v31.26ZM607.44,182.3c0,3.56-2.77,6.33-6.33,6.33h-48.27c-3.56,0-6.33-2.77-6.33-6.33v-31.26c0-3.56,2.77-6.33,6.33-6.33h48.27c3.56,0,6.33,2.77,6.33,6.33v31.26Z"/>
      <path class="cls-7" d="M439.19,166.79s-4.31-20.42-8.92-20.71c0,0-4.6-41.7-4.6-55.5s-2.59-52.34,36.81-65.86c39.4-13.52,128.26-27.9,160.18,31.92,0,0,33.65,11.22,14.38,88.86,0,0-12.94-1.15-17.26,22.43l-2.01-23.29s-17.26-28.47-13.23-65.86c0,0-9.49-12.65-35.66-.58s-85.7,16.39-114.46,2.3c0,0,1.44,47.74-10.35,59.82l-4.89,26.46Z"/>
    </g>
    <circle class="cls-6" cx="181.52" cy="99.01" r="6.33"/>
    <circle class="cls-6" cx="210.49" cy="99.01" r="6.33"/>
    <circle class="cls-6" cx="239.47" cy="99.01" r="6.33"/>
    <path class="cls-6" d="M254.19,43.48h-85.13c-19.2,0-34.83,15.62-34.83,34.83v41.42c0,19.2,15.62,34.83,34.83,34.83h47.68l27.15,27.15c.53.54,1.25.82,1.98.82.37,0,.73-.07,1.08-.21,1.05-.43,1.73-1.45,1.73-2.6v-25.15h5.51c19.2,0,34.83-15.62,34.83-34.83v-41.42c0-19.2-15.62-34.83-34.83-34.83ZM283.38,119.72c0,16.1-13.1,29.2-29.2,29.2h-11.14v23.99l-23.99-23.99h-50c-16.1,0-29.2-13.1-29.2-29.2v-41.42c0-16.1,13.1-29.2,29.2-29.2h85.13c16.1,0,29.2,13.1,29.2,29.2v41.42Z"/>
    <path class="cls-6" d="M159.6,273.19s0-.03,0-.04c0-.23-.04-.47-.1-.7-.01-.04-.02-.08-.03-.11-.01-.05-.02-.09-.04-.14-.07-.17-.15-.34-.25-.49-.02-.03-.04-.06-.06-.09-.13-.2-.28-.37-.46-.53-.02-.02-.05-.04-.07-.06-.19-.16-.39-.29-.61-.39,0,0-.01-.01-.02-.01-.02,0-.03,0-.05-.01-.23-.1-.47-.17-.72-.21-.02,0-.04,0-.06,0-.11-.01-.22-.03-.34-.03H15.59c-.11,0-.22.01-.34.03-.02,0-.04,0-.06,0-.25.04-.49.11-.72.21-.02,0-.03,0-.05.01,0,0-.01.01-.02.01-.22.1-.43.24-.61.39-.02.02-.05.04-.07.06-.17.15-.33.33-.46.53-.02.03-.04.06-.06.09-.1.15-.18.32-.25.49-.02.05-.03.09-.04.14-.01.04-.02.07-.03.11-.06.23-.1.46-.1.7,0,.02,0,.03,0,.04v99.22s0,.03,0,.04c0,.23.04.47.1.7.01.04.02.08.03.11.01.05.02.09.04.14.07.17.15.34.25.49.02.03.04.06.06.09.13.2.28.37.46.53.02.02.05.04.07.06.19.16.39.29.62.39,0,0,.01.01.02.01.02.01.05.01.07.02.13.06.27.1.42.14.05.01.09.02.14.03.17.03.35.06.53.06,0,0,0,0,0,0h141.2s0,0,0,0c.18,0,.35-.02.53-.06.05,0,.09-.02.14-.03.14-.04.28-.08.42-.14.02-.01.05-.01.07-.02,0,0,.01-.01.02-.01.22-.1.43-.24.62-.39.02-.02.05-.04.07-.06.17-.15.33-.33.46-.53.02-.03.04-.06.06-.09.1-.15.18-.32.25-.49.02-.05.03-.09.04-.14.01-.04.02-.08.03-.11.06-.23.1-.46.1-.7,0-.02,0-.03,0-.04v-99.22ZM18.4,366.18v-86.77l49.31,43.39-24.11,21.21-25.19,22.16ZM71.97,326.56l12.36,10.87c.93.82,2.27.92,3.3.31.15-.09.29-.19.42-.31l12.35-10.87,48.92,43.04H23.05l48.92-43.04ZM153.97,366.18l-25.19-22.16-24.11-21.21,49.31-43.39v86.77ZM149.33,276.01l-63.14,55.55-63.14-55.55h126.28Z"/>
    <g>
      <path class="cls-6" d="M167.71,603.57c-35.86,0-65.03-29.17-65.03-65.03s29.17-65.03,65.03-65.03,65.03,29.17,65.03,65.03-29.17,65.03-65.03,65.03ZM167.71,479.14c-32.75,0-59.4,26.65-59.4,59.4s26.65,59.4,59.4,59.4,59.4-26.65,59.4-59.4-26.65-59.4-59.4-59.4Z"/>
      <path class="cls-6" d="M194.8,568.43c-.72,0-1.44-.27-1.99-.82l-27.08-27.08c-.53-.53-.82-1.24-.82-1.99v-43.04c0-1.56,1.26-2.82,2.82-2.82s2.82,1.26,2.82,2.82v41.88l26.26,26.26c1.1,1.1,1.1,2.88,0,3.98-.55.55-1.27.82-1.99.82Z"/>
    </g>
    <path class="cls-6" d="M883.03,97.99c-1.44,0-2.66-1.09-2.8-2.55-.44-4.73-2.3-13.87-9.8-21.93-6.98-7.5-15.28-10.14-19.61-11.05-1.52-.32-2.5-1.81-2.18-3.34s1.82-2.49,3.33-2.18c4.98,1.05,14.54,4.09,22.57,12.72,8.63,9.28,10.78,19.79,11.29,25.24.15,1.55-.99,2.92-2.54,3.07-.09,0-.18.01-.27.01Z"/>
    <path class="cls-6" d="M901.67,97.99c-1.44,0-2.66-1.09-2.8-2.55-.72-7.73-3.77-22.66-16.02-35.82-11.4-12.25-24.96-16.57-32.03-18.05-1.52-.32-2.5-1.81-2.18-3.34.32-1.52,1.82-2.49,3.33-2.18,7.72,1.62,22.54,6.34,35,19.73,13.38,14.38,16.71,30.69,17.5,39.13.15,1.55-.99,2.92-2.54,3.07-.09,0-.18.01-.27.01Z"/>
    <path class="cls-6" d="M869.76,179.68c-6.66,0-13.37-1.67-19.47-5.14-17.62-9.99-34.13-21.93-49.09-35.49-19.39-17.57-30.68-38.15-36.74-52.31-7.13-16.67-1.97-35.97,12.55-46.95,2.82-2.13,5.78-4.31,8.81-6.48h0c3.91-2.8,9.28-2.2,12.48,1.39,2.97,3.34,7.33,8.59,11.19,14.67,4.37,6.86,6.88,14.35,8.21,19.43.93,3.53-.28,7.32-3.08,9.64l-9.76,8.12c-.66.55-.82,1.51-.36,2.23,3.99,6.35,13.9,21.83,19.69,28.49,5.63,6.47,18.75,16.36,24.13,20.31.73.54,1.73.42,2.32-.26l8.55-9.91c2.74-3.18,7.15-4.16,10.97-2.44,4.25,1.91,10.71,5.13,17.29,9.66,6.78,4.66,12.37,10.23,15.88,14.08,2.97,3.27,3.26,8.1.7,11.74-1.25,1.79-2.71,3.65-4.34,5.54-7.68,8.92-18.72,13.66-29.92,13.66ZM791.28,37.19c-.76,0-1.52.23-2.18.7h0c-2.99,2.14-5.91,4.29-8.69,6.39-12.45,9.41-16.88,25.96-10.77,40.24,5.84,13.65,16.71,33.46,35.35,50.35,14.65,13.28,30.83,24.97,48.09,34.76,14.04,7.96,31.85,4.89,42.35-7.3,1.51-1.75,2.85-3.47,4-5.1,1.03-1.47.93-3.42-.26-4.72-3.3-3.63-8.57-8.87-14.9-13.23-6.23-4.29-12.36-7.35-16.4-9.16-1.53-.69-3.3-.29-4.4.98l-8.55,9.91c-2.49,2.89-6.85,3.38-9.92,1.13-6.87-5.05-19.26-14.51-25.05-21.16-5.83-6.7-15.16-21.17-20.21-29.19-1.95-3.11-1.29-7.22,1.53-9.56l9.76-8.12c1.12-.93,1.61-2.46,1.23-3.88-1.23-4.69-3.54-11.59-7.52-17.84-3.66-5.76-7.81-10.76-10.65-13.94-.74-.83-1.77-1.26-2.81-1.26Z"/>
    <path class="cls-6" d="M984.96,508.65s0-.04,0-.06c0-.07-.03-.13-.04-.2-.02-.17-.05-.34-.1-.51-.03-.09-.07-.18-.11-.27-.06-.14-.13-.28-.22-.41-.06-.09-.12-.17-.18-.25-.1-.12-.2-.23-.32-.33-.08-.07-.16-.14-.24-.2-.04-.03-.08-.07-.12-.1-.09-.06-.2-.09-.3-.14-.06-.03-.12-.08-.18-.1l-74.2-28.47c-.68-.26-1.45-.25-2.12.04l-31.15,13.39s-.01,0-.02,0l-38.42,16.51c-.06.02-.1.07-.15.1-.1.05-.2.08-.29.15-.05.04-.09.08-.14.12-.08.06-.15.12-.22.19-.12.11-.22.23-.32.36-.06.07-.11.15-.16.23-.09.15-.16.31-.22.47-.03.07-.06.14-.09.22-.07.24-.11.5-.11.75v80.52c0,1.12.66,2.13,1.69,2.58l76.78,33.65c.09.04.18.06.26.08.07.02.13.05.2.06.22.05.44.09.67.09.25,0,.5-.04.75-.11.08-.02.15-.06.23-.09.12-.04.24-.07.35-.13l67.01-35.66c.92-.49,1.49-1.45,1.49-2.49v-79.95s0-.05,0-.07ZM908.02,483.29l67.1,25.75-9.78,4.81-15.13,7.44-66.23-27.66,24.05-10.33ZM876.77,496.72l66.72,27.87-29.3,14.4-68.63-28.86,31.21-13.41ZM841.18,514.4l10.33,4.34,59.98,25.22.8,76.04-71.11-31.16v-74.44ZM979.34,586.98l-61.42,32.69-.8-75.84,62.22-30.58v73.74Z"/>
    <path class="cls-6" d="M1039.18,327.42l-.35-1.63c-.11-.52-2.88-12.99-9.71-27.21-6.89-14.37-19.17-26.47-19.69-26.98l-1.4-1.36-26.83,12.47c-12.2-3.42-30.31-3.56-39.42-.23-1.89.7-4.51,2.19-7.43,4.09l-2.92-2.49h-21.75l-15.14-8.8c-5.06-2.93-11.58-1.93-15.52,2.4-4.55,5.01-10.78,12.25-14.49,18.29-3.83,6.21-8.11,15.63-11.03,22.45-2.2,5.11-.8,10.94,3.47,14.51l21.78,18.2c-1.48,5.67-.09,11.29,4.04,14.21,1.82,1.28,3.96,1.89,6.21,1.89,1.62,0,3.29-.33,4.94-.95-.82,4.87.57,9.52,4.15,12.04,1.72,1.22,3.75,1.8,5.88,1.8,1.35,0,2.74-.26,4.11-.72-.74,4.56.57,8.9,3.92,11.26,1.63,1.15,3.55,1.7,5.54,1.7.8,0,1.6-.11,2.41-.28-.91,4.6.34,9.03,3.69,11.4,1.58,1.12,3.42,1.64,5.36,1.64,3.9,0,8.14-2.15,11.21-5.98,3.3,4.15,7.41,5.5,11.13,5.5,3.01,0,5.77-.89,7.6-1.89l.3-.19c3.32-2.4,4.3-5.1,4.52-7.04,3.29,1.03,7.37.77,12.05-2.88,2.73-2.12,4.26-4.65,4.56-7.52,0-.08.01-.16.01-.24,3.14.93,7.03.46,11.47-4.27,2.69-2.86,3.62-5.83,3.55-8.56,2.58,1.15,5.46,1.88,8.17,1.35,1.94-.37,4.62-1.57,6.4-5.11,4.07-8.14,2.12-13.49.61-15.94l28.59-24.94ZM896.68,357.83c-1.5,1.58-3.23,2.71-4.94,3.31-2.11.75-4.16.68-5.68-.39-1.61-1.14-2.35-3.22-2.24-5.63.06-1.84.62-3.86,1.68-5.78.27-.52.59-1.01.93-1.51,1.76-2.48,4.07-4.29,6.52-5.1.89-.3,1.73-.45,2.53-.45,1.14,0,2.16.3,3.01.9,1.42,1,2.23,2.8,2.26,5.07.05,2.58-.89,5.37-2.64,7.85-.44.62-.92,1.21-1.44,1.73ZM912.45,369.81c-1.24,1.66-2.74,2.96-4.29,3.81-2.51,1.41-5.15,1.63-6.97.35-1.91-1.35-2.55-4.11-1.91-7.11.34-1.72,1.09-3.51,2.26-5.17.02-.03.06-.08.08-.11,1.67-2.29,3.82-3.96,6.12-4.74.84-.27,1.66-.42,2.41-.42,1.08,0,2.05.29,2.85.86,1.35.95,2.12,2.66,2.16,4.81.03,2.46-.86,5.1-2.51,7.46-.07.09-.14.18-.19.27ZM923.19,385.05s-.06.07-.08.1c-2.78,2.22-6.08,2.91-8.2,1.42-2.22-1.58-2.6-5.18-1.21-8.73.38-.96.89-1.93,1.54-2.84.48-.69,1.01-1.32,1.59-1.86,1.27-1.28,2.73-2.21,4.25-2.71.79-.26,1.55-.39,2.28-.39,1.01,0,1.94.27,2.68.8,1.27.9,1.99,2.51,2.04,4.54.02,1.73-.44,3.56-1.33,5.31-.28.55-.61,1.09-.97,1.61-.93.81-1.81,1.72-2.59,2.76ZM939.1,390.06c-.23,1.82-.98,3.69-2.19,5.41-.01.01-.01.02-.02.03-2.91,4.11-7.68,5.96-10.42,4.02-2.61-1.85-2.59-6.58-.06-10.59.3-.25.6-.5.89-.77.91-.83,1.76-1.78,2.52-2.86.01-.01.01-.02.02-.03.54-.38,1.1-.71,1.68-.97.29-.15.6-.26.9-.36.77-.26,1.5-.38,2.19-.38.99,0,1.88.26,2.6.77,1.23.87,1.93,2.43,1.96,4.38.01.44-.01.9-.08,1.35ZM1004.93,365.78c-.81,1.63-1.77,1.98-2.42,2.11-3.23.64-8.72-2.88-11.4-5.25l-.11.11-21.73-20.57c-1.13-1.07-2.91-1.02-3.98.11-1.07,1.13-1.02,2.91.11,3.98l22.74,21.54c1.32,1.79,3.02,5.34-.38,8.97-4.27,4.54-6.27,2.96-9.62.33-.27-.21-.54-.43-.8-.63l-2.39-1.82-17.48-14.33c-1.21-.99-2.97-.81-3.96.39-.98,1.19-.81,2.97.39,3.95l19.87,16.29c.44.69,1.17,2.1,1,3.63-.15,1.28-.96,2.5-2.41,3.63-4.85,3.78-7.93,2.39-12.24-1.72l-.18.19-12.35-12.1c-1.12-1.09-2.89-1.08-3.99.03-1.08,1.12-1.07,2.89.05,3.99l13.67,13.4c.5.83.92,1.85.84,2.85-.08,1.07-.75,2.07-2.06,3.05-1.37.7-8.43,3.74-12.85-4.33.51-1.55.78-3.15.78-4.71v-.24c-.06-3.55-1.49-6.49-4.02-8.28-2.06-1.45-4.6-1.95-7.29-1.49.27-1.19.41-2.4.38-3.58-.07-3.67-1.54-6.71-4.16-8.56-2.46-1.73-5.56-2.16-8.81-1.26.24-1.16.36-2.33.34-3.47-.07-3.9-1.63-7.13-4.42-9.09-2.77-1.97-6.34-2.38-10.04-1.14.23-1.13.35-2.24.35-3.35v-.28c-.07-4.1-1.72-7.5-4.65-9.57-2.92-2.06-6.67-2.49-10.57-1.19-3.58,1.19-6.89,3.75-9.34,7.21-.27.38-.52.77-.75,1.16l-20.5-17.13c-2.34-1.96-3.11-5.16-1.9-7.96,2.85-6.63,7.01-15.79,10.64-21.72,3.49-5.67,9.47-12.62,13.87-17.45,2.16-2.38,5.74-2.93,8.52-1.32l16.46,9.55h21.19l.19.17c-3.37,2.42-6.85,5.13-9.95,7.64-16.48,13.38-15.75,15.48-15.16,17.15l.16.47c.93,2.78,3.75,11.23,14.1,10.9,8.2-.27,27.26-12.33,33.5-16.41l29.17,24.59,24.15,20.66c.39.47,2.94,3.87-.57,10.89ZM1006.74,348.25l-22.02-18.56-32.05-27.43-4.7,3.39-1.72,1.1-.07.05c-9.61,6.09-22.74,13.46-27.67,13.62-5.42.18-7.24-3.22-8.41-6.6,2.46-3.33,14.37-13.48,23.83-20.18l4.87-3.26c.45-.28.88-.54,1.3-.78l.27-.16c1.31-.77,2.46-1.33,3.37-1.67,8.27-3.04,25.86-2.74,36.89.62l1.02.32,25.2-11.7c3.32,3.5,12.04,13.22,17.21,24,5.15,10.73,7.93,20.62,8.89,24.39l-26.2,22.85Z"/>
  </g>
</svg>