<?xml version="1.0" encoding="UTF-8"?>
<svg id="Livello_1" data-name="Livello 1" xmlns="http://www.w3.org/2000/svg" viewBox="0 0 1024.96 790.36">
  <defs>
    <style>
      .cls-1 {
        fill: #3a89ff;
      }

      .cls-2 {
        fill: #fff;
      }

      .cls-3 {
        fill: #5e5e5e;
      }

      .cls-4 {
        fill: #3c435f;
      }

      .cls-5 {
        fill: #fe6c49;
      }

      .cls-6 {
        fill: #adabaf;
      }

      .cls-7 {
        fill: #2f2f2f;
      }

      .cls-8 {
        fill: #3185f6;
      }

      .cls-9 {
        fill: #42362e;
      }

      .cls-10 {
        fill: #2d79e1;
      }

      .cls-11 {
        fill: #46bf68;
      }

      .cls-12 {
        fill: #2866d8;
      }

      .cls-13 {
        fill: #4c3424;
      }

      .cls-14 {
        fill: #8cbf52;
      }

      .cls-15 {
        fill: #b37660;
      }

      .cls-16 {
        fill: #358cff;
      }

      .cls-17 {
        fill: #523826;
      }

      .cls-18 {
        fill: #fffffd;
      }

      .cls-19 {
        fill: #f2b68f;
      }

      .cls-20 {
        fill: #ffc956;
      }

      .cls-21 {
        fill: #343b4e;
      }
    </style>
  </defs>
  <g>
    <path class="cls-18" d="M1004.73,364.92c-6.46-8.87-16.83-14.23-27.96-14.23h-184.39c-15.94,0-29.75,10.81-33.57,26.3l-68.65,278.43c-1.18,4.77-1.33,9.76-.44,14.57v55.35c0,14.33,9.53,26.48,22.58,30.44l-.39,1.38c-2.25,7.94-.69,16.27,4.28,22.85,4.97,6.58,12.56,10.36,20.81,10.36h112.68c18.33,0,34.6-12.32,39.59-29.96l.92-3.26h12.73c.7,0,1.36-.03,2-.09,7.95-.54,15.33-3.97,20.8-9.68l60.37-62.83c19.78-20.58,30.67-47.65,30.67-76.21v-199.52c0-9,0-33.83-12.03-43.89Z"/>
    <path class="cls-18" d="M852.96,344c94.84,0,172-77.16,172-172S947.8,0,852.96,0s-172,77.16-172,172,77.16,172,172,172Z"/>
    <path class="cls-18" d="M694.43,359.8c0-35.44-8.76-55.87-26.05-60.74-6.39-1.8-13.52-2.71-21.17-2.71-6.86,0-14.24.73-21.88,2.16-1.63.3-3.22.63-4.77.96l2.75-22.77-1.91,1.99c0-.73-.03-1.45-.05-2.13-.81-20.44-14.01-48.75-36.7-48.75-.4,0-.81,0-1.22.03-5.53.26-18.8,3.04-22.47,23.19-1.38,7.57-1.2,16.02-1.05,22.81.06,2.73.11,5.31.03,6.76-.31,5.36-5.89,35-9.58,54.62-2.65,14.05-4.93,26.19-5.82,31.87-2.19,13.78,2.43,30.52,6.14,43.98,1.19,4.33,2.32,8.41,2.86,11.21.43,2.21.4,5.35.09,8.76l-9.57-3.12-4.62,35.42h-.02l-1.08,8.29c-22.35-34.67-58.04-80.04-100.83-98.62-11.15-4.85-21-8.79-29.7-11.99,12.99-8.65,23.97-20.52,32.85-35.56,12.19-20.65,20.12-47.1,23.64-78.77,11.03-3.9,18.95-14.42,18.95-26.77v-35.51c0-12.62-8.28-23.35-19.7-27.02-.52-4.54-1.01-8.25-1.4-10.95,6.31-13.89,23.13-56.32,10.8-90.62-6.18-17.19-18.35-29.77-36.18-37.4C409.38,6.72,373.89,0,339.37,0,281.34,0,237.85,18.68,219.26,51.4c-12.04,9.77-48.77,47.14-29.56,127.49-16.34,23.76-21.15,45.59-14.29,64.96,7.93,22.39,29.46,34.06,42.35,39.21,2.03,9.27,5.92,18.83,8.43,24.47-.94,6.65-1.6,13.07-2,19.23h-.43v4.97c-13.46,5.68-39.23,16.99-66.64,31.25-53.63,27.92-85.79,52.35-98.33,74.71C29.05,490.68-.82,695.5.02,775.52l.16,14.84h488.79l.82-14.13c1.49-25.73.02-66.65-1.81-101.12,6.83,7.07,13.71,14.14,19.06,19.5,4.85,4.87,13.57,12.34,25.91,22.23,12.75,10.22,28.08,15.61,44.32,15.61,29.03,0,54.89-17.3,65.87-44.05,5-12.15,8.78-22.1,11.25-29.65,9.71-30.1,23.33-170.31,24.86-186.2l3.97-41.54-1.33,1.33c2.23-5.31,4.22-11.48,6-18.54,4.16-16.52,6.55-36.2,6.55-54.01Z"/>
  </g>
  <g>
    <g>
      <polygon class="cls-2" points="238.75 341.76 350.09 363.28 377.8 394.12 409.05 603.97 383.95 775.36 274.34 775.36 254.58 632.09 227.33 379.84 238.75 341.76"/>
      <path class="cls-19" d="M450.28,91.06l-3.68,53.09s37.3,214.57-96.5,219.13c0,0,4.04,11.92,3.5,28.73s-21.55,28.37-46.42,27.34c-24.87-1.06-82.02-8.94-65.5-114.05,0,0-10.52-21.59-10.26-33.42,0,0-78.84-19.44-25.48-89.86l6.82-24.43,50.71-17.87,19.44-59.38,100.12,21.82,67.25-11.02v-.09h0Z"/>
      <path class="cls-13" d="M446.62,144.15s44.4-86.17-15.76-111.92c-60.16-25.75-171.3-27.59-199.94,29.16,0,0-49.13,31.54-24.96,120.61,0,0,20.49-14.98,49.65,25.75,0,0,10.26-24.96,7.61-54.39,0,0,28.1-25.23,24.96-66.46,0,0,83.03,40.2,155.54,19.68l2.87,37.58h.03Z"/>
      <path class="cls-7" d="M359.73,306.11c8.13,1.48,16.58,1.38,24.7-.29,1.12-.23,1.83-1.31,1.58-2.42-.23-1.12-1.31-1.83-2.42-1.58-8.68,1.79-17.76,1.65-26.26-.39-13.07-3.14-22.28-9.98-27.72-15.14-.81-.79-2.12-.75-2.91.08-.79.81-.75,2.12.08,2.91,5.79,5.53,15.64,12.8,29.62,16.15,1.09.27,2.23.52,3.36.73h0l-.02-.05h-.01Z"/>
      <path class="cls-13" d="M431.02,157.32s-1.39-9.11-16.81-9.99-23.63.69-23.12,5.01c.51,4.31,15.06,1.84,22.76,2.35,7.7.51,12.08,1.23,17.17,2.63h0Z"/>
      <path class="cls-13" d="M296.12,167.27s1.39-9.11,16.81-9.99,23.63.69,23.12,5.01c-.51,4.31-15.06,1.84-22.76,2.35-7.7.51-12.08,1.23-17.17,2.63h0Z"/>
      <path class="cls-9" d="M406.61,195.28c2.02-1.84,4.69-2.92,7.61-2.92,6.31,0,11.42,5.12,11.42,11.45s-5.12,11.42-11.42,11.42c-4.6,0-8.6-2.74-10.39-6.67-.68-1.44-1.06-3.07-1.06-4.76,0-3.39,1.48-6.44,3.84-8.53h0Z"/>
      <path class="cls-7" d="M378.67,269.86c4.98,0,7.72-.45,10.68-1.57,2.35-.88,6.26-2.35,8.76-6.38,1.26-2.04,1.97-4.87,2.07-8.22.13-4.58-1.06-7.76-2.65-12.17l-.63-1.73c-2.26-6.31-4.22-11.76-5.16-17.33-.65-3.91-.83-7.92-.51-11.94.09-1.12-.76-2.11-1.88-2.22-1.15-.12-2.11.76-2.22,1.88-.36,4.33-.16,8.71.56,12.95.99,5.95,3.01,11.54,5.34,18.05l.63,1.75c1.57,4.26,2.49,6.85,2.4,10.64-.07,2.59-.59,4.76-1.44,6.15-1.75,2.85-4.73,3.95-6.69,4.69-3.39,1.28-6.51,1.53-15.11,1.15-5.03-.2-10.1-.56-15.13-1.06-1.15-.12-2.13.72-2.25,1.87s.72,2.13,1.87,2.25c5.1.5,10.28.85,15.36,1.06,2.35.12,4.33.16,6.06.16h-.04v.02h-.02Z"/>
      <path class="cls-17" d="M295.16,171.02h54.84c7.36,0,13.38,6.01,13.38,13.38v7.03c3.14-1.44,7.19-2.65,12.01-2.65h.16c4.4,0,8.14,1.07,11.09,2.31v-6.67c0-7.36,6.01-13.38,13.38-13.38h54.84c7.36,0,13.38,6.01,13.38,13.38v35.51c0,7.36-6.01,13.38-13.38,13.38h-54.84c-7.36,0-13.38-6.01-13.38-13.38v-22c-2.49-1.39-6.31-2.97-11.11-2.98h-.13c-5.28,0-9.38,1.84-12.01,3.45v21.53c0,7.36-6.01,13.38-13.38,13.38h-54.84c-7.36,0-13.38-6.01-13.38-13.38v-35.51c0-7.36,6.01-13.38,13.38-13.38h0v-.02h-.01ZM392.81,219.91c0,3.97,3.23,7.2,7.2,7.2h54.84c3.97,0,7.2-3.23,7.2-7.2v-35.51c0-3.97-3.23-7.2-7.2-7.2h-54.84c-3.97,0-7.2,3.23-7.2,7.2v35.51ZM287.96,219.91c0,3.97,3.23,7.2,7.2,7.2h54.84c3.97,0,7.2-3.23,7.2-7.2v-35.51c0-3.97-3.23-7.2-7.2-7.2h-54.84c-3.97,0-7.2,3.23-7.2,7.2v35.51Z"/>
      <path class="cls-9" d="M343.48,203.7c-.2-.73-.68-1.35-1.34-1.72-3.97-2.25-10.38-4.91-18.54-4.91-.78,0-1.6,0-2.41.06l-3.54.23.16.17c-3.61.58-7.17,1.69-10.46,3.27-.69.34-1.21.92-1.45,1.64s-.19,1.49.14,2.13c.33.69.92,1.21,1.64,1.45.71.24,1.49.19,2.14-.14,4.19-2.02,8.84-3.11,13.45-3.16,7-.19,12.64,2.23,16.08,4.18.43.25.91.38,1.4.38.25,0,.5-.03.75-.1.74-.2,1.35-.68,1.72-1.34.38-.66.47-1.42.27-2.15h-.01Z"/>
      <path class="cls-1" d="M274.34,775.36H15.02c-.88-83.89,30.3-283.01,56.84-330.32,26.54-47.31,166.89-103.27,166.89-103.27-.58,16.68,23.18,134.15,28.37,170.75,5.19,36.64,7.22,262.84,7.22,262.84Z"/>
      <path class="cls-1" d="M664.31,471.13s-14.71,153.6-24.2,183.02c-2.51,7.66-6.41,17.76-10.85,28.54-14.2,34.6-57.75,45.82-86.94,22.44-10.57-8.47-19.79-16.23-24.67-21.12-11.83-11.83-31.01-31.93-40.88-42.26-3.86-4.07-6.3-6.64-6.3-6.64,0,0,.71,9.93,1.63,24.91,1.86,31.38,4.47,84.9,2.71,115.34h-90.87s3.46-157.98,0-213.8-15.79-163.8-33.86-198.27c0,0,15.69-5.08,81.45,23.49,54.67,23.73,98.56,98.26,111.85,122.76,2.71,4.98,4.13,7.9,4.13,7.9l5.08-39.08,4-30.57s63.18,20.74,107.71,23.35h0Z"/>
      <path class="cls-12" d="M172.7,533.94c-.14.88-13.05,87.48-19.45,133.67-5.25,37.96-9.22,83.14-10.17,107.75h-6.78c.95-24.88,4.95-70.46,10.24-108.7,6.41-46.2,19.32-132.86,19.45-133.71.27-1.86,2.03-3.12,3.86-2.88,1.86.3,3.12,2.03,2.85,3.86h0Z"/>
      <path class="cls-12" d="M470.48,635.11s.71,9.93,1.63,24.91c-.91-.58-1.53-1.56-1.56-2.71l-5.59-160.08c-.07-1.9,1.39-3.46,3.25-3.52,1.97-.14,3.42,1.39,3.49,3.29l5.08,144.76c-3.86-4.07-6.3-6.64-6.3-6.64h0Z"/>
      <path class="cls-12" d="M553.48,481.03l-16.44,143.67c-.2,1.73-1.69,2.98-3.39,2.98h-.37c-1.86-.24-3.19-1.9-2.98-3.76l13.08-114.39c2.71,4.98,4.13,7.9,4.13,7.9l5.08-39.08c.64.68.98,1.66.88,2.68h.01Z"/>
      <path class="cls-19" d="M657.74,441.38c-.51.3-.98.58-1.49.78l-.31,1.73v.03l-4.3,26.06-85.68-9.08-.61-10.37s5.22-19.25,2.91-31.11c-2.3-11.9-11.25-35.25-8.91-49.96,2.3-14.71,14.98-77.89,15.56-87.99s-3.15-38.06,9.22-38.64c12.4-.58,21.66,19.9,22.23,34.33.51,13.01-2.71,37.76-3.36,42.47-.07.51-.1.78-.1.78,0,0,10.88-4.51,25.15-7.15,11.22-2.1,24.57-3.05,36.27.24,25.96,7.32,14.95,114.46-6.58,127.88h0Z"/>
      <path class="cls-15" d="M603.79,389.99c2.3-1.79,26.67-7.04,48.44-11.07.92-.17,1.53-1.05,1.36-1.97s-1.07-1.54-1.97-1.36c-14.22,2.63-47.59,9.08-50.28,12.07-5.62,6.25-11.49,20.23,2.12,32.99.33.31.74.46,1.16.46.45,0,.9-.18,1.23-.54.64-.68.61-1.75-.08-2.39-14.41-13.51-3.24-26.79-1.99-28.19h0Z"/>
      <path class="cls-15" d="M657.74,441.38c-.51.3-.98.58-1.49.78l-.31,1.73v.03c-9.79,1.49-17.05,2-22.95,2-4.37,0-7.96-.3-11.25-.64-8.64-.91-12.34-4.61-13.63-13.56-.71-5.12-.07-9.08,1.9-11.49,1.25-1.53,2.91-2.37,4.88-2.51,2.98-.17,28.74-5.29,38.43-7.22.88-.2,1.8.41,2,1.32.17.92-.44,1.8-1.36,2-1.42.27-35.05,7.05-38.88,7.29-1.02.07-1.8.47-2.44,1.25-1.36,1.63-1.76,4.78-1.19,8.88,1.08,7.49,3.46,9.9,10.64,10.68,7.56.81,16.91,1.19,33.89-1.46.71-.1,1.42.27,1.73.92h.03Z"/>
      <path class="cls-15" d="M651.88,344.51c.07.95-.61,1.76-1.56,1.83-13.79,1.12-50.43,5.97-53.92,15.08-4.58,11.96-1.76,17.56,1.8,22.64.54.78.34,1.83-.41,2.37-.31.2-.64.31-.98.31-.54,0-1.05-.27-1.39-.75-4.78-6.88-6.85-13.59-2.17-25.79.61-1.63,1.93-3.12,3.73-4.47-9.05-6.95-8.47-19.25-3.97-28,1.59-3.12,5.46-5.83,10-8.1-.07.51-.1.78-.1.78,0,0,10.88-4.51,25.15-7.15.17.88-.41,1.76-1.29,1.97-7.39,1.63-27.25,7.29-30.74,14.07-4.13,8.03-4.58,18.68,3.8,24.34.07.07.1.14.17.2,14.4-7.8,45.79-10.54,50.06-10.88.95-.03,1.76.64,1.83,1.56h0Z"/>
    </g>
    <g>
      <g>
        <circle class="cls-11" cx="852.96" cy="172" r="157"/>
        <path class="cls-2" d="M823.92,233.08h0c-2.68,0-5.25-1.07-7.15-2.96l-43.87-43.87c-3.95-3.95-3.95-10.35,0-14.29,3.95-3.95,10.35-3.95,14.29,0l36.72,36.72,94.8-94.79c3.95-3.95,10.35-3.95,14.29,0,3.95,3.95,3.95,10.35,0,14.29l-101.94,101.94c-1.9,1.9-4.47,2.96-7.15,2.96Z"/>
      </g>
      <g>
        <path class="cls-8" d="M993.87,375.77s7.9,1.57,7.9,33.04v199.52c0,24.54-9.5,48.13-26.5,65.82l-60.36,62.83c-3.17,3.3-7.54,5.16-12.12,5.16h-181.26c-9.28,0-16.81-7.52-16.81-16.81v-66.32l289.15-283.25Z"/>
        <path class="cls-10" d="M909.95,735.12v-51.93l-205.23-24.17v66.32c0,9.28,7.52,16.81,16.81,16.81h181.4c3.88,0,7.02-3.14,7.02-7.02Z"/>
        <path class="cls-16" d="M723.73,683.29h184.39c9.01,0,16.85-6.15,19.01-14.89l68.66-278.44c3.04-12.34-6.3-24.26-19.01-24.26h-184.39c-9.01,0-16.85,6.15-19.01,14.89l-68.66,278.44c-3.04,12.34,6.3,24.26,19.01,24.26Z"/>
        <path class="cls-4" d="M752.19,647.57h142.91c6.98,0,13.06-4.76,14.73-11.54l53.21-215.81c2.36-9.56-4.88-18.81-14.73-18.81h-142.91c-6.98,0-13.06,4.76-14.73,11.54l-53.21,215.81c-2.36,9.56,4.88,18.81,14.73,18.81Z"/>
        <path class="cls-6" d="M877.76,556.83l2.87-11.51c.51-2.05,2.36-3.49,4.47-3.48l21.58.06c2.98,0,5.17,2.81,4.45,5.71l-2.87,11.51c-.51,2.05-2.36,3.49-4.47,3.48l-21.58-.06c-2.98,0-5.17-2.81-4.45-5.71Z"/>
        <path class="cls-6" d="M869.6,592.24l2.87-11.51c.51-2.05,2.36-3.49,4.47-3.48l21.58.06c2.98,0,5.17,2.81,4.45,5.71l-2.87,11.51c-.51,2.05-2.36,3.49-4.47,3.48l-21.58-.06c-2.98,0-5.17-2.81-4.45-5.71Z"/>
        <path class="cls-6" d="M824.33,556.83l2.87-11.51c.51-2.05,2.36-3.49,4.47-3.48l21.58.06c2.98,0,5.17,2.81,4.45,5.71l-2.87,11.51c-.51,2.05-2.36,3.49-4.47,3.48l-21.58-.06c-2.98,0-5.17-2.81-4.45-5.71Z"/>
        <path class="cls-2" d="M777.3,506.73l21.17-84.88c.92-3.69,4.24-6.28,8.05-6.27l135.11.35c5.37.01,9.3,5.06,8,10.27l-21.17,84.88c-.92,3.69-4.24,6.28-8.05,6.27l-135.11-.35c-5.37-.01-9.3-5.06-8-10.27Z"/>
        <path class="cls-6" d="M816.17,592.24l2.87-11.51c.51-2.05,2.36-3.49,4.47-3.48l21.58.06c2.98,0,5.17,2.81,4.45,5.71l-2.87,11.51c-.51,2.05-2.36,3.49-4.47,3.48l-21.58-.06c-2.98,0-5.17-2.81-4.45-5.71Z"/>
        <path class="cls-6" d="M770.13,556.83l2.87-11.51c.51-2.05,2.36-3.49,4.47-3.48l21.58.06c2.98,0,5.17,2.81,4.45,5.71l-2.87,11.51c-.51,2.05-2.36,3.49-4.47,3.48l-21.58-.06c-2.98,0-5.17-2.81-4.45-5.71Z"/>
        <path class="cls-6" d="M761.97,592.24l2.87-11.51c.51-2.05,2.36-3.49,4.47-3.48l21.58.06c2.98,0,5.17,2.81,4.45,5.71l-2.87,11.51c-.51,2.05-2.36,3.49-4.47,3.48l-21.58-.06c-2.98,0-5.17-2.81-4.45-5.71Z"/>
        <path class="cls-5" d="M861.32,627.12l2.87-11.51c.51-2.05,2.36-3.49,4.47-3.48l21.58.06c2.98,0,5.17,2.81,4.45,5.71l-2.87,11.51c-.51,2.05-2.36,3.49-4.47,3.48l-21.58-.06c-2.98,0-5.17-2.81-4.45-5.71Z"/>
        <path class="cls-20" d="M807.89,627.12l2.87-11.51c.51-2.05,2.36-3.49,4.47-3.48l21.58.06c2.98,0,5.17,2.81,4.45,5.71l-2.87,11.51c-.51,2.05-2.36,3.49-4.47,3.48l-21.58-.06c-2.98,0-5.17-2.81-4.45-5.71Z"/>
        <path class="cls-14" d="M753.69,627.12l2.87-11.51c.51-2.05,2.36-3.49,4.47-3.48l21.58.06c2.98,0,5.17,2.81,4.45,5.71l-2.87,11.51c-.51,2.05-2.36,3.49-4.47,3.48l-21.58-.06c-2.98,0-5.17-2.81-4.45-5.71Z"/>
        <path class="cls-21" d="M896.03,708.34h-168.35c-3.91,0-7.08,3.33-7.08,7.43h0c0,4.1,3.17,7.43,7.08,7.43h168.35c3.91,0,7.08-3.33,7.08-7.43h0c0-4.1-3.17-7.43-7.08-7.43Z"/>
        <path class="cls-3" d="M886.28,715.77l-11.45,40.56c-3.18,11.25-13.45,19.03-25.14,19.03h-112.68c-7.36,0-12.67-7.03-10.66-14.11l12.9-45.48h147.04Z"/>
        <path class="cls-18" d="M781.2,715.77l-10.92,35.41c-.96,3.11-3.84,5.24-7.09,5.24h0c-4.87,0-8.42-4.61-7.18-9.32l8.28-31.33h16.9Z"/>
      </g>
    </g>
  </g>
</svg>