<?xml version="1.0" encoding="UTF-8"?>
<svg id="Livello_1" data-name="Livello 1" xmlns="http://www.w3.org/2000/svg" viewBox="0 0 987.36 750.87">
  <defs>
    <style>
      .cls-1 {
        fill: #efeff1;
      }

      .cls-2 {
        fill: #3a89ff;
      }

      .cls-3 {
        fill: #4b99fd;
      }

      .cls-4 {
        fill: #fff;
      }

      .cls-5 {
        fill: #4796e3;
      }

      .cls-6 {
        fill: #2f2f2f;
      }

      .cls-7 {
        fill: #479bf5;
      }

      .cls-8 {
        fill: #42362e;
      }

      .cls-9 {
        fill: #6fcc73;
      }

      .cls-10 {
        fill: #2866d8;
      }

      .cls-11 {
        fill: #4c3424;
      }

      .cls-12 {
        fill: #f76955;
      }

      .cls-13 {
        fill: #b37660;
      }

      .cls-14 {
        fill: #523826;
      }

      .cls-15 {
        fill: #ffd543;
      }

      .cls-16 {
        fill: #f2b68f;
      }

      .cls-17 {
        fill: #d6e8f6;
      }
    </style>
  </defs>
  <g>
    <path class="cls-4" d="M956.33,467.04c-10.1-32.35-24.62-52.78-50.14-70.54-18.94-13.19-76.5-38.33-94.95-46.25-.31-4.84-.84-9.88-1.58-15.09,1.98-4.38,5.25-12.26,6.77-19.71,9.56-3.71,26.39-12.47,32.44-29.62,5.14-14.57,1.35-31.08-11.26-49.12,15.19-62.18-13.46-90.49-22.26-97.5-14-24.86-47.09-39.06-91.33-39.06-26.36,0-53.46,5.13-74.33,14.09-13.32,5.72-22.41,15.12-27.02,27.95-9.41,26.23,3.81,58.89,8.46,69.02-.33,2.22-.77,5.51-1.23,9.66-8.63,2.39-14.99,10.33-14.99,19.71v27.28c0,9.17,6.07,16.95,14.4,19.53,2.71,25.36,9.09,46.35,18.99,62.47,9.07,14.76,20.88,25.32,35.31,31.6-19.87,9.42-44.15,22.16-54.61,32.51-5.65,5.52-13.76,19.25-26.45,76.85-3.11,14.12-6.25,29.77-9.39,46.76l-.13-.25-1.68,9.28-25.62-32.17c-1.5-8.32-3.75-20.03-6.51-32.02-9.35-40.55-16.72-50.4-22.04-54.41-3.22-2.45-6.64-3.7-10.17-3.7-15.09,0-18.78,20.66-19.99,27.44-.6,3.34-1.08,6.87-1.45,10.37-19.08-12.88-44.62-29.64-51.78-32.03-5.25-1.75-10.7-2.23-12.05-2.27-4.11-.12-6,.51-7.44,1.39-2.85,1.74-4.05,4.54-4.51,5.83-2.13-.21-3.9-.13-5.16-.01-2.42.22-6.17.61-9.87,3.04-1.59,1.04-2.72,2.16-3.43,2.96l-.18.2-.17.21c-6.19,7.68-5.36,17.69-1.09,25.62-.59.92-1.05,1.85-1.42,2.74,0,0-.9,2.21-1.19,4.73-.55,4.74,1.31,11.46,5.63,16.89,1.09,1.37,2.12,2.39,2.81,3.01l-2.81,3.31c-.07.42-.12.83-.15,1.24-.64,7.54,4.17,13.99,7.85,17.84l17.29,17.65v-.75c12.65,11.92,29.91,26.74,51.31,40.57l-3.07,3.07,79.04,118.1c9.42,14.05,25.15,22.44,42.08,22.44,4.71,0,9.41-.66,14-1.97l.23-.07v.28l1.38-.41v35.13h364.42l.05-10.04c.5-106.6-19.8-237.85-31.02-273.79Z"/>
    <path class="cls-4" d="M437.46,397.2c21.78-32.07,33.09-68.14,33.24-104.57h66.95v-112.11h-9.55l22.25-22.25h15.67c12.47,0,22.61-10.14,22.61-22.61v-32.74c0-12.47-10.14-22.61-22.61-22.61h-62.13c-12.47,0-22.61,10.14-22.61,22.61v32.74c0,12.47,10.14,22.61,22.61,22.61h10.41v22.25h-19.09v21.21h-36.2v25.74h-.3c-15.21-39.46-44.43-72.9-82.94-94.7-5.39-3.06-10.99-5.89-16.71-8.48,11.05-9.6,17.64-23.71,17.64-38.54,0-9.04-2.37-17.52-6.51-24.89.56-.4,1.1-.85,1.6-1.35l10.59-10.59c2.42-2.42,3.75-5.63,3.75-9.05s-1.33-6.63-3.74-9.04c-2.42-2.42-5.63-3.75-9.05-3.75s-6.63,1.33-9.05,3.75l-10.59,10.59c-.35.35-.67.73-.98,1.11-4.49-2.82-9.45-4.95-14.73-6.27.33-1.14.52-2.33.52-3.57V12.79c0-7.05-5.74-12.79-12.79-12.79s-12.79,5.74-12.79,12.79v19.89c0,1.24.19,2.44.52,3.57-5.28,1.31-10.24,3.45-14.73,6.27-.31-.38-.63-.76-.98-1.11l-10.59-10.59c-2.42-2.42-5.63-3.75-9.05-3.75s-6.63,1.33-9.04,3.75c-2.42,2.42-3.75,5.63-3.75,9.05s1.33,6.63,3.75,9.04l10.59,10.59c.5.5,1.04.94,1.61,1.35-4.14,7.37-6.51,15.85-6.51,24.89,0,7.02,1.42,13.82,4.09,20.07-2.32-.07-4.64-.11-6.96-.11-16.97,0-34.09,1.99-50.88,5.9-15.59,3.64-30.65,8.88-44.91,15.62-10.39-18.02-29.74-29.52-51.1-29.52-32.53,0-58.99,26.46-58.99,58.99,0,10.38,2.63,20.29,7.68,29.12l-29.99,29.98c-6.02,6.05-6.01,15.87.02,21.9,2.93,2.92,6.82,4.54,10.96,4.54s8.03-1.61,10.95-4.54l9.45-9.45c-16.85,36.9-21.2,77.27-12.14,116.52h-29.83c-18.25,0-33.09,14.84-33.09,33.09v9.26c0,18.25,14.84,33.09,33.09,33.09h67.7c37.33,44.18,95.52,70.41,156.71,70.41,16.9,0,33.89-1.97,50.52-5.85,53.59-12.49,99.56-43.6,129.44-87.58Z"/>
  </g>
  <g>
    <g>
      <path class="cls-2" d="M499.15,578.65l74.42,111.2c9.84,14.68,27.97,21.24,44.89,16.4l13.12-3.8,5.7-203.75c0-1.04.86-1.73,1.73-1.73,1.04,0,1.73.86,1.73,1.73l-6.22,220.84c0,.86-.69,1.55-1.55,1.73v19.51c-.17,0,241.39,0,241.39,0v-68.38c0-35.57-17.44-163.34-17.61-164.72,0-.86.52-1.73,1.38-1.9,1.04,0,1.9.52,1.9,1.55,0,1.38,17.61,129.33,17.61,165.07v68.38h99.63c.52-109.64-20.37-238.11-30.56-270.74-10.19-32.63-24.69-50.25-46.27-65.27-21.58-15.02-98.77-47.66-98.77-47.66l-85.64,20.89s-62.85,26.25-79.94,43.17c-15.71,15.37-34.71,127.26-37.99,146.59l21.07,40.4c.35.86,0,1.9-.69,2.24-.17,0-.52.17-.86.17-.69,0-1.21-.35-1.55-.86l-24-46.1-30.39-38.16c-17.09,10.19-62.16,52.84-62.16,52.84h0l-.35.35Z"/>
      <path class="cls-4" d="M714.29,384.4c-18.13,76.66-18.82,146.42-19.17,163-.35,16.58-1.55,193.56-1.55,193.56h83.23s.52-59.92.86-120.18c.52-87.02,0-97.73,3.63-122.25,5.01-34.02,7.42-50.94,10.01-61.99,2.07-9.15,6.73-26.94,8.81-51.8.52-5.53.69-10.19.86-13.3l-86.68,12.78h0v.17Z"/>
      <path class="cls-16" d="M638.84,168.92l2.76,40.75s-28.66,165.07,74.25,168.52c0,0-3.11,9.15-2.76,22.1.35,12.95,16.58,21.76,35.74,21.07,19.17-.86,63.02-6.91,50.42-87.71,0,0,8.12-16.58,7.94-25.73,0,0,60.61-15.02,19.51-69.07l-5.18-18.82-39.02-13.81-15.02-45.76-77.01,16.75-51.8-8.46h0l.17.17Z"/>
      <path class="cls-11" d="M641.6,209.67s-34.19-66.3,12.09-86.16c46.27-19.86,131.74-21.24,153.85,22.45,0,0,37.81,24.17,19.17,92.72,0,0-15.71-11.57-38.16,19.86,0,0-7.94-19.17-5.87-41.79,0,0-21.58-19.34-19.17-51.11,0,0-63.89,30.91-119.66,15.19l-2.24,28.84h0Z"/>
      <path class="cls-6" d="M708.02,334.07c-6.35.7-12.83.19-18.93-1.57-.9-.25-1.33-1.07-1.08-1.97s1.07-1.33,1.97-1.08c6.63,1.88,13.44,2.18,20.1,1.1,10.24-1.64,17.71-6.45,22.17-10.07.63-.59,1.68-.53,2.29.27.59.63.53,1.68-.27,2.29-4.77,4-12.73,9.04-23.66,10.75l-2.57.28h0Z"/>
      <path class="cls-11" d="M647.64,225.03s1.04-7.08,12.95-7.6c11.91-.52,18.13.52,17.78,3.8s-11.57,1.38-17.44,1.9-9.32,1.04-13.12,2.07h0l-.17-.17Z"/>
      <path class="cls-11" d="M751.42,225.03s-1.04-7.08-12.95-7.6c-11.91-.52-18.13.52-17.78,3.8.35,3.28,11.57,1.38,17.44,1.9s9.32,1.04,13.12,2.07h0l.17-.17Z"/>
      <path class="cls-8" d="M662.23,245.95c-1.55-1.38-3.63-2.24-5.87-2.24-4.83,0-8.81,3.97-8.81,8.81s3.97,8.81,8.81,8.81,6.56-2.07,7.94-5.18c.52-1.04.86-2.42.86-3.63,0-2.59-1.21-5.01-2.94-6.56h0Z"/>
      <path class="cls-8" d="M731.12,245.95c-1.55-1.38-3.63-2.24-5.87-2.24-4.83,0-8.81,3.97-8.81,8.81s3.97,8.81,8.81,8.81,6.56-2.07,7.94-5.18c.52-1.04.86-2.42.86-3.63,0-2.59-1.21-5.01-2.94-6.56h0Z"/>
      <path class="cls-6" d="M693.92,306.36c-3.8,0-5.87-.35-8.29-1.21-1.9-.69-4.83-1.9-6.73-4.83-1.04-1.55-1.55-3.8-1.55-6.39,0-3.45.86-6.04,2.07-9.32l.52-1.38c1.73-4.83,3.28-8.98,3.97-13.3.52-2.94.69-6.04.35-9.15,0-.86.52-1.55,1.38-1.73.86,0,1.55.52,1.73,1.38.35,3.28,0,6.73-.35,10.01-.69,4.66-2.24,8.81-4.14,13.81l-.52,1.38c-1.21,3.28-1.9,5.35-1.9,8.12,0,1.9.52,3.63,1.04,4.66,1.38,2.24,3.63,3.11,5.18,3.63,2.59,1.04,5.01,1.21,11.57.86,3.8,0,7.77-.35,11.57-.86.86,0,1.55.52,1.73,1.38s-.52,1.55-1.38,1.73c-3.97.35-7.94.69-11.74.86h-4.66l.17.35Z"/>
      <path class="cls-14" d="M758.15,230.39h-42.13c-5.7,0-10.36,4.66-10.36,10.36v5.35c-2.42-1.04-5.53-2.07-9.32-2.07h0c-3.45,0-6.22.86-8.46,1.73v-5.18c0-5.7-4.66-10.36-10.36-10.36h-42.13c-5.7,0-10.36,4.66-10.36,10.36v27.28c0,5.7,4.66,10.36,10.36,10.36h42.13c5.7,0,10.36-4.66,10.36-10.36v-16.92c1.9-1.04,4.83-2.24,8.46-2.24h0c4.14,0,7.25,1.38,9.32,2.59v16.58c0,5.7,4.66,10.36,10.36,10.36h42.13c5.7,0,10.36-4.66,10.36-10.36v-27.28c0-5.7-4.66-10.36-10.36-10.36h0v.17ZM683.04,268.03c0,3.11-2.42,5.53-5.53,5.53h-42.13c-3.11,0-5.53-2.42-5.53-5.53v-27.28c0-3.11,2.42-5.53,5.53-5.53h42.13c3.11,0,5.53,2.42,5.53,5.53v27.28ZM763.68,268.03c0,3.11-2.42,5.53-5.53,5.53h-42.13c-3.11,0-5.53-2.42-5.53-5.53v-27.28c0-3.11,2.42-5.53,5.53-5.53h42.13c3.11,0,5.53,2.42,5.53,5.53v27.28Z"/>
      <path class="cls-10" d="M856.74,507.86c0,1.38,17.61,128.98,17.61,164.72v68.38h3.45v-68.38c0-35.91-17.44-163.86-17.61-165.07,0-.86-1.04-1.55-1.9-1.55s-1.55,1.04-1.38,1.9h-.17Z"/>
      <path class="cls-10" d="M633.31,702.11v19.34c.52,0,1.21-.86,1.21-1.73l6.22-220.84c0-1.04-.69-1.73-1.73-1.73s-1.73.69-1.73,1.73l-5.7,203.75,1.73-.52h0Z"/>
      <path class="cls-10" d="M591.7,563.98l24,46.1c.35.52.86.86,1.55.86s.52,0,.86-.17c.86-.35,1.21-1.55.69-2.24l-21.07-40.4c-.35,1.9-.52,2.76-.52,2.76l-5.7-7.08.17.17Z"/>
      <path class="cls-16" d="M427.84,509.59c11.74,11.91,39.02,40.23,77.87,63.02l52.15-44.55s-12.78-81.5-26.76-92.03c-13.81-10.53-16.4,32.81-16.58,44.38,0,0-55.25-37.99-63.89-40.75-7.77-2.59-15.89-3.28-15.89,4.83,9.15,6.73,32.98,25.04,46.45,38.85l1.04,1.04-.86,1.21s-12.09,15.19-13.64,26.25c0,.86-.86,1.55-1.73,1.55h-.17c-.86,0-1.55-1.04-1.55-1.9.52-3.45,1.73-7.08,3.45-10.71l-46.79-30.91c-3.28,2.42-7.08,7.6,2.07,17.96l42.65,30.73c.69.52.86,1.55.35,2.42-.35.52-.86.69-1.38.69s-.69,0-1.04-.35l-37.3-26.94c-2.94,2.07-6.73,6.91,1.55,15.37h0v-.17Z"/>
      <path class="cls-16" d="M477.57,484.72c-14.68-14.68-40.06-33.84-46.97-38.85h0c-3.63-1.04-8.63-1.55-11.74,1.9-4.32,5.35-1.73,13.47,2.59,18.3l47.66,31.43c3.11-5.7,6.73-10.71,8.29-12.95l.17.17Z"/>
      <path class="cls-13" d="M467.73,500.61c-1.73,3.63-2.94,7.25-3.45,10.71,0,.86.52,1.73,1.55,1.9h.17c.86,0,1.55-.69,1.73-1.55,1.55-11.05,13.47-26.07,13.64-26.25l.86-1.21-1.04-1.04c-13.47-13.81-37.3-32.12-46.45-38.85,0,.86,0,1.9.35,3.11,0,0-1.9-1.04-4.32-1.73,6.73,5.01,32.29,24.17,46.97,38.85-1.73,2.24-5.35,7.08-8.29,12.95l-47.66-31.43c.69.86,1.55,1.55,2.24,2.24,0,0-1.38.52-2.94,1.55l46.79,30.91h0l-.17-.17Z"/>
      <path class="cls-13" d="M428.36,493.18s-1.04.35-2.24,1.21l37.3,26.76c.35.17.69.35,1.04.35.52,0,1.04-.17,1.38-.69.52-.86.35-1.9-.35-2.42l-42.65-30.73c1.55,1.73,3.28,3.45,5.53,5.35h0v.17Z"/>
    </g>
    <g>
      <g>
        <path class="cls-7" d="M395.35,297.53c0,72.26-58.58,130.83-130.84,130.83-22.54,0-43.76-5.7-62.28-15.75,21.22-32.6-5.79-47.15-1.68-68.21,4.43-22.63,0-16.61-9.95-29.33-9.95-12.71,3.31-13.26-5.53-42.55-6.02-19.91-29.4-20.67-43.75-19.1,12.73-35.58,40.44-64.03,75.54-77.76,8.08,9.56,21.06,25.91,21.83,33.42,1.1,10.94-19.9,17.58-8.84,46.87,11.05,29.28,40.89,45.86,51.95,51.38,11.05,5.53-7.74,11.42,0,29.2,7.73,17.78,28.18,11.7,20.44,40.99-7.74,29.28-15.36,31.14,1.72,42.64,0,0-4.48-7.27,18.72-26.62,23.21-19.34,42.92-32.78,46.61-66.4,0,0-8.47-4.33-18.42-12.62-9.96-8.29-26.54-30.1-56.37-14.77,0,0-15.48-10.65-26.52-13.96-11.05-3.31-18.79-27.35,36.47-19.75,0,0-3.31-29.12,8.84-39.5,11.05-9.43,23.6-16.67,28.65-34.48,32.39,23.81,53.42,62.19,53.42,105.47Z"/>
        <path class="cls-9" d="M202.23,412.61c-40.82-22.14-68.55-65.38-68.55-115.08,0-15.48,2.68-30.33,7.64-44.11,14.35-1.57,37.74-.81,43.75,19.1,8.84,29.3-4.42,29.85,5.53,42.55,9.95,12.72,14.37,6.7,9.95,29.33-4.11,21.06,22.9,35.62,1.68,68.21Z"/>
        <path class="cls-9" d="M369.29,327.14c-3.69,33.62-23.4,47.07-46.61,66.4-23.2,19.35-18.72,26.62-18.72,26.62-17.08-11.5-9.46-13.35-1.72-42.64,7.74-29.3-12.72-23.21-20.44-40.99-7.74-17.78,11.05-23.67,0-29.2-11.06-5.52-40.9-22.1-51.95-51.38-11.06-29.3,9.95-35.93,8.84-46.87-.77-7.51-13.74-23.86-21.83-33.42,14.76-5.79,30.83-8.96,47.65-8.96,28.97,0,55.74,9.42,77.42,25.36-5.04,17.81-17.6,25.05-28.65,34.48-12.15,10.38-8.84,39.5-8.84,39.5-55.26-7.6-47.52,16.44-36.47,19.75,11.05,3.31,26.52,13.96,26.52,13.96,29.84-15.32,46.42,6.48,56.37,14.77,9.95,8.29,18.42,12.62,18.42,12.62Z"/>
      </g>
      <path class="cls-1" d="M257.51,480.54c-87.57,0-165.42-55.12-184.67-137.65-11.02-47.26-1.41-96.33,27.05-138.18,28.42-41.78,72.24-71.36,123.4-83.29,51.16-11.93,103.54-4.79,147.51,20.11,44.04,24.94,74.36,64.7,85.38,111.96,22.73,97.47-44.76,196.82-150.45,221.46-16.2,3.78-32.38,5.59-48.23,5.59ZM271.88,121.2c-15.71,0-31.59,1.82-47.36,5.5-49.83,11.62-92.5,40.41-120.15,81.06-27.6,40.58-36.93,88.14-26.26,133.9,18.66,80.03,94.29,133.46,179.39,133.47,15.45,0,31.21-1.76,47.01-5.44,102.78-23.97,168.46-120.4,146.41-214.97-10.67-45.77-40.07-84.29-82.78-108.48-29.24-16.56-62.33-25.04-96.25-25.04Z"/>
      <g>
        <path class="cls-3" d="M124.99,107.79c-27.01,0-48.91,21.9-48.91,48.91,0,11.48,3.97,22.03,10.59,30.38l-35.84,35.84c-2.11,2.11-2.11,5.54,0,7.65,1.06,1.06,2.44,1.58,3.83,1.58s2.77-.53,3.83-1.58l35.8-35.8c8.39,6.78,19.07,10.84,30.69,10.84,27.01,0,48.91-21.9,48.91-48.91s-21.9-48.91-48.91-48.91Z"/>
        <circle class="cls-17" cx="124.99" cy="156.7" r="36.61"/>
      </g>
      <g>
        <g>
          <rect class="cls-3" x="432.65" y="237.55" width="22.27" height="44.99"/>
          <rect class="cls-3" x="469.1" y="211.81" width="22.27" height="70.74"/>
          <rect class="cls-3" x="505.29" y="190.61" width="22.27" height="91.94"/>
        </g>
        <path class="cls-12" d="M566.02,90.39h-62.12c-6.92,0-12.52,5.61-12.52,12.52v32.75c0,6.92,5.61,12.52,12.52,12.52h20.49v21.79l21.79-21.79h19.85c6.92,0,12.52-5.61,12.52-12.52v-32.75c0-6.92-5.61-12.52-12.52-12.52Z"/>
      </g>
      <g>
        <g>
          <path class="cls-15" d="M366.61,85.74c0-22.58-18.31-40.89-40.89-40.89s-40.89,18.31-40.89,40.89c0,14.91,7.98,27.95,19.89,35.09v17.41h42v-17.41c11.92-7.15,19.89-20.19,19.89-35.09Z"/>
          <g>
            <path class="cls-15" d="M288.7,53.17c-.69,0-1.38-.26-1.91-.79l-10.59-10.59c-1.06-1.06-1.06-2.77,0-3.83,1.06-1.06,2.77-1.06,3.83,0l10.59,10.59c1.06,1.06,1.06,2.77,0,3.83-.53.53-1.22.79-1.91.79Z"/>
            <path class="cls-15" d="M325.72,35.39c-1.49,0-2.71-1.21-2.71-2.71V12.79c0-1.49,1.21-2.71,2.71-2.71s2.71,1.21,2.71,2.71v19.89c0,1.49-1.21,2.71-2.71,2.71Z"/>
            <path class="cls-15" d="M362.75,53.17c.69,0,1.38-.26,1.91-.79l10.59-10.59c1.06-1.06,1.06-2.77,0-3.83-1.06-1.06-2.77-1.06-3.83,0l-10.59,10.59c-1.06,1.06-1.06,2.77,0,3.83.53.53,1.22.79,1.91.79Z"/>
          </g>
        </g>
        <path class="cls-5" d="M325.72,138.24h-21v15.8c0,.53.43.96.96.96h6.95c.24,0,.46.09.64.24l7.63,6.79c.18.16.4.24.64.24h8.37c.24,0,.46-.09.64-.24l7.63-6.79c.18-.16.4-.24.64-.24h6.95c.53,0,.96-.43.96-.96v-15.8h-21Z"/>
      </g>
      <g>
        <rect class="cls-15" x="10.08" y="354.86" width="218.1" height="55.26" rx="22.81" ry="22.81"/>
        <rect class="cls-4" x="28.51" y="369.6" width="128.58" height="25.79" rx="6.47" ry="6.47"/>
      </g>
      <path class="cls-4" d="M191.78,367.16c6.66,0,12.06,5.4,12.06,12.06,0,2.83-.98,5.43-2.61,7.49l8.84,8.84c.52.52.52,1.37,0,1.89-.26.26-.6.39-.94.39s-.68-.13-.94-.39l-8.83-8.83c-2.07,1.67-4.7,2.67-7.57,2.67-6.66,0-12.06-5.4-12.06-12.06s5.4-12.06,12.06-12.06ZM191.78,388.25c4.99,0,9.03-4.04,9.03-9.03s-4.04-9.03-9.03-9.03-9.03,4.04-9.03,9.03,4.04,9.03,9.03,9.03Z"/>
    </g>
  </g>
</svg>