<?xml version="1.0" encoding="UTF-8"?>
<svg id="Livello_1" data-name="Livello 1" xmlns="http://www.w3.org/2000/svg" viewBox="0 0 1497.19 1035.97">
  <defs>
    <style>
      .cls-1 {
        fill: #e3e3e1;
      }

      .cls-2 {
        fill: #fff;
      }

      .cls-3 {
        fill: #f9daae;
      }

      .cls-4 {
        fill: #343d42;
      }

      .cls-5 {
        fill: #ed6e3e;
      }

      .cls-6 {
        fill: #ecebe9;
      }

      .cls-7 {
        fill: none;
        stroke: #e3e3e1;
        stroke-miterlimit: 10;
      }

      .cls-8 {
        fill: #bebcbd;
      }

      .cls-9 {
        fill: #6d6f74;
      }
    </style>
  </defs>
  <g>
    <path class="cls-2" d="M1373.08,239.95v.1c0,1.15-.02,2.46-.07,3.89,0,.17,0,.33,0,.5v5.27s-.2.19-.2.19c-1.4,32.11-9.14,63.14-23.04,92.29-2.17,4.56-4.52,9.07-7.16,13.79v.05s-.61,1.03-.61,1.03c-.11.21-.22.4-.33.6l-.17.3-.23.38-.58,1c-.32.57-.65,1.13-.98,1.7l-.12.21-.06.09c-.06.11-.12.21-.19.31l-.03.05-.04.07-.05.08c-.05.08-.13.22-.24.38-.2.35-.4.7-.61,1.04-.1.15-.19.3-.29.46l-.06.11-.07.12c-.13.19-.25.38-.35.57l-.19.32-.14.2-.02.04-.11.18-.1.15-.76,1.34-.19.18c-.16.27-.32.53-.49.79-.34.56-.72,1.14-1.18,1.85-.38.6-.79,1.21-1.18,1.81-.16.24-.3.46-.46.69-.11.16-.21.3-.32.47-.64.98-1.28,1.9-1.91,2.82-.74,1.05-1.47,2.1-2.23,3.16-.71,1.01-1.48,2.08-2.37,3.25-.33.46-.67.91-1.01,1.37l-.5.67c-.3.4-.61.8-.92,1.2l-.42.55-.02.02v.02s-.23.28-.23.28c-.26.34-.52.68-.8,1.01-.52.67-1.09,1.39-1.78,2.24-1.21,1.52-2.54,3.15-4.06,4.92-.19.24-.38.46-.58.7l-.15.17-.07.07h0s-.1.13-.1.13c-.17.19-.33.38-.49.56l-.02.02c-.61.72-1.25,1.45-1.96,2.24-.76.86-1.5,1.69-2.26,2.52-.78.85-1.56,1.7-2.35,2.54-.19.21-.37.4-.56.6-.78.82-1.54,1.61-2.32,2.41-.87.89-1.73,1.77-2.6,2.64l-.1.09c-.3.31-.6.6-.87.87v.02s-1.57,1.51-1.57,1.51c-.82.8-1.53,1.47-2.2,2.1l-.15.13-.08.08c-.85.79-1.66,1.54-2.52,2.32-1.1,1-2.18,1.96-3.21,2.86h0c-.6.54-1.2,1.06-1.83,1.59-.41.35-.84.71-1.28,1.08h0l-.55.56-.46.3c-.35.3-.71.6-1.07.89-.29.24-.57.48-.86.71-.29.25-.58.48-.87.72-.36.3-.72.59-1.08.86-.63.51-1.26,1.01-1.89,1.51l-.21.17-.12.09-.12.09c-.1.08-.2.16-.29.24-.23.18-.45.35-.68.52l-.02.02-.03.02-.18.14-.18.13-.08.06-.04.03-.21.17-.22.16c-.12.09-.23.18-.34.27l-.29.23c-.48.38-.98.76-1.54,1.16h0s-.03.02-.03.02c-.19.14-.38.29-.59.43-.27.2-.53.4-.81.6-.36.29-.74.56-1.13.85-.13.09-.27.19-.43.29l-.58.42-.76.54-.1.07-.07.05-.03.02c-.1.07-.19.14-.29.21-24.81,17.7-52.38,30.35-81.96,37.62-.6.16-1.21.3-1.8.45-.47.12-.94.23-1.4.34l-.61.14-.1.03-.1.02s-.06.02-.09.02l-1.11,1.12h-3.3s-.75,0-.75,0c-.45.1-.91.19-1.37.29l-.23.04-.07.02-.29.06c-.18.03-.34.07-.51.1h-.05c-.36.09-.67.14-.91.18-.31.07-.63.13-.93.19l-.11.02h-.06s-.19.05-.19.05l-.19.03c-1.72.31-3.03.54-4.11.71-12.85,2.12-25.95,3.2-38.94,3.2-35.71,0-70.28-7.85-102.77-23.34-2.8-1.35-5.57-2.73-8.25-4.13-3.26-1.71-6.66-3.6-10.11-5.62-1.7-1-3.22-1.93-4.62-2.79-1.94-1.19-3.87-2.44-5.92-3.79h-.03s-.25-.18-.25-.18c-.2-.13-.38-.26-.58-.38l-.02-.02c-21.62-14.39-40.62-32.1-56.49-52.65-15.52-20.1-27.7-42.46-36.2-66.48-8.51-24.01-13.12-49.06-13.71-74.44-.61-26.03,3.03-51.83,10.81-76.69l.31-.97v-.03c.64-1.97,1.36-4.2,2.14-6.43.61-1.74,1.25-3.47,1.85-5.09,1.38-3.7,2.83-7.31,4.32-10.75,1.21-2.79,2.49-5.62,3.82-8.41,1.29-2.7,2.68-5.47,4.14-8.27,1.76-3.36,3.66-6.76,5.62-10.11.91-1.55,1.86-3.12,2.8-4.64,1.22-1.96,2.51-3.97,3.94-6.13h0c.14-.22.27-.41.4-.61h0s.09-.14.09-.14c21.88-32.84,51.92-59.98,86.89-78.48,34.48-18.24,73.27-27.89,112.16-27.89,24.14,0,48.06,3.66,71.12,10.88l.14.05.11.03.29.09c1.9.61,4.4,1.42,6.9,2.29,1.72.6,3.44,1.23,5.11,1.86,3.66,1.36,7.27,2.81,10.76,4.32,2.7,1.17,5.41,2.4,8.05,3.66,14.96,6.16,29.38,14.08,42.86,23.53,21.77,15.27,40.36,34.04,55.24,55.77,34.86,50.94,39.06,103.26,38.42,130.11,0,.24,0,.47.02.72,0,.2,0,.39,0,.59s0,.38,0,.57c.04,1.59.05,3.44.03,5.49Z"/>
    <path class="cls-2" d="M1497.19,584.9v51.85c0,17.02-13.86,30.88-30.89,30.88h-606.91c-2.04.42-4.09.63-6.12.63h-51.84c-17.03,0-30.89-13.86-30.89-30.88v-52.48c0-17.02,13.86-30.88,30.89-30.88h664.87c17.03,0,30.89,13.86,30.89,30.88Z"/>
    <path class="cls-2" d="M1497.19,830.46v51.84c0,17.03-13.86,30.89-30.89,30.89h-664.87c-17.03,0-30.89-13.86-30.89-30.89v-51.84c0-17.03,13.86-30.88,30.89-30.88h664.87c17.03,0,30.89,13.85,30.89,30.88Z"/>
    <path class="cls-2" d="M1497.19,953.24v51.85c0,17.02-13.86,30.88-30.89,30.88h-664.87c-17.03,0-30.89-13.86-30.89-30.88v-51.85c0-17.02,13.86-30.88,30.89-30.88h664.87c17.03,0,30.89,13.86,30.89,30.88Z"/>
    <path class="cls-2" d="M674.26,1010.46c0,10.25-8.34,18.6-18.6,18.6H0v-448.85c0-7.79,4.83-14.49,11.64-17.25v-2.01h628.86v37.12c1.79,1.69,3.23,3.74,4.26,6.05,2,4.55,2.09,9.6.29,14.23l-4.54,11.64v361.88h15.17c10.26,0,18.6,8.35,18.6,18.6Z"/>
    <path class="cls-2" d="M674.26,454.36c0,10.25-8.35,18.6-18.6,18.6H0V24.1C0,13.85,8.35,5.5,18.6,5.5s18.6,8.35,18.6,18.6v411.66h4.88v-101.49h127.04v101.49h14.09v-140.71h127.04v140.71h14.1v-166.07h127.04v166.07h14.45V41.04h127.04v394.72h62.79c10.25,0,18.6,8.35,18.6,18.6Z"/>
    <path class="cls-2" d="M1497.19,707.69v51.84c0,17.03-13.86,30.88-30.89,30.88h-574.68c-1.45.22-2.91.31-4.31.31h-85.88c-17.03,0-30.89-13.85-30.89-30.88v-52.15c0-17.03,13.86-30.89,30.89-30.89h664.87c17.03,0,30.89,13.86,30.89,30.89Z"/>
  </g>
  <g>
    <g>
      <path class="cls-9" d="M1036.4,443.59l97.46-204.37c12.24,74.48,24.47,148.96,36.7,223.42-44.08,7.29-90.76,1.64-134.16-19.06Z"/>
      <path class="cls-8" d="M1133.86,239.22l97.46-204.37c17.32,7.1,60.26,27.43,92.71,74.82,35.6,51.99,36.66,104.58,36.19,122.88,0,.03,0,.05,0,.08l-226.36,6.58Z"/>
      <path class="cls-5" d="M1231.32,34.86c-2.65-1.26-5.31-2.47-7.97-3.62-3.37-1.45-6.76-2.81-10.16-4.08-1.61-.6-3.21-1.18-4.83-1.75-2.19-.76-4.38-1.48-6.58-2.17-.14-.04-.29-.09-.43-.14-.02,0-.03,0-.05-.01-95.72-30-200.41,7.09-255.91,90.64,0,.01-.02.03-.03.04-.09.13-.17.26-.26.39-1.27,1.92-2.52,3.85-3.73,5.82-.9,1.45-1.78,2.92-2.65,4.4-1.84,3.13-3.62,6.32-5.32,9.57-1.34,2.57-2.65,5.18-3.91,7.83s-2.47,5.31-3.62,7.97c-1.45,3.37-2.81,6.76-4.08,10.16-.6,1.61-1.18,3.21-1.75,4.83-.76,2.18-1.48,4.37-2.17,6.56-.05.15-.1.3-.14.45,0,.02,0,.03-.01.05-30,95.72,7.09,200.41,90.64,255.91.01,0,.03.02.04.03.12.08.25.17.38.25,1.92,1.27,3.86,2.52,5.83,3.74,1.45.9,2.92,1.78,4.4,2.65,3.13,1.84,6.32,3.62,9.57,5.32,2.57,1.34,5.18,2.65,7.83,3.91l194.92-408.73ZM1027.06,40.03c.45-.24.91-.49,1.36-.73-.08.04-.15.08-.23.12-.38.2-.76.41-1.14.61ZM981.64,71.85c-.63.56-1.24,1.14-1.86,1.71.65-.6,1.3-1.21,1.96-1.81-.04.03-.07.06-.11.1ZM988.58,65.85c.17-.14.33-.28.5-.41-.17.14-.33.28-.5.41ZM992.17,62.93c.19-.15.37-.3.56-.45-.19.15-.37.3-.56.45ZM996.11,59.85c.08-.06.15-.12.23-.18-.08.06-.15.12-.23.18ZM1003.89,54.19c.15-.1.3-.2.45-.31-.15.1-.3.2-.45.31ZM1007.58,51.68c.34-.23.69-.45,1.03-.68-.34.23-.69.45-1.03.68ZM1011.28,49.26c.46-.29.92-.59,1.39-.88-.46.29-.93.58-1.39.88ZM1019.66,44.15c.25-.14.49-.28.74-.42-.24.14-.49.28-.74.42ZM1022.55,42.5c.61-.34,1.22-.69,1.83-1.03-.61.34-1.22.68-1.83,1.03ZM1036.25,35.4c1.95-.93,3.91-1.82,5.88-2.7-.16.07-.33.14-.49.22-1.81.8-3.61,1.63-5.39,2.48ZM1031.24,37.87c1.11-.56,2.22-1.11,3.34-1.66-1.12.54-2.23,1.09-3.34,1.66ZM1089.95,17.51c.52-.1,1.04-.2,1.56-.3-.43.08-.87.16-1.3.25-.09.02-.17.03-.26.05ZM1075.67,20.87c-.17.04-.35.1-.52.14,2.08-.56,4.17-1.1,6.27-1.61-1.92.46-3.84.95-5.75,1.47ZM1083.23,18.98c1.21-.28,2.43-.56,3.64-.82-1.22.26-2.43.54-3.64.82ZM1146.64,13.34c.97.05,1.93.12,2.9.18-.91-.06-1.83-.13-2.74-.17-.05,0-.11,0-.16,0ZM1094.46,16.65c.69-.13,1.39-.24,2.09-.36-.7.12-1.39.23-2.09.36ZM1098.98,15.89c.28-.04.56-.09.84-.13-.28.04-.56.09-.84.13ZM1107.92,14.65c.55-.07,1.09-.13,1.64-.19-.55.06-1.09.13-1.64.19ZM1112.71,14.12c.41-.04.83-.08,1.24-.12-.41.04-.83.08-1.24.12ZM1117.84,13.68c.19-.01.37-.03.56-.04-.19.01-.37.03-.56.04ZM1127.71,13.15c.1,0,.21,0,.31,0-.1,0-.21,0-.31,0ZM1132.28,13.05c.24,0,.49,0,.73,0-.24,0-.49,0-.73,0ZM1136.98,13.04c.22,0,.44,0,.66,0-.22,0-.44,0-.66,0ZM1198.43,22.22c.4.12.81.24,1.21.36-.4-.12-.81-.24-1.21-.36ZM1155.73,14c.41.04.83.08,1.24.12-.41-.04-.83-.08-1.24-.12ZM1184.26,18.53c.42.09.83.19,1.25.29-.42-.1-.83-.19-1.25-.29ZM1189.13,19.68c.41.1.81.21,1.22.31-.41-.1-.81-.21-1.22-.31ZM1193.25,20.76c.67.18,1.33.36,1.99.55-.66-.19-1.33-.37-1.99-.55ZM1065.6,23.82c-4.81,1.53-9.57,3.21-14.27,5.05,4.7-1.84,9.46-3.53,14.27-5.05ZM1073.39,21.49c-2.4.67-4.78,1.38-7.16,2.12,2.37-.75,4.76-1.45,7.16-2.12ZM1043.81,31.97c2.28-.99,4.58-1.94,6.89-2.85-2.31.91-4.61,1.87-6.89,2.85ZM975.11,77.98c-.29.29-.59.58-.88.87.29-.29.59-.58.88-.87ZM955.79,99.46c-.26.33-.52.67-.78,1,.26-.33.52-.67.78-1ZM952.73,103.42c-.25.33-.5.67-.75,1,.25-.33.5-.67.75-1ZM950.21,106.84c-.4.56-.8,1.11-1.2,1.68.4-.56.8-1.12,1.2-1.68ZM947.1,111.25c-.24.34-.47.69-.71,1.04.24-.35.47-.69.71-1.04ZM934.69,346.05c-.25-.47-.5-.93-.75-1.4.04.08.08.15.12.23.21.39.42.78.63,1.17ZM966.49,391.45c.61.68,1.24,1.35,1.86,2.02-.66-.71-1.32-1.42-1.96-2.14.04.04.07.08.11.12ZM960.49,384.51c-.14-.17-.28-.34-.42-.51.14.17.28.34.42.51ZM957.58,380.93c-.15-.19-.31-.38-.46-.57.15.19.31.38.46.57ZM954.5,376.99c-.06-.08-.13-.16-.19-.25.06.08.13.16.19.25ZM948.83,369.2c-.11-.15-.21-.31-.32-.46.11.15.21.31.32.46ZM946.32,365.51c-.23-.35-.46-.7-.69-1.04.23.35.46.7.69,1.04ZM943.91,361.81c-.3-.46-.59-.93-.88-1.4.29.47.59.93.88,1.4ZM938.79,353.43c-.14-.25-.28-.49-.43-.74.14.25.28.49.43.74ZM937.15,350.55c-.35-.62-.7-1.23-1.03-1.85.34.62.69,1.23,1.03,1.85ZM930.04,336.84c-.93-1.95-1.82-3.91-2.7-5.89.07.16.14.33.22.49.8,1.81,1.63,3.61,2.48,5.39ZM932.51,341.85c-.56-1.11-1.11-2.23-1.66-3.35.54,1.12,1.1,2.24,1.66,3.35ZM912.15,283.13c-.1-.5-.19-1.01-.29-1.51.08.42.16.84.24,1.26.02.08.03.17.05.25ZM915.51,297.42c.04.17.1.35.14.52-.56-2.08-1.1-4.17-1.61-6.27.46,1.92.95,3.84,1.47,5.75ZM913.62,289.86c-.28-1.21-.55-2.42-.82-3.64.26,1.21.53,2.43.82,3.64ZM907.98,226.43c.05-.89.11-1.77.17-2.66-.05.84-.12,1.68-.16,2.52,0,.05,0,.1,0,.14ZM911.29,278.62c-.12-.69-.24-1.38-.35-2.06.12.69.23,1.38.35,2.06ZM910.53,274.11c-.04-.28-.09-.56-.13-.84.04.28.09.56.13.84ZM909.28,265.17c-.06-.54-.13-1.09-.19-1.63.06.54.13,1.09.19,1.63ZM908.76,260.37c-.04-.41-.08-.82-.12-1.23.04.41.08.82.12,1.23ZM908.32,255.23c-.01-.18-.03-.36-.04-.54.01.18.03.36.04.54ZM907.79,245.37c0-.1,0-.19,0-.29,0,.1,0,.19,0,.29ZM907.69,240.8c0-.24,0-.48,0-.71,0,.24,0,.48,0,.71ZM907.68,236.11c0-.22,0-.43,0-.65,0,.22,0,.43,0,.65ZM916.86,174.65c.12-.4.24-.8.36-1.21-.12.4-.24.8-.36,1.21ZM908.64,217.36c.04-.41.08-.82.12-1.23-.04.41-.08.82-.12,1.23ZM913.17,188.82c.09-.41.19-.83.28-1.24-.1.41-.19.83-.28,1.24ZM914.33,183.95c.1-.4.21-.81.31-1.21-.1.4-.21.81-.31,1.21ZM915.4,179.84c.18-.66.36-1.33.55-1.99-.18.66-.37,1.32-.55,1.99ZM918.46,307.49c1.53,4.81,3.21,9.57,5.05,14.27-1.84-4.7-3.53-9.46-5.05-14.27ZM916.13,299.7c.67,2.4,1.38,4.78,2.12,7.15-.75-2.37-1.45-4.76-2.12-7.15ZM926.61,329.28c-.99-2.28-1.94-4.58-2.86-6.9.91,2.31,1.87,4.61,2.86,6.9ZM972.62,397.97c.29.3.58.59.87.89-.29-.3-.58-.59-.87-.89ZM994.09,417.3c.34.26.67.53,1.01.79-.34-.26-.67-.53-1.01-.79ZM998.06,420.36c.33.25.67.5,1.01.75-.34-.25-.67-.5-1.01-.75ZM1001.48,422.88c.56.4,1.12.81,1.68,1.21-.56-.4-1.12-.8-1.68-1.21ZM1005.88,425.99c.35.24.7.48,1.05.71-.35-.24-.7-.48-1.05-.71Z"/>
      <g>
        <path class="cls-3" d="M1330.98,350.59s-.05.08-.07.12c.02-.04.05-.08.07-.12Z"/>
        <path class="cls-3" d="M1174.44,461.97c.19-.04.37-.08.57-.1.27-.05.55-.11.84-.17.18-.03.38-.06.58-.11.31-.06.64-.12.97-.2-.09.03-.17.05-.25.06.37-.07.75-.16,1.14-.23-.19.04-.37.07-.55.1.68-.14,1.38-.28,2.1-.43.03,0,.04,0,.07-.02.12-.02.25-.05.38-.08-.15.03-.31.07-.45.1-.12.03-.24.05-.36.08.29-.06.57-.13.85-.19,0,0,0,0,.01,0,.55-.11,1.13-.23,1.71-.37.06-.01.13-.03.19-.04.59-.13,1.2-.27,1.81-.41.64-.16,1.31-.31,1.98-.47.57-.14,1.15-.29,1.74-.43,30.64-7.53,59.6-21.41,84.78-40.91-.78.6-1.56,1.2-2.34,1.78.75-.55,1.49-1.12,2.23-1.7.08-.06.17-.13.25-.19-.04.03-.09.07-.13.1.16-.13.32-.25.49-.37.32-.25.65-.5.97-.76.72-.56,1.43-1.13,2.14-1.7.07-.06.14-.11.2-.16.22-.17.43-.34.65-.52.29-.23.58-.47.87-.71.29-.23.59-.48.89-.72.48-.4.95-.8,1.43-1.21.11-.09.21-.17.32-.26-.08.06-.15.13-.23.19.08-.06.15-.13.23-.19.11-.09.21-.18.32-.27-.1.09-.21.18-.31.27.5-.42.99-.84,1.49-1.26.83-.7,1.64-1.42,2.46-2.14-.57.51-1.16,1-1.74,1.5,1.33-1.15,2.65-2.31,3.97-3.51.8-.73,1.58-1.45,2.37-2.19.09-.08.19-.18.28-.27.67-.62,1.34-1.26,2-1.9,0-.02.02-.03.03-.04.76-.73,1.52-1.48,2.27-2.23.03-.04.07-.07.1-.11.83-.83,1.66-1.67,2.49-2.52.78-.79,1.55-1.6,2.32-2.41.05-.05.1-.11.16-.17.82-.87,1.64-1.76,2.45-2.65.72-.79,1.44-1.59,2.16-2.4.62-.71,1.24-1.41,1.86-2.13.14-.15.28-.32.42-.48.14-.16.29-.33.43-.49.14-.15.26-.31.39-.47,1.34-1.57,2.64-3.14,3.9-4.72.59-.72,1.18-1.46,1.74-2.2.32-.39.62-.78.92-1.17.42-.55.84-1.08,1.26-1.63.49-.65.98-1.3,1.46-1.95.75-1.01,1.5-2.03,2.22-3.06.73-1.02,1.45-2.03,2.16-3.06.59-.85,1.18-1.71,1.74-2.57.27-.4.53-.79.8-1.19.37-.56.74-1.13,1.1-1.69.36-.55.72-1.11,1.07-1.67.42-.66.84-1.33,1.24-1.99-.1.16-.2.33-.3.5.11-.18.21-.36.32-.53.08-.14.17-.27.25-.41.1-.15.18-.3.28-.45.17-.28.35-.57.52-.85.32-.53.65-1.07.96-1.61.06-.1.12-.21.18-.31.08-.13.16-.26.23-.39.06-.11.13-.21.19-.32.52-.87,1.02-1.76,1.53-2.64.15-.26.3-.51.44-.76.08-.13.15-.27.22-.41.02-.03.03-.05.05-.08,0,.02-.02.03-.03.05.1-.18.2-.35.29-.53-.07.12-.13.24-.2.36,2.55-4.52,4.98-9.15,7.25-13.9,13.99-29.33,21.05-60.16,21.94-90.68.02-.52.04-1.05.05-1.54h0c0-.32,0-.62.02-.93.03-1.31.04-2.55.06-3.69.02-1.98,0-3.71-.03-5.18,0-.24,0-.49-.02-.72,0-.09,0-.18,0-.27,0-.36-.01-.7-.02-1.03l-226.36,6.58c12.24,74.48,24.47,148.96,36.7,223.42,1.12-.18,2.41-.41,3.88-.68ZM1333.29,346.35c.09-.16.17-.33.26-.49-.09.16-.17.33-.26.49ZM1335.19,342.7c.25-.5.51-1,.76-1.5-.25.5-.5,1-.76,1.5ZM1336.25,340.58c.61-1.23,1.21-2.47,1.8-3.7-.58,1.23-1.18,2.46-1.8,3.7ZM1339.06,334.68c.33-.72.66-1.44.98-2.16-.32.72-.65,1.44-.98,2.16ZM1349.42,307.84c.07-.24.15-.47.22-.71-.07.24-.14.47-.22.71ZM1350.44,304.48c.16-.55.33-1.1.49-1.65-.16.55-.32,1.1-.49,1.65ZM1352.78,296.09c.06-.23.12-.47.18-.71-.06.23-.12.47-.18.71ZM1353.84,291.85s.02-.07.03-.11c0,.04-.02.07-.03.11ZM1354.42,289.34c.13-.58.27-1.17.4-1.75-.13.58-.26,1.17-.4,1.75ZM1355.52,284.3s0-.05.01-.07c0,.02,0,.05-.01.07ZM1356.19,280.91c.03-.13.05-.27.08-.4-.02.13-.05.27-.08.4ZM1359.16,260.47c-.12,1.21-.26,2.44-.4,3.7.13-1.13.26-2.24.36-3.32.02-.13.03-.25.04-.38ZM1358.31,267.68c.1-.74.19-1.47.28-2.2-.09.73-.18,1.45-.28,2.2ZM1358.03,269.77c-.19,1.37-.4,2.77-.63,4.19.19-1.22.38-2.42.55-3.6.03-.2.05-.4.08-.6ZM1356.79,277.6c.12-.7.24-1.39.35-2.08-.11.69-.23,1.38-.35,2.08ZM1270.14,419.98c-.83.62-1.67,1.24-2.5,1.85-.73.53-1.45,1.05-2.19,1.56,1.56-1.11,3.12-2.24,4.69-3.41ZM1263.08,425.05c-.4.27-.79.54-1.19.81-.39.27-.78.53-1.18.79.79-.52,1.57-1.05,2.36-1.61ZM1256.61,429.35c-.3.19-.59.37-.89.56.89-.56,1.77-1.12,2.66-1.7-.59.39-1.18.77-1.77,1.14ZM1254.41,430.74c-1.03.65-2.07,1.28-3.09,1.9,1.03-.62,2.06-1.25,3.09-1.9ZM1238.77,439.67c.51-.25.99-.51,1.49-.77-.45.24-.9.47-1.36.71-.7.36-1.4.72-2.1,1.08.65-.33,1.31-.66,1.96-1.01Z"/>
      </g>
    </g>
    <g>
      <path class="cls-1" d="M655.66,1016.28H12.78v-436.08c0-3.21,2.61-5.82,5.82-5.82s5.82,2.61,5.82,5.82v424.44h631.24c3.21,0,5.82,2.6,5.82,5.82s-2.61,5.82-5.82,5.82Z"/>
      <rect class="cls-7" x="24.42" y="918.45" width="86.19" height="86.19"/>
      <rect class="cls-7" x="110.6" y="918.45" width="86.19" height="86.19"/>
      <rect class="cls-7" x="24.42" y="832.27" width="86.19" height="86.19"/>
      <rect class="cls-7" x="110.6" y="832.27" width="86.19" height="86.19"/>
      <rect class="cls-7" x="24.42" y="746.08" width="86.19" height="86.19"/>
      <rect class="cls-7" x="110.6" y="746.08" width="86.19" height="86.19"/>
      <rect class="cls-7" x="24.42" y="659.9" width="86.19" height="86.19"/>
      <rect class="cls-7" x="110.6" y="659.9" width="86.19" height="86.19"/>
      <rect class="cls-7" x="24.42" y="573.71" width="86.19" height="86.19"/>
      <rect class="cls-7" x="110.6" y="573.71" width="86.19" height="86.19"/>
      <rect class="cls-7" x="196.79" y="918.45" width="86.19" height="86.19"/>
      <rect class="cls-7" x="282.97" y="918.45" width="86.19" height="86.19"/>
      <rect class="cls-7" x="196.79" y="832.27" width="86.19" height="86.19"/>
      <rect class="cls-7" x="282.97" y="832.27" width="86.19" height="86.19"/>
      <rect class="cls-7" x="196.79" y="746.08" width="86.19" height="86.19"/>
      <rect class="cls-7" x="282.97" y="746.08" width="86.19" height="86.19"/>
      <rect class="cls-7" x="196.79" y="659.9" width="86.19" height="86.19"/>
      <rect class="cls-7" x="282.97" y="659.9" width="86.19" height="86.19"/>
      <rect class="cls-7" x="196.79" y="573.71" width="86.19" height="86.19"/>
      <rect class="cls-7" x="282.97" y="573.71" width="86.19" height="86.19"/>
      <rect class="cls-7" x="369.16" y="918.45" width="86.19" height="86.19"/>
      <rect class="cls-7" x="455.35" y="918.45" width="86.19" height="86.19"/>
      <rect class="cls-7" x="369.16" y="832.27" width="86.19" height="86.19"/>
      <rect class="cls-7" x="455.35" y="832.27" width="86.19" height="86.19"/>
      <rect class="cls-7" x="369.16" y="746.08" width="86.19" height="86.19"/>
      <rect class="cls-7" x="455.35" y="746.08" width="86.19" height="86.19"/>
      <rect class="cls-7" x="369.16" y="659.9" width="86.19" height="86.19"/>
      <rect class="cls-7" x="455.35" y="659.9" width="86.19" height="86.19"/>
      <rect class="cls-7" x="369.16" y="573.71" width="86.19" height="86.19"/>
      <rect class="cls-7" x="455.35" y="573.71" width="86.19" height="86.19"/>
      <rect class="cls-7" x="541.53" y="918.45" width="86.19" height="86.19"/>
      <rect class="cls-7" x="541.53" y="832.27" width="86.19" height="86.19"/>
      <rect class="cls-7" x="541.53" y="746.08" width="86.19" height="86.19"/>
      <rect class="cls-7" x="541.53" y="659.9" width="86.19" height="86.19"/>
      <rect class="cls-7" x="541.53" y="573.71" width="86.19" height="86.19"/>
      <path class="cls-5" d="M629.83,606.15c-2.99-1.17-6.37.31-7.54,3.3l-80.1,205.1c-.22,0-.44-.03-.67-.03-4.82,0-9.18,1.93-12.38,5.04l-142.42-71.21c.1-.75.16-1.51.16-2.28,0-9.8-7.94-17.74-17.74-17.74s-17.74,7.94-17.74,17.74c0,4.82,1.93,9.18,5.04,12.38l-71.21,142.42c-.75-.1-1.51-.16-2.28-.16-4.82,0-9.18,1.93-12.38,5.05l-142.42-71.21c.1-.75.16-1.51.16-2.28,0-9.8-7.94-17.74-17.74-17.74s-17.74,7.94-17.74,17.74c0,2.77.65,5.39,1.79,7.72l-74.35,74.35c-2.27,2.27-2.27,5.96,0,8.23,2.27,2.27,5.96,2.27,8.23,0l74.35-74.35c2.34,1.13,4.95,1.79,7.72,1.79,4.82,0,9.18-1.93,12.38-5.04l142.42,71.21c-.1.75-.16,1.51-.16,2.28,0,9.8,7.94,17.74,17.74,17.74s17.74-7.94,17.74-17.74c0-4.82-1.93-9.18-5.04-12.38l71.21-142.42c.75.1,1.51.16,2.28.16,4.82,0,9.18-1.93,12.38-5.04l142.42,71.21c-.1.75-.16,1.51-.16,2.28,0,9.8,7.94,17.74,17.74,17.74s17.74-7.94,17.74-17.74c0-5.4-2.42-10.23-6.23-13.48l80.09-205.1c1.17-2.99-.31-6.37-3.3-7.54Z"/>
    </g>
    <g>
      <rect class="cls-6" x="783.32" y="566.79" width="701.09" height="88.06" rx="18.43" ry="18.43"/>
      <rect class="cls-6" x="783.32" y="689.57" width="701.09" height="88.06" rx="18.43" ry="18.43"/>
      <rect class="cls-6" x="783.32" y="812.35" width="701.09" height="88.06" rx="18.43" ry="18.43"/>
      <rect class="cls-6" x="783.32" y="935.13" width="701.09" height="88.06" rx="18.43" ry="18.43"/>
      <rect class="cls-3" x="783.32" y="812.35" width="144.11" height="88.06" rx="18.43" ry="18.43"/>
      <rect class="cls-5" x="783.32" y="935.13" width="342.51" height="88.06" rx="18.43" ry="18.43"/>
      <rect class="cls-9" x="783.32" y="567.42" width="88.06" height="88.06" rx="18.43" ry="18.43"/>
      <rect class="cls-8" x="783.32" y="689.89" width="122.1" height="88.06" rx="18.43" ry="18.43"/>
    </g>
    <g>
      <path class="cls-4" d="M655.66,460.18H12.78V24.1c0-3.21,2.61-5.82,5.82-5.82s5.82,2.61,5.82,5.82v424.44h631.24c3.21,0,5.82,2.6,5.82,5.82s-2.61,5.82-5.82,5.82Z"/>
      <rect class="cls-3" x="304.82" y="314.76" width="166.08" height="101.49" transform="translate(22.36 753.36) rotate(-90)"/>
      <rect class="cls-5" x="331.99" y="200.43" width="394.72" height="101.49" transform="translate(278.17 780.53) rotate(-90)"/>
      <rect class="cls-9" x="54.85" y="347.05" width="101.49" height="101.49" transform="translate(-292.21 503.38) rotate(-90)"/>
      <rect class="cls-8" x="176.37" y="327.44" width="140.71" height="101.49" transform="translate(-131.46 624.91) rotate(-90)"/>
    </g>
  </g>
</svg>