<?xml version="1.0" encoding="UTF-8"?>
<svg id="Livello_1" data-name="Livello 1" xmlns="http://www.w3.org/2000/svg" viewBox="0 0 670.71 670.71">
  <defs>
    <style>
      .cls-1 {
        fill: #9b9893;
      }

      .cls-2 {
        fill: #fff;
      }

      .cls-3 {
        fill: #ef794b;
      }

      .cls-4 {
        fill: #feeab0;
      }
    </style>
  </defs>
  <g>
    <path class="cls-1" d="M524.21,659.73H146.51c-74.73,0-135.52-60.8-135.52-135.52V146.51C10.98,71.78,71.78,10.98,146.51,10.98h377.7c74.73,0,135.52,60.8,135.52,135.52v377.7c0,74.73-60.8,135.52-135.52,135.52ZM146.51,32.95c-62.62,0-113.56,50.94-113.56,113.56v377.7c0,62.62,50.94,113.56,113.56,113.56h377.7c62.62,0,113.56-50.94,113.56-113.56V146.51c0-62.62-50.94-113.56-113.56-113.56H146.51Z"/>
    <path class="cls-2" d="M524.2,10.98c74.73,0,135.52,60.8,135.52,135.52v377.7c0,74.73-60.8,135.52-135.52,135.52H146.51c-74.73,0-135.52-60.8-135.52-135.52V146.51C10.98,71.78,71.78,10.98,146.51,10.98h377.7M146.51,637.76h377.7c62.62,0,113.56-50.94,113.56-113.56V146.51c0-62.62-50.94-113.56-113.56-113.56H146.51c-62.62,0-113.56,50.94-113.56,113.56v377.7c0,62.62,50.94,113.56,113.56,113.56M524.2,0H146.51C65.72,0,0,65.72,0,146.51v377.7c0,80.79,65.72,146.51,146.51,146.51h377.7c80.79,0,146.51-65.72,146.51-146.51V146.51C670.71,65.72,604.99,0,524.2,0h0ZM146.51,626.78c-56.56,0-102.57-46.01-102.57-102.57V146.51c0-56.56,46.01-102.57,102.57-102.57h377.7c56.56,0,102.57,46.01,102.57,102.57v377.7c0,56.56-46.01,102.57-102.57,102.57H146.51Z"/>
  </g>
  <g>
    <g>
      <polygon class="cls-4" points="353.14 556.62 554.94 556.62 554.94 114.09 260.06 408.97 353.14 556.62"/>
      <path class="cls-2" d="M554.94,114.09v442.53h-201.8l-93.08-147.65L554.94,114.09M565.92,87.58l-18.75,18.75L252.29,401.21l-6.2,6.2,4.68,7.42,93.08,147.65,3.23,5.13h218.85V87.58h0Z"/>
    </g>
    <g>
      <path class="cls-3" d="M364.81,556.62H115.77v-249.02c13.47-.53,120.34-2.95,193.5,83.29,57.97,68.34,56.4,147.09,55.54,165.73Z"/>
      <path class="cls-2" d="M122.52,307.47c27.83,0,120.93,5.83,186.75,83.42,57.97,68.34,56.4,147.09,55.54,165.73H115.77v-249.02c1.35-.05,3.65-.13,6.75-.13M122.53,296.49v10.98-10.98c-2.52,0-4.93.05-7.19.13l-10.55.42v270.57h270.5l.49-10.47c1.39-29.88-1.48-106.58-58.13-173.35-29.51-34.78-67.41-59.73-112.66-74.16-35.83-11.43-67.05-13.13-82.47-13.13h0Z"/>
    </g>
  </g>
</svg>