<?xml version="1.0" encoding="UTF-8"?>
<svg id="Livello_1" xmlns="http://www.w3.org/2000/svg" version="1.1" viewBox="0 0 586.5 403">
  <!-- Generator: Adobe Illustrator 29.0.1, SVG Export Plug-In . SVG Version: 2.1.0 Build 192)  -->
  <defs>
    <style>
      .st0 {
        fill: #29292b;
      }

      .st1 {
        fill: #79462a;
      }

      .st2 {
        fill: #3a89ff;
      }

      .st3 {
        fill: #fff;
      }

      .st4 {
        fill: #a36e54;
      }

      .st5 {
        fill: #2f2f2f;
      }

      .st6 {
        fill: #fffcf6;
      }

      .st6, .st7 {
        stroke: #1d1d1b;
        stroke-miterlimit: 10;
        stroke-width: 2px;
      }

      .st8 {
        fill: #42362e;
      }

      .st9 {
        fill: #ffca3d;
      }

      .st10 {
        fill: #2866d8;
      }

      .st11 {
        fill: #d1992c;
      }

      .st12 {
        fill: #4c3424;
      }

      .st13 {
        fill: #b37660;
      }

      .st7 {
        fill: none;
        stroke-linecap: round;
      }

      .st14 {
        fill: #523826;
      }

      .st15 {
        fill: #f2b68f;
      }

      .st16 {
        fill: #29292a;
      }
    </style>
  </defs>
  <g>
    <path class="st3" d="M330.1,254.4c3.2-3.7,4.7-7.3,4.3-10.7-.2-1.6-.8-3.1-1.7-4.4,2.5-4.4,3.1-10.1-.4-14.3-1.3-1.6-4.1-3.9-9.1-3.4-.7-1.2-1.5-2-2.2-2.5-2.9-2.1-7.1-2.3-12.5-.5-4.1,1.4-20.3,12.1-30.9,19.2-1.1-12.2-3.9-19.5-8.5-21.7-2.8-1.3-5.9-.9-8.7,1.2-7.3,5.6-13,31.4-16.3,50l-16.1,20.2c-1.5-8.7-3.9-21.5-6.7-34.2-7.4-33.5-12.1-41.2-15.1-44.1-6.3-6.2-21.7-14.1-33.4-19.6,9-3.4,16.4-9.7,21.9-18.7,5.8-9.3,9.4-21.6,11-36.4,4.8-1.2,8.3-5.5,8.3-10.6v-15.8c0-5.2-3.7-9.6-8.6-10.7-.3-2.8-.6-5.1-.8-6.4,1.9-4.1,6.9-16,6.8-28.1,2.5,6.3,6.8,11.8,12.4,15.8l-3.1,15.8c-.4,2.2.7,4.5,2.6,5.6.8.4,1.7.7,2.6.7,1.3,0,2.5-.5,3.5-1.3l16.3-14.3h76.2c19.3,0,35-15.7,35-35v-15.2c0-19.3-15.7-35-35-35h-78c-19.3,0-35,15.7-35,35v15.1c-2.7-6.5-7.6-11.2-14.6-14.2-29-12.4-79.9-12.9-94.9,14.2-4.8,3.8-21.6,19.9-12.7,56-7.3,10.4-9.5,19.8-6.6,28,3.5,9.9,13.4,14.8,18.7,16.8.8,4.5,2.9,9.4,4,11.9-.5,3.4-.8,6.6-1,9.6-10.3,4.4-44.2,19.2-55.2,26.8-14.6,10.2-23,21.9-28.7,40.4C11.4,260.6-.3,336.7,0,398v5s64.6,0,64.6,0h145s-.3-20.9-.3-20.9l2.1.6c11.9,3.4,24.6-1.2,31.5-11.6l43.1-64.4,2.3-3.4-2-2c19.5-12.4,33.5-26.8,39.8-33.2l.6-.7c2.9-2.9,4.3-5.9,4.3-8.9s-.4-3-1.1-4.3Z"/>
    <path class="st3" d="M586.2,359.6l-5.3-48.9,5.4-.7-14.3-72.6c-5-25.5-23.4-46.5-47.9-54.8-24-8.2-33.8-10.6-38.2-11.3-1.9-4-3.1-7.6-3.1-9.7-.2-4.6,0-17.9,0-24.4,5-1.9,13.6-6.4,17.2-15.2,3.2-7.7,1.9-16.7-3.9-26.6,6-16.4,2.5-41.7-14.4-58.1-18.7-18.1-56.7-19.5-80.6-9.6-20.4,8.6-21.3,25.2-18.5,34.6-1.4,3.2-3.7,9.6-4.5,19.9-1.1,13.6-.1,37.7,0,39.7,0,1.5.3,13.7,5.1,26.3,6.3,16.5,17.5,26.2,32.7,28.4,0,1.6-.1,3.4-.2,5.3-4.1,1.1-11.1,3.3-18.6,7-16.1,7.8-27.2,18.5-32.3,31.1-11.3,27.9-23,83.5-23.5,85.9l-1.1,5.1,6.8,1.2-17.3,90.7h212.2s.6-4.1.6-4.1c2.5.6,5.1.8,7.7.8,10.2,0,20-4.4,26.9-12.1s10.1-17.6,9-28Z"/>
    <path class="st3" d="M355.5,152.5v-10.5c0-19.3-15.7-35-35-35h-38.2c-19.3,0-35,15.7-35,35v10.5c0,19.3,15.7,35,35,35h38.2c9.1,0,17.9-3.6,24.4-9.9h20.1c2.2,0,4.2-1.4,5-3.5.8-2.1,0-4.5-1.6-5.8l-13.2-11.1c.2-1.6.3-3.1.3-4.7Z"/>
  </g>
  <g>
    <path class="st6" d="M365.2,172.1l-15.4-12.9c.5-2.1.8-4.4.8-6.7v-10.5c0-16.6-13.4-30-30-30h-38.2c-16.6,0-30,13.4-30,30v10.5c0,16.6,13.4,30,30,30h38.2c8.8,0,16.8-3.8,22.2-9.9h22.2c.3,0,.4-.4.2-.5h0Z"/>
    <path class="st6" d="M322,5h-78c-16.6,0-30,13.4-30,30v15.2c0,11.3,6.2,21.1,15.4,26.2l-3.7,19.1c0,.3.3.5.5.3l17.7-15.6h78.1c16.6,0,30-13.4,30-30v-15.2c0-16.6-13.4-30-30-30h0Z"/>
    <line class="st7" x1="245.8" y1="34.8" x2="318.5" y2="34.8"/>
    <line class="st7" x1="245.8" y1="49.4" x2="290" y2="49.4"/>
    <line class="st7" x1="276.8" y1="141.4" x2="325.5" y2="141.4"/>
    <line class="st7" x1="276.8" y1="156" x2="306.4" y2="156"/>
  </g>
  <g>
    <path class="st2" d="M281.9,304l-43.1,64.4c-5.7,8.5-16.2,12.3-26,9.5l-7.6-2.2-3.3-118c0-.6-.5-1-1-1-.6,0-1,.5-1,1l3.6,127.9c0,.5.4.9.9,1v11.3c.1,0-139.8,0-139.8,0v-39.6c0-20.6,10.1-94.6,10.2-95.4,0-.5-.3-1-.8-1.1-.6,0-1.1.3-1.1.9,0,.8-10.2,74.9-10.2,95.6v39.6H5c-.3-63.5,11.8-137.9,17.7-156.8,5.9-18.9,14.3-29.1,26.8-37.8,12.5-8.7,57.2-27.6,57.2-27.6l49.6,12.1s36.4,15.2,46.3,25c9.1,8.9,20.1,73.7,22,84.9l-12.2,23.4c-.2.5,0,1.1.4,1.3.1,0,.3.1.5.1.4,0,.7-.2.9-.5l13.9-26.7,17.6-22.1c9.9,5.9,36,30.6,36,30.6h0Z"/>
    <path class="st3" d="M157.3,191.5c10.5,44.4,10.9,84.8,11.1,94.4s.9,112.1.9,112.1h-48.2s-.3-34.7-.5-69.6c-.3-50.4,0-56.6-2.1-70.8-2.9-19.7-4.3-29.5-5.8-35.9-1.2-5.3-3.9-15.6-5.1-30-.3-3.2-.4-5.9-.5-7.7l50.2,7.4h0Z"/>
    <path class="st15" d="M201,66.7l-1.6,23.6s16.6,95.6-43,97.6c0,0,1.8,5.3,1.6,12.8s-9.6,12.6-20.7,12.2c-11.1-.5-36.5-4-29.2-50.8,0,0-4.7-9.6-4.6-14.9,0,0-35.1-8.7-11.3-40l3-10.9,22.6-8,8.7-26.5,44.6,9.7,30-4.9h0s0,0,0,0Z"/>
    <path class="st12" d="M199.4,90.3s19.8-38.4-7-49.9-76.3-12.3-89.1,13c0,0-21.9,14-11.1,53.7,0,0,9.1-6.7,22.1,11.5,0,0,4.6-11.1,3.4-24.2,0,0,12.5-11.2,11.1-29.6,0,0,37,17.9,69.3,8.8l1.3,16.7h0Z"/>
    <path class="st5" d="M161.3,162.1c3.7,0,7.4-.7,10.8-2.1.5-.2.7-.7.5-1.2-.2-.5-.7-.7-1.2-.5-3.7,1.5-7.6,2.1-11.5,1.9-6-.3-10.6-2.6-13.4-4.4-.4-.3-1-.2-1.3.3-.3.4-.2,1,.3,1.3,3,2,7.9,4.4,14.3,4.7.5,0,1,0,1.5,0h0Z"/>
    <path class="st12" d="M195.9,99.2s-.6-4.1-7.5-4.4-10.5.3-10.3,2.2,6.7.8,10.1,1.1,5.4.6,7.6,1.2h0Z"/>
    <path class="st12" d="M135.8,99.2s.6-4.1,7.5-4.4,10.5.3,10.3,2.2-6.7.8-10.1,1.1-5.4.6-7.6,1.2h0Z"/>
    <path class="st8" d="M185,113.1c.9-.8,2.1-1.3,3.4-1.3,2.8,0,5.1,2.3,5.1,5.1s-2.3,5.1-5.1,5.1-3.8-1.2-4.6-3c-.3-.6-.5-1.4-.5-2.1,0-1.5.7-2.9,1.7-3.8Z"/>
    <path class="st8" d="M145.1,113.1c.9-.8,2.1-1.3,3.4-1.3,2.8,0,5.1,2.3,5.1,5.1s-2.3,5.1-5.1,5.1-3.8-1.2-4.6-3c-.3-.6-.5-1.4-.5-2.1,0-1.5.7-2.9,1.7-3.8Z"/>
    <path class="st5" d="M169.1,146.3c2.2,0,3.4-.2,4.8-.7,1.1-.4,2.8-1.1,3.9-2.8.6-.9.9-2.2.9-3.7,0-2-.5-3.5-1.2-5.4l-.3-.8c-1-2.8-1.9-5.2-2.3-7.7-.3-1.7-.4-3.5-.2-5.3,0-.5-.3-.9-.8-1-.5,0-.9.3-1,.8-.2,1.9,0,3.9.2,5.8.4,2.7,1.3,5.1,2.4,8l.3.8c.7,1.9,1.1,3.1,1.1,4.7,0,1.1-.3,2.1-.6,2.7-.8,1.3-2.1,1.8-3,2.1-1.5.6-2.9.7-6.7.5-2.2,0-4.5-.2-6.7-.5-.5,0-.9.3-1,.8s.3.9.8,1c2.3.2,4.6.4,6.8.5,1.1,0,1.9,0,2.7,0h0Z"/>
    <path class="st14" d="M131.9,102.3h24.4c3.3,0,6,2.7,6,6v3.1c1.4-.6,3.2-1.2,5.4-1.2h0c2,0,3.6.5,4.9,1v-3c0-3.3,2.7-6,6-6h24.4c3.3,0,6,2.7,6,6v15.8c0,3.3-2.7,6-6,6h-24.4c-3.3,0-6-2.7-6-6v-9.8c-1.1-.6-2.8-1.3-4.9-1.3h0c-2.4,0-4.2.8-5.4,1.5v9.6c0,3.3-2.7,6-6,6h-24.4c-3.3,0-6-2.7-6-6v-15.8c0-3.3,2.7-6,6-6h0ZM175.4,124.1c0,1.8,1.4,3.2,3.2,3.2h24.4c1.8,0,3.2-1.4,3.2-3.2v-15.8c0-1.8-1.4-3.2-3.2-3.2h-24.4c-1.8,0-3.2,1.4-3.2,3.2v15.8ZM128.7,124.1c0,1.8,1.4,3.2,3.2,3.2h24.4c1.8,0,3.2-1.4,3.2-3.2v-15.8c0-1.8-1.4-3.2-3.2-3.2h-24.4c-1.8,0-3.2,1.4-3.2,3.2,0,0,0,15.8,0,15.8Z"/>
    <path class="st10" d="M74.8,263c0,.8-10.2,74.7-10.2,95.4v39.6h-2v-39.6c0-20.8,10.1-94.9,10.2-95.6,0-.5.6-.9,1.1-.9.5,0,.9.6.8,1.1h0Z"/>
    <path class="st10" d="M204.2,375.5v11.2c-.3,0-.7-.5-.7-1l-3.6-127.9c0-.6.4-1,1-1,.6,0,1,.4,1,1l3.3,118-1-.3h0Z"/>
    <path class="st10" d="M228.3,295.5l-13.9,26.7c-.2.3-.5.5-.9.5s-.3,0-.5-.1c-.5-.2-.7-.9-.4-1.3l12.2-23.4c.2,1.1.3,1.6.3,1.6l3.3-4.1Z"/>
    <path class="st15" d="M323.2,264c-6.8,6.9-22.6,23.3-45.1,36.5l-30.2-25.8s7.4-47.2,15.5-53.3c8-6.1,9.5,19,9.6,25.7,0,0,32-22,37-23.6,4.5-1.5,9.2-1.9,9.2,2.8-5.3,3.9-19.1,14.5-26.9,22.5l-.6.6.5.7c0,0,7,8.8,7.9,15.2,0,.5.5.9,1,.9h.1c.5,0,.9-.6.9-1.1-.3-2-1-4.1-2-6.2l27.1-17.9c1.9,1.4,4.1,4.4-1.2,10.4l-24.7,17.8c-.4.3-.5.9-.2,1.4.2.3.5.4.8.4s.4,0,.6-.2l21.6-15.6c1.7,1.2,3.9,4-.9,8.9h0Z"/>
    <path class="st15" d="M294.4,249.6c8.5-8.5,23.2-19.6,27.2-22.5,0,0,0,0,0,0,2.1-.6,5-.9,6.8,1.1,2.5,3.1,1,7.8-1.5,10.6l-27.6,18.2c-1.8-3.3-3.9-6.2-4.8-7.5Z"/>
    <path class="st13" d="M300.1,258.8c1,2.1,1.7,4.2,2,6.2,0,.5-.3,1-.9,1.1h-.1c-.5,0-.9-.4-1-.9-.9-6.4-7.8-15.1-7.9-15.2l-.5-.7.6-.6c7.8-8,21.6-18.6,26.9-22.5,0,.5,0,1.1-.2,1.8,0,0,1.1-.6,2.5-1-3.9,2.9-18.7,14-27.2,22.5,1,1.3,3.1,4.1,4.8,7.5l27.6-18.2c-.4.5-.9.9-1.3,1.3,0,0,.8.3,1.7.9l-27.1,17.9h0Z"/>
    <path class="st13" d="M322.9,254.5s.6.2,1.3.7l-21.6,15.5c-.2.1-.4.2-.6.2-.3,0-.6-.1-.8-.4-.3-.5-.2-1.1.2-1.4l24.7-17.8c-.9,1-1.9,2-3.2,3.1h0Z"/>
  </g>
  <g>
    <path class="st9" d="M420.7,186s-40,8.2-51.2,36-23.2,85-23.2,85l34,5.9-.5,85.1h158l2.3-14.6-23-69.4,63.4-8.2-13.3-67.3c-4.7-23.8-21.7-43.2-44.6-51.1-16.8-5.7-34.1-11.2-39.8-11.4l-62,10h0Z"/>
    <path class="st11" d="M378.6,320.3h0c-.5,0-1-.5-.9-1.1l4-68c0-.6.5-1,1.1-.9.5,0,1,.5.9,1.1l-4,68c0,.5-.5.9-1,.9Z"/>
    <path class="st11" d="M519.6,319.8c-.4,0-.8-.3-1-.8l-15.6-60c-.1-.5.2-1.1.7-1.2.5-.1,1.1.2,1.2.7l15.6,60c.1.5-.2,1.1-.7,1.2,0,0-.2,0-.2,0h0Z"/>
    <path class="st4" d="M538.7,392.4c-2-.8-4-1.7-6-2.6-27.2-12.1-58.2-30.1-61.8-31.5-3.6-1.4-12.4-3.8-16.7-4.6-4.2-.9-29.1-6.1-39.1-10.5-9.2-4.1-13.1-5.3-14.5-13.2,4.9,2.6,14.8,7.3,27.4,10.6,0,0,.2,0,.2,0,.4,0,.9-.3,1-.7.1-.5-.2-1.1-.7-1.2-14.5-3.8-25.3-9.5-28.9-11.5-2.1-1.8-7.7-7.5-5.3-13.6,5.2,3.1,18.8,10.6,35.9,14.7,0,0,.1,0,.2,0,.5,0,.9-.3,1-.8.1-.5-.2-1.1-.7-1.2-20.3-4.8-35.4-14.4-37.4-15.7h0c-1.3-2-2.9-5.2-2.8-8,.1-3.6,2.4-5.1,5-4.7,3.3,2.6,14.2,10.4,34.8,16.2,0,0,.2,0,.3,0,.4,0,.8-.3,1-.7.1-.5-.1-1.1-.7-1.2-19-5.4-29.8-12.6-33.5-15.4-.3-2.6-.2-6.9,4.3-7.9,6.5-1.4,47.3,14.3,47.3,14.3,0,0-9.2-12.3-8.7-21.3s3.9-6,7.3-3.2c3.4,2.7,20.1,17.9,25.4,24.2,5.3,6.3,8.7,10.4,8.7,10.4l34.8,13.9,3.6,1.4c0,0,.2,0,.2,0l.6.2h0c5.2,1.7,15.1,4.9,26.1,7.8,0,0,.2,0,.2,0,.4,0,.8-.3,1-.8.1-.5-.2-1.1-.7-1.2-11.8-3.1-22.3-6.5-27.1-8.2l-3-12.5,58.5-7.5,5.8,53.7c2.5,23.4-20.8,41.1-42.6,32.3h0Z"/>
    <polygon class="st4" points="352.9 308.2 335.8 398 379.7 398 380.2 312.9 352.9 308.2"/>
    <path class="st1" d="M431.3,313.4c-.1.4-.5.7-1,.7s-.2,0-.3,0c-20.5-5.8-31.5-13.6-34.8-16.2.7.1,1.5.4,2.2.8,0,0-.2-.8-.4-1.9,3.7,2.8,14.5,10,33.5,15.4.5.1.8.7.7,1.2h0Z"/>
    <path class="st1" d="M431.3,327.5c-.1.5-.5.8-1,.8s-.1,0-.2,0c-17.2-4.1-30.7-11.5-35.9-14.7.1-.3.3-.6.4-.9,0,0-.6-.8-1.4-2,2,1.3,17.1,10.9,37.4,15.7.5.1.9.7.7,1.2h0Z"/>
    <path class="st1" d="M429.1,339.9c-.1.4-.5.7-1,.7s-.2,0-.2,0c-12.6-3.3-22.5-8-27.4-10.6-.1-.7-.2-1.4-.3-2.2,0,0-.3-.2-.7-.6,3.6,2,14.4,7.8,28.9,11.5.5.1.9.7.7,1.2h0Z"/>
    <path class="st1" d="M547.9,335.8c-.1.5-.5.8-1,.8s-.2,0-.2,0c-11-2.9-20.8-6-26.1-7.8l-.5-2.3c4.8,1.6,15.3,5.1,27.1,8.2.5.1.8.7.7,1.2Z"/>
    <path class="st4" d="M388.1,62.8s-3.8,6.1-5,19.9,0,39.2,0,39.2c0,0,0,48.9,38,50.3,0,0-1.5,21.4.8,25.5s11.1,8.6,21.1,7.9,28.6-4.9,41-27.3c0,0-5.9-10.1-6.1-16.5s0-28.2,0-28.2c0,0,31.9-7.4,12.8-37.8l-7.4-12.3-18,4.2-4.9-35.2-71-.5-1.3,10.7h0Z"/>
    <path class="st16" d="M400.6,84.7c-.2,0-.4,0-.6-.1-2-.9-4.2-1.4-6.4-1.3-1.9,0-3.7.4-5.4,1.1-.8.3-1.6,0-2-.8s0-1.6.8-1.9c2.1-.8,4.3-1.3,6.5-1.3,2.6,0,5.3.5,7.7,1.6.8.3,1.1,1.2.8,2-.2.6-.8.9-1.4.9Z"/>
    <path class="st16" d="M428.1,84.2c-.5,0-1.1-.3-1.4-.8-.4-.7,0-1.6.7-2,2.1-1,4.4-1.6,6.7-1.8,2.7-.2,5.4.3,7.9,1.4.8.3,1.1,1.2.8,2-.3.8-1.2,1.1-2,.8-2.1-.9-4.3-1.3-6.6-1.2-1.9.1-3.8.6-5.5,1.5-.2,0-.4.2-.7.2h0Z"/>
    <path class="st0" d="M394.1,96.9c-2.3.2-3.8,2.5-3.7,4.6.1,2.2,2,4.4,4.3,4.3,2.4-.2,4-2.7,3.7-4.9-.2-2.1-2.1-4.1-4.3-3.9h0Z"/>
    <path class="st0" d="M432.3,96.2c-2.3.2-3.8,2.5-3.7,4.6.1,2.2,2,4.4,4.3,4.3,2.4-.2,4-2.7,3.7-4.9-.2-2.1-2.1-4.1-4.3-3.9h0Z"/>
    <path class="st16" d="M415.8,126.9c-5.1,0-11-.4-11.9-2.3-.5-1.1-1.5-6.8-.6-11.8.9-5.1,5.7-11.2,6-11.4.4-.4,1-.5,1.4-.2s.5,1,.2,1.4c0,0-4.8,6-5.5,10.5-.8,4.5.1,9.7.5,10.6.5.4,3.2,1.3,10.9,1.2h0c.5,0,1,.4,1,1s-.4,1-1,1h-.8ZM405.7,123.8h0ZM405.7,123.7h0Z"/>
    <path class="st16" d="M414.6,146c-4.9,0-8.4-1.1-8.6-1.2-.5-.2-.8-.8-.6-1.3s.8-.8,1.3-.6c.1,0,13.5,4.5,25.4-4.9.4-.3,1.1-.3,1.4.2.3.4.3,1.1-.2,1.4-6.6,5.2-13.4,6.4-18.6,6.4h0Z"/>
    <path class="st16" d="M388.1,62.8s-8.4-20.5,15.1-30.4,58.7-7.4,75.2,8.6,18.6,40.9,12.3,54.9c0,0-14.3-8.6-23.2,9.2,0,0-16.1-12.1-10.9-49,0,0-44.8,6.9-64.6-1.8,0,0-3.8,8.5-3.8,8.5Z"/>
  </g>
</svg>