<?xml version="1.0" encoding="UTF-8"?>
<svg xmlns="http://www.w3.org/2000/svg" viewBox="0 0 562.98 481.21">
  <defs>
    <style>
      .cls-1 {
        fill: #46c068;
      }

      .cls-2 {
        fill: #019be1;
      }

      .cls-3 {
        fill: #3a89ff;
      }

      .cls-4, .cls-5 {
        fill: #fff;
      }

      .cls-6 {
        fill: #3c435f;
      }

      .cls-5, .cls-7, .cls-8 {
        isolation: isolate;
      }

      .cls-9 {
        fill: #fe6c49;
      }

      .cls-10 {
        fill: #adabaf;
      }

      .cls-11 {
        fill: #2f2f2f;
      }

      .cls-12 {
        fill: #3185f6;
      }

      .cls-13 {
        fill: #42362e;
      }

      .cls-14 {
        fill: #2d79e1;
      }

      .cls-15 {
        fill: #46bf68;
      }

      .cls-16 {
        fill: #358aff;
      }

      .cls-17 {
        fill: #7e746b;
      }

      .cls-18 {
        fill: #2866d8;
      }

      .cls-19 {
        fill: #ff764b;
      }

      .cls-20 {
        fill: #4c3424;
      }

      .cls-21 {
        fill: #8cbf52;
      }

      .cls-22 {
        fill: #b37660;
      }

      .cls-8 {
        fill: #011c63;
        mix-blend-mode: multiply;
      }

      .cls-23 {
        fill: #358cff;
      }

      .cls-24 {
        fill: #523826;
      }

      .cls-25 {
        fill: #a0968e;
      }

      .cls-26 {
        fill: #fffffd;
      }

      .cls-27 {
        fill: #f2b68f;
      }

      .cls-28 {
        fill: #ffc956;
      }

      .cls-29 {
        fill: #343b4e;
      }

      .cls-30 {
        fill: #fffffe;
      }
    </style>
  </defs>
  <g class="cls-7">
    <g id="Livello_1" data-name="Livello 1">
      <g>
        <g>
          <path class="cls-5" d="M82.57,143.57c29.83,0,54.1-24.27,54.1-54.11s-24.27-54.11-54.1-54.11-54.11,24.27-54.11,54.11,24.27,54.11,54.11,54.11Z"/>
          <path class="cls-5" d="M115.47,183.22c-1.66-6.74-7.66-11.45-14.6-11.45H17.49c-4.81,0-9.3,2.32-12.12,6.16-3.57,2.85-5.37,9.39-5.37,19.54v90.21c0,12.76,4.87,24.86,13.71,34.05l27.3,28.42c2.31,2.4,5.46,3.88,8.84,4.17l.22.06h7.02l.54,1.91c2.18,7.72,9.3,13.11,17.32,13.11h50.95c3.54,0,6.8-1.62,8.94-4.45,2.14-2.83,2.81-6.4,1.84-9.8l-.34-1.2c5.94-1.53,10.35-6.94,10.35-13.35v-25.1c.4-2.13.34-4.27-.18-6.37l-31.04-125.89Z"/>
          <path class="cls-5" d="M498.93,315.36c-.56-2.48-1.14-5.14-1.75-7.93-7.44-34.17-18.69-85.81-51.49-104.31-26.66-15.03-52.76-24.76-62.7-28.24-.18-3.51-.55-7.2-1.11-11.03,1.24-2.75,3.3-7.75,4.26-12.42,5.98-2.3,16.6-7.76,20.43-18.54,3.26-9.16.88-19.57-7.06-30.98,9.66-39.23-8.45-57.05-13.94-61.42-8.75-15.62-29.5-24.54-57.28-24.54-16.55,0-33.58,3.22-46.72,8.83-8.34,3.55-14.04,9.41-16.95,17.4-6.01,16.53,2.3,37.02,5.29,43.48-.21,1.43-.51,3.6-.81,6.36-5.33,1.5-9.25,6.4-9.25,12.19v17.24c0,5.67,3.74,10.48,8.89,12.1,1.7,16.04,5.72,29.3,11.97,39.47,5.56,9.05,12.78,15.58,21.56,19.55-10.14,4.58-21.79,10.82-28.67,17.7-10.77,10.77-23.82,36.19-31.15,59.48l-8.95-18.43-5.06,2.87c-.2-.63-.35-1.34-.41-2.12-.18-2.19,0-6.08.18-10.2.3-6.59.64-14.07-.24-19.52-.11-.68-.21-1.35-.31-2.02-1.04-7.01-2.58-17.36-16.01-19.25-1.59-1.92-4.16-4.77-7.41-7.5-4.85-4.09-44.47-40.32-44.87-40.68l-.13-.12-.13-.11c-.72-.58-4.54-3.5-9.62-3.5-3.46,0-6.65,1.35-9.22,3.92-2.12,2.12-3.22,4.83-3.2,7.85.05,6.66,5.88,12.84,7.36,14.3l20.38,21.84c-3.38,2.79-5.41,5.91-5.96,9.19-4.86,3.12-7.78,7.44-8.29,12.13-2.78,1.42-5.83,3.76-7.51,7.55-1.24,2.81-2.1,7.44.86,13.54,6.23,12.84,23.59,30.43,28.2,33.64,3.36,2.34,5.85,3.97,8.89,4.93.23.78.41,1.81.52,2.76l-4.97,2.82,1.43,4.73c.1.33,10.18,33.69,19.64,58.64,4.89,12.91,17.89,47.21,47.1,47.21h0c5.74,0,11.81-1.34,18.09-3.99v64.32h11.68v26.65h224.57v-6.19c0-8.57-.65-15.58-1.31-20.45h3.77l.5-5.65c7.69-87.74,4.74-100.23-1.14-125.1-.62-2.64-1.28-5.42-1.96-8.46Z"/>
          <path class="cls-5" d="M554.31,102.11c-25.95-.67-38.99-11.86-39.08-11.94l-4.12-3.67-4.14,3.64c-.13.11-13.17,11.31-39.13,11.98-1.98.06-3.79.75-5.23,1.87,0-.06.02-.11.03-.17l2.98-18.89h7.38c17.55,0,32.29-12.59,35.03-29.92l1.65-10.32h-1.12c-.92-6.19-4.27-11.86-9.32-15.64l.82-5.22h-.96c-.59-5.28-2.73-10.31-6.26-14.44-5.1-5.97-12.52-9.39-20.38-9.39h-39.34c-5.16,0-9.46,3.7-10.23,8.76l-12.58,79.88c-.46,3,.4,6.03,2.37,8.33,1.97,2.3,4.84,3.62,7.87,3.62h10.57l-.02.15c-.46,2.82.34,5.69,2.2,7.87,1.86,2.18,4.56,3.43,7.42,3.43h12.32c2.38,0,4.56-.84,6.26-2.26-.05.4-.09.8-.09,1.21v34.32c0,30.39,20.36,57.63,49.49,66.23.78.23,1.59.35,2.41.35s1.63-.12,2.39-.35c29.15-8.61,49.5-35.85,49.5-66.24v-34.32c0-4.84-3.8-8.75-8.66-8.88Z"/>
        </g>
        <g>
          <polygon class="cls-25" points="448.62 448.38 448.62 475.02 280.69 475.02 280.69 414.38 362.55 414.38 448.62 448.38"/>
          <polygon class="cls-4" points="323.06 190.93 376.92 179.35 381.87 190.93 368.52 319.65 362.55 414.38 300.37 414.38 300.37 276.32 312.66 207.11 323.06 190.93"/>
          <path class="cls-3" d="M305.64,448.38h-36.62v-68.24c-.94.57-1.86,1.09-2.77,1.58-37.05,20.26-53.58-12.46-62.84-36.88-9.49-25.04-19.5-58.23-19.5-58.23l46.9-26.61,12.43,25.58,1.01,2.08c.17-.89.35-1.79.54-2.69,5.36-25.03,20.99-58.09,33.19-70.29s45.09-23.74,45.09-23.74c-23.16,53.74-17.42,257.45-17.42,257.45Z"/>
          <path class="cls-3" d="M376.92,179.35s32.7,10.54,65.73,29.16c33.02,18.62,43.21,76.94,50.24,108.2s11.42,35.48,2.99,131.65h-134.9s-7.9-139.38,3.16-184.7c11.07-45.32,14.23-67.89,12.79-84.31Z"/>
          <path class="cls-27" d="M490.43,448.37s2.46,10.35,2.46,26.65h-59.72s-.35-13.39,11.59-26.65h45.67Z"/>
          <path class="cls-27" d="M164.41,210.59l11.1,13.16c-1.3,1.99-1.75,3.95-.42,5.69.13.17.26.33.38.51,1.23,1.67,2.79,3.78,7.06,3.78.39,0,.82-.02,1.26-.06-.09,2.85-.86,4.79-2.28,5.76-2.19,1.49-5.43.36-5.99.15-2.77-1.79-12.72-12.33-17.65-17.7-.27-.29-.67-.39-1.03-.29-1.36-6.3,4.96-10.05,7.41-11.24.03.08.09.17.15.25Z"/>
          <path class="cls-27" d="M164.94,208.91c-.73-4.79,6.05-8.81,8.57-10.13.03.08.08.15.14.23l13.28,14.96c-2.94,1.63-5.16,3.29-6.79,4.76-1.2,1.07-2.37,2.2-3.35,3.33l-10.79-12.81c-.27-.31-.68-.43-1.05-.34Z"/>
          <path class="cls-27" d="M187.57,284.51c.77-2.78-.5-11.44-3.22-11.97-2.72-.53-4.65-1.66-8.7-4.48-4.04-2.81-20.55-19.67-26.17-31.26-4.67-9.63,3.68-13.09,6.65-13.96.04.15.12.3.24.42.56.62,13.3,14.51,17.58,17.72-.25,1.69-1.32,6.59-5.76,7.36-4.54.78-11.97-7.63-14.46-10.93-.34-.45-.99-.55-1.44-.21-.45.34-.55.99-.21,1.44.95,1.26,9.07,11.81,15.52,11.81.32,0,.63-.03.94-.08,5.31-.91,6.89-6.08,7.35-8.52.74.2,1.74.38,2.83.38,1.29,0,2.7-.27,3.95-1.1,2.06-1.4,3.13-4.02,3.19-7.77,1.01-.19,2.12-.45,3.36-.85,1.66-.51,3.27-1.01,4.8-1.5-.89,2.56-2.31,7.22-2.8,12.19-.73,7.55,3.08,12.01,3.24,12.2.21.23.49.35.77.35.24,0,.49-.08.68-.26.42-.37.47-1.02.1-1.46-.04-.04-3.4-4-2.75-10.64.58-5.94,2.63-11.6,3.23-13.17,6.03-1.91,10.33-3.32,10.38-3.34.55-.18.84-.76.66-1.3-.18-.55-.76-.84-1.3-.66-.08.03-8.1,2.67-17.64,5.61-8.26,2.55-9.97.23-11.48-1.83-.13-.19-.27-.36-.4-.54-1.12-1.46.4-3.97,4.79-7.92,3.68-3.3,10.6-7.75,22.61-10.11,10.55-2.07,13.23,3.47,13.35,3.72.23.52.84.75,1.35.52.53-.23.76-.84.53-1.36-.12-.3-3.36-7.32-15.63-4.89-6.18,1.22-11.07,2.97-14.91,4.87l-13.62-15.36c-.38-.42-1.03-.46-1.46-.08l-.02.02-24.86-26.65s-8.96-8.7-4.21-13.45c4.74-4.74,10.54,0,10.54,0,0,0,40.05,36.62,45.06,40.85,5.01,4.21,8.17,8.69,8.17,8.69,12.12.53,12.12,8.17,13.44,16.34,1.31,8.17-.53,22.93,0,29.25.53,6.33,4.55,9.89,4.55,9.89l-38.83,22.02Z"/>
          <path class="cls-18" d="M262.53,326.56c-.21.09-.42.13-.63.13-.59,0-1.16-.34-1.41-.91l-17.42-38.69c-.24-.52-.15-1.1.17-1.54l1.01,2.08c.17-.89.35-1.79.54-2.69.47.09.89.4,1.1.88l17.42,38.69c.35.77.01,1.69-.77,2.04Z"/>
          <path class="cls-18" d="M276.33,251.96c-8.57,20.9-7.2,127.9-7.18,128.98,0,.23-.04.44-.13.64v-1.44c-.94.57-1.86,1.09-2.77,1.58-.12-.22-.2-.46-.2-.73-.06-4.43-1.38-108.72,7.41-130.19.33-.78,1.24-1.17,2.02-.84.79.32,1.17,1.23.85,2.01Z"/>
          <path class="cls-18" d="M441.33,444.39c-.85,0-1.55-.69-1.55-1.55v-86.69c0-3.91-13.04-52.63-21.81-84.43-.23-.82.26-1.68,1.08-1.9.82-.22,1.68.26,1.9,1.08,2.24,8.14,21.92,79.67,21.92,85.25v86.69c0,.85-.69,1.55-1.55,1.55Z"/>
          <path class="cls-17" d="M342.54,475.02h-3.12l-2.13-15.38c-.11-.85.47-1.62,1.33-1.74.84-.1,1.62.47,1.74,1.33l2.17,15.79Z"/>
          <path class="cls-22" d="M218.84,214.37c-.52.24-1.12,0-1.35-.52-.12-.25-2.81-5.79-13.35-3.72-12.01,2.36-18.93,6.81-22.61,10.11-4.39,3.94-5.91,6.46-4.79,7.92.13.18.27.35.4.54,1.51,2.05,3.22,4.38,11.48,1.83,9.54-2.94,17.55-5.58,17.64-5.61.54-.18,1.12.11,1.3.66.18.54-.11,1.12-.66,1.3-.05.02-4.35,1.43-10.38,3.34-.6,1.57-2.65,7.22-3.23,13.17-.65,6.64,2.7,10.6,2.75,10.64.37.43.32,1.08-.1,1.46-.2.18-.44.26-.68.26-.29,0-.57-.12-.77-.35-.17-.19-3.97-4.64-3.24-12.2.49-4.96,1.91-9.63,2.8-12.19-1.53.49-3.14.99-4.8,1.5-1.25.39-2.35.66-3.36.85-.06,3.75-1.12,6.37-3.19,7.77-1.25.84-2.66,1.1-3.95,1.1-1.08,0-2.08-.19-2.83-.38-.45,2.45-2.03,7.62-7.35,8.52-.31.05-.62.08-.94.08-6.45,0-14.57-10.55-15.52-11.81-.34-.45-.25-1.1.21-1.44.45-.34,1.1-.25,1.44.21,2.49,3.3,9.92,11.71,14.46,10.93,4.44-.76,5.51-5.67,5.76-7.36-4.28-3.21-17.03-17.1-17.58-17.72-.11-.12-.2-.27-.24-.42.61-.2.99-.27.99-.27-.11-.34-.21-.67-.27-.99.36-.1.76,0,1.03.29,4.92,5.37,14.88,15.91,17.65,17.7.56.21,3.8,1.33,5.99-.15,1.42-.97,2.19-2.91,2.28-5.76-.44.04-.87.06-1.26.06-4.27,0-5.83-2.11-7.06-3.78-.12-.18-.25-.34-.38-.51-1.33-1.73-.88-3.69.42-5.69l-11.1-13.16c-.06-.08-.12-.17-.15-.25.58-.28.94-.42.94-.42-.12-.34-.22-.67-.26-1,.37-.09.78.03,1.05.34l10.79,12.81c.98-1.14,2.16-2.26,3.35-3.33,1.63-1.47,3.85-3.13,6.79-4.76l-13.28-14.96c-.06-.07-.11-.14-.14-.23.57-.29.92-.45.92-.45l-.7-.75.02-.02c.42-.38,1.07-.34,1.46.08l13.62,15.36c3.84-1.9,8.73-3.65,14.91-4.87,12.27-2.43,15.51,4.59,15.63,4.89.24.53,0,1.14-.53,1.36Z"/>
          <path class="cls-27" d="M274.52,59.07l1.79,25.71s-18.04,103.95,46.74,106.14c0,0-1.99,5.78-1.69,13.95.3,8.17,10.46,13.75,22.42,13.26,11.96-.5,39.77-4.29,31.69-55.21,0,0,5.08-10.46,4.98-16.15,0,0,38.17-9.37,12.36-43.55l-3.29-11.86-24.52-8.67-9.47-28.8-48.44,10.56-32.59-5.38h0Z"/>
          <path class="cls-20" d="M276.31,84.69s-21.53-41.76,7.67-54.22c29.2-12.46,82.92-13.36,96.77,14.15,0,0,23.82,15.25,12.06,58.4,0,0-9.97-7.28-24.02,12.46,0,0-4.98-12.06-3.69-26.31,0,0-13.65-12.26-12.06-32.19,0,0-40.16,19.43-75.35,9.57l-1.4,18.24h0v-.1Z"/>
          <path class="cls-11" d="M319.49,163.52c-4.25.72-8.64.59-12.95-.31-.57-.12-.99-.71-.77-1.29.12-.57.71-.99,1.27-.87,4.54.98,9.23.94,13.77-.04,6.83-1.6,11.71-5.05,14.65-7.74.48-.41,1.13-.41,1.54.07s.41,1.13-.07,1.54c-3.02,2.81-8.27,6.65-15.65,8.24l-1.81.31.02.11Z"/>
          <path class="cls-20" d="M280.1,94.36s.7-4.39,8.17-4.78,11.46.3,11.16,2.39-7.28.9-11.06,1.2-5.88.6-8.27,1.3h0v-.1Z"/>
          <path class="cls-20" d="M345.48,94.36s-.7-4.39-8.17-4.78-11.46.3-11.16,2.39,7.28.9,11.06,1.2,5.88.6,8.27,1.3h0v-.1Z"/>
          <path class="cls-13" d="M291.49,108.11c-3.09,0-5.48,2.49-5.48,5.58s2.49,5.58,5.48,5.58,4.19-1.3,4.98-3.19c.3-.7.5-1.49.5-2.29,0-1.69-.7-3.09-1.89-4.09,0,0-2.19-1.59-3.59-1.59Z"/>
          <path class="cls-13" d="M334.84,108.11c-3.09,0-5.48,2.49-5.48,5.58s2.49,5.58,5.48,5.58,4.19-1.3,4.98-3.19c.3-.7.5-1.49.5-2.29,0-1.69-.7-3.09-1.89-4.09,0,0-2.19-1.59-3.59-1.59Z"/>
          <path class="cls-11" d="M309.2,145.58c-2.39,0-3.79-.2-5.18-.8-1.1-.4-2.99-1.2-4.19-3.09-.6-1-1-2.39-1-3.99s.5-3.79,1.3-5.88l.3-.8c1.1-3.09,1.99-5.68,2.49-8.37.3-1.89.4-3.79.2-5.78,0-.6.4-1,.9-1.1.6,0,1,.4,1.1.9.2,2.09,0,4.19-.3,6.28-.5,2.89-1.49,5.58-2.59,8.77l-.3.8c-.8,2.09-1.2,3.29-1.2,5.18s.3,2.29.7,2.99c.9,1.4,2.29,1.89,3.19,2.29,1.59.6,3.19.7,7.28.6,2.39,0,4.88-.3,7.38-.5.6,0,1,.3,1.1.9s-.4,1-.9,1.1c-2.49.2-4.98.4-7.47.5h-2.99.2Z"/>
          <path class="cls-24" d="M349.67,97.74h-26.51c-3.59,0-6.48,2.89-6.48,6.48v3.39c-1.49-.7-3.49-1.3-5.78-1.3h0c-2.09,0-3.99.5-5.38,1.1v-3.19c0-3.59-2.89-6.48-6.48-6.48h-26.51c-3.59,0-6.48,2.89-6.48,6.48v17.24c0,3.59,2.89,6.48,6.48,6.48h26.51c3.59,0,6.48-2.89,6.48-6.48v-10.66c1.2-.7,3.09-1.4,5.38-1.4h0c2.59,0,4.58.9,5.78,1.69v10.46c0,3.59,2.89,6.48,6.48,6.48h26.51c3.59,0,6.48-2.89,6.48-6.48v-17.24c0-3.59-2.89-6.48-6.48-6.48h0v-.1ZM302.33,121.46c0,1.89-1.59,3.49-3.49,3.49h-26.51c-1.89,0-3.49-1.59-3.49-3.49v-17.24c0-1.89,1.59-3.49,3.49-3.49h26.51c1.89,0,3.49,1.59,3.49,3.49,0,0,0,17.24,0,17.24ZM353.15,121.46c0,1.89-1.59,3.49-3.49,3.49h-26.51c-1.89,0-3.49-1.59-3.49-3.49v-17.24c0-1.89,1.59-3.49,3.49-3.49h26.51c1.89,0,3.49,1.59,3.49,3.49,0,0,0,17.24,0,17.24Z"/>
        </g>
        <g>
          <g>
            <circle class="cls-15" cx="82.57" cy="89.47" r="47.91"/>
            <path class="cls-4" d="M73.7,108.11h0c-.82,0-1.6-.33-2.18-.9l-13.39-13.39c-1.2-1.2-1.2-3.16,0-4.36,1.2-1.2,3.16-1.2,4.36,0l11.21,11.21,28.93-28.93c1.2-1.2,3.16-1.2,4.36,0s1.2,3.16,0,4.36l-31.11,31.11c-.58.58-1.36.9-2.18.9Z"/>
          </g>
          <g>
            <path class="cls-12" d="M9.76,182.52s-3.57.71-3.57,14.94v90.21c0,11.1,4.29,21.76,11.98,29.76l27.29,28.41c1.43,1.49,3.41,2.33,5.48,2.33h81.96c4.2,0,7.6-3.4,7.6-7.6v-29.98L9.76,182.52Z"/>
            <path class="cls-14" d="M47.71,344.99v-23.48l92.79-10.93v29.98c0,4.2-3.4,7.6-7.6,7.6H50.88c-1.75,0-3.18-1.42-3.18-3.18Z"/>
            <path class="cls-23" d="M131.9,321.56H48.53c-4.07,0-7.62-2.78-8.59-6.73l-31.04-125.9c-1.38-5.58,2.85-10.97,8.59-10.97h83.37c4.07,0,7.62,2.78,8.59,6.73l31.04,125.9c1.38,5.58-2.85,10.97-8.59,10.97Z"/>
            <path class="cls-6" d="M119.04,305.41H54.42c-3.16,0-5.91-2.15-6.66-5.22l-24.06-97.58c-1.07-4.32,2.21-8.5,6.66-8.5h64.62c3.16,0,5.91,2.15,6.66,5.22l24.06,97.58c1.07,4.32-2.21,8.5-6.66,8.5Z"/>
            <path class="cls-10" d="M62.26,264.38l-1.3-5.21c-.23-.93-1.07-1.58-2.02-1.57l-9.76.03c-1.35,0-2.34,1.27-2.01,2.58l1.3,5.21c.23.93,1.07,1.58,2.02,1.57l9.76-.03c1.35,0,2.34-1.27,2.01-2.58Z"/>
            <path class="cls-10" d="M65.95,280.39l-1.3-5.21c-.23-.93-1.07-1.58-2.02-1.57l-9.76.03c-1.35,0-2.34,1.27-2.01,2.58l1.3,5.21c.23.93,1.07,1.58,2.02,1.57l9.76-.03c1.35,0,2.34-1.27,2.01-2.58Z"/>
            <path class="cls-10" d="M86.42,264.38l-1.3-5.21c-.23-.93-1.07-1.58-2.02-1.57l-9.76.03c-1.35,0-2.34,1.27-2.01,2.58l1.3,5.21c.23.93,1.07,1.58,2.02,1.57l9.76-.03c1.35,0,2.34-1.27,2.01-2.58Z"/>
            <path class="cls-4" d="M107.69,241.73l-9.57-38.38c-.42-1.67-1.92-2.84-3.64-2.83l-61.09.16c-2.43,0-4.21,2.29-3.62,4.64l9.57,38.38c.42,1.67,1.92,2.84,3.64,2.83l61.09-.16c2.43,0,4.21-2.29,3.62-4.64Z"/>
            <path class="cls-10" d="M90.11,280.39l-1.3-5.21c-.23-.93-1.07-1.58-2.02-1.57l-9.76.03c-1.35,0-2.34,1.27-2.01,2.58l1.3,5.21c.23.93,1.07,1.58,2.02,1.57l9.76-.03c1.35,0,2.34-1.27,2.01-2.58Z"/>
            <path class="cls-10" d="M110.93,264.38l-1.3-5.21c-.23-.93-1.07-1.58-2.02-1.57l-9.76.03c-1.35,0-2.34,1.27-2.01,2.58l1.3,5.21c.23.93,1.07,1.58,2.02,1.57l9.76-.03c1.35,0,2.34-1.27,2.01-2.58Z"/>
            <path class="cls-10" d="M114.62,280.39l-1.3-5.21c-.23-.93-1.07-1.58-2.02-1.57l-9.76.03c-1.35,0-2.34,1.27-2.01,2.58l1.3,5.21c.23.93,1.07,1.58,2.02,1.57l9.76-.03c1.35,0,2.34-1.27,2.01-2.58Z"/>
            <path class="cls-9" d="M69.69,296.16l-1.3-5.21c-.23-.93-1.07-1.58-2.02-1.57l-9.76.03c-1.35,0-2.34,1.27-2.01,2.58l1.3,5.21c.23.93,1.07,1.58,2.02,1.57l9.76-.03c1.35,0,2.34-1.27,2.01-2.58Z"/>
            <path class="cls-28" d="M93.85,296.16l-1.3-5.21c-.23-.93-1.07-1.58-2.02-1.57l-9.76.03c-1.35,0-2.34,1.27-2.01,2.58l1.3,5.21c.23.93,1.07,1.58,2.02,1.57l9.76-.03c1.35,0,2.34-1.27,2.01-2.58Z"/>
            <path class="cls-21" d="M118.36,296.16l-1.3-5.21c-.23-.93-1.07-1.58-2.02-1.57l-9.76.03c-1.35,0-2.34,1.27-2.01,2.58l1.3,5.21c.23.93,1.07,1.58,2.02,1.57l9.76-.03c1.35,0,2.34-1.27,2.01-2.58Z"/>
            <path class="cls-29" d="M54,332.89h76.12c1.77,0,3.2,1.5,3.2,3.36h0c0,1.86-1.43,3.36-3.2,3.36H54c-1.77,0-3.2-1.5-3.2-3.36h0c0-1.86,1.43-3.36,3.2-3.36Z"/>
            <path class="cls-19" d="M58.41,336.25l5.18,18.34c1.44,5.09,6.08,8.6,11.37,8.6h50.95c3.33,0,5.73-3.18,4.82-6.38l-5.83-20.56H58.41Z"/>
            <path class="cls-26" d="M105.92,336.25l4.94,16.01c.43,1.41,1.73,2.37,3.21,2.37h0c2.2,0,3.81-2.08,3.24-4.21l-3.75-14.16h-7.64Z"/>
          </g>
        </g>
        <g>
          <path class="cls-16" d="M556.78,110.98v34.33c0,27.9-18.38,52.42-45.07,60.3-.42.12-.86.12-1.28,0-26.7-7.88-45.07-32.4-45.07-60.3v-34.33c0-1.45,1.17-2.65,2.63-2.69,28.9-.74,43.07-13.54,43.07-13.54,0,0,14.17,12.8,43.07,13.54,1.46.04,2.63,1.23,2.63,2.69Z"/>
          <g>
            <path class="cls-30" d="M511.08,121.39c-7.65,0-13.87,6.22-13.87,13.87v8h2.85v-8c0-6.08,4.94-11.02,11.02-11.02s11.02,4.94,11.02,11.02v8h2.85v-8c0-7.65-6.22-13.87-13.87-13.87Z"/>
            <rect class="cls-1" x="489.58" y="143.26" width="43" height="35.8" rx="2.83" ry="2.83"/>
            <path class="cls-30" d="M517.44,157.46c0-3.51-2.85-6.36-6.36-6.36s-6.36,2.85-6.36,6.36c0,2.23,1.15,4.19,2.9,5.33v6.9h6.93v-6.9c1.74-1.13,2.9-3.1,2.9-5.33Z"/>
          </g>
        </g>
        <g>
          <path class="cls-5" d="M492.46,32.17l.34-2.15h-.01c1.98-12.51-7.68-23.83-20.35-23.83h-39.35c-2.05,0-3.8,1.49-4.12,3.52l-12.57,79.87c-.4,2.53,1.56,4.82,4.12,4.82h17.81l-1.16,7.34c-.34,2.16,1.33,4.12,3.51,4.12h12.32c1.75,0,3.25-1.28,3.51-3.01l3.8-24.12h12.67c14.41,0,26.67-10.48,28.92-24.7l.5-3.15h-.01c1.27-8.03-3.09-15.5-9.93-18.7Z"/>
          <g>
            <path class="cls-2" d="M502.39,50.87c1.69-10.67-6.56-20.35-17.38-20.35h-33.59c-1.75,0-3.25,1.28-3.51,3.01l-10.74,68.2c-.34,2.16,1.33,4.12,3.51,4.12h12.32c1.75,0,3.25-1.28,3.51-3.01l3.8-24.12h12.67c14.41,0,26.67-10.48,28.92-24.7l.5-3.15h-.01Z"/>
            <path class="cls-8" d="M492.79,30.02c1.98-12.51-7.68-23.83-20.35-23.83h-39.35c-2.05,0-3.8,1.49-4.12,3.52l-12.57,79.87c-.4,2.53,1.56,4.82,4.12,4.82h18l5-31.76h14.83c16.86,0,31.23-12.27,33.87-28.92l.58-3.69h-.01Z"/>
          </g>
        </g>
      </g>
    </g>
  </g>
</svg>