<?xml version="1.0" encoding="UTF-8"?>
<svg id="Livello_1" data-name="Livello 1" xmlns="http://www.w3.org/2000/svg" viewBox="0 0 684.26 821.59">
  <defs>
    <style>
      .cls-1 {
        fill: #fff;
      }

      .cls-1, .cls-2 {
        opacity: .75;
      }

      .cls-2 {
        fill: #bfbebe;
      }
    </style>
  </defs>
  <path class="cls-2" d="M620.01,146C604.12-8.16,406.13.08,406.13.08H141.29c-20.19,0-37.34,14.78-40.33,34.75L.12,709.53c-.99,6.59,4.12,12.52,10.79,12.52h151.82c5.4,0,9.99-3.95,10.79-9.29l33.87-226.6c2.98-19.97,20.13-34.75,40.32-34.75l104-.02c65.31,1.18,131.8-29.42,158.28-50.6,26.48-21.18,125.92-100.62,110.03-254.78Z"/>
  <path class="cls-1" d="M682.82,316.02c-13.33-135.3-179.45-128.07-179.45-128.07h-222.2c-16.94,0-31.33,12.97-33.84,30.5l-88.4,592.16c-.83,5.79,3.46,10.99,9.05,10.99h127.38c4.53,0,8.38-3.47,9.05-8.16l32.21-198.88c2.5-17.53,16.89-30.5,33.83-30.5l87.25-.02c54.8,1.03,110.58-25.82,132.8-44.41,22.22-18.59,105.64-88.31,92.32-223.61Z"/>
</svg>